<svg width="24" height="24" viewBox="0 0 24 24" fill="none" xmlns="http://www.w3.org/2000/svg">
<path fill-rule="evenodd" clip-rule="evenodd" d="M22.5 6.5C22.5 5.837 22.237 5.201 21.768 4.732C21.299 4.263 20.663 4 20 4C16.168 4 7.832 4 4 4C3.337 4 2.701 4.263 2.232 4.732C1.763 5.201 1.5 5.837 1.5 6.5V19C1.5 19.663 1.763 20.299 2.232 20.768C2.701 21.237 3.337 21.5 4 21.5H20C20.663 21.5 21.299 21.237 21.768 20.768C22.237 20.299 22.5 19.663 22.5 19V6.5Z" fill="#F3F5F8"/>
<path fill-rule="evenodd" clip-rule="evenodd" d="M22.5 6.5C22.5 5.837 22.237 5.201 21.768 4.732C21.299 4.263 20.663 4 20 4C16.168 4 7.832 4 4 4C3.337 4 2.701 4.263 2.232 4.732C1.763 5.201 1.5 5.837 1.5 6.5V9.5C1.5 9.776 1.724 10 2 10H22C22.276 10 22.5 9.776 22.5 9.5V6.5Z" fill="#FF485C"/>
<path fill-rule="evenodd" clip-rule="evenodd" d="M6.5 6V3C6.5 2.724 6.276 2.5 6 2.5C5.724 2.5 5.5 2.724 5.5 3V6C5.5 6.276 5.724 6.5 6 6.5C6.276 6.5 6.5 6.276 6.5 6Z" fill="#495056"/>
<path fill-rule="evenodd" clip-rule="evenodd" d="M12.5 6V3C12.5 2.724 12.276 2.5 12 2.5C11.724 2.5 11.5 2.724 11.5 3V6C11.5 6.276 11.724 6.5 12 6.5C12.276 6.5 12.5 6.276 12.5 6Z" fill="#495056"/>
<path fill-rule="evenodd" clip-rule="evenodd" d="M18.5 6V3C18.5 2.724 18.276 2.5 18 2.5C17.724 2.5 17.5 2.724 17.5 3V6C17.5 6.276 17.724 6.5 18 6.5C18.276 6.5 18.5 6.276 18.5 6Z" fill="#495056"/>
</svg>
