<svg width="48" height="49" viewBox="0 0 48 49" fill="none" xmlns="http://www.w3.org/2000/svg">
<g clip-path="url(#clip0_358_5304)">
<path d="M12.7274 28.8126H4.32561C3.97133 28.8126 3.63073 28.6794 3.36983 28.4391C1.69442 26.8901 0.142578 25.124 0.142578 22.7152C0.142578 19.8025 2.29311 17.5215 5.03698 17.5215C6.5833 17.5215 7.72864 18.2273 8.52514 19.1145C9.32436 18.2273 10.4697 17.5215 12.016 17.5215C14.7599 17.5215 16.9104 19.8025 16.9104 22.7152C16.9104 25.0677 15.4575 26.7637 13.8891 28.2469C13.5383 28.5786 13.267 28.8126 12.7274 28.8126Z" fill="#FF6928"/>
<path d="M40.9494 11.9015C40.1622 14.0954 37.7149 15.2205 35.5493 14.4047C30.5433 12.5766 28.5462 11.8735 27.7026 11.536C25.8744 10.889 29.193 12.0984 19.6589 8.63904C17.4931 7.85163 16.3682 5.43279 17.1557 3.26726C18.3371 0.0327878 22.7526 -0.529712 24.6371 2.45154L28.5743 8.61091L28.8277 8.52663L35.7745 6.41726C39.0931 5.40466 42.159 8.63913 40.9494 11.9015Z" fill="#FF6928"/>
<path d="M47.9251 17.4142L45.0281 25.3455C44.8029 26.0486 44.0153 26.4424 43.2277 26.1892L28.6873 20.9017L28.4343 19.58L25.1153 18.4267L21.7686 17.2737L20.784 18.005L6.24363 12.7175C5.51238 12.4642 5.11854 11.6487 5.39979 10.9175L8.26864 2.98621C8.55017 2.28309 9.28142 1.88934 10.0686 2.14246L24.7502 7.4863L24.8625 8.66746L28.3218 9.93308L31.3592 11.058L32.5405 10.3267L47.0812 15.6142C47.8688 15.9237 48.1496 16.7111 47.9251 17.4142Z" fill="#FEDB41"/>
<path d="M40.7812 26H25.1154L24.1314 28.8125H17.6626L16.9313 26H1.40625C0.618656 26 0 26.6187 0 27.4062V47.0938C0 47.8812 0.618656 48.5 1.40625 48.5H17.0157L17.6625 45.6875H24.553L25.1998 48.5H40.7812C41.5688 48.5 42.1875 47.8812 42.1875 47.0938V27.4062C42.1875 26.6187 41.5688 26 40.7812 26Z" fill="#FEDB41"/>
<path d="M16.875 26V48.5H25.3125V26H16.875Z" fill="#FEA832"/>
<path d="M32.5406 10.3267C31.1344 14.1518 30.0937 17.0768 28.6875 20.9017C27.1405 20.3392 27.5628 20.4799 24.7503 19.4393C23.822 19.1298 22.5564 18.6517 20.7842 18.0049C22.1623 14.1799 23.2314 11.283 24.6095 7.45801C26.2124 8.04854 27.3938 8.47051 28.6875 8.92041C29.7845 9.31416 30.9658 9.73613 32.5406 10.3267Z" fill="#FEA832"/>
</g>
<defs>
<clipPath id="clip0_358_5304">
<rect width="48" height="48" fill="white" transform="translate(0 0.5)"/>
</clipPath>
</defs>
</svg>
