<svg width="25" height="24" viewBox="0 0 25 24" fill="none" xmlns="http://www.w3.org/2000/svg">
<g clip-path="url(#clip0_358_4505)">
<path d="M22.3176 9.81806V13.0911H20.1361V9.81858C20.1361 5.60095 16.7172 2.18208 12.4996 2.18208C12.275 2.18208 12.0524 2.19173 11.8326 2.21105C9.99016 2.37042 8.33411 3.18422 7.09966 4.41862C5.71792 5.80083 4.86311 7.70948 4.86311 9.81853V13.091H2.68164V9.81802C2.68164 4.63111 6.70417 0.383484 11.7998 0.0246562C12.0311 0.00825 12.2644 0 12.4996 0C15.2109 0 17.6653 1.0987 19.4421 2.8755C21.2189 4.6523 22.3176 7.10677 22.3176 9.81806Z" fill="#349BF1"/>
<path d="M21.9547 14.5459V18.199C21.9547 20.5995 20.0086 22.5455 17.6081 22.5455H15.4092V21.0914H17.6023C19.2026 21.0914 20.5 19.794 20.5 18.1937V14.5459H21.9547Z" fill="#495056"/>
<path d="M19.7725 17.0911H20.9703C22.9196 17.0911 24.4997 15.5109 24.4997 13.5617V13.3478C24.4997 11.3985 22.9196 9.81836 20.9703 9.81836H19.7725V17.0911Z" fill="#FFC42C"/>
<path d="M17.5906 21.8182C17.5906 23.0232 16.2881 24.0002 14.6818 24.0002C14.6649 24.0002 14.648 24.0002 14.6311 23.9998C13.048 23.9795 11.7725 23.0106 11.7725 21.8182C11.7725 20.6335 13.0311 19.67 14.6001 19.6372C14.6272 19.6372 14.6547 19.6367 14.6818 19.6367C16.2881 19.6367 17.5906 20.6132 17.5906 21.8182Z" fill="#349BF1"/>
<path d="M20.1689 17.8181H20.1047C19.5199 17.8181 19.0459 17.344 19.0459 16.7592V10.1496C19.0459 9.56487 19.5199 9.09082 20.1047 9.09082H20.1689C20.7536 9.09082 21.2277 9.56487 21.2277 10.1496V16.7592C21.2277 17.344 20.7536 17.8181 20.1689 17.8181Z" fill="#FB9A12"/>
<path d="M5.22725 17.0911H4.02941C2.08016 17.0911 0.5 15.5109 0.5 13.5617V13.3478C0.5 11.3985 2.08016 9.81836 4.02941 9.81836H5.22725V17.0911Z" fill="#FFC42C"/>
<path d="M4.83127 17.8181H4.89545C5.48021 17.8181 5.95426 17.344 5.95426 16.7592V10.1496C5.95426 9.56487 5.48021 9.09082 4.89545 9.09082H4.83127C4.24651 9.09082 3.77246 9.56487 3.77246 10.1496V16.7592C3.77246 17.344 4.24651 17.8181 4.83127 17.8181Z" fill="#FB9A12"/>
<path d="M17.5908 13.054C17.5908 15.2428 15.3117 17.0171 12.5 17.0171C12.3904 17.0171 12.2812 17.0142 12.173 17.0089C11.9243 16.9969 11.6809 16.9708 11.4433 16.9312C11.2655 16.9022 11.082 16.9234 10.9198 16.9973L9.00054 17.8691C8.69046 18.0096 8.34035 17.7633 8.39927 17.446L8.64846 16.1125C8.6929 15.873 8.61705 15.6272 8.44174 15.4475C7.7936 14.7825 7.40918 13.9532 7.40918 13.054C7.40918 10.9338 9.54818 9.20191 12.2382 9.09616H12.2387C12.3251 9.09279 12.4121 9.09082 12.5 9.09082C15.3117 9.09091 17.5908 10.8653 17.5908 13.054Z" fill="#36D0E3"/>
</g>
<defs>
<clipPath id="clip0_358_4505">
<rect width="24" height="24" fill="white" transform="translate(0.5)"/>
</clipPath>
</defs>
</svg>
