<svg width="24" height="24" viewBox="0 0 24 24" fill="none" xmlns="http://www.w3.org/2000/svg">
<g clip-path="url(#clip0_358_4464)">
<path d="M12.6879 18.0145C12.7239 20.9816 15.1215 23.3484 18.0888 23.3481C19.0457 23.348 19.9443 23.0987 20.7238 22.662C20.8113 22.613 20.9133 22.5966 21.0116 22.6165L23.4975 23.1179C23.8137 23.1816 24.0804 22.8792 23.9775 22.5734L23.1476 20.1069C23.117 20.0161 23.1187 19.9176 23.1521 19.8277C23.3679 19.2468 23.4868 18.6187 23.4887 17.963C23.497 15.0113 21.1063 12.583 18.1549 12.5473C15.1192 12.5105 12.651 14.9788 12.6879 18.0145Z" fill="#FFC42C"/>
<path d="M9.33108 0.652081C4.14017 0.715099 -0.000627695 4.90974 7.13701e-08 10.101C0.00019323 11.7752 0.43625 13.3474 1.20024 14.711C1.286 14.864 1.31464 15.0426 1.27992 15.2146L0.402785 19.5637C0.291187 20.117 0.820395 20.5836 1.35535 20.4036L5.67047 18.9516C5.82939 18.8982 6.00174 18.901 6.15897 18.9594C7.17542 19.337 8.27425 19.5452 9.42143 19.5483C14.5854 19.5629 18.8339 15.3804 18.8963 10.2167C18.9605 4.90568 14.6422 0.587566 9.33108 0.652081Z" fill="#349BF2"/>
<path d="M9.40448 16.2308C12.8084 16.2308 15.5677 13.4714 15.5677 10.0676C15.5677 6.66369 12.8084 3.9043 9.40448 3.9043C6.0006 3.9043 3.24121 6.66369 3.24121 10.0676C3.24121 13.4714 6.0006 16.2308 9.40448 16.2308Z" fill="#FAF7F7"/>
<path d="M9.67766 14.1075H9.13198C8.81747 14.1075 8.5625 13.8525 8.5625 13.538V9.91128C8.5625 9.59677 8.81747 9.3418 9.13198 9.3418H9.67766C9.99217 9.3418 10.2471 9.59677 10.2471 9.91128V13.538C10.2471 13.8525 9.99217 14.1075 9.67766 14.1075Z" fill="#349BF2"/>
<path d="M9.40476 8.09174C9.97455 8.09174 10.4365 7.62983 10.4365 7.06003C10.4365 6.49023 9.97455 6.02832 9.40476 6.02832C8.83496 6.02832 8.37305 6.49023 8.37305 7.06003C8.37305 7.62983 8.83496 8.09174 9.40476 8.09174Z" fill="#349BF2"/>
</g>
<defs>
<clipPath id="clip0_358_4464">
<rect width="24" height="24" fill="white"/>
</clipPath>
</defs>
</svg>
