<svg width="25" height="24" viewBox="0 0 25 24" fill="none" xmlns="http://www.w3.org/2000/svg">
<path d="M1.25 5.25C1.25 2.76472 3.26472 0.75 5.75 0.75H19.25C21.7353 0.75 23.75 2.76472 23.75 5.25V18.75C23.75 21.2353 21.7353 23.25 19.25 23.25H5.75C3.26472 23.25 1.25 21.2353 1.25 18.75V5.25Z" fill="#37D0E3"/>
<path fill-rule="evenodd" clip-rule="evenodd" d="M12.4997 5.25C10.6596 5.25 9.16797 6.74167 9.16797 8.58172C9.16797 10.4218 10.6596 11.9134 12.4997 11.9134C14.3397 11.9134 15.8314 10.4218 15.8314 8.58172C15.8314 6.74167 14.3397 5.25 12.4997 5.25Z" fill="#B7F2F9"/>
<path fill-rule="evenodd" clip-rule="evenodd" d="M17.9585 14.0371C14.5455 12.2233 10.4544 12.2233 7.04139 14.0371C6.70824 14.2141 6.5 14.5606 6.5 14.9378V17.1975C6.5 17.7922 6.98215 18.2744 7.57692 18.2744H17.4231C18.0178 18.2744 18.5 17.7922 18.5 17.1975V14.9378C18.5 14.5606 18.2918 14.2141 17.9585 14.0371Z" fill="#B7F2F9"/>
</svg>
