<svg width="24" height="24" viewBox="0 0 24 24" fill="none" xmlns="http://www.w3.org/2000/svg">
<g clip-path="url(#clip0_358_4492)">
<path fill-rule="evenodd" clip-rule="evenodd" d="M16.1696 7.65588C15.7196 7.19988 15.1083 6.94188 14.4671 6.93851C13.8221 6.93513 13.207 7.18901 12.7495 7.64313C11.3433 9.04638 8.257 12.1296 6.9895 13.3945C6.532 13.852 6.19832 14.4201 6.02582 15.0441L5.68075 16.2861C5.5345 16.807 5.68076 17.3658 6.06326 17.7483C6.44576 18.1308 7.00457 18.2778 7.52582 18.133C7.94957 18.016 8.40325 17.89 8.77075 17.7873C9.397 17.6144 9.9633 17.284 10.4171 16.8276C11.6771 15.571 14.7408 12.5136 16.1583 11.0991C17.1071 10.1526 17.1145 8.61926 16.177 7.66226L16.1696 7.65588Z" fill="#EAC50F"/>
<path fill-rule="evenodd" clip-rule="evenodd" d="M3.75 23.25H12C18.2137 23.25 23.25 18.2134 23.25 12.0008V12C23.25 5.78662 18.2137 0.75 12 0.75C9.015 0.75 6.15376 1.93537 4.04626 4.04512C1.93501 6.15487 0.75 9.0165 0.75 12V20.25C0.75 21.9067 2.0925 23.25 3.75 23.25Z" fill="#9352EF"/>
<path fill-rule="evenodd" clip-rule="evenodd" d="M16.1696 7.46741C15.7196 7.01141 15.1083 6.75341 14.4671 6.75003C13.8221 6.74666 13.207 7.00053 12.7495 7.45466C11.3433 8.85791 8.257 11.9412 6.9895 13.206C6.532 13.6635 6.19832 14.2317 6.02582 14.8557L5.68075 16.0977C5.5345 16.6185 5.68076 17.1773 6.06326 17.5598C6.44576 17.9423 7.00457 18.0893 7.52582 17.9445C7.94957 17.8275 8.40325 17.7015 8.77075 17.5988C9.397 17.4259 9.9633 17.0955 10.4171 16.6392C11.6771 15.3825 14.7408 12.3252 16.1583 10.9107C17.1071 9.96416 17.1145 8.43078 16.177 7.47378L16.1696 7.46741Z" fill="#D1B1FE"/>
<path fill-rule="evenodd" clip-rule="evenodd" d="M10.8447 9.35628C11.1747 9.39566 11.4785 9.45191 11.7747 9.52053C12.401 9.66603 12.911 9.93454 13.301 10.3283C13.6872 10.7153 13.9573 11.2234 14.1073 11.8538C14.1898 12.1793 14.2272 12.4793 14.2422 12.8235L16.1585 10.9107C17.1073 9.96416 17.1147 8.43078 16.1772 7.47378L16.1698 7.46741C15.7198 7.01141 15.1085 6.75341 14.4673 6.75003C13.8223 6.74666 13.2073 7.00053 12.7498 7.45466L10.8447 9.35628Z" fill="#B07FF5"/>
</g>
<defs>
<clipPath id="clip0_358_4492">
<rect width="24" height="24" fill="white"/>
</clipPath>
</defs>
</svg>
