<svg width="343" height="80" viewBox="0 0 343 80" fill="none" xmlns="http://www.w3.org/2000/svg">
<g clip-path="url(#clip0_358_4364)">
<rect width="343" height="80" rx="16" fill="#A33100"/>
<g clip-path="url(#clip1_358_4364)">
<path d="M343.379 -15.5859H0V165H343.379V-15.5859Z" fill="#242527"/>
<g opacity="0.6">
<path d="M176.346 72.2754H172.789C172.7 72.2754 172.649 74.9583 172.611 74.9583H176.168C176.24 74.9583 176.308 72.2754 176.346 72.2754Z" fill="white"/>
<path d="M198.659 55.0655C198.499 53.2884 198.325 51.5113 198.164 49.7313C198.147 49.6249 194.607 49.8924 194.607 49.8377C194.768 51.6148 194.942 53.3919 195.102 55.1719C195.102 55.2783 198.659 55.031 198.659 55.0655Z" fill="#F4D862"/>
<path d="M292.19 38.1016C290.9 37.4805 289.589 36.8738 288.299 36.2526C288.193 36.198 286.602 39.3985 286.53 39.364C287.821 39.9851 289.131 40.5919 290.422 41.213C290.528 41.2676 292.139 38.0844 292.19 38.1016Z" fill="#75C6FC"/>
<path d="M331.33 59.4706C332.452 58.1852 333.559 56.8912 334.681 55.6058C334.649 55.6518 333.181 54.9502 333.044 54.907C332.898 54.8438 331.484 54.1393 331.399 54.2428C330.277 55.5282 329.17 56.8222 328.048 58.1075C328.079 58.0615 329.547 58.7661 329.685 58.8063C329.836 58.8552 331.244 59.5741 331.33 59.4706Z" fill="#F4D862"/>
<path d="M273.118 27.7384C272.958 25.9613 272.783 24.1842 272.623 22.4042C272.606 22.2978 269.066 22.5652 269.066 22.5106C269.227 24.2877 269.401 26.0648 269.561 27.8448C269.561 27.9511 273.118 27.7038 273.118 27.7384Z" fill="#4A1DEF"/>
<path d="M311.829 3.3047C313.757 2.96826 315.331 1.65125 315.986 -0.197741C316.075 -0.427786 313.723 -1.532 313.792 -1.72754C313.119 0.121449 311.562 1.43558 309.634 1.7749C309.811 1.74039 310.552 2.4334 310.73 2.55705C310.907 2.69795 311.58 3.35646 311.826 3.3047H311.829Z" fill="#EF89CA"/>
<path d="M283.17 59.2864C281.614 58.5934 280.057 57.9176 278.501 57.2246C278.555 57.2419 278.323 58.8608 278.323 59.0017C278.306 59.1627 278.057 60.727 278.183 60.7788C279.74 61.4718 281.296 62.1476 282.853 62.8406C282.798 62.8233 283.03 61.2044 283.03 61.0635C283.03 60.9025 283.296 59.3381 283.17 59.2864Z" fill="#F4D862"/>
<path d="M286.544 8.84125C286.888 10.7765 288.201 12.3552 290.041 13.0079C290.27 13.0971 291.36 10.7276 291.555 10.7995C289.712 10.1295 288.398 8.56807 288.058 6.63281C288.095 6.8111 287.406 7.55874 287.282 7.73703C287.142 7.91531 286.49 8.59395 286.544 8.84125Z" fill="#EF89CA"/>
<path d="M198.039 26.977C197.578 25.6628 197.12 24.3458 196.659 23.0115C196.605 22.8505 195.581 22.6032 195.42 22.5313C195.243 22.4594 194.218 22.2466 194.164 22.0684C194.625 23.3825 195.083 24.6995 195.543 26.0338C195.598 26.1948 196.622 26.4421 196.782 26.514C196.96 26.5859 197.984 26.8159 198.039 26.977Z" fill="#EF89CA"/>
<path d="M103.887 68.3653C104.262 70.1769 104.651 71.9827 105.034 73.8087C105.026 73.7541 106.473 73.0438 106.614 72.969C106.754 72.8943 108.193 72.207 108.176 72.0977C107.801 70.2861 107.412 68.4803 107.029 66.6543C107.037 66.7089 105.589 67.4192 105.449 67.494C105.283 67.5601 103.844 68.2474 103.887 68.3653Z" fill="#4A1DEF"/>
<path d="M334.495 4.80091C333.45 6.48887 332.409 8.1797 331.364 9.8504C331.399 9.79577 332.955 10.207 333.098 10.2415C333.259 10.276 334.778 10.7217 334.85 10.598C335.894 8.91009 336.936 7.21926 337.98 5.54855C337.946 5.60319 336.389 5.19199 336.246 5.15748C336.086 5.12298 334.566 4.67726 334.495 4.80091Z" fill="#F4D862"/>
<path d="M126.221 49.446C126.953 49.8083 127.683 50.1706 128.404 50.5358C128.513 50.5905 129.406 49.029 129.489 49.0664C128.759 48.7041 128.026 48.3418 127.305 47.9766C127.196 47.9306 126.304 49.492 126.221 49.446Z" fill="white"/>
<path d="M103.895 23.2121C103.045 24.0489 102.178 24.8656 101.331 25.6995C101.385 25.6448 103.311 27.4938 103.4 27.4047C104.25 26.5679 105.117 25.7512 105.964 24.9173C105.892 24.972 103.984 23.123 103.895 23.2121Z" fill="#F4D862"/>
</g>
<g opacity="0.8" clip-path="url(#clip2_358_4364)" filter="url(#filter0_f_358_4364)">
<path d="M292.153 85.5725C297.794 91.2127 307.961 90.196 314.853 83.2929C321.746 76.3898 322.773 66.2332 317.133 60.5931C311.493 54.9529 301.325 55.9696 294.422 62.862C287.519 69.7543 286.513 79.9216 292.153 85.5725Z" fill="#F3D55B"/>
<path d="M295.189 82.5369C291.219 78.5669 292.235 71.114 297.459 65.8903C302.683 60.6666 310.136 59.6503 314.106 63.6203C318.076 67.5903 317.059 75.0432 311.836 80.2669C306.612 85.4905 299.159 86.5068 295.189 82.5369Z" fill="#F9EAB0"/>
<path d="M292.153 85.5723L295.942 89.3502C301.582 95.0011 311.749 93.9737 318.641 87.0813C325.534 80.1889 326.561 70.0216 320.91 64.3814L317.132 60.5928C322.773 66.233 321.756 76.4003 314.853 83.2926C307.95 90.185 297.793 91.2124 292.153 85.5723Z" fill="#F0C419"/>
<path d="M308.506 75.876C308.877 75.8758 309.222 75.6837 309.416 75.3682C309.611 75.0528 309.629 74.659 309.463 74.3273L305.182 65.7654C304.918 65.2364 304.275 65.0217 303.746 65.2859C303.217 65.5501 303.002 66.1932 303.267 66.7222L307.548 75.2841C307.729 75.6473 308.1 75.8766 308.506 75.876Z" fill="white"/>
<path d="M304.225 79.0862C304.596 79.086 304.94 78.8939 305.135 78.5785C305.33 78.2631 305.348 77.8692 305.182 77.5376L303.042 73.2566C302.777 72.7276 302.134 72.5129 301.605 72.7771C301.076 73.0413 300.862 73.6844 301.126 74.2134L303.266 78.4944C303.448 78.8576 303.819 79.0868 304.225 79.0862Z" fill="white"/>
<path d="M301.443 86.0187C305.667 85.8748 309.667 84.0831 312.587 81.0271C318.221 75.3933 319.239 67.2466 314.858 62.8651C310.478 58.4835 302.33 59.5013 296.695 65.1351C291.061 70.7688 290.044 78.9155 294.425 83.2982C296.305 85.1096 298.834 86.0899 301.443 86.0187ZM307.828 62.2593C309.877 62.1948 311.865 62.9574 313.345 64.3752C316.891 67.9252 315.873 74.7148 311.075 79.5148C306.277 84.3149 299.488 85.3327 295.94 81.7859C292.392 78.2391 293.412 71.4484 298.21 66.6494C300.724 63.9936 304.174 62.4203 307.828 62.2625V62.2593Z" fill="#F29C1F"/>
</g>
<g opacity="0.4" filter="url(#filter1_f_358_4364)">
<path d="M269.664 7.42433C273.829 11.5816 279.255 12.8996 281.794 10.3531C284.332 7.80671 283.022 2.38027 278.865 -1.77702C274.708 -5.93431 269.281 -7.24414 266.735 -4.70583C264.188 -2.16753 265.506 3.26705 269.664 7.42433Z" fill="#F3D55B"/>
<path d="M267.222 9.86479C271.379 14.0221 276.814 15.3319 279.352 12.7936L281.793 10.3529C279.255 12.8994 273.828 11.5814 269.663 7.42411C265.497 3.26683 264.196 -2.16775 266.734 -4.70605L264.293 -2.26538C261.755 0.272928 263.065 5.7075 267.222 9.86479Z" fill="#F0C419"/>
<path d="M277.555 2.81101C277.954 2.8113 278.295 2.52179 278.359 2.12766C278.422 1.73352 278.191 1.35126 277.812 1.22538L270.909 -1.07618C270.482 -1.21839 270.021 -0.987639 269.879 -0.560789C269.736 -0.133938 269.967 0.327376 270.394 0.469584L277.297 2.77033C277.38 2.79798 277.467 2.81173 277.555 2.81101Z" fill="white"/>
<path d="M276.98 6.83739C277.379 6.83808 277.72 6.5487 277.784 6.15444C277.848 5.76019 277.617 5.3777 277.238 5.25176L273.787 4.10058C273.36 3.95837 272.898 4.18912 272.756 4.61597C272.614 5.04282 272.845 5.50413 273.272 5.64634L276.723 6.79671C276.806 6.82389 276.893 6.83762 276.98 6.83739Z" fill="white"/>
</g>
<g opacity="0.2" filter="url(#filter2_f_358_4364)">
<path d="M317.356 27.3559C314.453 30.2533 310.671 31.1718 308.902 29.3971C307.133 27.6224 308.046 23.8405 310.943 20.9431C313.841 18.0458 317.622 17.1329 319.397 18.902C321.172 20.671 320.253 24.4585 317.356 27.3559Z" fill="#F3D55B"/>
<path d="M319.057 29.0573C316.16 31.9546 312.372 32.8675 310.603 31.0985L308.902 29.3975C310.671 31.1722 314.453 30.2537 317.356 27.3563C320.259 24.4589 321.167 20.6714 319.397 18.9023L321.098 20.6033C322.868 22.3724 321.955 26.1599 319.057 29.0573Z" fill="#F0C419"/>
<path d="M311.857 24.1407C311.578 24.1409 311.341 23.9392 311.296 23.6645C311.252 23.3898 311.413 23.1234 311.677 23.0356L316.488 21.4316C316.786 21.3325 317.107 21.4933 317.206 21.7908C317.306 22.0883 317.145 22.4098 316.847 22.5089L312.036 24.1124C311.978 24.1316 311.918 24.1412 311.857 24.1407Z" fill="white"/>
<path d="M312.257 26.9474C311.979 26.9479 311.742 26.7462 311.697 26.4714C311.652 26.1966 311.814 25.9301 312.078 25.8423L314.483 25.04C314.78 24.9409 315.102 25.1017 315.201 25.3992C315.3 25.6967 315.139 26.0182 314.842 26.1173L312.437 26.919C312.379 26.938 312.318 26.9475 312.257 26.9474Z" fill="white"/>
</g>
</g>
<path d="M30.7871 22.8164V35.2852H29.0234V22.8164H30.7871ZM22.7344 23.8008V26.8359H25.4141V23.8008H27.1367V32.373H20.9844V23.8008H22.7344ZM22.7344 30.9648H25.4141V28.1895H22.7344V30.9648ZM43.8574 32.332V33.7539H32.4688V32.332H43.8574ZM39.0586 25.2773C39.0586 27.0137 40.6172 28.6543 43.4336 29.0781L42.75 30.459C40.5693 30.0762 38.9561 29.0098 38.1562 27.5332C37.3633 29.0371 35.7637 30.1445 33.6172 30.5273L32.9336 29.1328C35.6543 28.709 37.2266 27.0137 37.2266 25.2773V25.2637H33.4121V23.8691H42.8594V25.2637H39.0586V25.2773ZM55.0273 22.8164V35.2578H53.291V22.8164H55.0273ZM46.9609 24.0059V30.6914C48.6426 30.6709 50.4473 30.5137 52.2793 30.1582L52.498 31.5938C50.3105 32.0449 48.2598 32.1953 46.332 32.1816H45.2383V24.0059H46.9609ZM63.2168 24.457C63.2168 26.2754 64.8301 28.2305 67.6465 28.709L66.8809 30.1582C64.7139 29.7275 63.1006 28.5107 62.3008 26.9043C61.4736 28.4971 59.8604 29.7207 57.707 30.1582L56.9551 28.709C59.7168 28.2168 61.3438 26.2617 61.3574 24.457V23.5547H63.2168V24.457ZM68.0566 32.291V33.7266H56.668V32.291H68.0566ZM82.7539 22.8164V35.2578H81.0996V22.8164H82.7539ZM80.2109 23.0215V34.6836H78.5703V28.4902H76.9297V27.082H78.5703V23.0215H80.2109ZM75.9316 26.1523C75.9316 28.2168 76.5742 30.3086 78.3926 31.3477L77.3672 32.6328C76.2598 31.9766 75.5283 30.8623 75.1113 29.5293C74.6807 30.9785 73.9287 32.209 72.7871 32.9062L71.7344 31.6211C73.5664 30.5 74.25 28.2578 74.25 26.1523V25.4824H72.2129V24.0879H77.8184V25.4824H75.9316V26.1523ZM94.8535 24.0605V25.4277H84.6406V24.0605H88.8926V22.8027H90.6289V24.0605H94.8535ZM95.4824 30.7734V32.1816H92.8438V35.2715H91.0801V32.1816H88.4824V35.2715H86.7461V32.1816H84.0938V30.7734H95.4824ZM89.7676 25.9336C92.4336 25.9336 94.0469 26.6719 94.0605 28.0527C94.0469 29.4199 92.4336 30.1855 89.7676 30.1855C87.0742 30.1855 85.4609 29.4199 85.4746 28.0527C85.4609 26.6719 87.0742 25.9336 89.7676 25.9336ZM89.7676 27.2324C88.0996 27.2324 87.2793 27.4785 87.2793 28.0527C87.2793 28.5996 88.0996 28.873 89.7676 28.873C91.4082 28.873 92.2422 28.5996 92.2422 28.0527C92.2422 27.4785 91.4082 27.2324 89.7676 27.2324Z" fill="#6CE9FF"/>
<path d="M105.941 26.5625V27.9023H110.768V29.2832H99.4199V27.9023H104.219V26.5625H105.941ZM105.969 23.1855C105.969 24.5117 107.309 25.7012 110.166 25.9609L109.564 27.2871C107.432 27.0273 105.866 26.2822 105.066 25.1406C104.273 26.2822 102.708 27.0273 100.568 27.2871L99.9668 25.9609C102.824 25.7012 104.191 24.5117 104.191 23.1855V22.9258H105.969V23.1855ZM109.387 29.9121V33.125H102.455V33.8633H109.715V35.1758H100.746V31.8945H107.664V31.2383H100.732V29.9121H109.387ZM121.582 23.1992V26.9043H114.623V27.9434H121.869V29.3379H112.859V25.5918H119.791V24.6074H112.818V23.1992H121.582ZM122.895 30.2676V31.6621H118.055V35.2852H116.305V31.6621H111.506V30.2676H122.895ZM128.281 24.9629C128.281 26.6855 129.129 28.3945 131.098 29.1191L130.127 30.4727C128.821 29.96 127.926 28.9824 127.42 27.752C126.873 29.0645 125.909 30.0898 124.494 30.623L123.564 29.2559C125.602 28.5312 126.518 26.7812 126.518 24.9629V23.5273H128.281V24.9629ZM134.105 22.8301V32.0586H132.369V28.2578H130.236V26.8496H132.369V25.8516H130.236V24.4434H132.369V22.8301H134.105ZM134.365 33.6445V35.0391H125.82V31.1699H127.584V33.6445H134.365Z" fill="white"/>
<path d="M23.7275 49.3506C23.7275 50.4678 24.5977 51.499 26.0693 51.918L25.5967 52.7236C24.4902 52.4067 23.6685 51.7246 23.2441 50.8438C22.8198 51.8374 21.9766 52.6055 20.8486 52.9707L20.3438 52.165C21.8154 51.7354 22.7178 50.5967 22.7178 49.3506V49.2324H20.623V48.4053H22.7178V47.2451H23.7383V48.4053H25.8223V49.2324H23.7275V49.3506ZM27.917 47.2881V49.7158H29.3135V50.5537H27.917V53.1533H26.8965V47.2881H27.917ZM24.8125 53.3789C26.7998 53.3789 28.0029 54.0127 28.0029 55.1406C28.0029 56.2471 26.7998 56.8916 24.8125 56.8916C22.8037 56.8916 21.5791 56.2471 21.5791 55.1406C21.5791 54.0127 22.8037 53.3789 24.8125 53.3789ZM24.8125 54.1738C23.4053 54.1738 22.5889 54.5068 22.5996 55.1406C22.5889 55.7529 23.4053 56.1074 24.8125 56.1074C26.1982 56.1074 27.0039 55.7529 27.0039 55.1406C27.0039 54.5068 26.1982 54.1738 24.8125 54.1738ZM32.5254 47.7285C33.793 47.7178 34.7705 48.4536 34.9854 49.5332H36.8652V47.2881H37.8857V52.4551H36.8652V50.3711H34.9961C34.7866 51.4775 33.8037 52.2188 32.5254 52.2188C31.0537 52.2188 30.001 51.2949 30.001 49.9629C30.001 48.6523 31.0537 47.7178 32.5254 47.7285ZM32.5254 48.5771C31.6123 48.5771 30.9785 49.1357 30.9785 49.9629C30.9785 50.79 31.6123 51.3594 32.5254 51.3594C33.417 51.3594 34.0508 50.79 34.0508 49.9629C34.0508 49.1357 33.417 48.5771 32.5254 48.5771ZM32.6221 52.917V54.0342H36.8652V52.917H37.8857V56.7949H31.6123V52.917H32.6221ZM32.6221 55.957H36.8652V54.8398H32.6221V55.957ZM42.7197 50.124C42.7197 51.6494 43.7188 53.3467 45.1797 54.0342L44.5996 54.8291C43.52 54.3081 42.666 53.2231 42.2363 51.9609C41.7905 53.3413 40.8882 54.5283 39.7871 55.0762L39.1855 54.2705C40.6465 53.5723 41.71 51.7568 41.71 50.124V49.1035H39.54V48.2549H44.8145V49.1035H42.7197V50.124ZM46.8662 47.2881V51.1016H48.4131V51.9609H46.8662V56.9131H45.8457V47.2881H46.8662ZM57.1572 47.2881V56.9131H56.1797V47.2881H57.1572ZM55.2021 47.4707V56.4404H54.2246V51.7998H53.1396C53.0537 53.6797 52.248 54.8506 51.0557 54.8398C49.7988 54.8506 48.9824 53.5293 48.9824 51.4453C48.9824 49.3613 49.7988 48.0508 51.0557 48.0615C52.2266 48.0508 53.0215 49.1626 53.1396 50.9727H54.2246V47.4707H55.2021ZM51.0557 49.0176C50.3574 49.0176 49.9277 49.9092 49.9277 51.4453C49.9277 52.9814 50.3574 53.873 51.0557 53.873C51.7646 53.873 52.2051 52.9814 52.2051 51.4453C52.2051 49.9092 51.7646 49.0176 51.0557 49.0176ZM66.6533 47.2881V56.9131H65.6865V47.2881H66.6533ZM64.623 47.5352V56.4404H63.6562V51.9717H61.7764C61.2017 53.0889 60.2886 54.0664 58.9297 54.8613L58.3496 54.1309C60.3906 52.917 61.3735 51.3003 61.5508 49.3184H58.8008V48.4805H62.5605C62.5552 49.4204 62.4263 50.3174 62.1309 51.1553H63.6562V47.5352H64.623ZM78.3945 47.707V48.1797C78.3945 48.792 78.3945 49.7695 78.1152 51.0586L77.1162 50.9404C77.3472 49.8877 77.3848 49.1035 77.4062 48.5234H75.0752V47.707H78.3945ZM79.3398 51.7998V52.627H70.585V51.7998H74.6455V49.9414H75.6553V51.7998H79.3398ZM78.2549 53.5723V56.8594H77.2129V54.3994H71.541V53.5723H78.2549ZM74.291 47.707V48.0615C74.2803 48.6416 74.2803 49.6729 73.8184 51.0693L72.8408 50.9297C73.1846 49.8662 73.2651 49.0767 73.292 48.5234H71.3262V47.707H74.291ZM90.7695 47.2881V52.2617H89.7383V47.2881H90.7695ZM90.7695 52.7021V55.0869H85.4092V56H91.1025V56.8164H84.4102V54.3457H89.7598V53.5078H84.3779V52.7021H90.7695ZM88.417 47.9219V48.7275H87.4932V51.0049C87.9604 50.9727 88.4224 50.9297 88.8574 50.876L88.9004 51.6172C86.9775 51.9072 84.7324 51.9717 83.0459 51.9717L82.9277 51.1553C83.293 51.1553 83.6904 51.1499 84.0986 51.1445V48.7275H83.1855V47.9219H88.417ZM85.0762 51.123C85.5488 51.1069 86.0322 51.0908 86.5156 51.0586V48.7275H85.0762V51.123ZM101.082 54.8613V55.71H92.2734V54.8613H94.3789V52.3477C93.5894 51.9126 93.1113 51.2197 93.1113 50.3604C93.1113 48.8457 94.5938 47.8467 96.6562 47.8467C98.7295 47.8467 100.212 48.8457 100.212 50.3604C100.212 51.209 99.75 51.8911 98.9766 52.3262V54.8613H101.082ZM96.6562 48.6631C95.1416 48.6631 94.0996 49.3184 94.0996 50.3604C94.0996 51.3916 95.1416 52.0684 96.6562 52.0684C98.1602 52.0684 99.2236 51.3916 99.2236 50.3604C99.2236 49.3184 98.1602 48.6631 96.6562 48.6631ZM95.3887 54.8613H97.9453V52.7129C97.5532 52.8149 97.1182 52.8633 96.6562 52.8633C96.2051 52.8633 95.7754 52.8149 95.3887 52.7236V54.8613ZM109.343 47.2988V50.3926H110.739V51.2412H109.343V54.4961H108.322V47.2988H109.343ZM107.527 48.416V49.2432H101.791V48.416H104.154V47.2881H105.175V48.416H107.527ZM104.659 49.7051C106.045 49.7051 106.99 50.4248 106.99 51.5205C106.99 52.6162 106.045 53.3252 104.659 53.3252C103.263 53.3252 102.317 52.6162 102.317 51.5205C102.317 50.4248 103.263 49.7051 104.659 49.7051ZM104.659 50.4893C103.843 50.4893 103.295 50.8867 103.306 51.5205C103.295 52.1436 103.843 52.5303 104.659 52.5303C105.476 52.5303 106.023 52.1436 106.034 51.5205C106.023 50.8867 105.476 50.4893 104.659 50.4893ZM109.751 55.8818V56.709H103.241V53.9268H104.262V55.8818H109.751ZM121.739 50.2637V50.9834H115.101V47.46H121.675V48.1904H116.132V48.8564H121.428V49.5547H116.132V50.2637H121.739ZM122.738 51.6172V52.3799H118.86V53.1211H121.643V55.2803H116.035V56.0645H121.911V56.8164H115.036V54.5713H120.633V53.8516H115.025V53.1211H117.84V52.3799H113.983V51.6172H122.738ZM127.862 47.4492C130.032 47.4492 131.3 48.0293 131.3 49.1035C131.3 50.1777 130.032 50.7686 127.862 50.7686C125.692 50.7686 124.425 50.1777 124.425 49.1035C124.425 48.0293 125.692 47.4492 127.862 47.4492ZM127.862 48.2012C126.326 48.2012 125.478 48.5342 125.488 49.1035C125.478 49.6943 126.326 50.0059 127.862 50.0059C129.398 50.0059 130.247 49.6943 130.247 49.1035C130.247 48.5342 129.398 48.2012 127.862 48.2012ZM132.256 51.3594V52.1758H123.479V51.3594H132.256ZM131.149 52.917V55.1729H125.542V56.0322H131.418V56.8164H124.543V54.4316H130.14V53.6797H124.532V52.917H131.149ZM134.716 55.2588L133.856 58.2236H132.943L133.513 55.2588H134.716ZM143.997 48.2764V49.1143H143.009V53.5938C143.487 53.5669 143.954 53.5186 144.405 53.4648L144.459 54.2061C142.439 54.5391 140.173 54.5713 138.486 54.582L138.368 53.7334C138.75 53.7334 139.163 53.728 139.593 53.7227V49.1143H138.604V48.2764H143.997ZM145.984 47.2881V51.0801H147.531V51.918H145.984V56.9131H144.964V47.2881H145.984ZM140.581 53.7012C141.054 53.6958 141.537 53.6797 142.021 53.6582V49.1143H140.581V53.7012ZM155.803 52.4121V53.2285H149.1V48.083H155.706V48.9102H150.131V50.21H155.502V51.0156H150.131V52.4121H155.803ZM156.802 54.8613V55.6992H147.993V54.8613H156.802ZM165.535 47.2881V56.9346H164.515V51.2305H161.646V50.3926H164.515V47.2881H165.535ZM159.047 48.3516V53.7656C160.422 53.7441 161.722 53.6636 163.118 53.3789L163.247 54.2168C161.7 54.5391 160.304 54.6143 158.789 54.6143H158.016V48.3516H159.047ZM170.509 48.502C170.498 49.7695 171.433 50.9404 172.904 51.4023L172.41 52.1973C171.277 51.832 170.434 51.0747 169.993 50.1025C169.558 51.1499 168.699 51.9824 167.544 52.3691L167.039 51.5635C168.543 51.0693 169.467 49.8232 169.467 48.502V47.5996H170.509V48.502ZM174.988 47.2881V52.4551H173.968V47.2881H174.988ZM169.692 52.917V54.002H173.979V52.917H174.988V56.7949H168.693V52.917H169.692ZM169.692 55.957H173.979V54.8076H169.692V55.957ZM187.481 47.2881V56.9131H186.504V47.2881H187.481ZM185.634 47.4814V56.4512H184.688V53.5293H183.389C183.077 54.3081 182.384 54.7969 181.52 54.7969C180.349 54.7969 179.479 53.873 179.489 52.541C179.479 51.209 180.349 50.2852 181.52 50.2852C182.712 50.2852 183.571 51.209 183.571 52.541C183.571 52.6001 183.571 52.6538 183.571 52.7129H184.688V51.3379H183.432V50.5H184.688V47.4814H185.634ZM183.904 48.8779V49.7051H179.178V48.8779H181.036V47.5352H182.057V48.8779H183.904ZM181.52 51.1553C180.854 51.166 180.381 51.7031 180.381 52.541C180.381 53.3682 180.854 53.916 181.52 53.916C182.196 53.916 182.68 53.3682 182.69 52.541C182.68 51.7031 182.196 51.166 181.52 51.1553ZM192.863 47.9756V48.8027H190.081V49.877H192.756V50.6611H190.081V51.832C191.37 51.8213 192.219 51.7729 193.207 51.585L193.304 52.4229C192.176 52.6377 191.263 52.6807 189.727 52.6699H189.104V47.9756H192.863ZM196.913 47.2988V53.1426H195.946V50.5752H194.765V53.0674H193.809V47.4707H194.765V49.748H195.946V47.2988H196.913ZM196.913 53.6045V56.9131H195.903V54.4316H190.371V53.6045H196.913ZM202.596 47.8682C204.615 47.8682 206.151 48.9316 206.151 50.5537C206.151 52.1758 204.615 53.25 202.596 53.2393C200.576 53.25 199.051 52.1758 199.051 50.5537C199.051 48.9316 200.576 47.8682 202.596 47.8682ZM202.596 48.6953C201.124 48.6846 200.018 49.4365 200.028 50.5537C200.018 51.6816 201.124 52.4014 202.596 52.4014C204.067 52.4014 205.163 51.6816 205.163 50.5537C205.163 49.4365 204.067 48.6846 202.596 48.6953ZM207.021 54.8184V55.667H198.213V54.8184H207.021ZM216.528 54.9043V55.7637H207.72V54.9043H211.598V53.2178H208.794V50.1562H214.444V48.8027H208.772V47.9648H215.454V50.9727H209.804V52.3799H215.68V53.2178H212.607V54.9043H216.528ZM224.789 48.1367V52.627H220.288V48.1367H224.789ZM221.287 48.9639V51.8213H223.79V48.9639H221.287ZM227.475 47.2773V50.1562H228.871V51.0156H227.475V54.335H226.454V47.2773H227.475ZM227.883 55.8818V56.709H221.373V53.6582H222.394V55.8818H227.883ZM238.41 51.0693V51.9072H236.917V56.9023H235.896V47.2881H236.917V51.0693H238.41ZM230.794 48.2227V53.6367C232.137 53.6367 233.539 53.5239 235.069 53.207L235.188 54.0664C233.544 54.3994 232.019 54.4854 230.579 54.4854H229.784V48.2227H230.794ZM247.734 54.8721V55.7207H238.926V54.8721H242.804V52.8955H239.936V47.9434H240.956V49.5977H245.683V47.9434H246.692V52.8955H243.813V54.8721H247.734ZM240.956 52.0684H245.683V50.4248H240.956V52.0684ZM251.365 49.9199C251.365 51.4561 252.01 53.0996 253.299 53.8838L252.729 54.668C251.827 54.1255 251.215 53.1641 250.893 52.0469C250.533 53.2715 249.872 54.3135 248.938 54.8828L248.304 54.1201C249.668 53.3037 250.377 51.6064 250.377 49.9629V48.1689H251.365V49.9199ZM256.715 47.2881V56.9131H255.737V47.2881H256.715ZM254.717 47.4707V56.4404H253.75V51.5205H252.257V50.6719H253.75V47.4707H254.717ZM266.748 54.8613V55.71H257.939V54.8613H260.045V52.3477C259.255 51.9126 258.777 51.2197 258.777 50.3604C258.777 48.8457 260.26 47.8467 262.322 47.8467C264.396 47.8467 265.878 48.8457 265.878 50.3604C265.878 51.209 265.416 51.8911 264.643 52.3262V54.8613H266.748ZM262.322 48.6631C260.808 48.6631 259.766 49.3184 259.766 50.3604C259.766 51.3916 260.808 52.0684 262.322 52.0684C263.826 52.0684 264.89 51.3916 264.89 50.3604C264.89 49.3184 263.826 48.6631 262.322 48.6631ZM261.055 54.8613H263.611V52.7129C263.219 52.8149 262.784 52.8633 262.322 52.8633C261.871 52.8633 261.441 52.8149 261.055 52.7236V54.8613Z" fill="white"/>
</g>
<defs>
<filter id="filter0_f_358_4364" x="278" y="44" width="50" height="50" filterUnits="userSpaceOnUse" color-interpolation-filters="sRGB">
<feFlood flood-opacity="0" result="BackgroundImageFix"/>
<feBlend mode="normal" in="SourceGraphic" in2="BackgroundImageFix" result="shape"/>
<feGaussianBlur stdDeviation="0.5" result="effect1_foregroundBlur_358_4364"/>
</filter>
<filter id="filter1_f_358_4364" x="260.999" y="-8" width="24.0889" height="24.0879" filterUnits="userSpaceOnUse" color-interpolation-filters="sRGB">
<feFlood flood-opacity="0" result="BackgroundImageFix"/>
<feBlend mode="normal" in="SourceGraphic" in2="BackgroundImageFix" result="shape"/>
<feGaussianBlur stdDeviation="1" result="effect1_foregroundBlur_358_4364"/>
</filter>
<filter id="filter2_f_358_4364" x="306" y="16" width="18.0005" height="18" filterUnits="userSpaceOnUse" color-interpolation-filters="sRGB">
<feFlood flood-opacity="0" result="BackgroundImageFix"/>
<feBlend mode="normal" in="SourceGraphic" in2="BackgroundImageFix" result="shape"/>
<feGaussianBlur stdDeviation="1" result="effect1_foregroundBlur_358_4364"/>
</filter>
<clipPath id="clip0_358_4364">
<rect width="343" height="80" rx="16" fill="white"/>
</clipPath>
<clipPath id="clip1_358_4364">
<rect width="343" height="80" fill="white"/>
</clipPath>
<clipPath id="clip2_358_4364">
<rect width="48" height="48" fill="white" transform="matrix(-1 0 0 1 327 45)"/>
</clipPath>
</defs>
</svg>
