<svg width="25" height="24" viewBox="0 0 25 24" fill="none" xmlns="http://www.w3.org/2000/svg">
<g clip-path="url(#clip0_358_4474)">
<path d="M22.5684 20.6914H5.32773C4.25898 20.6914 3.39648 19.8289 3.39648 18.7602V8.13828C3.39648 7.06953 4.25898 6.20703 5.32773 6.20703H22.5684C23.6371 6.20703 24.4996 7.06953 24.4996 8.13828V18.7602C24.4996 19.8289 23.6371 20.6914 22.5684 20.6914Z" fill="#C92839"/>
<path d="M19.6719 3.30957H2.43125C1.3625 3.30957 0.5 4.17207 0.5 5.24082V7.3127C0.5 7.73926 0.785938 8.11426 1.19375 8.24082C2.1875 8.54082 2.91406 9.45957 2.91406 10.5518C2.91406 11.6439 2.1875 12.5674 1.19375 12.8627C0.785938 12.9893 0.5 13.3643 0.5 13.7908V15.8627C0.5 16.9314 1.3625 17.7939 2.43125 17.7939H19.6719C20.7406 17.7939 21.6031 16.9314 21.6031 15.8627V5.24082C21.6031 4.17207 20.7359 3.30957 19.6719 3.30957Z" fill="#FF5C6D"/>
<path d="M2.43125 3.30957C1.3625 3.30957 0.5 4.17207 0.5 5.24082V7.3127C0.5 7.73926 0.785938 8.11426 1.19375 8.24082C2.1875 8.54082 2.91406 9.45957 2.91406 10.5518C2.91406 11.6439 2.1875 12.5674 1.19375 12.8627C0.785938 12.9893 0.5 13.3643 0.5 13.7908V15.8627C0.5 16.9314 1.3625 17.7939 2.43125 17.7939H7.11406V3.30957H2.43125Z" fill="#FFC42C"/>
<path d="M11.427 9.0707C12.2269 9.0707 12.8754 8.42222 12.8754 7.62227C12.8754 6.82232 12.2269 6.17383 11.427 6.17383C10.627 6.17383 9.97852 6.82232 9.97852 7.62227C9.97852 8.42222 10.627 9.0707 11.427 9.0707Z" fill="#F7F5F6"/>
<path d="M17.2902 14.9301C18.0902 14.9301 18.7387 14.2816 18.7387 13.4816C18.7387 12.6817 18.0902 12.0332 17.2902 12.0332C16.4903 12.0332 15.8418 12.6817 15.8418 13.4816C15.8418 14.2816 16.4903 14.9301 17.2902 14.9301Z" fill="#F7F5F6"/>
<path d="M10.7051 14.208C10.3301 13.833 10.3301 13.2189 10.7051 12.8439L16.6535 6.89551C17.0285 6.52051 17.6426 6.52051 18.0176 6.89551C18.3926 7.27051 18.3926 7.88457 18.0176 8.25957L12.0691 14.208C11.6941 14.583 11.0801 14.583 10.7051 14.208Z" fill="#F7F5F6"/>
</g>
<defs>
<clipPath id="clip0_358_4474">
<rect width="24" height="24" fill="white" transform="translate(0.5)"/>
</clipPath>
</defs>
</svg>
