<svg width="234" height="37" viewBox="0 0 234 37" fill="none" xmlns="http://www.w3.org/2000/svg">
<path d="M24.6 11V11.48C24.6 14.56 23.36 16.8 20.8 18.24C24.24 19.6 25.8 22.24 25.8 25.92V26.28C25.8 33.64 20.52 36.16 13.4 36.16H6.44C1.64 36.16 0.2 34.44 0.2 29.84V7.4C0.2 2.8 1.64 1.08 6.44 1.08H12.28C19.6 1.08 24.6 4.44 24.6 11ZM12.68 7.88H9.48C8.56 7.88 8.32 8.08 8.32 9.04V15.36H12.68C15.32 15.36 16.48 13.84 16.48 11.88V11.36C16.48 9.32 15.32 7.88 12.68 7.88ZM13.88 21.88H8.32V28.2C8.32 29.16 8.56 29.36 9.48 29.36H13.88C16.52 29.36 17.68 27.92 17.68 25.92V25.32C17.68 23.32 16.52 21.88 13.88 21.88ZM30.5891 36.16V4.44C30.5891 1.68 32.5091 0.439998 34.7491 0.439998C36.9891 0.439998 38.9091 1.68 38.9091 4.44V36.16H30.5891ZM57.9634 8H47.4834C45.1234 8 44.2434 6.16 44.2434 4.56C44.2434 3 45.1634 1.08 47.4834 1.08H62.8834C65.1234 1.08 66.8034 1.72 67.6034 3.12C68.3634 4.48 68.4034 6.44 66.5234 9.4L53.8834 29.24H65.3234C67.6834 29.24 68.6034 31.08 68.6034 32.64C68.6034 34.24 67.6434 36.16 65.3234 36.16H48.9234C46.6834 36.16 45.0434 35.56 44.2034 34.12C43.5234 32.96 43.3234 30.92 45.2834 27.84L57.9634 8ZM80.6384 10.6C80.5984 12.88 83.2384 13.8 86.4384 14.92L88.3984 15.6C93.0784 17.24 96.4784 20.76 96.1984 26.72C95.8784 33.48 90.9984 36.8 83.7184 36.8C80.1584 36.8 75.7984 35.88 73.6384 34.16C72.1184 32.92 71.3984 30.76 72.5984 28.92C73.1984 28.04 74.2384 27.48 75.3184 27.48C76.6384 27.48 77.5184 28.16 78.2784 28.52C79.4784 29.08 81.2384 29.72 83.5584 29.72C86.3584 29.72 87.8784 28.36 87.9184 26.32C87.9584 23.8 84.8384 22.8 81.5984 21.6L79.6784 20.88C73.5584 18.6 71.6784 12.96 72.9984 7.88C74.2784 2.92 78.7984 0.439998 84.2784 0.439998C88.1984 0.439998 90.5984 1.24 92.0784 2.04C93.9184 3.04 95.1984 5.04 94.5984 6.96C94.0784 8.6 92.6784 9.24 91.1584 9.24C90.5584 9.24 89.6784 9 89.3184 8.72C88.3584 8.08 86.9584 7.52 84.5584 7.52C82.6384 7.52 80.6784 8.28 80.6384 10.6ZM100.78 36.16V4.44C100.78 1.68 102.7 0.439998 104.94 0.439998C107.18 0.439998 109.1 1.68 109.1 4.44V36.16H100.78ZM140.954 21.6V25.44C140.954 33.56 135.234 36.8 128.394 36.8C121.474 36.8 114.514 33.4 114.514 24.64V12.6C114.514 3.76 121.474 0.439998 128.514 0.439998C132.194 0.439998 135.434 1.28 136.994 2.4C138.634 3.56 139.434 5.48 138.474 7.16C137.674 8.56 136.194 9.12 134.834 8.88C133.914 8.72 133.234 8.28 132.634 8.04C131.674 7.68 130.274 7.52 128.514 7.52C125.714 7.52 122.674 9.28 122.674 12.96V24.28C122.674 27.96 125.514 29.72 128.394 29.72C131.114 29.72 133.634 28.4 133.634 25.56V23.4C133.634 22.6 133.474 22.48 132.714 22.48H131.394C129.074 22.48 128.194 20.72 128.194 19.12C128.194 17.52 129.114 15.64 131.394 15.64H135.034C139.754 15.64 140.954 17.12 140.954 21.6ZM168.923 0.439998C170.843 0.439998 172.563 1.8 172.563 4.24V32.8C172.563 35.24 170.443 36.48 168.643 36.64C166.723 36.8 164.243 36.08 163.403 34.32L153.643 14.16V36.16H146.363V4.52C146.363 2.04 148.523 0.719999 150.363 0.52C152.283 0.319997 154.643 1.08 155.523 2.84L165.283 22.84V4.24C165.283 1.8 167.003 0.439998 168.923 0.439998ZM207.748 36.16H198.948L197.068 29.28H187.468L185.588 36.16H176.948L187.228 3.76C187.948 1.52 190.228 0.439998 192.388 0.439998C194.428 0.439998 196.628 1.6 197.308 3.76L207.748 36.16ZM192.268 11.56L189.308 22.52H195.228L192.268 11.56ZM230.501 36.16H218.381C213.581 36.16 212.141 34.44 212.141 29.84V4.52C212.141 1.84 214.141 0.439998 216.301 0.439998C218.461 0.439998 220.461 1.84 220.461 4.52V28C220.461 28.96 220.701 29.16 221.621 29.16H230.501C232.861 29.16 233.741 30.96 233.741 32.6C233.741 34.24 232.821 36.16 230.501 36.16Z" fill="white"/>
</svg>
