<svg width="164" height="27" viewBox="0 0 164 27" fill="none" xmlns="http://www.w3.org/2000/svg">
<path d="M17.12 8.4V8.736C17.12 10.892 16.252 12.46 14.46 13.468C16.868 14.42 17.96 16.268 17.96 18.844V19.096C17.96 24.248 14.264 26.012 9.28 26.012H4.408C1.048 26.012 0.0400001 24.808 0.0400001 21.588V5.88C0.0400001 2.66 1.048 1.456 4.408 1.456H8.496C13.62 1.456 17.12 3.808 17.12 8.4ZM8.776 6.216H6.536C5.892 6.216 5.724 6.356 5.724 7.028V11.452H8.776C10.624 11.452 11.436 10.388 11.436 9.016V8.652C11.436 7.224 10.624 6.216 8.776 6.216ZM9.616 16.016H5.724V20.44C5.724 21.112 5.892 21.252 6.536 21.252H9.616C11.464 21.252 12.276 20.244 12.276 18.844V18.424C12.276 17.024 11.464 16.016 9.616 16.016ZM21.3123 26.012V3.808C21.3123 1.876 22.6563 1.008 24.2243 1.008C25.7923 1.008 27.1363 1.876 27.1363 3.808V26.012H21.3123ZM40.4744 6.3H33.1384C31.4864 6.3 30.8704 5.012 30.8704 3.892C30.8704 2.8 31.5144 1.456 33.1384 1.456H43.9184C45.4864 1.456 46.6624 1.904 47.2224 2.884C47.7544 3.836 47.7824 5.208 46.4664 7.28L37.6184 21.168H45.6264C47.2784 21.168 47.9224 22.456 47.9224 23.548C47.9224 24.668 47.2504 26.012 45.6264 26.012H34.1464C32.5784 26.012 31.4304 25.592 30.8424 24.584C30.3664 23.772 30.2264 22.344 31.5984 20.188L40.4744 6.3ZM56.3469 8.12C56.3189 9.716 58.1669 10.36 60.4069 11.144L61.7789 11.62C65.0549 12.768 67.4349 15.232 67.2389 19.404C67.0149 24.136 63.5989 26.46 58.5029 26.46C56.0109 26.46 52.9589 25.816 51.4469 24.612C50.3829 23.744 49.8789 22.232 50.7189 20.944C51.1389 20.328 51.8669 19.936 52.6229 19.936C53.5469 19.936 54.1629 20.412 54.6949 20.664C55.5349 21.056 56.7669 21.504 58.3909 21.504C60.3509 21.504 61.4149 20.552 61.4429 19.124C61.4709 17.36 59.2869 16.66 57.0189 15.82L55.6749 15.316C51.3909 13.72 50.0749 9.772 50.9989 6.216C51.8949 2.744 55.0589 1.008 58.8949 1.008C61.6389 1.008 63.3189 1.568 64.3549 2.128C65.6429 2.828 66.5389 4.228 66.1189 5.572C65.7549 6.72 64.7749 7.168 63.7109 7.168C63.2909 7.168 62.6749 7 62.4229 6.804C61.7509 6.356 60.7709 5.964 59.0909 5.964C57.7469 5.964 56.3749 6.496 56.3469 8.12ZM70.4458 26.012V3.808C70.4458 1.876 71.7898 1.008 73.3578 1.008C74.9258 1.008 76.2698 1.876 76.2698 3.808V26.012H70.4458ZM98.5678 15.82V18.508C98.5678 24.192 94.5638 26.46 89.7758 26.46C84.9318 26.46 80.0598 24.08 80.0598 17.948V9.52C80.0598 3.332 84.9318 1.008 89.8598 1.008C92.4358 1.008 94.7038 1.596 95.7958 2.38C96.9438 3.192 97.5038 4.536 96.8318 5.712C96.2718 6.692 95.2358 7.084 94.2838 6.916C93.6398 6.804 93.1638 6.496 92.7438 6.328C92.0718 6.076 91.0918 5.964 89.8598 5.964C87.8998 5.964 85.7718 7.196 85.7718 9.772V17.696C85.7718 20.272 87.7598 21.504 89.7758 21.504C91.6798 21.504 93.4438 20.58 93.4438 18.592V17.08C93.4438 16.52 93.3318 16.436 92.7998 16.436H91.8758C90.2518 16.436 89.6358 15.204 89.6358 14.084C89.6358 12.964 90.2798 11.648 91.8758 11.648H94.4238C97.7278 11.648 98.5678 12.684 98.5678 15.82ZM118.146 1.008C119.49 1.008 120.694 1.96 120.694 3.668V23.66C120.694 25.368 119.21 26.236 117.95 26.348C116.606 26.46 114.87 25.956 114.282 24.724L107.45 10.612V26.012H102.354V3.864C102.354 2.128 103.866 1.204 105.154 1.064C106.498 0.923998 108.15 1.456 108.766 2.688L115.598 16.688V3.668C115.598 1.96 116.802 1.008 118.146 1.008ZM145.324 26.012H139.164L137.848 21.196H131.128L129.812 26.012H123.764L130.96 3.332C131.464 1.764 133.06 1.008 134.572 1.008C136 1.008 137.54 1.82 138.016 3.332L145.324 26.012ZM134.488 8.792L132.416 16.464H136.56L134.488 8.792ZM161.25 26.012H152.766C149.406 26.012 148.398 24.808 148.398 21.588V3.864C148.398 1.988 149.798 1.008 151.31 1.008C152.822 1.008 154.222 1.988 154.222 3.864V20.3C154.222 20.972 154.39 21.112 155.034 21.112H161.25C162.902 21.112 163.518 22.372 163.518 23.52C163.518 24.668 162.874 26.012 161.25 26.012Z" fill="#22252A"/>
</svg>
