<svg width="180" height="180" viewBox="0 0 180 180" fill="none" xmlns="http://www.w3.org/2000/svg">
<path d="M0 16C0 7.16344 7.16344 0 16 0H164C172.837 0 180 7.16344 180 16V164C180 172.837 172.837 180 164 180H16C7.16344 180 0 172.837 0 164V16Z" fill="url(#paint0_linear_409_1506)"/>
<g clip-path="url(#clip0_409_1506)">
<path d="M103.049 24.1172C100.436 24.1172 98.2988 26.255 98.2988 28.867C98.2988 31.4794 100.436 33.6167 103.049 33.6167C105.661 33.6167 107.798 31.4794 107.798 28.867C107.798 26.255 105.661 24.1172 103.049 24.1172Z" fill="#D6E0FF"/>
<path d="M106.84 33.6172H99.2583C96.8573 33.6172 94.8926 35.5814 94.8926 37.9829V46.9413H111.205V37.9829C111.205 35.5819 109.241 33.6172 106.84 33.6172Z" fill="#91A8EF"/>
<path d="M99.6996 46.9409V40.0978C99.6996 39.598 99.294 39.1924 98.7941 39.1924C98.2938 39.1924 97.8887 39.5975 97.8887 40.0978V46.9409H99.6996Z" fill="#6E8BE1"/>
<path d="M108.21 40.0978C108.21 39.598 107.804 39.1924 107.304 39.1924C106.804 39.1924 106.398 39.5975 106.398 40.0978V46.9409H108.21V40.0978Z" fill="#6E8BE1"/>
<path d="M76.9509 24.1172C74.3385 24.1172 72.2012 26.255 72.2012 28.867C72.2012 31.4794 74.3385 33.6167 76.9509 33.6167C79.5634 33.6167 81.7007 31.4794 81.7007 28.867C81.7007 26.255 79.5634 24.1172 76.9509 24.1172Z" fill="#D6E0FF"/>
<path d="M80.7425 33.6172H73.1601C70.7592 33.6172 68.7949 35.5814 68.7949 37.9829V46.9413H85.1078V37.9829C85.1078 35.5819 83.1435 33.6172 80.7425 33.6172Z" fill="#91A8EF"/>
<path d="M73.6024 46.9408V40.0977C73.6024 39.5978 73.1968 39.1923 72.6969 39.1923C72.1966 39.1923 71.791 39.5974 71.791 40.0977V46.9408H73.6024Z" fill="#6E8BE1"/>
<path d="M82.1121 40.0977C82.1121 39.5978 81.7066 39.1923 81.2062 39.1923C80.7064 39.1923 80.3008 39.5974 80.3008 40.0977V46.9408H82.1121V40.0977Z" fill="#6E8BE1"/>
<path d="M120 73.0658C119.999 74.0399 119.208 74.8254 118.238 74.8254C105.254 74.8254 74.7308 74.8254 61.7619 74.8254C61.0304 74.8254 60.4028 74.3795 60.1364 73.7442C60.054 73.5363 60.0005 73.3299 60 73.0658C60 73.0648 60 73.0639 60 73.0635V77.8118V77.8141C60.0005 78.0783 60.054 78.2847 60.1364 78.4925C60.4028 79.1279 61.03 79.5742 61.7619 79.5742H118.238C119.208 79.5742 119.999 78.7883 120 77.8141C120 77.8132 120 77.8128 120 77.8118V73.0635V73.0658Z" fill="#103198"/>
<path d="M120 48.3392C119.999 47.3701 119.213 46.5791 118.238 46.5791C116.232 46.5791 78.5087 46.5791 76.7898 46.5791C68.632 46.5791 62.3639 46.5791 61.7619 46.5791C61.0304 46.5791 60.4028 47.0254 60.1364 47.6603C60.0471 47.8851 60 48.0906 60 48.341V73.4255V73.4278C60.0005 73.6919 60.054 73.8984 60.1364 74.1062C60.4028 74.7416 61.03 75.1879 61.7619 75.1879H118.238C119.208 75.1879 119.999 74.4019 120 73.4278C120 73.4269 120 73.4264 120 73.4255V48.341C120 48.3406 120 48.3397 120 48.3392Z" fill="#1643CB"/>
<path d="M84.5681 51.1807H96.8553C97.8006 51.1807 98.5738 51.9538 98.5738 52.8986V58.184C98.5738 59.1293 97.8006 59.9024 96.8553 59.9024H95.8084C95.5273 59.9024 95.2994 60.1304 95.2994 60.4115V63.9165C95.2994 64.2832 94.8393 64.4471 94.6072 64.1633L91.4816 60.3391C91.256 60.0631 90.9177 59.9024 90.5606 59.9024H84.5681C83.6228 59.9024 82.8496 59.1293 82.8496 58.184V52.8991C82.8496 51.9538 83.6228 51.1807 84.5681 51.1807Z" fill="#0B2B8C"/>
<path d="M82.8489 52.8986C82.8489 51.9538 83.6221 51.1807 84.5674 51.1807H92.5132V46.2208C92.5132 45.276 91.7401 44.5024 90.7948 44.5024H84.8027C84.4456 44.5024 84.1073 44.3421 83.8812 44.0657L80.756 40.242C80.5239 39.9577 80.0639 40.122 80.0639 40.4887V43.9933C80.0639 44.2744 79.8359 44.5028 79.5544 44.5028H78.5075C77.5627 44.5028 76.7891 45.276 76.7891 46.2213V51.5061C76.7891 52.4514 77.5622 53.2246 78.5075 53.2246H82.8489V52.8986Z" fill="#3D63D8"/>
<path d="M76.9509 61.3224C74.3385 61.3224 72.2012 63.4597 72.2012 66.0721C72.2012 68.6846 74.3385 70.8219 76.9509 70.8219C79.5634 70.8219 81.7007 68.6846 81.7007 66.0721C81.7007 63.4597 79.5634 61.3224 76.9509 61.3224Z" fill="#D6E0FF"/>
<path d="M80.7425 70.8223H73.1601C70.7592 70.8223 68.7949 72.787 68.7949 75.1879V82.6376C68.7949 83.2707 69.3081 83.7843 69.9416 83.7843H83.9611C84.5941 83.7843 85.1078 83.2707 85.1078 82.6376V75.1875C85.1078 72.7865 83.1435 70.8223 80.7425 70.8223Z" fill="#91A8EF"/>
<path d="M73.6024 83.7839V77.3029C73.6024 76.803 73.1968 76.3974 72.6969 76.3974C72.1966 76.3974 71.791 76.803 71.791 77.3029V83.7839H73.6024Z" fill="#6E8BE1"/>
<path d="M82.1121 77.3029C82.1121 76.803 81.7066 76.3974 81.2062 76.3974C80.7064 76.3974 80.3008 76.803 80.3008 77.3029V83.7839H82.1121V77.3029Z" fill="#6E8BE1"/>
<path d="M103.049 61.3224C100.436 61.3224 98.2988 63.4597 98.2988 66.0721C98.2988 68.6846 100.436 70.8219 103.049 70.8219C105.661 70.8219 107.798 68.6846 107.798 66.0721C107.798 63.4597 105.661 61.3224 103.049 61.3224Z" fill="#D6E0FF"/>
<path d="M106.84 70.8223H99.2583C96.8573 70.8223 94.8926 72.787 94.8926 75.1879V82.6376C94.8926 83.2707 95.4062 83.7843 96.0393 83.7843H110.059C110.692 83.7843 111.205 83.2707 111.205 82.6376V75.1875C111.205 72.7865 109.241 70.8223 106.84 70.8223Z" fill="#91A8EF"/>
<path d="M99.6996 83.7839V77.3029C99.6996 76.803 99.294 76.3974 98.7941 76.3974C98.2938 76.3974 97.8887 76.803 97.8887 77.3029V83.7839H99.6996Z" fill="#6E8BE1"/>
<path d="M108.21 77.3029C108.21 76.803 107.804 76.3974 107.304 76.3974C106.804 76.3974 106.398 76.803 106.398 77.3029V83.7839H108.21V77.3029Z" fill="#6E8BE1"/>
</g>
<rect y="108" width="180" height="72" rx="16" fill="#1643CB"/>
<path d="M66.4092 127.309V131.684H63.0322V132.873H67.8447V134.281H56.4971V132.873H61.2822V131.684H57.9053V127.309H66.4092ZM59.6143 128.662V130.316H64.7002V128.662H59.6143ZM66.4639 135.197V139.258H64.7275V136.564H57.7549V135.197H66.4639ZM79.9854 136.373V137.809H68.5967V136.373H71.1396V133.324C70.1758 132.75 69.5947 131.868 69.5947 130.768C69.5947 128.758 71.5635 127.418 74.2705 127.418C76.9639 127.418 78.9463 128.758 78.96 130.768C78.9531 131.841 78.3857 132.716 77.4561 133.297V136.373H79.9854ZM74.2705 128.799C72.4932 128.799 71.3174 129.51 71.3174 130.768C71.3174 131.984 72.4932 132.736 74.2705 132.736C76.0342 132.736 77.2236 131.984 77.2373 130.768C77.2236 129.51 76.0342 128.799 74.2705 128.799ZM72.8623 136.373H75.6924V133.953C75.248 134.042 74.7695 134.09 74.2705 134.09C73.7715 134.09 73.2998 134.049 72.8623 133.953V136.373ZM84.2373 127.186C86.124 127.186 87.5596 128.361 87.5596 130.029C87.5596 131.67 86.124 132.859 84.2373 132.859C82.3096 132.859 80.8877 131.67 80.8877 130.029C80.8877 128.361 82.3096 127.186 84.2373 127.186ZM84.2373 128.607C83.2803 128.607 82.5693 129.127 82.583 130.029C82.5693 130.918 83.2803 131.451 84.2373 131.451C85.1807 131.451 85.8779 130.918 85.8779 130.029C85.8779 129.127 85.1807 128.607 84.2373 128.607ZM91.1143 126.816V133.051H89.3643V126.816H91.1143ZM91.1143 133.57V136.947H84.4971V137.754H91.4561V139.121H82.7881V135.676H89.3779V134.91H82.7607V133.57H91.1143ZM106.536 126.816V139.285H104.786V132.572H102.558V131.15H104.786V126.816H106.536ZM100.726 129.934C100.726 132.121 101.724 134.404 103.829 135.307L102.804 136.688C101.361 136.011 100.384 134.705 99.8506 133.119C99.3105 134.814 98.3193 136.229 96.8701 136.947L95.8311 135.566C97.9229 134.609 98.9346 132.244 98.9346 129.934V129.414H96.3506V128.02H103.31V129.414H100.726V129.934ZM110.542 127.5V132.463C112.155 132.456 113.461 132.374 114.917 132.121L115.136 133.529C113.399 133.857 111.813 133.926 109.804 133.926H108.819V127.5H110.542ZM118.608 134.773V139.258H116.872V136.182H110.036V134.773H118.608ZM118.608 126.816V134.254H116.872V131.588H113.823V130.275H116.872V129.414H113.823V128.102H116.872V126.816H118.608ZM122.847 136.988L121.671 140.885H120.222L120.905 136.988H122.847ZM44.418 148.459C47.0977 148.459 49.0938 149.812 49.1074 151.863C49.0938 153.736 47.5146 155.001 45.2793 155.254V157.373H50.1328V158.809H38.7441V157.373H43.543V155.24C41.3145 155.001 39.7422 153.729 39.7422 151.863C39.7422 149.812 41.7383 148.459 44.418 148.459ZM44.418 149.854C42.6816 149.854 41.4648 150.619 41.4648 151.863C41.4648 153.176 42.6816 153.914 44.418 153.914C46.168 153.914 47.3711 153.176 47.3848 151.863C47.3711 150.619 46.168 149.854 44.418 149.854ZM62.2324 157.359V158.809H50.8438V157.359H62.2324ZM61.2754 148.91V150.305H59.5254V154.078H61.2207V155.445H51.7871V154.078H53.4551V150.305H51.7324V148.91H61.2754ZM55.2051 154.078H57.8027V150.305H55.2051V154.078ZM72.7598 147.816V152.52H74.5918V153.955H72.7598V160.285H71.0371V147.816H72.7598ZM69.2051 148.855V153.682H65.1992V155.938C67.0107 155.931 68.5078 155.849 70.1621 155.568L70.3125 156.963C68.4121 157.305 66.7031 157.387 64.5156 157.387H63.4629V152.301H67.4688V150.264H63.4492V148.855H69.2051ZM85.4609 147.83V156.771H83.7109V147.83H85.4609ZM85.7891 158.645V160.039H77.1211V155.869H78.8848V158.645H85.7891ZM78.6387 148.623C80.5527 148.623 82.043 149.936 82.043 151.754C82.043 153.613 80.5527 154.912 78.6387 154.912C76.7246 154.912 75.2344 153.613 75.2344 151.754C75.2344 149.936 76.7246 148.623 78.6387 148.623ZM78.6387 150.141C77.668 150.127 76.9297 150.742 76.9434 151.754C76.9297 152.793 77.668 153.395 78.6387 153.395C79.582 153.395 80.3203 152.793 80.3203 151.754C80.3203 150.742 79.582 150.127 78.6387 150.141ZM101.758 157.373V158.809H90.3691V157.373H95.168V154.83H91.5723V148.732H100.486V154.83H96.9043V157.373H101.758ZM93.2949 150.127V153.463H98.7637V150.127H93.2949ZM112.887 147.83V154.857H111.137V147.83H112.887ZM112.887 155.418V160.121H104.547V155.418H112.887ZM106.27 156.799V158.727H111.178V156.799H106.27ZM106.064 148.391C108.006 148.391 109.469 149.621 109.469 151.398C109.469 153.107 108.006 154.365 106.064 154.365C104.123 154.365 102.66 153.107 102.66 151.398C102.66 149.621 104.123 148.391 106.064 148.391ZM106.064 149.854C105.066 149.854 104.355 150.428 104.369 151.398C104.355 152.328 105.066 152.902 106.064 152.902C107.035 152.902 107.746 152.328 107.746 151.398C107.746 150.428 107.035 149.854 106.064 149.854ZM122.648 150.277C122.648 151.768 123.564 153.285 125.615 153.9L124.727 155.268C123.332 154.83 122.348 153.935 121.787 152.807C121.22 154.03 120.208 155.015 118.752 155.5L117.85 154.133C119.914 153.463 120.871 151.85 120.871 150.277V150.1H118.314V148.705H125.15V150.1H122.648V150.277ZM128.213 147.83V156.826H126.463V147.83H128.213ZM128.541 158.645V160.039H119.873V156.006H121.637V158.645H128.541ZM140.586 147.816V155.623H138.932V152.314H137.934V155.213H136.307V148.049H137.934V150.893H138.932V147.816H140.586ZM135.938 149.102V150.455H129.826V149.102H132.027V147.926H133.764V149.102H135.938ZM132.902 150.865C134.488 150.865 135.609 151.74 135.623 153.039C135.609 154.324 134.488 155.199 132.902 155.199C131.344 155.199 130.209 154.324 130.209 153.039C130.209 151.74 131.344 150.865 132.902 150.865ZM132.902 152.123C132.219 152.123 131.768 152.465 131.768 153.039C131.768 153.613 132.219 153.969 132.902 153.955C133.586 153.969 134.037 153.613 134.051 153.039C134.037 152.465 133.586 152.123 132.902 152.123ZM136.334 155.732C139.027 155.732 140.641 156.553 140.654 158.002C140.641 159.438 139.027 160.258 136.334 160.258C133.654 160.258 132.027 159.438 132.027 158.002C132.027 156.553 133.654 155.732 136.334 155.732ZM136.334 157.045C134.652 157.045 133.764 157.346 133.777 158.002C133.764 158.631 134.652 158.945 136.334 158.945C138.029 158.945 138.891 158.631 138.891 158.002C138.891 157.346 138.029 157.045 136.334 157.045Z" fill="white"/>
<rect x="12" y="12" width="24" height="24" rx="12" fill="#1643CB"/>
<path d="M24.1094 28.6367C22.0586 28.623 20.1172 27.4062 20.1172 23.7832C20.1172 20.4473 21.7168 18.4648 24.1914 18.4648C26.1875 18.4648 27.541 19.7227 27.7461 21.3496H25.7227C25.5586 20.6523 24.9844 20.2285 24.1914 20.2285C22.8516 20.2285 22.1406 21.4453 22.127 23.3867H22.2227C22.6738 22.5117 23.6582 21.9922 24.752 21.9922C26.5293 21.9922 27.8555 23.332 27.8555 25.1914C27.8555 27.2012 26.3379 28.6504 24.1094 28.6367ZM24.0957 27.0098C25.1074 27.0098 25.8594 26.2441 25.8594 25.2461C25.8594 24.2617 25.1348 23.4824 24.123 23.4824C23.1113 23.4824 22.3457 24.2754 22.332 25.2461C22.3457 26.2168 23.084 27.0098 24.0957 27.0098Z" fill="white"/>
<defs>
<linearGradient id="paint0_linear_409_1506" x1="-0.499999" y1="89.5" x2="180.5" y2="89.5" gradientUnits="userSpaceOnUse">
<stop stop-color="#E6F5FF"/>
<stop offset="1" stop-color="#E4EDFF"/>
</linearGradient>
<clipPath id="clip0_409_1506">
<rect width="60" height="60" fill="white" transform="translate(60 24)"/>
</clipPath>
</defs>
</svg>
