<svg width="180" height="180" viewBox="0 0 180 180" fill="none" xmlns="http://www.w3.org/2000/svg">
<path d="M0 16C0 7.16344 7.16344 0 16 0H164C172.837 0 180 7.16344 180 16V164C180 172.837 172.837 180 164 180H16C7.16344 180 0 172.837 0 164V16Z" fill="url(#paint0_linear_409_1534)"/>
<path d="M116.043 38.1375C114.993 35.0062 112.031 35.4 107.643 34.9875C106.087 31.0125 105.506 27.75 102.187 27.75C98.8682 27.75 98.2307 31.1062 96.6182 35.1C92.3619 35.4188 89.3807 35.025 88.3307 38.1375C86.8869 42.45 93.5244 45.0187 93.2994 45.9937C92.3057 50.1937 90.8994 53.1938 93.6932 55.1625C96.4119 57.075 98.6994 54.7688 102.224 52.5375C105.431 54.6 107.924 57.0938 110.681 55.1625C114.374 52.5563 110.493 46.2938 111.149 45.7313C114.356 42.9188 117.131 41.3625 116.043 38.1375Z" fill="#8C25D5"/>
<path d="M94.8 59.625H88.125C87.0938 59.625 86.25 58.7812 86.25 57.75V54C86.25 50.9062 83.7188 48.375 80.625 48.375C78.6375 48.375 76.9875 49.9313 76.875 51.9C75.5813 58.3313 75.75 59.625 73.8 59.625H73.125C72.0938 59.625 71.25 60.4688 71.25 61.5V76.5C71.25 77.5312 72.0938 78.375 73.125 78.375H87.975C91.0875 78.375 93.9 76.425 95.0063 73.5187L98.3063 64.7062C99.225 62.25 97.4062 59.6438 94.8 59.6438V59.625Z" fill="#E7C6FF"/>
<path d="M71.25 57.75H67.5C65.4289 57.75 63.75 59.4289 63.75 61.5V76.5C63.75 78.5711 65.4289 80.25 67.5 80.25H71.25C73.3211 80.25 75 78.5711 75 76.5V61.5C75 59.4289 73.3211 57.75 71.25 57.75Z" fill="#C58BEE"/>
<rect y="108" width="180" height="72" rx="16" fill="#8C25D5"/>
<path d="M80.0264 126.816V131.438H81.8584V132.859H80.0264V139.285H78.2764V126.816H80.0264ZM76.54 127.965V129.373H72.4385V134.828C74.2432 134.808 75.7334 134.726 77.3877 134.432L77.5791 135.895C75.6514 136.223 73.9561 136.277 71.7549 136.264H70.7021V127.965H76.54ZM87.9834 127.049C90.7451 127.049 92.4951 127.965 92.5088 129.482C92.4951 130.986 90.7451 131.902 87.9834 131.889C85.2354 131.902 83.4443 130.986 83.4443 129.482C83.4443 127.965 85.2354 127.049 87.9834 127.049ZM87.9834 128.402C86.2471 128.402 85.249 128.771 85.2627 129.482C85.249 130.18 86.2471 130.535 87.9834 130.535C89.7061 130.535 90.7041 130.18 90.7041 129.482C90.7041 128.771 89.7061 128.402 87.9834 128.402ZM92.3037 134.883V139.121H83.6221V134.883H92.3037ZM85.3447 136.264V137.727H90.5947V136.264H85.3447ZM93.6572 132.613V134.008H82.3096V132.613H93.6572ZM104.28 126.816V129.141H105.962V130.576H104.28V132.969H102.53V126.816H104.28ZM96.665 127.363V131.178C98.1621 131.157 99.7754 131.021 101.491 130.686L101.696 132.107C99.6455 132.518 97.7451 132.627 95.9814 132.613H94.915V127.363H96.665ZM104.28 133.475V136.906H97.7861V137.727H104.636V139.121H96.0498V135.594H102.517V134.842H96.0225V133.475H104.28ZM109.134 136.988L107.958 140.885H106.509L107.192 136.988H109.134ZM54.665 147.816V151.303H56.3467V152.738H54.665V156.73H52.9014V147.816H54.665ZM51.2744 148.746C51.2744 152.109 49.1689 154.461 45.4365 155.514L44.7119 154.133C47.4941 153.354 49.0732 151.911 49.3604 150.168H45.2588V148.746H51.2744ZM55.0889 158.645V160.039H46.5713V155.814H48.335V158.645H55.0889ZM66.7646 147.816V151.207H68.4463V152.643H66.7646V156.812H65.0146V147.816H66.7646ZM62.9912 148.814V150.209H59.1221V153.354C61.3711 153.34 62.6084 153.271 64.0029 152.971L64.1807 154.365C62.6221 154.693 61.1865 154.762 58.4248 154.762H57.3721V148.814H62.9912ZM67.2158 158.645V160.039H58.6982V155.855H60.4346V158.645H67.2158ZM78.8643 147.83V151.645H80.5459V153.066H78.8643V157.113H77.1143V147.83H78.8643ZM76.376 149.129V150.51H68.9932V149.129H71.8232V147.803H73.5596V149.129H76.376ZM72.6846 150.947C74.4893 150.947 75.7471 151.918 75.7471 153.354C75.7471 154.789 74.4893 155.732 72.6846 155.732C70.8662 155.732 69.5947 154.789 69.5947 153.354C69.5947 151.918 70.8662 150.947 72.6846 150.947ZM72.6846 152.273C71.8506 152.287 71.29 152.67 71.3037 153.354C71.29 154.037 71.8506 154.406 72.6846 154.406C73.5186 154.406 74.0928 154.037 74.0928 153.354C74.0928 152.67 73.5186 152.287 72.6846 152.273ZM79.3154 158.645V160.039H70.7979V156.402H72.5342V158.645H79.3154ZM95.0791 149.102V150.51H84.8662V149.102H89.1182V147.803H90.8545V149.102H95.0791ZM95.708 155.855V157.277H90.8545V160.271H89.1182V157.277H84.3193V155.855H95.708ZM89.9932 150.988C92.6592 150.988 94.2725 151.74 94.2861 153.121C94.2725 154.502 92.6592 155.254 89.9932 155.254C87.2998 155.254 85.6865 154.502 85.7002 153.121C85.6865 151.74 87.2998 150.988 89.9932 150.988ZM89.9932 152.273C88.3252 152.287 87.5049 152.547 87.5049 153.121C87.5049 153.682 88.3252 153.955 89.9932 153.955C91.6338 153.955 92.4678 153.682 92.4678 153.121C92.4678 152.547 91.6338 152.287 89.9932 152.273ZM106.878 147.816V160.258H105.114V147.816H106.878ZM103.146 149.115C103.146 152.889 101.819 156.02 97.376 158.125L96.46 156.73C99.6729 155.213 101.088 153.244 101.368 150.482H97.1299V149.115H103.146ZM118.813 148.541V149.936H116.339C116.353 151.392 117.214 152.882 119.237 153.531L118.349 154.885C116.968 154.44 116.018 153.552 115.478 152.438C114.924 153.654 113.933 154.618 112.483 155.09L111.554 153.75C113.611 153.087 114.548 151.494 114.575 149.936H112.032V148.541H118.813ZM121.616 147.816V150.838H123.298V152.287H121.616V155.322H119.866V147.816H121.616ZM121.616 155.855V160.258H119.866V157.236H113.235V155.855H121.616ZM128.548 149.512C128.534 151.18 129.396 152.711 131.392 153.326L130.476 154.693C129.136 154.229 128.227 153.367 127.714 152.246C127.153 153.545 126.148 154.57 124.651 155.076L123.735 153.682C125.868 152.998 126.771 151.33 126.784 149.594V148.459H128.548V149.512ZM134.331 147.816V155.104H132.595V151.521H130.257V150.1H132.595V147.816H134.331ZM130.079 155.432C132.731 155.432 134.358 156.32 134.372 157.852C134.358 159.383 132.731 160.258 130.079 160.258C127.427 160.258 125.8 159.383 125.8 157.852C125.8 156.32 127.427 155.432 130.079 155.432ZM130.079 156.785C128.425 156.785 127.536 157.141 127.536 157.852C127.536 158.535 128.425 158.904 130.079 158.904C131.733 158.904 132.636 158.535 132.636 157.852C132.636 157.141 131.733 156.785 130.079 156.785Z" fill="white"/>
<rect x="12" y="12" width="24" height="24" rx="12" fill="#8C25D5"/>
<path d="M21.1357 28.5L25.3057 20.3516V20.2832H20.4521V18.6016H27.4385V20.3105L23.2686 28.5H21.1357Z" fill="white"/>
<defs>
<linearGradient id="paint0_linear_409_1534" x1="-0.499999" y1="89.5" x2="180.5" y2="89.5" gradientUnits="userSpaceOnUse">
<stop stop-color="#E8EDFF"/>
<stop offset="1" stop-color="#F7E8FF"/>
</linearGradient>
</defs>
</svg>
