<svg width="180" height="180" viewBox="0 0 180 180" fill="none" xmlns="http://www.w3.org/2000/svg">
<rect width="180" height="180" rx="16" fill="url(#paint0_linear_409_1408)"/>
<g clip-path="url(#clip0_409_1408)">
<path d="M76.1719 31.0312C76.1719 27.1479 71.0317 24 67.1484 24C63.2652 24 60 27.1479 60 31.0312V69.8203H72.6562V37.0873C74.749 35.8693 76.1719 33.6272 76.1719 31.0312Z" fill="#AB3D3D"/>
<path d="M86.4844 31.0312H67.1484V84H86.4844H105.938V31.0312H86.4844Z" fill="#FF6C6C"/>
<path d="M114.727 39.4053L111.99 45.2113L113.913 46.9691H114.727H115.745L117.464 45.2113L114.727 39.4053Z" fill="#743636"/>
<path d="M117.463 45.2109H114.727H111.99L109.453 50.4844L112.414 52.2422H114.727H116.993L120 50.4844L117.463 45.2109Z" fill="#FFB9B9"/>
<path d="M79.6433 56.6765L74.6943 51.7274L77.1799 49.2419L79.2622 51.3241L83.3203 45.915L86.1321 48.023L79.6433 56.6765Z" fill="#C14040"/>
<path d="M79.6433 67.2234L74.6943 62.2743L77.1799 59.7887L79.2622 61.8709L83.3203 56.4619L86.1321 58.5699L79.6433 67.2234Z" fill="#C14040"/>
<path d="M79.6433 77.7702L74.6943 72.8212L77.1799 70.3356L79.2622 72.4178L83.3203 67.0088L86.1321 69.1168L79.6433 77.7702Z" fill="#C14040"/>
<path d="M88.2422 52.2422H98.9062V55.7578H88.2422V52.2422Z" fill="#C14040"/>
<path d="M88.2422 62.7891H98.9062V66.3047H88.2422V62.7891Z" fill="#C14040"/>
<path d="M88.2422 73.3359H98.9062V76.8516H88.2422V73.3359Z" fill="#C14040"/>
<path d="M114.727 50.4844H109.453V76.8516L112.33 78.6094H114.727H117.16L120 76.8516V50.4844H114.727Z" fill="#C14040"/>
<path d="M114.727 76.8516H109.453V84H114.727H120V76.8516H114.727Z" fill="#743636"/>
<path d="M77.6953 31.0312H67.1484V38.0625C71.0317 38.0625 77.6953 34.9145 77.6953 31.0312Z" fill="#842E2E"/>
<path d="M105.938 24H86.4844H67.1484C71.0317 24 74.1797 27.1479 74.1797 31.0312C74.1797 34.9145 71.0317 38.0625 67.1484 38.0625H86.4844H105.938C109.821 38.0625 112.969 34.9145 112.969 31.0312C112.969 27.1479 109.821 24 105.938 24Z" fill="#DF5959"/>
</g>
<rect y="108" width="180" height="72" rx="16" fill="#E83838"/>
<path d="M56.1826 136.4V137.809H44.7939V136.4H49.6064V133.625H51.3564V136.4H56.1826ZM55.1846 127.76V129.168H51.3975C51.541 130.809 53.0859 132.333 55.7588 132.723L55.0752 134.104C52.8945 133.721 51.2812 132.654 50.4814 131.178C49.6885 132.682 48.0889 133.775 45.9424 134.172L45.2588 132.791C47.8428 132.374 49.3945 130.815 49.5381 129.168H45.7373V127.76H55.1846ZM67.3799 126.83V135.922H65.6436V131.861H63.415V130.426H65.6436V126.83H67.3799ZM63.5244 127.746C63.5244 131.082 61.4053 133.543 57.7686 134.678L57.0576 133.297C59.6348 132.49 61.2959 131.007 61.624 129.168H57.7002V127.746H63.5244ZM67.6943 137.645V139.039H59.1768V135.006H60.9541V137.645H67.6943ZM82.6787 126.816V139.258H80.915V126.816H82.6787ZM78.9463 128.115C78.9463 131.889 77.6201 135.02 73.1768 137.125L72.2607 135.73C75.4736 134.213 76.8887 132.244 77.1689 129.482H72.9307V128.115H78.9463ZM94.1904 126.83V130.33H95.8721V131.766H94.1904V135.99H92.4404V126.83H94.1904ZM94.6416 137.645V139.039H86.124V135.047H87.8604V137.645H94.6416ZM86.4248 127.705V129.51H88.9678V127.705H90.7178V134.008H84.6885V127.705H86.4248ZM86.4248 132.641H88.9678V130.85H86.4248V132.641ZM110.405 126.816V139.258H108.751V126.816H110.405ZM107.862 127.021V138.684H106.222V132.49H104.581V131.082H106.222V127.021H107.862ZM103.583 130.152C103.583 132.217 104.226 134.309 106.044 135.348L105.019 136.633C103.911 135.977 103.18 134.862 102.763 133.529C102.332 134.979 101.58 136.209 100.438 136.906L99.3857 135.621C101.218 134.5 101.901 132.258 101.901 130.152V129.482H99.8643V128.088H105.47V129.482H103.583V130.152ZM121.616 126.816V130.385H123.298V131.834H121.616V135.881H119.866V126.816H121.616ZM122.067 137.645V139.039H113.55V134.924H115.286V137.645H122.067ZM115.245 127.623C117.146 127.623 118.636 128.936 118.636 130.781C118.636 132.6 117.146 133.939 115.245 133.939C113.331 133.939 111.827 132.6 111.827 130.781C111.827 128.936 113.331 127.623 115.245 127.623ZM115.245 129.141C114.302 129.127 113.536 129.742 113.55 130.781C113.536 131.793 114.302 132.422 115.245 132.422C116.202 132.422 116.927 131.793 116.94 130.781C116.927 129.742 116.202 129.127 115.245 129.141ZM131.104 130.631V132.025H128.876V133.283C129.86 133.235 130.838 133.174 131.761 133.078L131.884 134.322C129.245 134.691 126.429 134.76 124.132 134.76L123.899 133.379C124.897 133.372 125.998 133.365 127.126 133.338V132.025H124.952V127.568H130.995V128.963H126.702V130.631H131.104ZM134.304 126.803V136.182H132.526V126.803H134.304ZM134.632 137.645V139.039H125.827V135.471H127.591V137.645H134.632ZM34 157.373V158.809H22.6113V157.373H27.4102V154.83H23.8145V148.732H32.7285V154.83H29.1465V157.373H34ZM25.5371 150.127V153.463H31.0059V150.127H25.5371ZM45.1289 147.83V154.857H43.3789V147.83H45.1289ZM45.1289 155.418V160.121H36.7891V155.418H45.1289ZM38.5117 156.799V158.727H43.4199V156.799H38.5117ZM38.3066 148.391C40.248 148.391 41.7109 149.621 41.7109 151.398C41.7109 153.107 40.248 154.365 38.3066 154.365C36.3652 154.365 34.9023 153.107 34.9023 151.398C34.9023 149.621 36.3652 148.391 38.3066 148.391ZM38.3066 149.854C37.3086 149.854 36.5977 150.428 36.6113 151.398C36.5977 152.328 37.3086 152.902 38.3066 152.902C39.2773 152.902 39.9883 152.328 39.9883 151.398C39.9883 150.428 39.2773 149.854 38.3066 149.854ZM60.7695 147.816V160.258H59.0879V153.928H57.9531V159.711H56.3262V148.145H57.9531V152.533H59.0879V147.816H60.7695ZM55.4512 149.348C55.4375 152.82 54.3984 155.664 50.8984 157.701L49.8867 156.498C52.4229 155.008 53.5098 153.183 53.7559 150.742H50.5156V149.348H55.4512ZM72.623 147.816V154.146H70.8867V151.057H68.5488V149.676H70.8867V147.816H72.623ZM72.623 154.666V157.988H66.0879V158.754H72.9785V160.121H64.3652V156.717H70.9004V156.006H64.3516V154.666H72.623ZM66.7988 149.129C66.7852 150.619 67.6602 152.055 69.6426 152.643L68.7266 153.982C67.3936 153.552 66.4639 152.718 65.9238 151.645C65.3838 152.841 64.3994 153.784 62.9434 154.242L62.041 152.861C64.1055 152.26 65.0215 150.742 65.0352 149.129V148.227H66.7988V149.129ZM81.2227 159.15C78.9805 159.15 77.5859 157.605 77.5859 155.309C77.5859 153.012 78.9805 151.48 81.2227 151.48C83.4648 151.48 84.873 153.012 84.873 155.309C84.873 157.605 83.4648 159.15 81.2227 159.15ZM81.2363 157.578C82.2754 157.578 82.8086 156.607 82.8086 155.309C82.8086 153.996 82.2754 153.025 81.2363 153.025C80.1836 153.025 79.6367 153.996 79.6367 155.309C79.6367 156.607 80.1836 157.578 81.2363 157.578ZM86.1445 159V151.576H88.0996V152.861H88.1816C88.4551 151.945 89.1387 151.467 89.9727 151.467C90.1777 151.467 90.4375 151.494 90.6152 151.535V153.34C90.4238 153.285 90.041 153.23 89.7539 153.23C88.8379 153.23 88.168 153.873 88.168 154.775V159H86.1445ZM104.834 147.816V160.285H103.098V147.816H104.834ZM100.979 148.855V153.654H96.877V155.938C98.7705 155.931 100.384 155.821 102.209 155.527L102.359 156.936C100.309 157.291 98.4629 157.373 96.1934 157.373H95.0723V152.273H99.2012V150.264H95.0586V148.855H100.979ZM113.051 149.457C113.051 151.275 114.664 153.23 117.48 153.709L116.715 155.158C114.548 154.728 112.935 153.511 112.135 151.904C111.308 153.497 109.694 154.721 107.541 155.158L106.789 153.709C109.551 153.217 111.178 151.262 111.191 149.457V148.555H113.051V149.457ZM117.891 157.291V158.727H106.502V157.291H117.891ZM128.746 154.242V155.623H119.941V148.732H128.65V150.141H121.719V151.453H128.363V152.82H121.719V154.242H128.746ZM129.99 157.387V158.809H118.602V157.387H129.99ZM143.881 147.83V151.385H145.467V152.82H143.881V156.279H142.131V147.83H143.881ZM133.791 154.68C134.7 154.68 135.739 154.68 136.812 154.652V153.955C135.459 153.764 134.611 153.107 134.625 152.15C134.611 151.002 135.828 150.291 137.674 150.291C139.506 150.291 140.709 151.002 140.723 152.15C140.709 153.107 139.882 153.757 138.549 153.941V154.584C139.574 154.543 140.593 154.461 141.557 154.338L141.68 155.541C139.055 156.006 136.17 156.033 133.969 156.033L133.791 154.68ZM143.881 156.785V160.258H142.131V158.125H135.377V156.785H143.881ZM141.242 148.732V150.004H134.119V148.732H136.812V147.721H138.549V148.732H141.242ZM137.674 151.453C136.785 151.453 136.279 151.672 136.293 152.15C136.279 152.602 136.785 152.861 137.674 152.861C138.549 152.861 139.041 152.602 139.055 152.15C139.041 151.672 138.549 151.453 137.674 151.453ZM156.445 147.83V156.771H154.695V147.83H156.445ZM156.773 158.645V160.039H148.105V155.869H149.869V158.645H156.773ZM149.623 148.623C151.537 148.623 153.027 149.936 153.027 151.754C153.027 153.613 151.537 154.912 149.623 154.912C147.709 154.912 146.219 153.613 146.219 151.754C146.219 149.936 147.709 148.623 149.623 148.623ZM149.623 150.141C148.652 150.127 147.914 150.742 147.928 151.754C147.914 152.793 148.652 153.395 149.623 153.395C150.566 153.395 151.305 152.793 151.305 151.754C151.305 150.742 150.566 150.127 149.623 150.141Z" fill="white"/>
<rect x="12" y="12" width="24" height="24" rx="12" fill="#E83838"/>
<path d="M25.7637 18.6016V28.5H23.6992V20.5566H23.6445L21.375 21.9785V20.1602L23.8223 18.6016H25.7637Z" fill="white"/>
<defs>
<linearGradient id="paint0_linear_409_1408" x1="-0.499999" y1="89.5" x2="180.5" y2="89.5" gradientUnits="userSpaceOnUse">
<stop stop-color="#FFF5E3"/>
<stop offset="1" stop-color="#FFE8E8"/>
</linearGradient>
<clipPath id="clip0_409_1408">
<rect width="60" height="60" fill="white" transform="translate(60 24)"/>
</clipPath>
</defs>
</svg>
