<svg width="180" height="180" viewBox="0 0 180 180" fill="none" xmlns="http://www.w3.org/2000/svg">
<path d="M0 16C0 7.16344 7.16344 0 16 0H164C172.837 0 180 7.16344 180 16V164C180 172.837 172.837 180 164 180H16C7.16344 180 0 172.837 0 164V16Z" fill="url(#paint0_linear_409_1448)"/>
<g clip-path="url(#clip0_409_1448)">
<path d="M60.8613 34.7823L63.5759 32.0677L69.7291 38.2209L67.0145 40.9355L60.8613 34.7823Z" fill="#FFAD28"/>
<path d="M110.633 38.2266L116.786 32.0734L119.501 34.788L113.347 40.9412L110.633 38.2266Z" fill="#FFAD28"/>
<path d="M79.1797 24.9902H83.0193V33.6934H79.1797V24.9902Z" fill="#FFAD28"/>
<path d="M97.3535 24.9902H101.193V33.6934H97.3535V24.9902Z" fill="#FFAD28"/>
<path d="M74.0086 62.2198C77.3152 62.2198 79.9958 59.5392 79.9958 56.2326C79.9958 52.926 77.3152 50.2455 74.0086 50.2455C70.702 50.2455 68.0215 52.926 68.0215 56.2326C68.0215 59.5392 70.702 62.2198 74.0086 62.2198Z" fill="#FFDA9F"/>
<path d="M84.9307 72.0878C84.9307 66.6373 80.5122 62.2189 75.0618 62.2189H72.9564C67.5059 62.2189 63.0876 66.6375 63.0876 72.0878L63.0449 83.0094H74.0093L84.9307 80.279V72.0878Z" fill="#AF8643"/>
<path d="M95.8524 62.2198C99.159 62.2198 101.84 59.5392 101.84 56.2326C101.84 52.926 99.159 50.2455 95.8524 50.2455C92.5458 50.2455 89.8652 52.926 89.8652 56.2326C89.8652 59.5392 92.5458 62.2198 95.8524 62.2198Z" fill="#FFC66B"/>
<path d="M106.775 72.0878C106.775 66.6373 102.356 62.2189 96.9059 62.2189H94.8005C89.35 62.2189 84.9316 66.6375 84.9316 72.0878V78.3592L95.8532 83.0094L106.817 78.1032L106.775 72.0878Z" fill="#5D4013"/>
<path d="M106.774 73.1424C110.081 73.1424 112.761 70.4618 112.761 67.1552C112.761 63.8486 110.081 61.1681 106.774 61.1681C103.468 61.1681 100.787 63.8486 100.787 67.1552C100.787 70.4618 103.468 73.1424 106.774 73.1424Z" fill="#FFDA9F"/>
<path d="M117.695 83.0108C117.695 77.5604 113.276 73.142 107.826 73.142H105.72C100.27 73.142 95.8516 77.5605 95.8516 83.0108H117.695Z" fill="#AF8643"/>
<path d="M85.2382 61.1756C88.4016 61.3357 90.9174 63.9516 90.9177 67.1547C90.9177 70.4612 88.2374 73.1421 84.9311 73.1424L84.6228 73.1349C81.4593 72.9748 78.9434 70.3581 78.9434 67.1547C78.9436 63.8484 81.6247 61.1681 84.9311 61.1681L85.2382 61.1756Z" fill="#FFC66B"/>
<path d="M85.9841 73.142C91.4342 73.1422 95.8519 77.5606 95.8519 83.0109H74.0098C74.0098 77.5605 78.4282 73.142 83.8787 73.142H85.9841Z" fill="#6C4F20"/>
</g>
<rect y="108" width="180" height="72" rx="16" fill="#FFAD28"/>
<path d="M66.252 136.25V134.623L70.4355 128.102H73.0195V134.596H74.2773V136.25H73.0195V138H71.0645V136.25H66.252ZM68.3301 134.596H71.0918V130.357H70.9961L68.3301 134.514V134.596ZM85.625 126.83V135.771H83.875V126.83H85.625ZM85.9531 137.645V139.039H77.2852V134.869H79.0488V137.645H85.9531ZM78.8027 127.623C80.7168 127.623 82.207 128.936 82.207 130.754C82.207 132.613 80.7168 133.912 78.8027 133.912C76.8887 133.912 75.3984 132.613 75.3984 130.754C75.3984 128.936 76.8887 127.623 78.8027 127.623ZM78.8027 129.141C77.832 129.127 77.0938 129.742 77.1074 130.754C77.0938 131.793 77.832 132.395 78.8027 132.395C79.7461 132.395 80.4844 131.793 80.4844 130.754C80.4844 129.742 79.7461 129.127 78.8027 129.141ZM100.951 126.816V139.285H99.1875V126.816H100.951ZM94.1973 127.691C96.0703 127.691 97.4648 129.414 97.4648 132.121C97.4648 134.855 96.0703 136.564 94.1973 136.564C92.2832 136.564 90.8887 134.855 90.9023 132.121C90.8887 129.414 92.2832 127.691 94.1973 127.691ZM94.1973 129.264C93.2266 129.264 92.584 130.275 92.584 132.121C92.584 133.98 93.2266 134.979 94.1973 134.979C95.1406 134.979 95.7832 133.98 95.7832 132.121C95.7832 130.275 95.1406 129.264 94.1973 129.264ZM107.172 128.771C107.172 130.275 108.047 131.725 110.016 132.34L109.086 133.693C107.767 133.256 106.844 132.408 106.311 131.314C105.771 132.572 104.807 133.557 103.385 134.035L102.441 132.668C104.52 131.971 105.408 130.316 105.422 128.607V127.473H107.172V128.771ZM112.504 126.816V129.729H114.186V131.178H112.504V134.199H110.754V126.816H112.504ZM108.43 134.445C111 134.445 112.627 135.334 112.627 136.852C112.627 138.383 111 139.258 108.43 139.258C105.805 139.258 104.164 138.383 104.164 136.852C104.164 135.334 105.805 134.445 108.43 134.445ZM108.43 135.812C106.789 135.812 105.9 136.168 105.914 136.852C105.9 137.562 106.789 137.891 108.43 137.891C110.043 137.891 110.904 137.562 110.904 136.852C110.904 136.168 110.043 135.812 108.43 135.812ZM67.6807 147.816V160.258H66.0127V153.982H64.8916V159.684H63.2373V147.994H64.8916V152.561H66.0127V147.816H67.6807ZM62.1982 149.102V157.127H57.249V149.102H62.1982ZM58.876 150.482V155.76H60.5713V150.482H58.876ZM76.376 149.115V150.496H73.833C73.874 151.761 74.8311 153.053 76.8271 153.572L76.0205 154.912C74.585 154.543 73.5732 153.743 72.999 152.711C72.4385 153.859 71.4199 154.769 69.9365 155.186L69.1025 153.832C71.085 153.285 72.0215 151.884 72.0693 150.496H69.5264V149.115H72.0693V147.83H73.8467V149.115H76.376ZM79.4111 147.83V155.336H77.6611V147.83H79.4111ZM75.1729 155.527C77.8115 155.527 79.4385 156.402 79.4521 157.893C79.4385 159.396 77.8115 160.258 75.1729 160.258C72.5205 160.258 70.8936 159.396 70.8936 157.893C70.8936 156.402 72.5205 155.527 75.1729 155.527ZM75.1729 156.881C73.5049 156.881 72.6436 157.223 72.6436 157.893C72.6436 158.576 73.5049 158.932 75.1729 158.932C76.8408 158.932 77.7295 158.576 77.7295 157.893C77.7295 157.223 76.8408 156.881 75.1729 156.881ZM89.1592 150.633C89.1592 152.916 90.1982 155.213 92.3037 156.102L91.2783 157.496C89.8564 156.854 88.8721 155.616 88.3115 154.078C87.7441 155.753 86.7256 157.106 85.208 157.797L84.1553 156.348C86.3291 155.432 87.3818 153.053 87.3955 150.633V148.773H89.1592V150.633ZM94.7373 147.816V160.285H92.9736V147.816H94.7373ZM104.349 149.512C104.335 151.18 105.196 152.711 107.192 153.326L106.276 154.693C104.937 154.229 104.027 153.367 103.515 152.246C102.954 153.545 101.949 154.57 100.452 155.076L99.5361 153.682C101.669 152.998 102.571 151.33 102.585 149.594V148.459H104.349V149.512ZM110.132 147.816V155.104H108.396V151.521H106.058V150.1H108.396V147.816H110.132ZM105.88 155.432C108.532 155.432 110.159 156.32 110.173 157.852C110.159 159.383 108.532 160.258 105.88 160.258C103.228 160.258 101.601 159.383 101.601 157.852C101.601 156.32 103.228 155.432 105.88 155.432ZM105.88 156.785C104.226 156.785 103.337 157.141 103.337 157.852C103.337 158.535 104.226 158.904 105.88 158.904C107.534 158.904 108.437 158.535 108.437 157.852C108.437 157.141 107.534 156.785 105.88 156.785ZM116.325 150.633C116.312 152.861 117.269 155.117 119.265 156.074L118.212 157.469C116.879 156.812 115.983 155.582 115.464 154.078C114.924 155.691 113.96 157.011 112.552 157.701L111.472 156.293C113.577 155.322 114.575 152.943 114.575 150.633V148.773H116.325V150.633ZM121.562 147.816V152.615H123.394V154.092H121.562V160.258H119.812V147.816H121.562Z" fill="white"/>
<rect x="12" y="12" width="24" height="24" rx="12" fill="#FFAD28"/>
<path d="M23.9727 28.6367C21.7988 28.6367 20.2402 27.4336 20.1992 25.7109H22.2773C22.3184 26.4492 23.0293 26.9414 23.9863 26.9414C24.9707 26.9414 25.6816 26.3809 25.668 25.5879C25.6816 24.7812 24.957 24.207 23.7949 24.207H22.8789V22.6895H23.7949C24.7656 22.6895 25.4492 22.1562 25.4492 21.377C25.4492 20.625 24.875 20.1055 24 20.1055C23.125 20.1055 22.4004 20.5977 22.373 21.3496H20.4043C20.4316 19.6406 21.9766 18.4648 24 18.4648C26.0645 18.4648 27.4453 19.6816 27.4316 21.2539C27.4453 22.3613 26.666 23.1543 25.5586 23.3457V23.4277C27.0078 23.6055 27.8145 24.4941 27.8008 25.7246C27.8145 27.4199 26.2012 28.6367 23.9727 28.6367Z" fill="white"/>
<defs>
<linearGradient id="paint0_linear_409_1448" x1="-0.499999" y1="89.5" x2="180.5" y2="89.5" gradientUnits="userSpaceOnUse">
<stop stop-color="#FFF0E4"/>
<stop offset="1" stop-color="#FFF8E5"/>
</linearGradient>
<clipPath id="clip0_409_1448">
<rect width="60" height="60" fill="white" transform="translate(60 24)"/>
</clipPath>
</defs>
</svg>
