<svg width="180" height="180" viewBox="0 0 180 180" fill="none" xmlns="http://www.w3.org/2000/svg">
<path d="M0 16C0 7.16344 7.16344 0 16 0H164C172.837 0 180 7.16344 180 16V164C180 172.837 172.837 180 164 180H16C7.16344 180 0 172.837 0 164V16Z" fill="url(#paint0_linear_409_1484)"/>
<path d="M80.2821 29.1768C71.7653 29.1768 64.7539 36.2437 64.7539 44.7842C64.7539 53.3167 71.7598 60.2331 80.2821 60.2331C83.8036 60.2331 87.12 59.0796 89.8723 56.8961C90.0553 56.7511 90.1916 56.5547 90.2645 56.3328C90.7913 54.7103 91.2405 53.2454 91.605 51.958L92.4051 52.3747C92.9867 52.6782 93.7068 52.4516 94.0095 51.8677C95.2042 49.5606 95.8102 47.1776 95.8102 44.7842C95.8102 36.2365 88.7901 29.1768 80.2821 29.1768Z" fill="#B3E4FF"/>
<path fill-rule="evenodd" clip-rule="evenodd" d="M80.2817 24.4229C91.4968 24.4229 100.563 33.7049 100.563 44.7838C100.563 55.9411 91.4239 64.9862 80.2817 64.9862C69.1394 64.9862 60 55.9411 60 44.7838C60 33.7049 69.0665 24.4229 80.2817 24.4229ZM80.2817 31.5531C73.153 31.5531 67.1303 37.6123 67.1303 44.7838C67.1303 51.9917 73.0302 57.8559 80.2817 57.8559C87.5332 57.8559 93.4331 51.9917 93.4331 44.7838C93.4331 37.6123 87.4104 31.5531 80.2817 31.5531Z" fill="#15A0EA"/>
<path d="M85.8762 50.3776C85.412 50.8411 84.6593 50.8419 84.1951 50.3776L79.4415 45.6241C79.2189 45.4007 79.0938 45.0988 79.0938 44.7835V37.6532C79.0938 36.9972 79.6261 36.4648 80.2821 36.4648C80.9381 36.4648 81.4705 36.9972 81.4705 37.6532V44.2915L85.8762 48.6964C86.3397 49.1607 86.3397 49.9133 85.8762 50.3776Z" fill="#0A415F"/>
<path d="M120.001 73.9959V83.577H79.4375V73.9959L99.7188 72.2283L120.001 73.9959Z" fill="#5CB8EA"/>
<path d="M120.001 73.9949H79.4375V63.8914H120.001V73.9949Z" fill="#78CAF7"/>
<path d="M116.861 55.3524L107.473 64.741L107.472 64.7401L103.836 68.3768H92.333L89.6973 65.7401L97.4424 54.7098L99.0703 55.8973L108.544 47.035L116.861 55.3524Z" fill="#A8E1FF"/>
<path d="M111.337 69.9949H88.1016V67.6179H111.337V69.9949Z" fill="#5CB8EA"/>
<path d="M108.474 46.9644L103.177 60.4448L103.176 60.4438L89.6973 65.7397L85.7461 61.7896L104.523 43.0142L108.474 46.9644Z" fill="#C8ECFF"/>
<rect y="108" width="180" height="72" rx="16" fill="#15A0EA"/>
<path d="M56.2783 128.457V129.865H54.665V131.137H56.2783V132.586H54.665V134.158H52.915V126.816H54.665V128.457H56.2783ZM54.665 134.65V139.258H52.915V136.059H46.2842V134.65H54.665ZM48.2939 127.5C50.2217 127.486 51.6846 128.771 51.6846 130.521C51.6846 132.312 50.2217 133.57 48.2939 133.57C46.3525 133.57 44.876 132.312 44.876 130.521C44.876 128.771 46.3525 127.486 48.2939 127.5ZM48.2939 128.99C47.3096 128.99 46.585 129.551 46.5986 130.521C46.585 131.52 47.3096 132.094 48.2939 132.094C49.251 132.094 49.9756 131.52 49.9893 130.521C49.9756 129.551 49.251 128.99 48.2939 128.99ZM68.2412 132.873V134.268H56.8936V132.873H61.6924V131.219H63.415V132.873H68.2412ZM63.4424 127.432C63.4424 128.881 64.8369 130.262 67.6396 130.604L66.9697 131.957C64.8711 131.643 63.3262 130.761 62.54 129.51C61.7402 130.761 60.1953 131.649 58.0967 131.957L57.4814 130.604C60.2295 130.262 61.665 128.84 61.665 127.432V127.021H63.4424V127.432ZM66.8604 135.143V139.258H65.124V136.496H58.1514V135.143H66.8604ZM73.833 129.633C73.833 131.916 74.8721 134.213 76.9775 135.102L75.9521 136.496C74.5303 135.854 73.5459 134.616 72.9854 133.078C72.418 134.753 71.3994 136.106 69.8818 136.797L68.8291 135.348C71.0029 134.432 72.0557 132.053 72.0693 129.633V127.773H73.833V129.633ZM79.4111 126.816V139.285H77.6475V126.816H79.4111ZM90.9639 126.816V130.303H92.6455V131.738H90.9639V135.73H89.2002V126.816H90.9639ZM87.5732 127.746C87.5732 131.109 85.4678 133.461 81.7354 134.514L81.0107 133.133C83.793 132.354 85.3721 130.911 85.6592 129.168H81.5576V127.746H87.5732ZM91.3877 137.645V139.039H82.8701V134.814H84.6338V137.645H91.3877ZM106.905 126.816V133.146H105.169V130.057H102.831V128.676H105.169V126.816H106.905ZM106.905 133.666V136.988H100.37V137.754H107.261V139.121H98.6475V135.717H105.183V135.006H98.6338V133.666H106.905ZM101.081 128.129C101.067 129.619 101.942 131.055 103.925 131.643L103.009 132.982C101.676 132.552 100.746 131.718 100.206 130.645C99.666 131.841 98.6816 132.784 97.2256 133.242L96.3232 131.861C98.3877 131.26 99.3037 129.742 99.3174 128.129V127.227H101.081V128.129ZM119.005 126.816V134.199H117.269V131.26H115.327V129.852H117.269V126.816H119.005ZM114.753 134.473C117.405 134.486 119.032 135.361 119.046 136.879C119.032 138.383 117.405 139.271 114.753 139.271C112.101 139.271 110.474 138.383 110.474 136.879C110.474 135.361 112.101 134.486 114.753 134.473ZM114.753 135.812C113.099 135.812 112.21 136.154 112.21 136.879C112.21 137.59 113.099 137.945 114.753 137.945C116.407 137.945 117.31 137.59 117.31 136.879C117.31 136.154 116.407 135.812 114.753 135.812ZM115.696 127.568V128.963H113.222C113.263 130.412 114.138 131.875 116.079 132.518L115.218 133.885C113.844 133.44 112.9 132.538 112.36 131.41C111.807 132.682 110.815 133.707 109.339 134.213L108.437 132.832C110.48 132.148 111.396 130.521 111.444 128.963H108.942V127.568H115.696ZM130.558 127.568V132.805H124.474V127.568H130.558ZM126.196 128.922V131.438H128.821V128.922H126.196ZM134.249 126.816V133.871H132.513V126.816H134.249ZM134.468 134.555V135.854H130.981C131.173 136.701 132.485 137.679 134.946 137.918L134.358 139.23C132.287 139.039 130.817 138.287 130.065 137.303C129.293 138.301 127.816 139.032 125.731 139.23L125.13 137.918C127.625 137.72 128.938 136.722 129.122 135.854H125.636V134.555H129.177V133.529H130.927V134.555H134.468ZM44.1992 148.65V150.045H41.7246C41.7383 151.494 42.6064 152.896 44.5957 153.477L43.7617 154.844C42.3877 154.427 41.4375 153.593 40.8906 152.52C40.3369 153.777 39.3252 154.775 37.8281 155.268L36.9395 153.887C39.0039 153.237 39.9336 151.624 39.9609 150.045H37.418V148.65H44.1992ZM47.002 147.816V150.701H48.6836V152.123H47.002V155.199H45.252V147.816H47.002ZM42.9277 155.445C45.5117 155.432 47.125 156.32 47.125 157.838C47.125 159.355 45.5117 160.258 42.9277 160.258C40.2891 160.258 38.6621 159.355 38.6621 157.838C38.6621 156.32 40.2891 155.432 42.9277 155.445ZM42.9277 156.799C41.2871 156.799 40.3984 157.141 40.4121 157.838C40.3984 158.549 41.2871 158.904 42.9277 158.904C44.541 158.904 45.4023 158.549 45.4023 157.838C45.4023 157.141 44.541 156.799 42.9277 156.799ZM60.6191 157.373V158.768H49.2305V157.373H53.9883V154.557H55.7246V157.373H60.6191ZM55.7793 149.416C55.7793 151.193 57.3789 153.066 60.2227 153.504L59.4844 154.953C57.2969 154.557 55.6699 153.388 54.8496 151.836C54.0293 153.381 52.416 154.563 50.2422 154.953L49.5039 153.504C52.3203 153.066 53.9062 151.18 53.9199 149.416V148.527H55.7793V149.416ZM75.9316 155.186V156.607H71.0781V160.258H69.3555V156.607H64.543V155.186H75.9316ZM74.7148 152.902V154.283H65.9785V148.322H74.5781V149.689H67.6875V150.619H74.3184V151.959H67.6875V152.902H74.7148ZM88.0449 157.482V158.877H76.6562V157.482H79.4863V155.117H77.5996V153.709H79.2676V150.209H77.5449V148.814H87.0879V150.209H85.3379V153.709H87.0332V155.117H85.1602V157.482H88.0449ZM81.0176 153.709H83.6152V150.209H81.0176V153.709ZM81.2363 157.482H83.4102V155.117H81.2363V157.482ZM102.441 147.816V160.258H100.678V147.816H102.441ZM98.709 149.115C98.709 152.889 97.3828 156.02 92.9395 158.125L92.0234 156.73C95.2363 155.213 96.6514 153.244 96.9316 150.482H92.6934V149.115H98.709ZM114.172 150.934V152.328H105.518V148.008H107.254V150.934H114.172ZM115.457 153.395V154.816H104.082V153.395H115.457ZM109.742 155.596C112.436 155.609 114.062 156.443 114.076 157.906C114.062 159.383 112.436 160.217 109.742 160.217C107.021 160.217 105.381 159.383 105.381 157.906C105.381 156.443 107.021 155.609 109.742 155.596ZM109.742 156.949C108.02 156.963 107.145 157.25 107.158 157.906C107.145 158.549 108.02 158.891 109.742 158.891C111.424 158.891 112.312 158.549 112.326 157.906C112.312 157.25 111.424 156.963 109.742 156.949ZM130.168 147.816V160.258H128.514V147.816H130.168ZM127.625 148.021V159.684H125.984V153.49H124.344V152.082H125.984V148.021H127.625ZM123.346 151.152C123.346 153.217 123.988 155.309 125.807 156.348L124.781 157.633C123.674 156.977 122.942 155.862 122.525 154.529C122.095 155.979 121.343 157.209 120.201 157.906L119.148 156.621C120.98 155.5 121.664 153.258 121.664 151.152V150.482H119.627V149.088H125.232V150.482H123.346V151.152ZM137.113 155.568C139.834 155.568 141.543 156.43 141.557 157.92C141.543 159.383 139.834 160.258 137.113 160.258C134.42 160.258 132.684 159.383 132.684 157.92C132.684 156.43 134.42 155.568 137.113 155.568ZM137.113 156.867C135.404 156.867 134.42 157.223 134.42 157.92C134.42 158.59 135.404 158.932 137.113 158.932C138.822 158.932 139.82 158.59 139.82 157.92C139.82 157.223 138.822 156.867 137.113 156.867ZM141.488 148.377V149.389C141.488 150.373 141.488 151.439 141.133 152.725L139.424 152.561C139.697 151.433 139.731 150.592 139.752 149.744H132.807V148.377H141.488ZM142.828 153.367V154.775H131.535V153.367H135.773V151.193H137.496V153.367H142.828Z" fill="white"/>
<rect x="12" y="12" width="24" height="24" rx="12" fill="#15A0EA"/>
<path d="M24.0273 28.6367C21.9629 28.6367 20.459 27.4199 20.418 25.7109H22.4141C22.4551 26.4902 23.166 27.0098 24.0273 27.0098C25.0527 27.0098 25.7773 26.2852 25.7773 25.2598C25.7773 24.207 25.0391 23.4824 24 23.4688C23.2617 23.4688 22.7422 23.7422 22.4414 24.3027H20.582L21.1152 18.6016H27.2129V20.2832H22.8105L22.5371 22.7852H22.6191C22.9883 22.293 23.7266 21.9512 24.6016 21.9512C26.4199 21.9512 27.7734 23.3047 27.7734 25.2051C27.7734 27.2012 26.2559 28.6367 24.0273 28.6367Z" fill="white"/>
<defs>
<linearGradient id="paint0_linear_409_1484" x1="-0.499999" y1="89.5" x2="180.5" y2="89.5" gradientUnits="userSpaceOnUse">
<stop stop-color="#EAFFED"/>
<stop offset="1" stop-color="#E4F6FF"/>
</linearGradient>
</defs>
</svg>
