<svg width="375" height="264" viewBox="0 0 375 264" fill="none" xmlns="http://www.w3.org/2000/svg">
<rect x="90" y="73" width="108" height="10" fill="#FFD5BA"/>
<rect x="154" y="141" width="113" height="10" fill="#FFD5BA"/>
<rect x="49" y="188" width="277" height="10" fill="#FFD5BA"/>
<rect x="102" y="211" width="171" height="10" fill="#FFD5BA"/>
<path d="M148.118 45.1641V58.1865H147.004V51.2871H145.188V57.5273H144.089V45.4424H145.188V50.335H147.004V45.1641H148.118ZM142.419 46.6875V54.6855H137.439V46.6875H142.419ZM138.523 47.6104V53.7627H141.335V47.6104H138.523ZM156.497 47.0098C156.482 48.7529 158.811 50.2324 161.082 50.5693L160.657 51.4775C158.621 51.1333 156.643 50.0493 155.852 48.4746C155.061 50.0493 153.076 51.1333 151.077 51.4775L150.623 50.5693C152.878 50.2324 155.208 48.7529 155.208 47.0098V46.9219H151.033V45.9844H160.657V46.9219H156.497V47.0098ZM161.785 52.5908V53.543H156.394V58.1865H155.266V53.543H149.919V52.5908H161.785ZM177.004 45.7207V50.1152H173.152V51.7852H178.513V52.7227H166.648V51.7852H172.009V50.1152H168.186V45.7207H177.004ZM169.314 46.6436V49.1924H175.862V46.6436H169.314ZM177.048 54.085V58.1865H175.891V55.0078H167.966V54.085H177.048ZM191.536 55.5498V56.5166H179.612V55.5498H182.571V52.0342C181.458 51.4556 180.784 50.5181 180.784 49.3389C180.784 47.3174 182.761 45.999 185.544 45.9844C188.328 45.999 190.305 47.3174 190.305 49.3389C190.305 50.4961 189.653 51.4263 188.577 52.0049V55.5498H191.536ZM185.544 46.9365C183.406 46.9219 181.897 47.8887 181.897 49.3389C181.897 50.7891 183.406 51.7705 185.544 51.7705C187.668 51.7705 189.192 50.7891 189.192 49.3389C189.192 47.8887 187.668 46.9219 185.544 46.9365ZM183.699 55.5498H187.419V52.4443C186.855 52.5981 186.226 52.6787 185.544 52.6787C184.878 52.6787 184.255 52.6055 183.699 52.459V55.5498ZM196.267 45.6475C198.215 45.6621 199.636 46.834 199.636 48.5332C199.636 50.2324 198.215 51.4043 196.267 51.4043C194.29 51.4043 192.883 50.2324 192.883 48.5332C192.883 46.834 194.29 45.6621 196.267 45.6475ZM196.267 46.6143C194.963 46.6143 193.997 47.4053 194.011 48.5332C193.997 49.6758 194.963 50.4668 196.267 50.4668C197.556 50.4668 198.523 49.6758 198.523 48.5332C198.523 47.4053 197.556 46.6143 196.267 46.6143ZM203.328 45.1641V51.8584H202.185V45.1641H203.328ZM203.328 52.4883V55.623H196.018V57.0879H203.796V58.0107H194.89V54.7588H202.185V53.4111H194.861V52.4883H203.328ZM220.1 45.1641V58.2158H218.943V50.8623H216.086V49.9102H218.943V45.1641H220.1ZM213.816 49.0312C213.816 51.1992 215.369 53.5576 217.273 54.4219L216.584 55.3447C215.098 54.6196 213.845 53.0449 213.259 51.2285C212.659 53.1548 211.377 54.8247 209.89 55.6084L209.187 54.7148C211.077 53.792 212.644 51.3457 212.659 49.0312V47.4639H209.685V46.5117H216.804V47.4639H213.816V49.0312ZM224.202 45.9697V51.4482C226.318 51.4409 227.856 51.353 229.622 51.0088L229.768 51.9609C227.893 52.3418 226.252 52.4443 224.011 52.4443H223.044V45.9697H224.202ZM233.064 53.6602V58.1865H231.907V54.6123H224.29V53.6602H233.064ZM233.064 45.1641V53.0596H231.907V50.042H228.171V49.1338H231.907V47.6836H228.171V46.7754H231.907V45.1641H233.064ZM237.371 56.0186L236.228 60.0029H235.144L235.95 56.0186H237.371ZM59.9341 68.1641V81.2158H58.7769V68.1641H59.9341ZM51.1011 69.2773V72.7197H54.9829V69.2773H56.1108V78.0664H49.9585V69.2773H51.1011ZM51.1011 77.0996H54.9829V73.6426H51.1011V77.0996ZM74.0259 74.4775V75.4297H62.1606V74.4775H74.0259ZM68.6646 76.8506C68.6646 78.5938 70.7446 79.8828 73.1177 80.2344L72.6489 81.1279C70.6714 80.7983 68.8696 79.8755 68.0933 78.4473C67.3096 79.8755 65.5005 80.7983 63.5229 81.1279L63.0835 80.2344C65.4272 79.8828 67.5073 78.5938 67.5073 76.8506V76.4111H68.6646V76.8506ZM68.6938 68.9844C68.6938 70.6689 71.0376 72.1631 73.3228 72.4854L72.8687 73.4082C70.8838 73.0713 68.9282 71.9946 68.1079 70.5078C67.2876 72.0166 65.3101 73.0713 63.3179 73.4082L62.8638 72.4854C65.1489 72.1631 67.5073 70.7129 67.5073 68.9844V68.3838H68.6938V68.9844ZM85.3052 68.1787V72.4707H87.2681V73.4375H85.3052V77.9346H84.1626V68.1787H85.3052ZM82.9175 69.7754V70.7129H75.1538V69.7754H78.4644V68.1787H79.6069V69.7754H82.9175ZM79.0356 71.4307C80.896 71.4307 82.1558 72.3828 82.1704 73.8623C82.1558 75.3271 80.896 76.2646 79.0356 76.2646C77.1606 76.2646 75.8862 75.3271 75.9009 73.8623C75.8862 72.3828 77.1606 71.4307 79.0356 71.4307ZM79.0356 72.3389C77.8052 72.3389 76.9849 72.9395 76.9995 73.8623C76.9849 74.7852 77.8052 75.3711 79.0356 75.3564C80.2515 75.3711 81.0718 74.7852 81.0864 73.8623C81.0718 72.9395 80.2515 72.3389 79.0356 72.3389ZM85.9058 79.9414V80.9082H77.1606V77.1582H78.2886V79.9414H85.9058ZM96.3354 70.3027C96.3208 72.002 97.2876 73.6572 99.4556 74.3604L98.4741 75.8252C97.0166 75.3345 96.0132 74.375 95.4419 73.1592C94.8413 74.4995 93.7793 75.5469 92.2339 76.0742L91.1938 74.5947C93.4644 73.8916 94.4458 72.1045 94.4604 70.2881V68.8379H96.3354V70.3027ZM101.99 68.0176V71.8701H103.792V73.4521H101.99V77.7881H100.115V68.0176H101.99ZM102.488 79.6191V81.1133H93.3325V76.8213H95.2368V79.6191H102.488ZM108.098 68.5889C109.805 68.5742 111.16 69.5483 111.526 70.9766H113.752V68.0176H115.613V75.1807H113.752V72.4707H111.541C111.189 73.9355 109.819 74.9316 108.098 74.9316C106.047 74.9316 104.539 73.5986 104.553 71.7383C104.539 69.9072 106.047 68.5742 108.098 68.5889ZM108.098 70.1416C107.058 70.127 106.311 70.7422 106.326 71.7383C106.311 72.7344 107.058 73.3643 108.098 73.3643C109.109 73.3643 109.841 72.7344 109.841 71.7383C109.841 70.7422 109.109 70.127 108.098 70.1416ZM108.567 75.7666V77.0557H113.752V75.7666H115.613V81.2012H106.721V75.7666H108.567ZM108.567 79.6924H113.752V78.4912H108.567V79.6924ZM120.154 78.916L118.894 83.0908H117.341L118.074 78.916H120.154ZM129.792 71.6504C129.792 73.8037 130.891 76.1035 133.132 77.041L132.122 78.5059C130.547 77.8394 129.463 76.5137 128.87 74.8877C128.262 76.6528 127.156 78.1177 125.588 78.8428L124.519 77.3633C126.731 76.3818 127.874 73.9062 127.874 71.6504V70.8301H125.046V69.3066H132.576V70.8301H129.792V71.6504ZM135.784 68.0176V81.3477H133.894V68.0176H135.784ZM148.821 76.499V81.3477H146.96V77.9639H139.666V76.499H148.821ZM148.821 68.0176V75.8984H146.96V74.2139H143.972C143.335 74.9023 142.39 75.3125 141.306 75.3125C139.285 75.3125 137.747 73.9209 137.761 71.9873C137.747 70.0977 139.285 68.7207 141.306 68.7354C142.39 68.728 143.335 69.1309 143.972 69.8047H146.96V68.0176H148.821ZM141.306 70.3027C140.266 70.3027 139.519 70.9473 139.534 71.9873C139.519 73.0859 140.266 73.7158 141.306 73.7158C142.288 73.7158 143.049 73.0859 143.049 71.9873C143.049 70.9473 142.288 70.3027 141.306 70.3027ZM144.749 72.7197H146.96V71.3135H144.763C144.8 71.5259 144.822 71.7529 144.822 71.9873C144.822 72.2437 144.792 72.4854 144.749 72.7197ZM153.362 78.916L152.102 83.0908H150.549L151.282 78.916H153.362ZM165.3 68.9844V69.8193C165.3 70.7422 165.3 72.0752 164.993 73.7305L163.162 73.5547C163.396 72.2729 163.455 71.3062 163.469 70.5078H158.445V68.9844H165.3ZM161.99 72.0605V74.6094C163.315 74.5581 164.678 74.4556 165.93 74.2725L166.033 75.6201C163.264 76.1328 160.129 76.1768 157.815 76.1914L157.654 74.6973C158.401 74.6973 159.243 74.6973 160.129 74.668V72.0605H161.99ZM168.567 68.0176V72.0752H170.178V73.6426H168.567V77.9932H166.648V68.0176H168.567ZM168.977 79.6191V81.1133H159.617V77.0996H161.492V79.6191H168.977ZM181.956 68.0322V75.5469H180.081V68.0322H181.956ZM181.956 76.1621V81.2012H173.02V76.1621H181.956ZM174.866 77.6416V79.707H180.125V77.6416H174.866ZM175.906 69.8047C175.891 71.4307 176.873 72.9688 179.026 73.6426L178.118 75.0635C176.594 74.6167 175.54 73.6938 174.939 72.5C174.331 73.7964 173.247 74.8218 171.658 75.3125L170.75 73.8477C172.976 73.1738 173.958 71.4746 173.958 69.8047V68.5156H175.906V69.8047ZM188.665 71.0352C188.65 73.4229 189.675 75.8398 191.814 76.8652L190.686 78.3594C189.258 77.6562 188.298 76.3379 187.742 74.7266C187.163 76.4551 186.13 77.8687 184.622 78.6084L183.464 77.0996C185.72 76.0596 186.79 73.5107 186.79 71.0352V69.043H188.665V71.0352ZM194.275 68.0176V73.1592H196.238V74.7412H194.275V81.3477H192.4V68.0176H194.275ZM210.696 68.1641V73.4668H212.805V74.4336H210.696V81.1865H209.553V68.1641H210.696ZM207.327 69.5703C207.327 73.2617 205.598 76.6162 201.35 78.7109L200.706 77.8027C204.075 76.1255 205.906 73.6206 206.169 70.5371H201.306V69.5703H207.327ZM218.269 70.9619C218.269 72.7197 219.661 74.3018 221.609 74.917L221.023 75.8398C219.507 75.3271 218.298 74.2578 217.712 72.8809C217.141 74.3677 215.918 75.5396 214.373 76.1035L213.772 75.1807C215.72 74.4922 217.112 72.8076 217.112 70.9619V70.2002H214.065V69.2627H221.272V70.2002H218.269V70.9619ZM224.333 68.1787V77.7295H223.191V68.1787H224.333ZM224.744 79.9414V80.9082H215.925V76.8213H217.068V79.9414H224.744ZM234.749 70.9766C234.749 72.5732 236.067 74.0088 237.986 74.5654L237.444 75.4883C235.942 75.0195 234.785 74.0454 234.207 72.793C233.643 74.2139 232.441 75.2979 230.911 75.8252L230.325 74.917C232.273 74.3164 233.621 72.7637 233.621 70.9766V70.7129H230.676V69.7607H233.621V68.1055H234.778V69.7607H237.693V70.7129H234.749V70.9766ZM240.491 68.1641V71.5625H242.454V72.5146H240.491V76.1621H239.348V68.1641H240.491ZM236.316 76.4844C238.997 76.4844 240.608 77.334 240.608 78.8135C240.608 80.3076 238.997 81.1426 236.316 81.1426C233.621 81.1426 231.995 80.3076 231.995 78.8135C231.995 77.334 233.621 76.4844 236.316 76.4844ZM236.316 77.3926C234.338 77.3926 233.137 77.9053 233.152 78.8135C233.137 79.7217 234.338 80.249 236.316 80.249C238.293 80.249 239.495 79.7217 239.495 78.8135C239.495 77.9053 238.293 77.3926 236.316 77.3926ZM246.863 68.7793C248.613 68.7646 249.939 69.7827 250.188 71.2842H252.913V68.1641H254.07V75.1514H252.913V72.2363H250.203C249.968 73.7744 248.628 74.7998 246.863 74.7998C244.885 74.7998 243.479 73.5693 243.479 71.7822C243.479 70.0098 244.885 68.7646 246.863 68.7793ZM246.863 69.7607C245.53 69.7461 244.578 70.5811 244.578 71.7822C244.578 72.9688 245.53 73.833 246.863 73.833C248.181 73.833 249.119 72.9688 249.119 71.7822C249.119 70.5811 248.181 69.7461 246.863 69.7607ZM246.833 75.8105V77.4658H252.913V75.8105H254.07V81.0107H245.676V75.8105H246.833ZM246.833 80.0732H252.913V78.3887H246.833V80.0732ZM260.647 72.1631C260.632 74.2578 262.141 76.5576 264.031 77.4512L263.372 78.3594C261.907 77.6489 260.669 76.0962 260.09 74.3311C259.49 76.25 258.179 77.9346 256.721 78.6816L256.018 77.7734C257.893 76.8652 259.504 74.3896 259.519 72.1631V70.4639H256.487V69.5117H263.577V70.4639H260.647V72.1631ZM266.316 68.1641V73.4375H268.499V74.4189H266.316V81.1865H265.173V68.1641H266.316ZM273.171 77.832V76.748L277.947 69.3945H279.573V76.6748H281.052V77.832H279.573V80H278.313V77.832H273.171ZM274.592 76.6748H278.313V71.0645H278.181L274.592 76.5869V76.6748ZM283.22 75.6494C283.689 75.1074 284.275 74.8145 284.919 74.8145C286.033 74.8145 287.043 75.6641 288.113 75.6641C288.772 75.6641 289.343 75.3418 289.783 74.7412V75.957C289.299 76.5137 288.728 76.792 288.083 76.792C286.97 76.792 285.959 75.9424 284.875 75.9424C284.231 75.9424 283.66 76.2646 283.22 76.8652V75.6494ZM295.891 80.1465C294.045 80.1172 292.024 79.0332 292.024 75.1074C292.024 71.3574 293.562 69.248 296.052 69.248C297.913 69.248 299.216 70.3906 299.495 72.0605H298.191C297.942 71.123 297.239 70.4199 296.052 70.4199C294.309 70.4199 293.269 71.9141 293.269 74.4629H293.401C294.016 73.584 294.983 73.0566 296.125 73.0566C298.015 73.0566 299.583 74.5215 299.583 76.5723C299.583 78.5645 298.118 80.1611 295.891 80.1465ZM295.891 78.9893C297.268 78.9893 298.293 77.9053 298.308 76.5869C298.293 75.2832 297.312 74.2139 295.92 74.2139C294.529 74.2139 293.459 75.3418 293.445 76.6016C293.445 77.8467 294.47 78.9893 295.891 78.9893ZM311.682 68.1787V77.7002H310.54V68.1787H311.682ZM312.092 79.9414V80.9082H303.274V76.7334H304.417V79.9414H312.092ZM304.651 69.0869C306.599 69.0869 308.064 70.4053 308.064 72.2803C308.064 74.1846 306.599 75.4883 304.651 75.4883C302.703 75.4883 301.238 74.1846 301.238 72.2803C301.238 70.4053 302.703 69.0869 304.651 69.0869ZM304.651 70.0977C303.333 70.0977 302.351 71.0059 302.366 72.2803C302.351 73.584 303.333 74.4775 304.651 74.4775C305.94 74.4775 306.936 73.584 306.936 72.2803C306.936 71.0059 305.94 70.0977 304.651 70.0977ZM324.631 68.1641V81.2158H323.474V68.1641H324.631ZM317.703 69.1748C319.636 69.1895 321.028 70.9473 321.028 73.7158C321.028 76.4844 319.636 78.2422 317.703 78.2422C315.754 78.2422 314.377 76.4844 314.377 73.7158C314.377 70.9473 315.754 69.1895 317.703 69.1748ZM317.703 70.2002C316.399 70.2148 315.491 71.5918 315.491 73.7158C315.491 75.8398 316.399 77.2168 317.703 77.2168C319.006 77.2168 319.915 75.8398 319.915 73.7158C319.915 71.5918 319.006 70.2148 317.703 70.2002ZM67.8516 92.0137C70.6201 92.0283 72.6123 93.376 72.6123 95.4268C72.6123 97.3677 70.8838 98.6567 68.4082 98.8105V101.55H73.8428V102.517H61.9189V101.55H67.2803V98.8105C64.812 98.6494 63.0908 97.3604 63.0908 95.4268C63.0908 93.376 65.083 92.0283 67.8516 92.0137ZM67.8516 92.9658C65.7422 92.9658 64.2041 93.9619 64.2041 95.4268C64.2041 96.9355 65.7422 97.9023 67.8516 97.917C69.9609 97.9023 71.499 96.9355 71.499 95.4268C71.499 93.9619 69.9609 92.9658 67.8516 92.9658ZM86.8066 101.535V102.517H74.8828V101.535H86.8066ZM85.6641 92.4824V93.4346H83.5986V97.9902H85.6348V98.9277H75.9668V97.9902H78.0029V93.4346H75.9375V92.4824H85.6641ZM79.1455 97.9902H82.4707V93.4346H79.1455V97.9902ZM97.9248 91.1641V96.3496H100.107V97.3164H97.9248V104.216H96.7822V91.1641H97.9248ZM94.2773 92.3799V97.0381H89.5312V100.085C91.9482 100.085 93.6328 100.004 95.6104 99.6309L95.7275 100.583C93.6768 100.964 91.9336 101.052 89.4287 101.066H88.3887V96.0859H93.1348V93.332H88.3594V92.3799H94.2773ZM111.562 91.1787V100.7H110.42V91.1787H111.562ZM111.973 102.941V103.908H103.154V99.7334H104.297V102.941H111.973ZM104.531 92.0869C106.479 92.0869 107.944 93.4053 107.944 95.2803C107.944 97.1846 106.479 98.4883 104.531 98.4883C102.583 98.4883 101.118 97.1846 101.118 95.2803C101.118 93.4053 102.583 92.0869 104.531 92.0869ZM104.531 93.0977C103.213 93.0977 102.231 94.0059 102.246 95.2803C102.231 96.584 103.213 97.4775 104.531 97.4775C105.82 97.4775 106.816 96.584 106.816 95.2803C106.816 94.0059 105.82 93.0977 104.531 93.0977ZM123.428 99.3965C126.226 99.3965 127.998 100.275 127.998 101.784C127.998 103.278 126.226 104.157 123.428 104.157C120.645 104.157 118.872 103.278 118.872 101.784C118.872 100.275 120.645 99.3965 123.428 99.3965ZM123.428 100.275C121.348 100.29 120 100.861 120.015 101.784C120 102.692 121.348 103.249 123.428 103.249C125.508 103.249 126.841 102.692 126.855 101.784C126.841 100.861 125.508 100.29 123.428 100.275ZM127.896 91.8379V92.9365C127.896 93.9912 127.896 95.0459 127.529 96.3936L126.401 96.2617C126.753 94.9141 126.753 93.9619 126.753 92.9365V92.7754H118.96V91.8379H127.896ZM129.404 97.2432V98.1807H117.554V97.2432H122.461V94.7236H123.589V97.2432H129.404ZM140.684 91.1641V95.1338H142.646V96.1006H140.684V100.7H139.526V91.1641H140.684ZM137.168 92.1748C137.168 95.5293 134.766 98.0195 131.016 99.1914L130.518 98.2686C133.638 97.2944 135.674 95.4341 135.923 93.1416H131.06V92.1748H137.168ZM141.284 102.941V103.908H132.524V99.7334H133.667V102.941H141.284ZM154.629 91.1641V104.187H153.516V91.1641H154.629ZM152.007 91.4424V103.527H150.908V97.1992H149.238C149.114 99.7334 148.037 101.315 146.426 101.315C144.727 101.315 143.628 99.5576 143.628 96.7891C143.628 94.0205 144.727 92.2627 146.426 92.2627C148.008 92.2627 149.077 93.7935 149.224 96.2471H150.908V91.4424H152.007ZM146.426 93.3467C145.371 93.3467 144.697 94.665 144.712 96.7891C144.697 98.8984 145.371 100.231 146.426 100.217C147.48 100.231 148.154 98.8984 148.154 96.7891C148.154 94.665 147.48 93.3467 146.426 93.3467ZM172.119 101.55V102.517H160.195V101.55H165.557V98.3711H161.602V92.2627H170.64V98.3711H166.685V101.55H172.119ZM162.729 93.1855V97.4482H169.526V93.1855H162.729ZM176.66 92.1748C177.854 92.1821 178.821 92.8779 179.385 94.0791H182.812V91.1641H183.955V104.216H182.812V99.1621H179.473C178.923 100.48 177.92 101.242 176.66 101.242C174.741 101.242 173.394 99.4844 173.394 96.7158C173.394 93.9473 174.741 92.1895 176.66 92.1748ZM176.66 93.2002C175.371 93.2148 174.492 94.5918 174.492 96.7158C174.492 98.8398 175.371 100.217 176.66 100.217C177.935 100.217 178.828 98.8398 178.828 96.7158C178.828 94.5918 177.935 93.2148 176.66 93.2002ZM179.722 95.0459C179.839 95.5513 179.912 96.1079 179.912 96.7158C179.912 97.2505 179.854 97.7559 179.766 98.21H182.812V95.0459H179.722ZM194.297 95.1631C194.282 97.2578 195.791 99.5576 197.681 100.451L197.021 101.359C195.557 100.649 194.319 99.0962 193.74 97.3311C193.14 99.25 191.829 100.935 190.371 101.682L189.668 100.773C191.543 99.8652 193.154 97.3896 193.169 95.1631V93.4639H190.137V92.5117H197.227V93.4639H194.297V95.1631ZM199.966 91.1641V96.4375H202.148V97.4189H199.966V104.187H198.823V91.1641H199.966ZM214.761 98.5908V99.543H211.611V104.187H210.454V99.543H207.114V104.187H205.928V99.543H202.837V98.5908H214.761ZM208.77 91.6914C211.509 91.6914 213.354 92.79 213.354 94.5332C213.354 96.2617 211.509 97.3604 208.77 97.3457C206.03 97.3604 204.185 96.2617 204.185 94.5332C204.185 92.79 206.03 91.6914 208.77 91.6914ZM208.77 92.6289C206.733 92.6289 205.356 93.376 205.371 94.5332C205.356 95.6904 206.733 96.4229 208.77 96.4229C210.791 96.4229 212.183 95.6904 212.183 94.5332C212.183 93.376 210.791 92.6289 208.77 92.6289ZM227.725 97.8438V98.7812H215.801V97.8438H221.191V96.584H217.354V93.5518H225.029V92.3506H217.31V91.4424H226.187V94.416H218.496V95.6758H226.465V96.584H222.319V97.8438H227.725ZM218.555 99.4404V100.715H225.059V99.4404H226.187V104.011H217.397V99.4404H218.555ZM218.555 103.088H225.059V101.623H218.555V103.088ZM239.927 91.1641V104.187H238.828V91.1641H239.927ZM237.188 91.5156V103.527H236.089V97.4482H233.335C232.537 98.9644 231.284 100.305 229.468 101.374L228.794 100.539C231.628 98.8618 233.049 96.5107 233.262 93.7861H229.351V92.834H234.404C234.397 94.1157 234.192 95.3535 233.76 96.5107H236.089V91.5156H237.188ZM256.641 91.1641V104.187H255.542V97.3604H253.623V103.513H252.568V91.457H253.623V96.4082H255.542V91.1641H256.641ZM250.869 92.7607V93.7129H247.134V99.9824C248.928 99.9751 250.173 99.9092 251.616 99.6162L251.719 100.583C250.151 100.905 248.818 100.964 246.826 100.964H245.991V92.7607H250.869ZM268.579 91.1641V96.7158H270.659V97.6826H268.579V104.187H267.422V91.1641H268.579ZM258.311 100.715C259.373 100.715 260.61 100.715 261.899 100.671V99.2207C260.383 99.0522 259.395 98.166 259.409 96.877C259.395 95.4121 260.64 94.46 262.485 94.46C264.302 94.46 265.562 95.4121 265.576 96.877C265.562 98.166 264.558 99.0522 263.057 99.2354V100.627C264.272 100.568 265.496 100.473 266.631 100.305L266.704 101.184C263.862 101.667 260.786 101.696 258.501 101.696L258.311 100.715ZM266.396 92.7607V93.6982H258.545V92.7607H261.899V91.1934H263.057V92.7607H266.396ZM262.485 95.3535C261.284 95.3535 260.479 95.9688 260.479 96.877C260.479 97.7852 261.284 98.3711 262.485 98.3564C263.672 98.3711 264.478 97.7852 264.478 96.877C264.478 95.9688 263.672 95.3535 262.485 95.3535ZM281.616 91.1641V94.5039H283.579V95.4854H281.616V98.7373H280.474V91.1641H281.616ZM274.526 99.3086V100.7H280.474V99.3086H281.616V104.011H273.384V99.3086H274.526ZM274.526 103.088H280.474V101.608H274.526V103.088ZM279.229 92.5117V93.4639H271.465V92.5117H274.775V91.0469H275.918V92.5117H279.229ZM275.347 94.0645C277.222 94.0645 278.467 94.958 278.481 96.3496C278.467 97.7412 277.222 98.6348 275.347 98.6348C273.457 98.6348 272.197 97.7412 272.212 96.3496C272.197 94.958 273.457 94.0645 275.347 94.0645ZM275.347 94.958C274.116 94.9434 273.296 95.5146 273.311 96.3496C273.296 97.1992 274.116 97.7559 275.347 97.7559C276.562 97.7559 277.383 97.1992 277.397 96.3496C277.383 95.5146 276.562 94.9434 275.347 94.958ZM295.137 91.1641V104.187H293.994V91.1641H295.137ZM286.377 92.4531V99.8359C288.362 99.8286 290.42 99.6675 292.603 99.2061L292.764 100.188C290.449 100.671 288.384 100.832 286.304 100.832H285.249V92.4531H286.377ZM307.441 91.1641V96.3203H309.624V97.2871H307.441V104.216H306.299V91.1641H307.441ZM304.014 92.4385V93.3906H299.077V99.9824C301.436 99.9824 303.105 99.8726 305.039 99.5137L305.186 100.51C303.149 100.876 301.436 100.949 298.96 100.949H297.935V92.4385H304.014ZM311.704 103.088C311.191 103.088 310.752 102.663 310.767 102.136C310.752 101.623 311.191 101.198 311.704 101.198C312.217 101.198 312.642 101.623 312.642 102.136C312.642 102.663 312.217 103.088 311.704 103.088ZM79.1382 114.164V127.216H77.981V114.164H79.1382ZM72.2095 115.175C74.1431 115.189 75.5347 116.947 75.5347 119.716C75.5347 122.484 74.1431 124.242 72.2095 124.242C70.2612 124.242 68.8843 122.484 68.8843 119.716C68.8843 116.947 70.2612 115.189 72.2095 115.175ZM72.2095 116.2C70.9058 116.215 69.9976 117.592 69.9976 119.716C69.9976 121.84 70.9058 123.217 72.2095 123.217C73.5132 123.217 74.4214 121.84 74.4214 119.716C74.4214 117.592 73.5132 116.215 72.2095 116.2ZM84.8511 115.175C86.77 115.189 88.1323 116.947 88.147 119.716C88.1323 122.484 86.77 124.242 84.8511 124.242C82.9175 124.242 81.5698 122.484 81.5698 119.716C81.5698 116.947 82.9175 115.189 84.8511 115.175ZM84.8511 116.2C83.562 116.215 82.6538 117.592 82.6538 119.716C82.6538 121.84 83.562 123.217 84.8511 123.217C86.1548 123.217 87.0337 121.84 87.0337 119.716C87.0337 117.592 86.1548 116.215 84.8511 116.2ZM93.5522 117.445V118.427H91.4429V121.327H93.5522V122.294H91.4429V127.187H90.3003V114.164H91.4429V117.445H93.5522ZM105.095 114.164V127.187H103.938V114.164H105.095ZM101.243 115.585C101.228 119.335 99.4849 122.646 95.1196 124.74L94.4897 123.803C98.0127 122.133 99.8071 119.635 100.071 116.522H95.0903V115.585H101.243ZM117.634 116.01C117.62 117.753 119.949 119.232 122.219 119.569L121.794 120.478C119.758 120.133 117.781 119.049 116.99 117.475C116.199 119.049 114.214 120.133 112.214 120.478L111.76 119.569C114.016 119.232 116.345 117.753 116.345 116.01V115.922H112.17V114.984H121.794V115.922H117.634V116.01ZM122.922 121.591V122.543H117.532V127.187H116.404V122.543H111.057V121.591H122.922ZM135.154 114.164V127.187H134.055V114.164H135.154ZM132.517 114.486V126.513H131.433V119.804H129.236V118.866H131.433V114.486H132.517ZM127.844 117.885C127.844 120.141 128.855 122.382 130.657 123.422L129.954 124.271C128.672 123.502 127.764 122.096 127.317 120.434C126.841 122.228 125.896 123.759 124.592 124.579L123.86 123.715C125.676 122.631 126.731 120.258 126.731 117.885V116.654H124.226V115.702H130.232V116.654H127.844V117.885ZM147.517 118.119V119.042H138.596V114.647H139.739V118.119H147.517ZM148.894 120.814V121.752H136.97V120.814H148.894ZM147.59 125.912V126.864H138.523V123.085H139.666V125.912H147.59ZM158.079 117.665C158.079 119.965 159.602 122.323 161.448 123.231L160.745 124.154C159.309 123.4 158.108 121.862 157.537 120.053C156.951 121.979 155.72 123.62 154.255 124.403L153.523 123.48C155.427 122.543 156.936 120.038 156.951 117.665V115.292H158.079V117.665ZM163.792 114.164V119.452H165.974V120.448H163.792V127.187H162.649V114.164H163.792ZM170.266 114.779C172.017 114.765 173.342 115.783 173.591 117.284H176.316V114.164H177.473V121.151H176.316V118.236H173.606C173.372 119.774 172.031 120.8 170.266 120.8C168.289 120.8 166.882 119.569 166.882 117.782C166.882 116.01 168.289 114.765 170.266 114.779ZM170.266 115.761C168.933 115.746 167.981 116.581 167.981 117.782C167.981 118.969 168.933 119.833 170.266 119.833C171.584 119.833 172.522 118.969 172.522 117.782C172.522 116.581 171.584 115.746 170.266 115.761ZM170.237 121.811V123.466H176.316V121.811H177.473V127.011H169.08V121.811H170.237ZM170.237 126.073H176.316V124.389H170.237V126.073ZM183.904 115.116C185.955 115.116 187.405 116.361 187.405 118.178C187.405 119.994 185.955 121.239 183.904 121.239C181.853 121.239 180.374 119.994 180.388 118.178C180.374 116.361 181.853 115.116 183.904 115.116ZM183.904 116.127C182.512 116.127 181.501 116.962 181.516 118.178C181.501 119.394 182.512 120.229 183.904 120.229C185.281 120.229 186.277 119.394 186.277 118.178C186.277 116.962 185.281 116.127 183.904 116.127ZM190.32 114.164V127.216H189.177V114.164H190.32ZM179.714 123.363C182.117 123.363 185.427 123.349 188.313 122.924L188.401 123.773C185.427 124.33 182.219 124.345 179.875 124.345L179.714 123.363ZM206.814 115.482V116.786C206.799 118.383 206.799 120.17 206.331 122.792L205.159 122.66C205.657 120.17 205.657 118.339 205.657 116.786V116.435H197.629V115.482H206.814ZM208.235 124.389V125.341H196.37V124.389H201.028V119.73H202.156V124.389H208.235ZM216.13 115.307V121.342H210.022V115.307H216.13ZM211.15 116.259V120.419H215.002V116.259H211.15ZM220.085 114.179V123.539H218.943V114.179H220.085ZM220.496 125.795V126.747H211.677V122.631H212.82V125.795H220.496ZM234.207 121.898V122.836H228.772V127.187H227.644V122.836H222.283V121.898H234.207ZM224.949 114.706V116.508H231.511V114.706H232.668V120.316H223.806V114.706H224.949ZM224.949 119.379H231.511V117.445H224.949V119.379ZM246.057 114.164V127.216H244.915V120.038H242.161V119.086H244.915V114.164H246.057ZM241.941 115.365V116.317H237.019V119.027H241.37V119.965H237.019V123.114C239.414 123.114 240.938 123.034 242.732 122.719L242.864 123.671C240.974 123.979 239.377 124.066 236.858 124.066H235.862V115.365H241.941ZM255.681 114.647C257.629 114.662 259.05 115.834 259.05 117.533C259.05 119.232 257.629 120.404 255.681 120.404C253.704 120.404 252.297 119.232 252.297 117.533C252.297 115.834 253.704 114.662 255.681 114.647ZM255.681 115.614C254.377 115.614 253.411 116.405 253.425 117.533C253.411 118.676 254.377 119.467 255.681 119.467C256.97 119.467 257.937 118.676 257.937 117.533C257.937 116.405 256.97 115.614 255.681 115.614ZM262.742 114.164V120.858H261.599V114.164H262.742ZM262.742 121.488V124.623H255.432V126.088H263.21V127.011H254.304V123.759H261.599V122.411H254.275V121.488H262.742ZM269.304 116.273C269.304 118.046 270.652 119.672 272.542 120.316L271.912 121.225C270.469 120.697 269.333 119.621 268.762 118.266C268.206 119.796 267.048 121.005 265.525 121.591L264.91 120.668C266.858 119.936 268.162 118.192 268.176 116.186V114.838H269.304V116.273ZM275.134 114.164V117.562H277.097V118.529H275.134V122.089H273.992V114.164H275.134ZM270.959 122.426C273.64 122.426 275.251 123.29 275.251 124.784C275.251 126.308 273.64 127.157 270.959 127.157C268.279 127.157 266.638 126.308 266.638 124.784C266.638 123.29 268.279 122.426 270.959 122.426ZM270.959 123.349C268.997 123.349 267.781 123.891 267.795 124.784C267.781 125.707 268.997 126.234 270.959 126.249C272.937 126.234 274.138 125.707 274.138 124.784C274.138 123.891 272.937 123.349 270.959 123.349ZM288.23 114.164V119.54H290.208V120.507H288.23V127.187H287.073V114.164H288.23ZM281.873 115.585C281.858 118.69 281.155 121.737 278.796 124.242L277.874 123.583C279.844 121.569 280.635 119.145 280.789 116.552H278.284V115.585H281.873ZM285.447 115.585C285.432 118.676 284.978 122.265 282.546 125.106L281.609 124.462C283.645 122.162 284.26 119.269 284.363 116.552H282.283V115.585H285.447ZM295.54 118.163C295.54 120.375 297.151 122.616 299.07 123.451L298.425 124.359C296.902 123.664 295.583 122.162 294.983 120.36C294.368 122.272 293.057 123.935 291.57 124.682L290.881 123.773C292.742 122.88 294.368 120.419 294.382 118.163V116.464H291.306V115.512H298.645V116.464H295.54V118.163ZM301.619 114.164V127.187H300.461V114.164H301.619ZM305.222 126.088C304.709 126.088 304.27 125.663 304.285 125.136C304.27 124.623 304.709 124.198 305.222 124.198C305.735 124.198 306.16 124.623 306.16 125.136C306.16 125.663 305.735 126.088 305.222 126.088ZM64.2627 137.164V140.665H65.9912V141.646H64.2627V144.972H63.1055V137.164H64.2627ZM64.2627 145.587V150.216H63.1055V146.51H55.6055V145.587H64.2627ZM57.5977 138.204V139.142H55.4443V142.994C56.1182 142.979 56.9385 142.906 57.832 142.701L57.9492 143.683C56.7188 143.946 55.708 143.961 54.917 143.961H54.3457V138.204H57.5977ZM61.8457 138.204V139.142H59.4873V143.009C60.5273 142.994 61.333 142.921 62.2998 142.701L62.4316 143.668C61.2598 143.917 60.3516 143.961 59.0332 143.961H58.3887V138.204H61.8457ZM77.2266 137.164V140.665H78.9551V141.646H77.2266V144.972H76.0693V137.164H77.2266ZM77.2266 145.587V150.216H76.0693V146.51H68.5693V145.587H77.2266ZM70.5615 138.204V139.142H68.4082V142.994C69.082 142.979 69.9023 142.906 70.7959 142.701L70.9131 143.683C69.6826 143.946 68.6719 143.961 67.8809 143.961H67.3096V138.204H70.5615ZM74.8096 138.204V139.142H72.4512V143.009C73.4912 142.994 74.2969 142.921 75.2637 142.701L75.3955 143.668C74.2236 143.917 73.3154 143.961 71.9971 143.961H71.3525V138.204H74.8096ZM89.8535 137.164V142.54H92.0361V143.492H89.8535V150.187H88.7109V137.164H89.8535ZM87.4512 139.259V140.211H79.7021V139.259H83.0566V137.325H84.1992V139.259H87.4512ZM83.6426 141.295C85.4883 141.295 86.8213 142.525 86.8359 144.283C86.8213 146.041 85.4883 147.271 83.6426 147.271C81.7822 147.271 80.4346 146.041 80.4492 144.283C80.4346 142.525 81.7822 141.295 83.6426 141.295ZM83.6426 142.262C82.4268 142.262 81.5332 143.111 81.5479 144.283C81.5332 145.47 82.4268 146.305 83.6426 146.29C84.8438 146.305 85.7227 145.47 85.7373 144.283C85.7227 143.111 84.8438 142.262 83.6426 142.262ZM97.3975 141.163C97.3975 143.375 99.0088 145.616 100.928 146.451L100.283 147.359C98.7598 146.664 97.4414 145.162 96.8408 143.36C96.2256 145.272 94.9146 146.935 93.4277 147.682L92.7393 146.773C94.5996 145.88 96.2256 143.419 96.2402 141.163V139.464H93.1641V138.512H100.503V139.464H97.3975V141.163ZM103.477 137.164V150.187H102.319V137.164H103.477ZM113.101 137.911C115.049 137.911 116.484 139.156 116.484 140.914C116.484 142.687 115.049 143.917 113.101 143.932C111.152 143.917 109.702 142.687 109.717 140.914C109.702 139.156 111.152 137.911 113.101 137.911ZM113.101 138.878C111.826 138.878 110.83 139.742 110.845 140.914C110.83 142.115 111.826 142.979 113.101 142.979C114.39 142.979 115.356 142.115 115.356 140.914C115.356 139.742 114.39 138.878 113.101 138.878ZM119.648 137.164V140.108H121.611V141.061H119.648V143.683H118.506V137.164H119.648ZM111.973 145.089V148.883C112.727 148.861 113.73 148.751 114.653 148.443L114.829 149.366C113.555 149.791 112.324 149.835 111.475 149.835H110.859V145.089H111.973ZM120.952 145.147V146.041H114.375V145.147H117.114V143.99H118.242V145.147H120.952ZM117.656 146.48C119.077 146.48 120.088 147.198 120.103 148.326C120.088 149.454 119.077 150.157 117.656 150.157C116.221 150.157 115.225 149.454 115.239 148.326C115.225 147.198 116.221 146.48 117.656 146.48ZM117.656 147.315C116.851 147.315 116.265 147.726 116.265 148.326C116.265 148.941 116.851 149.337 117.656 149.337C118.477 149.337 119.048 148.941 119.048 148.326C119.048 147.726 118.477 147.315 117.656 147.315ZM127.09 141.163C127.09 143.375 128.701 145.616 130.62 146.451L129.976 147.359C128.452 146.664 127.134 145.162 126.533 143.36C125.918 145.272 124.607 146.935 123.12 147.682L122.432 146.773C124.292 145.88 125.918 143.419 125.933 141.163V139.464H122.856V138.512H130.195V139.464H127.09V141.163ZM133.169 137.164V150.187H132.012V137.164H133.169ZM141.973 138.351V144.342H135.952V138.351H141.973ZM137.08 139.288V143.419H140.859V139.288H137.08ZM145.576 137.164V141.134H147.539V142.101H145.576V146.715H144.434V137.164H145.576ZM146.177 148.941V149.908H137.432V145.807H138.56V148.941H146.177ZM150.498 148.019L149.355 152.003H148.271L149.077 148.019H150.498ZM160.151 137.911C162.261 137.896 163.843 139.273 163.843 141.178C163.843 143.097 162.261 144.459 160.151 144.459C158.042 144.459 156.445 143.097 156.445 141.178C156.445 139.273 158.042 137.896 160.151 137.911ZM160.151 139.522C159.097 139.522 158.291 140.138 158.306 141.178C158.291 142.232 159.097 142.833 160.151 142.833C161.206 142.833 162.012 142.232 162.026 141.178C162.012 140.138 161.221 139.522 160.151 139.522ZM167.036 137.018V150.377H165.176V137.018H167.036ZM155.889 146.129C158.262 146.144 161.558 146.1 164.414 145.704L164.561 147.052C161.602 147.623 158.438 147.652 156.108 147.652L155.889 146.129ZM175.898 138.219V147.169H169.453V138.219H175.898ZM171.328 139.684V145.689H174.082V139.684H171.328ZM179.956 137.018V150.377H178.066V137.018H179.956ZM190.063 145.572C190.063 146.649 190.51 147.755 191.602 148.487C192.7 147.711 193.184 146.561 193.184 145.572V145.118H195.029V145.572C195.015 146.964 195.762 148.253 197.534 148.795L196.626 150.157C195.352 149.725 194.517 148.912 194.062 147.887C193.616 148.912 192.839 149.806 191.646 150.274C190.386 149.82 189.602 148.956 189.17 147.931C188.701 148.927 187.881 149.732 186.665 150.157L185.742 148.795C187.5 148.194 188.232 146.876 188.247 145.572V145.118H190.063V145.572ZM196.377 137.032V144.562H194.502V137.032H196.377ZM189.067 137.706C191.147 137.706 192.715 139.024 192.715 140.914C192.715 142.774 191.147 144.093 189.067 144.093C186.987 144.093 185.42 142.774 185.42 140.914C185.42 139.024 186.987 137.706 189.067 137.706ZM189.067 139.273C187.998 139.273 187.236 139.889 187.251 140.914C187.236 141.925 187.998 142.54 189.067 142.54C190.107 142.54 190.869 141.925 190.869 140.914C190.869 139.889 190.107 139.273 189.067 139.273ZM209.004 140.65V142.115H199.688V137.486H201.548V140.65H209.004ZM210.366 143.551V145.016H198.164V143.551H210.366ZM209.092 148.561V150.055H199.57V146.1H201.445V148.561H209.092ZM225.762 137.032V146.612H223.887V137.032H225.762ZM226.113 148.619V150.113H216.826V145.646H218.716V148.619H226.113ZM218.452 137.882C220.503 137.882 222.1 139.288 222.1 141.236C222.1 143.229 220.503 144.62 218.452 144.62C216.401 144.62 214.805 143.229 214.805 141.236C214.805 139.288 216.401 137.882 218.452 137.882ZM218.452 139.508C217.412 139.493 216.621 140.152 216.636 141.236C216.621 142.35 217.412 142.994 218.452 142.994C219.463 142.994 220.254 142.35 220.254 141.236C220.254 140.152 219.463 139.493 218.452 139.508ZM232.471 140.035C232.456 142.423 233.481 144.84 235.62 145.865L234.492 147.359C233.064 146.656 232.104 145.338 231.548 143.727C230.969 145.455 229.937 146.869 228.428 147.608L227.271 146.1C229.526 145.06 230.596 142.511 230.596 140.035V138.043H232.471V140.035ZM238.081 137.018V142.159H240.044V143.741H238.081V150.348H236.206V137.018H238.081ZM251.689 137.018V150.377H249.8V137.018H251.689ZM244.453 137.955C246.46 137.955 247.954 139.801 247.954 142.701C247.954 145.631 246.46 147.462 244.453 147.462C242.402 147.462 240.908 145.631 240.923 142.701C240.908 139.801 242.402 137.955 244.453 137.955ZM244.453 139.64C243.413 139.64 242.725 140.724 242.725 142.701C242.725 144.693 243.413 145.763 244.453 145.763C245.464 145.763 246.152 144.693 246.152 142.701C246.152 140.724 245.464 139.64 244.453 139.64ZM264.36 143.902V145.382H254.927V137.999H264.258V139.508H256.831V140.914H263.95V142.379H256.831V143.902H264.36ZM265.693 147.271V148.795H253.491V147.271H265.693ZM276.665 137.164V142.467H278.774V143.434H276.665V150.187H275.522V137.164H276.665ZM273.296 138.57C273.296 142.262 271.567 145.616 267.319 147.711L266.675 146.803C270.044 145.125 271.875 142.621 272.139 139.537H267.275V138.57H273.296ZM289.248 138.014C292.017 138.028 294.009 139.376 294.009 141.427C294.009 143.368 292.28 144.657 289.805 144.811V147.55H295.239V148.517H283.315V147.55H288.677V144.811C286.208 144.649 284.487 143.36 284.487 141.427C284.487 139.376 286.479 138.028 289.248 138.014ZM289.248 138.966C287.139 138.966 285.601 139.962 285.601 141.427C285.601 142.936 287.139 143.902 289.248 143.917C291.357 143.902 292.896 142.936 292.896 141.427C292.896 139.962 291.357 138.966 289.248 138.966ZM306.357 137.164V142.467H308.467V143.434H306.357V150.187H305.215V137.164H306.357ZM302.988 138.57C302.988 142.262 301.26 145.616 297.012 147.711L296.367 146.803C299.736 145.125 301.567 142.621 301.831 139.537H296.968V138.57H302.988ZM319.775 141.119V142.042H310.854V137.647H311.997V141.119H319.775ZM321.152 143.814V144.752H309.229V143.814H321.152ZM319.849 148.912V149.864H310.781V146.085H311.924V148.912H319.849ZM127.69 161.585V168.88C129.097 168.865 130.43 168.785 131.997 168.455L132.158 169.451C130.415 169.817 128.965 169.891 127.368 169.891H126.548V161.585H127.69ZM137.051 160.164V173.187H135.952V160.164H137.051ZM134.268 160.486V172.527H133.169V165.511H130.195V164.559H133.169V160.486H134.268ZM149.414 167.21V168.147H140.405V161.292H149.268V162.259H141.577V164.192H148.989V165.115H141.577V167.21H149.414ZM150.791 170.535V171.487H138.867V170.535H150.791ZM162.612 160.179V173.201H161.44V169.964H158.438V169.085H161.44V160.179H162.612ZM151.772 167.034C154.263 167.034 157.559 167.02 160.43 166.609L160.503 167.474C159.214 167.693 157.874 167.825 156.577 167.898V172.791H155.42V167.957C154.167 168.008 152.981 168.016 151.934 168.016L151.772 167.034ZM156.064 160.823C157.998 160.823 159.346 161.863 159.346 163.387C159.346 164.939 157.998 165.936 156.064 165.936C154.116 165.936 152.769 164.939 152.769 163.387C152.769 161.863 154.116 160.823 156.064 160.823ZM156.064 161.717C154.746 161.717 153.838 162.405 153.853 163.387C153.838 164.383 154.746 165.042 156.064 165.042C157.339 165.042 158.262 164.383 158.262 163.387C158.262 162.405 157.339 161.717 156.064 161.717ZM171.724 161.072C171.709 164.397 169.805 166.829 165.615 168.06L165.176 167.122C167.402 166.485 168.867 165.525 169.688 164.31L165.278 164.661L165.073 163.709L170.142 163.46C170.332 163.006 170.442 162.522 170.493 162.01H165.732V161.072H171.724ZM175.547 160.179V168.016H174.404V160.179H175.547ZM171.226 168.191C173.921 168.191 175.605 169.1 175.605 170.667C175.605 172.264 173.921 173.157 171.226 173.157C168.501 173.157 166.816 172.264 166.816 170.667C166.816 169.1 168.501 168.191 171.226 168.191ZM171.226 169.1C169.204 169.1 167.959 169.7 167.959 170.667C167.959 171.648 169.204 172.249 171.226 172.249C173.218 172.249 174.478 171.648 174.478 170.667C174.478 169.7 173.218 169.1 171.226 169.1ZM193.447 170.55V171.517H181.523V170.55H186.885V167.371H182.93V161.263H191.968V167.371H188.013V170.55H193.447ZM184.058 162.186V166.448H190.854V162.186H184.058ZM205.239 160.179V167.62H204.097V160.179H205.239ZM205.239 168.323V173.011H196.772V168.323H205.239ZM197.9 169.261V172.073H204.111V169.261H197.9ZM198.208 160.867C200.186 160.867 201.621 162.098 201.621 163.914C201.621 165.701 200.186 166.946 198.208 166.946C196.23 166.946 194.795 165.701 194.795 163.914C194.795 162.098 196.23 160.867 198.208 160.867ZM198.208 161.849C196.875 161.834 195.908 162.698 195.923 163.914C195.908 165.115 196.875 165.965 198.208 165.965C199.526 165.965 200.493 165.115 200.493 163.914C200.493 162.698 199.526 161.834 198.208 161.849ZM218.203 160.164V167.151H217.061V160.164H218.203ZM210.908 167.811V169.393H217.061V167.811H218.203V173.011H209.766V167.811H210.908ZM210.908 172.073H217.061V170.315H210.908V172.073ZM211.172 160.809C213.149 160.794 214.585 162.01 214.585 163.797C214.585 165.569 213.149 166.785 211.172 166.785C209.194 166.785 207.759 165.569 207.759 163.797C207.759 162.01 209.194 160.794 211.172 160.809ZM211.172 161.775C209.839 161.761 208.872 162.61 208.887 163.797C208.872 164.983 209.839 165.833 211.172 165.833C212.49 165.833 213.457 164.983 213.457 163.797C213.457 162.61 212.49 161.761 211.172 161.775ZM231.152 160.164V173.187H230.01V160.164H231.152ZM222.393 161.453V168.836C224.377 168.829 226.436 168.667 228.618 168.206L228.779 169.188C226.465 169.671 224.399 169.832 222.319 169.832H221.265V161.453H222.393ZM243.457 160.164V165.32H245.64V166.287H243.457V173.216H242.314V160.164H243.457ZM240.029 161.438V162.391H235.093V168.982C237.451 168.982 239.121 168.873 241.055 168.514L241.201 169.51C239.165 169.876 237.451 169.949 234.976 169.949H233.95V161.438H240.029ZM247.72 172.088C247.207 172.088 246.768 171.663 246.782 171.136C246.768 170.623 247.207 170.198 247.72 170.198C248.232 170.198 248.657 170.623 248.657 171.136C248.657 171.663 248.232 172.088 247.72 172.088ZM60.3516 183.018V196.377H58.4619V183.018H60.3516ZM51.7236 184.072V187.324H54.5947V184.072H56.4404V193.257H49.8486V184.072H51.7236ZM51.7236 191.748H54.5947V188.774H51.7236V191.748ZM74.3555 193.213V194.736H62.1533V193.213H74.3555ZM69.2139 185.654C69.2139 187.515 70.8838 189.272 73.9014 189.727L73.1689 191.206C70.8325 190.796 69.104 189.653 68.2471 188.071C67.3975 189.683 65.6836 190.869 63.3838 191.279L62.6514 189.785C65.5664 189.331 67.251 187.515 67.251 185.654V185.64H63.1641V184.146H73.2861V185.64H69.2139V185.654ZM80.3027 186.035C80.3027 188.481 81.416 190.942 83.6719 191.895L82.5732 193.389C81.0498 192.7 79.9951 191.375 79.3945 189.727C78.7866 191.521 77.6953 192.971 76.0693 193.711L74.9414 192.158C77.2705 191.177 78.3984 188.628 78.4131 186.035V184.043H80.3027V186.035ZM86.2793 183.018V196.377H84.3896V183.018H86.2793ZM98.7451 184.248V185.845C98.7451 187.676 98.7451 189.492 98.2617 192.246L96.3721 192.085C96.8701 189.521 96.8701 187.617 96.8848 185.845V185.742H89.3408V184.248H98.7451ZM100.239 193.066V194.604H88.0811V193.066H100.239ZM103.638 183.574V187.896C105.3 187.881 107 187.756 108.794 187.441L109.043 188.95C106.86 189.346 104.868 189.463 102.891 189.448H101.792V183.574H103.638ZM112.28 183.018V189.771H110.42V186.387H107.124V184.893H110.42V183.018H112.28ZM112.28 190.269V193.901H105.308V194.707H112.603V196.201H103.433V192.48H110.405V191.733H103.418V190.269H112.28ZM125.566 183.018V196.348H123.779V183.018H125.566ZM122.783 183.208V195.732H121.025V189.434H119.956C119.78 192.056 118.667 193.638 117.026 193.638C115.269 193.638 114.126 191.792 114.126 188.789C114.126 185.801 115.269 183.97 117.026 183.97C118.63 183.97 119.729 185.464 119.941 187.954H121.025V183.208H122.783ZM117.026 185.728C116.279 185.728 115.84 186.753 115.854 188.789C115.84 190.84 116.279 191.851 117.026 191.836C117.788 191.851 118.242 190.84 118.242 188.789C118.242 186.753 117.788 185.728 117.026 185.728ZM132.012 186.035C132.012 188.54 133.022 190.972 135.249 191.938L134.106 193.433C132.627 192.708 131.638 191.382 131.089 189.741C130.503 191.484 129.478 192.913 127.954 193.667L126.782 192.144C129.067 191.118 130.107 188.54 130.122 186.035V184.043H132.012V186.035ZM138.223 183.018V196.377H136.377V188.716H133.755V187.207H136.377V183.018H138.223ZM155.596 193.286V194.795H143.394V193.286H148.55V190.312H150.425V193.286H155.596ZM154.526 184.028V185.537H150.469C150.623 187.295 152.278 188.928 155.142 189.346L154.409 190.825C152.073 190.415 150.344 189.272 149.487 187.69C148.638 189.302 146.924 190.474 144.624 190.898L143.892 189.419C146.66 188.972 148.323 187.302 148.477 185.537H144.404V184.028H154.526ZM167.593 183.032V192.773H165.732V188.423H163.345V186.885H165.732V183.032H167.593ZM163.462 184.014C163.462 187.588 161.191 190.225 157.295 191.44L156.533 189.961C159.294 189.097 161.074 187.507 161.426 185.537H157.222V184.014H163.462ZM167.93 194.619V196.113H158.804V191.792H160.708V194.619H167.93ZM175.4 183.208C178.462 183.208 180.234 184.014 180.249 185.479C180.234 186.958 178.462 187.764 175.4 187.764C172.324 187.764 170.537 186.958 170.537 185.479C170.537 184.014 172.324 183.208 175.4 183.208ZM175.4 184.57C173.438 184.57 172.485 184.893 172.5 185.479C172.485 186.138 173.438 186.387 175.4 186.387C177.378 186.387 178.315 186.138 178.315 185.479C178.315 184.893 177.378 184.57 175.4 184.57ZM181.479 188.394V189.873H169.321V188.394H181.479ZM180 190.649V194.048H172.573V194.854H180.352V196.26H170.742V192.744H178.154V192.012H170.728V190.649H180ZM196.948 183.018V196.348H195.059V183.018H196.948ZM192.949 184.409C192.949 188.452 191.528 191.807 186.768 194.062L185.786 192.568C189.229 190.942 190.745 188.833 191.045 185.874H186.504V184.409H192.949ZM209.282 183.032V186.782H211.084V188.32H209.282V192.847H207.407V183.032H209.282ZM209.766 194.619V196.113H200.64V191.836H202.5V194.619H209.766ZM200.962 183.97V185.903H203.687V183.97H205.562V190.723H199.102V183.97H200.962ZM200.962 189.258H203.687V187.339H200.962V189.258ZM217.749 183.691C220.562 183.706 222.759 185.215 222.773 187.529C222.759 189.858 220.562 191.382 217.749 191.367C214.922 191.382 212.739 189.858 212.739 187.529C212.739 185.215 214.922 183.706 217.749 183.691ZM217.749 185.215C215.903 185.2 214.556 186.094 214.556 187.529C214.556 188.979 215.903 189.844 217.749 189.844C219.595 189.844 220.913 188.979 220.928 187.529C220.913 186.094 219.595 185.2 217.749 185.215ZM223.872 193.213V194.722H211.67V193.213H223.872ZM236.836 193.33V194.868H224.634V193.33H229.775V191.323H226.04V186.841H233.584V185.376H226.025V183.882H235.43V188.306H227.915V189.8H235.737V191.323H231.636V193.33H236.836ZM252.554 183.018V196.348H250.752V189.565H249.536V195.762H247.793V183.369H249.536V188.071H250.752V183.018H252.554ZM246.855 184.658C246.841 188.379 245.728 191.426 241.978 193.608L240.894 192.319C243.611 190.723 244.775 188.767 245.039 186.152H241.567V184.658H246.855ZM265.254 183.018V189.8H263.394V186.489H260.889V185.01H263.394V183.018H265.254ZM265.254 190.356V193.916H258.252V194.736H265.635V196.201H256.406V192.554H263.408V191.792H256.392V190.356H265.254ZM259.014 184.424C258.999 186.021 259.937 187.559 262.061 188.188L261.079 189.624C259.651 189.163 258.655 188.269 258.076 187.119C257.498 188.401 256.443 189.412 254.883 189.902L253.916 188.423C256.128 187.778 257.109 186.152 257.124 184.424V183.457H259.014V184.424ZM274.761 187.104V188.599H272.373V189.946C273.428 189.895 274.475 189.829 275.464 189.727L275.596 191.06C272.769 191.455 269.751 191.528 267.29 191.528L267.041 190.049C268.11 190.042 269.29 190.034 270.498 190.005V188.599H268.169V183.823H274.644V185.317H270.044V187.104H274.761ZM278.188 183.003V193.052H276.284V183.003H278.188ZM278.54 194.619V196.113H269.106V192.29H270.996V194.619H278.54ZM295.605 193.257V194.795H283.403V193.257H288.545V190.532H284.692V183.999H294.243V190.532H290.405V193.257H295.605ZM286.538 185.493V189.067H292.397V185.493H286.538ZM307.529 183.032V190.562H305.654V183.032H307.529ZM307.529 191.162V196.201H298.594V191.162H307.529ZM300.439 192.642V194.707H305.698V192.642H300.439ZM300.22 183.633C302.3 183.633 303.867 184.951 303.867 186.855C303.867 188.687 302.3 190.034 300.22 190.034C298.14 190.034 296.572 188.687 296.572 186.855C296.572 184.951 298.14 183.633 300.22 183.633ZM300.22 185.2C299.15 185.2 298.389 185.815 298.403 186.855C298.389 187.852 299.15 188.467 300.22 188.467C301.26 188.467 302.021 187.852 302.021 186.855C302.021 185.815 301.26 185.2 300.22 185.2ZM315.41 183.208C318.472 183.208 320.244 184.014 320.259 185.479C320.244 186.958 318.472 187.764 315.41 187.764C312.334 187.764 310.547 186.958 310.547 185.479C310.547 184.014 312.334 183.208 315.41 183.208ZM315.41 184.57C313.447 184.57 312.495 184.893 312.51 185.479C312.495 186.138 313.447 186.387 315.41 186.387C317.388 186.387 318.325 186.138 318.325 185.479C318.325 184.893 317.388 184.57 315.41 184.57ZM321.489 188.394V189.873H309.331V188.394H321.489ZM320.01 190.649V194.048H312.583V194.854H320.361V196.26H310.752V192.744H318.164V192.012H310.737V190.649H320.01ZM325.107 193.916L323.848 198.091H322.295L323.027 193.916H325.107ZM113.474 206.032V209.841H115.173V211.379H113.474V215.085H111.599V206.032H113.474ZM102.664 213.371C103.638 213.371 104.751 213.371 105.901 213.342V212.595C104.451 212.39 103.542 211.687 103.557 210.661C103.542 209.431 104.846 208.669 106.824 208.669C108.787 208.669 110.076 209.431 110.09 210.661C110.076 211.687 109.189 212.382 107.761 212.58V213.269C108.86 213.225 109.951 213.137 110.984 213.005L111.116 214.294C108.303 214.792 105.212 214.821 102.854 214.821L102.664 213.371ZM113.474 215.627V219.348H111.599V217.062H104.363V215.627H113.474ZM110.647 206.999V208.361H103.015V206.999H105.901V205.915H107.761V206.999H110.647ZM106.824 209.914C105.872 209.914 105.33 210.148 105.344 210.661C105.33 211.145 105.872 211.423 106.824 211.423C107.761 211.423 108.289 211.145 108.303 210.661C108.289 210.148 107.761 209.914 106.824 209.914ZM126.936 206.032V215.612H125.061V206.032H126.936ZM127.288 217.619V219.113H118V214.646H119.89V217.619H127.288ZM119.626 206.882C121.677 206.882 123.274 208.288 123.274 210.236C123.274 212.229 121.677 213.62 119.626 213.62C117.576 213.62 115.979 212.229 115.979 210.236C115.979 208.288 117.576 206.882 119.626 206.882ZM119.626 208.508C118.586 208.493 117.795 209.152 117.81 210.236C117.795 211.35 118.586 211.994 119.626 211.994C120.637 211.994 121.428 211.35 121.428 210.236C121.428 209.152 120.637 208.493 119.626 208.508ZM139.255 206.018V211.232H141.218V212.771H139.255V219.348H137.41V206.018H139.255ZM136.501 208.01V209.504H128.665V208.01H131.682V206.223H133.557V208.01H136.501ZM132.62 210.251C134.568 210.251 136.018 211.569 136.018 213.43C136.018 215.29 134.568 216.608 132.62 216.608C130.657 216.608 129.207 215.29 129.207 213.43C129.207 211.569 130.657 210.251 132.62 210.251ZM132.62 211.76C131.682 211.774 130.994 212.404 130.994 213.43C130.994 214.47 131.682 215.085 132.62 215.07C133.557 215.085 134.231 214.47 134.231 213.43C134.231 212.404 133.557 211.774 132.62 211.76ZM152.688 207.175V208.435C152.688 210.104 152.688 211.979 152.146 214.807L150.271 214.616C150.776 212.097 150.798 210.222 150.813 208.654H142.961V207.175H152.688ZM153.86 216.198V217.722H141.702V216.198H146.052V211.613H147.913V216.198H153.86ZM169.285 206.032V215.759H167.41V206.032H169.285ZM169.636 217.619V219.113H160.349V214.821H162.239V217.619H169.636ZM163.235 208.054C163.22 209.812 164.158 211.54 166.355 212.243L165.403 213.708C163.901 213.21 162.861 212.214 162.268 210.939C161.675 212.309 160.605 213.408 159.045 213.942L158.079 212.463C160.32 211.716 161.287 209.855 161.287 208.054V206.765H163.235V208.054ZM178.689 207.409V208.874H175.994C176.008 210.244 177.019 211.635 179.158 212.185L178.293 213.62C176.777 213.239 175.708 212.397 175.1 211.306C174.521 212.551 173.452 213.525 171.877 213.972L170.999 212.521C173.137 211.914 174.119 210.39 174.133 208.874H171.453V207.409H174.133V205.959H176.023V207.409H178.689ZM182.322 206.018V214.074H180.461V211.086H178.293V209.592H180.461V206.018H182.322ZM177.766 214.294C180.608 214.309 182.351 215.202 182.366 216.799C182.351 218.41 180.608 219.348 177.766 219.348C174.939 219.348 173.181 218.41 173.181 216.799C173.181 215.202 174.939 214.309 177.766 214.294ZM177.766 215.729C175.994 215.729 175.042 216.081 175.042 216.799C175.042 217.531 175.994 217.927 177.766 217.927C179.568 217.927 180.505 217.531 180.505 216.799C180.505 216.081 179.568 215.729 177.766 215.729ZM194.626 205.988V208.889H196.428V210.383H194.626V213.21H192.751V205.988H194.626ZM194.626 213.752V217.121H187.639V217.883H195.007V219.26H185.808V215.847H192.766V215.1H185.779V213.752H194.626ZM191.96 207.014V208.435H184.05V207.014H187.083V205.93H188.943V207.014H191.96ZM188.005 208.757C189.998 208.757 191.287 209.606 191.287 210.939C191.287 212.302 189.998 213.122 188.005 213.122C186.013 213.122 184.695 212.302 184.695 210.939C184.695 209.606 186.013 208.757 188.005 208.757ZM188.005 210.075C187.083 210.075 186.511 210.383 186.526 210.939C186.511 211.511 187.083 211.789 188.005 211.789C188.928 211.789 189.514 211.511 189.514 210.939C189.514 210.383 188.928 210.075 188.005 210.075ZM207.546 207.058C207.546 208.625 209.143 210.368 212.205 210.749L211.472 212.258C209.143 211.921 207.437 210.844 206.565 209.401C205.686 210.844 203.994 211.921 201.687 212.258L200.94 210.749C203.972 210.368 205.583 208.625 205.583 207.058V206.413H207.546V207.058ZM212.629 213.269V214.792H207.444V219.348H205.598V214.792H200.471V213.269H212.629ZM221.741 214.572C221.741 215.649 222.188 216.755 223.279 217.487C224.377 216.711 224.861 215.561 224.861 214.572V214.118H226.707V214.572C226.692 215.964 227.439 217.253 229.211 217.795L228.303 219.157C227.029 218.725 226.194 217.912 225.74 216.887C225.293 217.912 224.517 218.806 223.323 219.274C222.063 218.82 221.279 217.956 220.847 216.931C220.378 217.927 219.558 218.732 218.342 219.157L217.419 217.795C219.177 217.194 219.91 215.876 219.924 214.572V214.118H221.741V214.572ZM228.054 206.032V213.562H226.179V206.032H228.054ZM220.745 206.706C222.825 206.706 224.392 208.024 224.392 209.914C224.392 211.774 222.825 213.093 220.745 213.093C218.665 213.093 217.097 211.774 217.097 209.914C217.097 208.024 218.665 206.706 220.745 206.706ZM220.745 208.273C219.675 208.273 218.914 208.889 218.928 209.914C218.914 210.925 219.675 211.54 220.745 211.54C221.785 211.54 222.546 210.925 222.546 209.914C222.546 208.889 221.785 208.273 220.745 208.273ZM233.123 214.016V215.144H238.616V214.016H240.476V219.201H231.277V214.016H233.123ZM233.123 217.736H238.616V216.564H233.123V217.736ZM242.014 211.833V213.342H229.856V211.833H242.014ZM236.902 206.604C236.902 207.937 238.44 209.445 241.414 209.782L240.754 211.247C238.455 210.954 236.792 210.002 235.935 208.713C235.078 210.002 233.408 210.954 231.13 211.247L230.457 209.782C233.43 209.431 234.968 207.966 234.983 206.604V206.149H236.902V206.604ZM254.026 206.018V219.348H252.166V206.018H254.026ZM245.383 207.292V214.455C247.185 214.433 249.119 214.265 251.082 213.884L251.316 215.422C248.972 215.905 246.775 216.066 244.709 216.052H243.538V207.292H245.383ZM266.301 206.018V210.969H268.264V212.492H266.301V219.377H264.426V206.018H266.301ZM262.566 207.248V208.757H258.171V214.602C260.105 214.58 261.702 214.492 263.474 214.177L263.679 215.744C261.614 216.096 259.797 216.154 257.439 216.14H256.311V207.248H262.566ZM270.476 218.132C269.788 218.132 269.231 217.575 269.246 216.901C269.231 216.228 269.788 215.686 270.476 215.686C271.121 215.686 271.692 216.228 271.692 216.901C271.692 217.575 271.121 218.132 270.476 218.132Z" fill="#353A40"/>
</svg>
