<svg width="180" height="180" viewBox="0 0 180 180" fill="none" xmlns="http://www.w3.org/2000/svg">
<rect width="180" height="180" rx="16" fill="url(#paint0_linear_409_1432)"/>
<path d="M102.728 31.2721V63.9996L86.3638 65.8107L84.9029 65.6489L70 63.9996V31.2721L82.4519 29.618L86.3638 29.0988L102.728 31.2721Z" fill="#A33100"/>
<path d="M102.728 64V65.8401C102.728 68.8404 100.295 71.2734 97.2943 71.2734H75.4333C72.4318 71.2734 70 68.8404 70 65.8401V64H102.728Z" fill="#FF8652"/>
<path d="M102.728 29.4333V31.2722H70V29.4333C70 26.4329 72.4318 24 75.4333 24H97.2943C100.295 24 102.728 26.4329 102.728 29.4333Z" fill="#FF8652"/>
<path d="M89.9964 27.637C89.9964 28.1369 89.5907 28.5425 89.0909 28.5425H79.9993C79.4995 28.5425 79.0938 28.1368 79.0938 27.637C79.0938 27.1359 79.4995 26.7314 79.9993 26.7314H89.0909C89.5908 26.7313 89.9964 27.1359 89.9964 27.637Z" fill="#762300"/>
<path d="M92.7268 28.5425C93.2269 28.5425 93.6323 28.1371 93.6323 27.637C93.6323 27.1369 93.2269 26.7314 92.7268 26.7314C92.2267 26.7314 91.8213 27.1369 91.8213 27.637C91.8213 28.1371 92.2267 28.5425 92.7268 28.5425Z" fill="#762300"/>
<path d="M97.2729 44.8946V50.3773C97.2729 52.378 95.6514 53.9995 93.6507 53.9995H79.0763C77.0768 53.9995 75.4541 52.378 75.4541 50.3773V44.8946C75.4541 42.894 77.0768 41.2725 79.0763 41.2725H93.6506C95.6514 41.2725 97.2729 42.8941 97.2729 44.8946Z" fill="#FF6928"/>
<path d="M110 55.8806V60.7778C110 65.7848 109.123 70.8812 107.274 75.8182H90.9101L79.6258 64.5327C78.7976 63.7044 78.7046 62.3932 79.4073 61.4563C79.8709 60.8368 80.5785 60.5146 81.292 60.5146C81.8293 60.5146 82.3714 60.6981 82.8158 61.076L85.2149 63.1189C86.4126 64.138 88.2502 63.2517 88.1983 61.6798C88.0474 57.1315 88.3819 52.6908 88.1826 47.6354C88.1826 46.1298 89.4034 44.9092 90.9102 44.9092C92.4133 44.9092 93.6376 46.1275 93.6376 47.6354V53.9995C93.6376 53.6868 93.6908 53.3862 93.7874 53.1073C94.1569 52.0388 95.171 51.272 96.364 51.272C96.5584 51.272 96.748 51.2925 96.9302 51.3312C98.1654 51.5907 99.0915 52.687 99.0915 53.9995V54.9087C99.0915 54.5959 99.1446 54.2953 99.2413 54.0164C99.6204 52.9188 100.68 52.1388 101.917 52.1823C103.375 52.233 104.515 53.4598 104.545 54.9122C104.546 54.9315 104.546 54.952 104.546 54.9725V55.8177C104.546 55.5049 104.6 55.2043 104.696 54.9254C105.075 53.828 106.135 53.048 107.372 53.0914C108.849 53.1435 110 54.4028 110 55.8806Z" fill="#FFD5BA"/>
<path d="M109.09 78.5313V80.3774C109.09 82.378 107.469 83.9995 105.468 83.9995H92.713C90.7123 83.9995 89.0908 82.378 89.0908 80.3774V78.5313C89.0908 76.5307 90.7123 74.9092 92.713 74.9092H105.468C107.469 74.9092 109.09 76.5307 109.09 78.5313Z" fill="#FFA781"/>
<rect y="108" width="180" height="72" rx="16" fill="#FF6928"/>
<path d="M49.2852 137.33V146.723H47.5352V145.738H45.1562V144.549H47.5352V137.33H49.2852ZM49.5586 148.145V149.539H40.2891V145.82H42.0254V144.166C40.9111 144.214 39.8516 144.221 38.9082 144.221L38.7031 142.84C40.9863 142.826 44.0625 142.799 46.6875 142.471L46.7832 143.715C45.7988 143.879 44.7803 143.995 43.7754 144.07V146.436H42.0254V148.145H49.5586ZM42.75 137.754C44.5547 137.74 45.8535 138.656 45.8535 139.982C45.8535 141.309 44.5547 142.17 42.75 142.17C40.9043 142.17 39.6191 141.309 39.6191 139.982C39.6191 138.656 40.8906 137.74 42.75 137.754ZM42.75 139.025C41.8613 139.025 41.2598 139.367 41.2734 139.982C41.2598 140.584 41.8613 140.912 42.75 140.912C43.584 140.912 44.1855 140.584 44.1992 139.982C44.1855 139.367 43.584 139.025 42.75 139.025ZM60.6602 137.316V142.184H62.4922V143.619H60.6602V149.758H58.9375V137.316H60.6602ZM58.0898 139.176V140.57H50.7754V139.176H53.5918V137.508H55.3418V139.176H58.0898ZM54.4668 141.268C56.2852 141.268 57.6387 142.498 57.6387 144.234C57.6387 145.971 56.2852 147.201 54.4668 147.201C52.6348 147.201 51.2812 145.971 51.2812 144.234C51.2812 142.498 52.6348 141.268 54.4668 141.268ZM54.4668 142.676C53.5918 142.689 52.9492 143.277 52.9492 144.234C52.9492 145.205 53.5918 145.779 54.4668 145.766C55.3418 145.779 55.9707 145.205 55.9707 144.234C55.9707 143.277 55.3418 142.689 54.4668 142.676ZM73.0469 140.707V142.074H64.3516V137.754H66.0879V140.707H73.0469ZM74.3184 143.414V144.781H62.9297V143.414H74.3184ZM73.1289 148.09V149.484H64.2422V145.793H65.9922V148.09H73.1289ZM89.6582 146.873V148.309H78.2695V146.873H83.0684V144.33H79.4727V138.232H88.3867V144.33H84.8047V146.873H89.6582ZM81.1953 139.627V142.963H86.6641V139.627H81.1953ZM100.787 137.33V144.357H99.0371V137.33H100.787ZM100.787 144.918V149.621H92.4473V144.918H100.787ZM94.1699 146.299V148.227H99.0781V146.299H94.1699ZM93.9648 137.891C95.9062 137.891 97.3691 139.121 97.3691 140.898C97.3691 142.607 95.9062 143.865 93.9648 143.865C92.0234 143.865 90.5605 142.607 90.5605 140.898C90.5605 139.121 92.0234 137.891 93.9648 137.891ZM93.9648 139.354C92.9668 139.354 92.2559 139.928 92.2695 140.898C92.2559 141.828 92.9668 142.402 93.9648 142.402C94.9355 142.402 95.6465 141.828 95.6465 140.898C95.6465 139.928 94.9355 139.354 93.9648 139.354ZM113.256 137.316V149.758H111.588V137.316H113.256ZM110.658 137.494V149.184H109.018V143.305H108.02C107.855 145.752 106.816 147.229 105.285 147.229C103.645 147.229 102.578 145.506 102.578 142.703C102.578 139.914 103.645 138.205 105.285 138.205C106.782 138.205 107.808 139.6 108.006 141.924H109.018V137.494H110.658ZM105.285 139.846C104.588 139.846 104.178 140.803 104.191 142.703C104.178 144.617 104.588 145.561 105.285 145.547C105.996 145.561 106.42 144.617 106.42 142.703C106.42 140.803 105.996 139.846 105.285 139.846ZM128.213 137.33V146.408H126.463V137.33H128.213ZM128.541 148.145V149.539H119.873V145.533H121.637V148.145H128.541ZM122.566 139.217C122.553 140.857 123.428 142.471 125.479 143.127L124.59 144.494C123.188 144.029 122.218 143.1 121.664 141.91C121.11 143.188 120.112 144.214 118.656 144.713L117.754 143.332C119.846 142.635 120.748 140.898 120.748 139.217V138.014H122.566V139.217ZM136.99 138.615V139.982H134.475C134.488 141.261 135.432 142.56 137.428 143.072L136.621 144.412C135.206 144.057 134.208 143.271 133.641 142.252C133.101 143.414 132.103 144.323 130.633 144.74L129.812 143.387C131.809 142.819 132.725 141.397 132.738 139.982H130.236V138.615H132.738V137.262H134.502V138.615H136.99ZM140.381 137.316V144.836H138.645V142.047H136.621V140.652H138.645V137.316H140.381ZM136.129 145.041C138.781 145.055 140.408 145.889 140.422 147.379C140.408 148.883 138.781 149.758 136.129 149.758C133.49 149.758 131.85 148.883 131.85 147.379C131.85 145.889 133.49 145.055 136.129 145.041ZM136.129 146.381C134.475 146.381 133.586 146.709 133.586 147.379C133.586 148.062 134.475 148.432 136.129 148.432C137.811 148.432 138.686 148.062 138.686 147.379C138.686 146.709 137.811 146.381 136.129 146.381Z" fill="white"/>
<rect x="12" y="12" width="24" height="24" rx="12" fill="#FF6928"/>
<path d="M20.5068 28.5L20.4932 27.0098L24.0479 23.7422C24.9775 22.8535 25.4697 22.3066 25.4697 21.5273C25.4697 20.6523 24.7998 20.1055 23.8975 20.1055C22.9678 20.1055 22.3662 20.6934 22.3662 21.6367H20.4111C20.3975 19.6953 21.833 18.4648 23.9248 18.4648C26.0439 18.4648 27.4521 19.668 27.4521 21.3906C27.4521 22.5117 26.9053 23.4414 24.8682 25.2871L23.3643 26.75V26.8047H27.5889V28.5H20.5068Z" fill="white"/>
<defs>
<linearGradient id="paint0_linear_409_1432" x1="-0.499999" y1="89.5" x2="180.5" y2="89.5" gradientUnits="userSpaceOnUse">
<stop stop-color="#FFE9E9"/>
<stop offset="1" stop-color="#FFF2E7"/>
</linearGradient>
</defs>
</svg>
