<svg width="180" height="180" viewBox="0 0 180 180" fill="none" xmlns="http://www.w3.org/2000/svg">
<path d="M0 16C0 7.16344 7.16344 0 16 0H164C172.837 0 180 7.16344 180 16V164C180 172.837 172.837 180 164 180H16C7.16344 180 0 172.837 0 164V16Z" fill="url(#paint0_linear_409_1470)"/>
<path d="M72.98 55.95C71.808 55.5971 70.6754 55.1246 69.6 54.54L65.5 56.81C65.2438 56.9526 64.9511 57.0162 64.6588 56.9926C64.3665 56.969 64.0877 56.8594 63.8577 56.6775C63.6277 56.4956 63.4567 56.2496 63.3663 55.9707C63.276 55.6917 63.2703 55.3922 63.35 55.11L64.66 50.59C62.3273 47.937 61.028 44.5326 61 41C61 32.17 69.83 25 79.97 25C86.89 25 92.75 28.33 95.78 33.24L84 52L72.98 55.95Z" fill="#98E492"/>
<path d="M80.02 50.88C80.01 50.59 80 50.29 80 50C80 41.58 86.69 34.59 95.78 33.24C96.8457 33.0783 97.9221 32.9981 99 33C109.69 33 119 40.61 119 50C118.975 53.7493 117.606 57.3653 115.14 60.19L116.52 65C116.606 65.297 116.602 65.613 116.508 65.9076C116.414 66.2023 116.234 66.4622 115.991 66.6542C115.749 66.8462 115.455 66.9617 115.146 66.9859C114.838 67.0101 114.529 66.9419 114.26 66.79L109.94 64.39C109.309 64.7423 108.654 65.0497 107.98 65.31L80.02 50.88Z" fill="#46BC3D"/>
<path d="M71.48 81C71.3923 81.2978 71.3954 81.6149 71.489 81.9109C71.5825 82.2068 71.7622 82.4682 72.0051 82.6614C72.248 82.8547 72.543 82.9711 72.8524 82.9958C73.1618 83.0205 73.4715 82.9523 73.742 82.8L78.06 80.4C81.4468 82.1277 85.198 83.0193 89 83C99.693 83 108 75.386 108 66C108 56.614 99.693 49 89 49C78.307 49 69 56.614 69 66C69.0238 69.7487 70.3932 73.3642 72.859 76.188L71.48 81Z" fill="#1D6618"/>
<path d="M78 69C79.6569 69 81 67.6569 81 66C81 64.3431 79.6569 63 78 63C76.3431 63 75 64.3431 75 66C75 67.6569 76.3431 69 78 69Z" fill="#E3FDE1"/>
<path d="M89 69C90.6569 69 92 67.6569 92 66C92 64.3431 90.6569 63 89 63C87.3431 63 86 64.3431 86 66C86 67.6569 87.3431 69 89 69Z" fill="#E3FDE1"/>
<path d="M100 69C101.657 69 103 67.6569 103 66C103 64.3431 101.657 63 100 63C98.3431 63 97 64.3431 97 66C97 67.6569 98.3431 69 100 69Z" fill="#E3FDE1"/>
<rect y="108" width="180" height="72" rx="16" fill="#46BC3D"/>
<path d="M54.7471 138.465V139.955C54.7471 141.664 54.7471 143.359 54.2959 145.93L52.5322 145.779C52.9971 143.387 52.9971 141.609 53.0107 139.955V139.859H45.9697V138.465H54.7471ZM56.1416 146.695V148.131H44.7939V146.695H56.1416ZM68.2686 143.332V144.713H63.415V145.793H61.6924V144.713H56.8799V143.332H68.2686ZM60.0244 145.246V146.271H65.1787V145.246H66.9014V149.621H58.3018V145.246H60.0244ZM60.0244 148.295H65.1787V147.543H60.0244V148.295ZM66.8877 137.494V140.693H60.0381V141.418H67.1201V142.703H58.3018V139.477H65.1377V138.807H58.2744V137.494H66.8877ZM76.1025 141.076C76.1025 142.949 76.7725 144.85 78.5635 145.793L77.5928 147.078C76.4717 146.504 75.7266 145.499 75.2959 144.275C74.8584 145.608 74.1133 146.723 72.9854 147.365L72.001 146.053C73.7646 145.041 74.4482 143.004 74.4619 141.076V140.844H72.3975V139.422H74.4619V137.74H76.0889V139.422H78.1396V140.844H76.1025V141.076ZM83.0752 137.316V149.758H81.4072V143.523H80.3545V149.184H78.7002V137.494H80.3545V142.102H81.4072V137.316H83.0752ZM91.0322 138.178V139.572H86.7529V140.543H90.6631V141.896H86.7529V142.895C88.9404 142.895 90.3281 142.867 91.9072 142.607L92.085 143.975C90.3076 144.262 88.7354 144.303 86.0693 144.289H85.0029V138.178H91.0322ZM94.7373 137.33V144.863H92.9873V137.33H94.7373ZM90.499 145.027C93.124 145.027 94.792 145.902 94.8057 147.393C94.792 148.896 93.124 149.758 90.499 149.758C87.833 149.758 86.2197 148.896 86.2197 147.393C86.2197 145.902 87.833 145.027 90.499 145.027ZM90.499 146.381C88.8311 146.381 87.9561 146.723 87.9561 147.393C87.9561 148.076 88.8311 148.432 90.499 148.432C92.1533 148.432 93.0557 148.076 93.0557 147.393C93.0557 146.723 92.1533 146.381 90.499 146.381ZM102.216 144.932C104.8 144.932 106.413 145.82 106.413 147.338C106.413 148.883 104.8 149.771 102.216 149.771C99.5771 149.771 97.9502 148.883 97.9502 147.338C97.9502 145.82 99.5771 144.932 102.216 144.932ZM102.216 146.285C100.575 146.285 99.6865 146.627 99.7002 147.338C99.6865 148.049 100.575 148.418 102.216 148.418C103.829 148.418 104.69 148.049 104.69 147.338C104.69 146.627 103.829 146.285 102.216 146.285ZM106.29 137.316V140.201H107.972V141.664H106.29V144.658H104.54V137.316H106.29ZM98.5244 138.096V139.668H101.067V138.096H102.817V143.947H96.7881V138.096H98.5244ZM98.5244 142.566H101.067V141.021H98.5244V142.566ZM115.724 139.531C115.724 140.871 116.421 142.211 118.075 142.84L117.146 144.166C116.086 143.763 115.354 143.024 114.903 142.102C114.452 143.182 113.673 144.084 112.511 144.562L111.567 143.223C113.317 142.457 114.028 140.926 114.028 139.531V138.068H115.724V139.531ZM122.437 137.33V144.932H120.782V141.773H119.743V144.549H118.116V137.549H119.743V140.365H120.782V137.33H122.437ZM118.185 145.109C120.81 145.109 122.491 145.984 122.505 147.434C122.491 148.883 120.81 149.758 118.185 149.758C115.546 149.758 113.878 148.883 113.878 147.434C113.878 145.984 115.546 145.109 118.185 145.109ZM118.185 146.408C116.558 146.408 115.614 146.764 115.628 147.434C115.614 148.104 116.558 148.445 118.185 148.445C119.798 148.445 120.741 148.104 120.741 147.434C120.741 146.764 119.798 146.408 118.185 146.408ZM128.548 139.012C128.534 140.68 129.396 142.211 131.392 142.826L130.476 144.193C129.136 143.729 128.227 142.867 127.714 141.746C127.153 143.045 126.148 144.07 124.651 144.576L123.735 143.182C125.868 142.498 126.771 140.83 126.784 139.094V137.959H128.548V139.012ZM134.331 137.316V144.604H132.595V141.021H130.257V139.6H132.595V137.316H134.331ZM130.079 144.932C132.731 144.932 134.358 145.82 134.372 147.352C134.358 148.883 132.731 149.758 130.079 149.758C127.427 149.758 125.8 148.883 125.8 147.352C125.8 145.82 127.427 144.932 130.079 144.932ZM130.079 146.285C128.425 146.285 127.536 146.641 127.536 147.352C127.536 148.035 128.425 148.404 130.079 148.404C131.733 148.404 132.636 148.035 132.636 147.352C132.636 146.641 131.733 146.285 130.079 146.285Z" fill="white"/>
<rect x="12" y="12" width="24" height="24" rx="12" fill="#46BC3D"/>
<path d="M20.0146 26.75V25.123L24.1982 18.6016H26.7822V25.0957H28.04V26.75H26.7822V28.5H24.8271V26.75H20.0146ZM22.0928 25.0957H24.8545V20.8574H24.7588L22.0928 25.0137V25.0957Z" fill="white"/>
<defs>
<linearGradient id="paint0_linear_409_1470" x1="-0.499999" y1="89.5" x2="180.5" y2="89.5" gradientUnits="userSpaceOnUse">
<stop stop-color="#FFFAE6"/>
<stop offset="1" stop-color="#EBFFE8"/>
</linearGradient>
</defs>
</svg>
