<svg width="375" height="360" viewBox="0 0 375 360" fill="none" xmlns="http://www.w3.org/2000/svg">
<path d="M0 0H375V340C375 351.046 366.046 360 355 360H20C8.95431 360 0 351.046 0 340V0Z" fill="url(#paint0_linear_409_1274)"/>
<rect x="133" y="32" width="109" height="28" rx="14" fill="#FFE6D7"/>
<path d="M155.918 49.4893V50.8223H145.343V49.4893H149.799V47.1279H146.46V41.4658H154.737V47.1279H151.411V49.4893H155.918ZM148.06 42.7607V45.8584H153.138V42.7607H148.06ZM166.252 40.6279V47.1533H164.627V40.6279H166.252ZM166.252 47.6738V52.041H158.508V47.6738H166.252ZM160.107 48.9561V50.7461H164.665V48.9561H160.107ZM159.917 41.1484C161.72 41.1484 163.078 42.291 163.078 43.9414C163.078 45.5283 161.72 46.6963 159.917 46.6963C158.114 46.6963 156.756 45.5283 156.756 43.9414C156.756 42.291 158.114 41.1484 159.917 41.1484ZM159.917 42.5068C158.99 42.5068 158.33 43.04 158.343 43.9414C158.33 44.8047 158.99 45.3379 159.917 45.3379C160.818 45.3379 161.479 44.8047 161.479 43.9414C161.479 43.04 160.818 42.5068 159.917 42.5068ZM175.177 43.2305C175.177 45.4014 176.053 47.5088 177.982 48.3467L176.992 49.6416C175.71 49.0132 174.853 47.8643 174.377 46.4424C173.869 47.9531 172.98 49.1909 171.66 49.8447L170.645 48.5244C172.625 47.6357 173.526 45.4014 173.539 43.2305V41.5039H175.177V43.2305ZM180.56 40.6152V52.1934H178.96V45.5537H176.688V44.2461H178.96V40.6152H180.56ZM191.719 40.6152V52.1934H190.081V40.6152H191.719ZM184.241 41.5293V44.3477H186.729V41.5293H188.329V49.4893H182.616V41.5293H184.241ZM184.241 48.1816H186.729V45.6045H184.241V48.1816ZM199.361 42.1387C199.361 43.8271 200.859 45.6426 203.475 46.0869L202.764 47.4326C200.751 47.0327 199.253 45.9028 198.511 44.4111C197.743 45.8901 196.245 47.0264 194.245 47.4326L193.547 46.0869C196.111 45.6299 197.622 43.8145 197.635 42.1387V41.3008H199.361V42.1387ZM203.855 49.4131V50.7461H193.28V49.4131H203.855ZM218.087 49.4893V50.7842H207.512V49.4893H211.93V46.874H213.542V49.4893H218.087ZM213.593 42.1006C213.593 43.751 215.078 45.4902 217.719 45.8965L217.033 47.2422C215.002 46.874 213.491 45.7886 212.729 44.3477C211.968 45.7822 210.47 46.8804 208.451 47.2422L207.766 45.8965C210.381 45.4902 211.854 43.7383 211.866 42.1006V41.2754H213.593V42.1006ZM228.713 40.6152V52.168H227.151V46.29H226.098V51.6602H224.587V40.9199H226.098V44.9951H227.151V40.6152H228.713ZM223.774 42.0371C223.762 45.2617 222.797 47.9023 219.547 49.7939L218.607 48.6768C220.962 47.293 221.972 45.5981 222.2 43.332H219.191V42.0371H223.774Z" fill="#FF6928"/>
<path d="M160.031 83.8281V92.0078H163.055V94.4688H160.031V105.109H157.031V83.8281H160.031ZM154.336 86.0078C154.312 92.3828 151.828 97.9141 144.656 101.43L142.969 99.1328C148.02 96.6016 150.727 93.2031 151.289 88.4453H144.188V86.0078H154.336ZM167.859 84.9062V87.6953H172.055V84.9062H175.008V86.6406H178.945V83.8281H181.922V95.5H178.945V93.2031H175.008V94.9375H164.859V84.9062H167.859ZM167.859 92.5234H172.055V89.9922H167.859V92.5234ZM170.648 96.3906V98.3594H178.945V96.3906H181.922V104.875H167.695V96.3906H170.648ZM170.648 102.484H178.945V100.656H170.648V102.484ZM175.008 90.8125H178.945V89.0312H175.008V90.8125ZM192.961 89.6406C192.961 93.0859 194.719 96.7656 198.305 98.2656L196.688 100.609C194.168 99.543 192.434 97.4219 191.484 94.8203C190.512 97.6445 188.742 99.9883 186.234 101.148L184.523 98.7812C188.062 97.2109 189.891 93.25 189.891 89.6406V88.3281H185.367V85.8906H197.414V88.3281H192.961V89.6406ZM202.547 83.8281V105.156H199.523V83.8281H202.547ZM216.305 85.5859V95.8281H206.062V85.5859H216.305ZM209.016 87.9766V93.4844H213.352V87.9766H209.016ZM222.352 83.8281V89.9688H225.234V92.4297H222.352V99.3906H219.352V83.8281H222.352ZM223.125 102.391V104.781H208.523V97.8672H211.5V102.391H223.125ZM230.672 101.266L228.656 107.945H226.172L227.344 101.266H230.672ZM118.324 124.047C118.324 126.602 119.895 129.203 123.41 130.258L121.887 132.602C119.496 131.852 117.809 130.316 116.848 128.383C115.875 130.48 114.141 132.168 111.645 133L110.098 130.656C113.637 129.508 115.277 126.742 115.277 124.047V123.742H110.895V121.352H122.613V123.742H118.324V124.047ZM127.863 119.852V135.273H124.863V119.852H127.863ZM128.426 138.391V140.781H113.566V133.867H116.59V138.391H128.426ZM148.277 119.828V127.867H150.668V130.352H148.277V141.156H145.277V134.523L143.449 136.633C142.078 135.555 141.246 133.938 140.754 132.062C140.191 133.996 139.277 135.695 137.754 136.797C136.266 135.707 135.363 134.02 134.824 132.086C134.309 133.961 133.477 135.566 132.105 136.633L130.23 134.453C132.926 132.461 133.324 128.688 133.348 125.172V124.07H131.074V121.68H137.402V124.07H136.16V125.172C136.16 127.68 136.371 130.621 137.777 132.836C139.148 130.633 139.395 127.715 139.395 125.172V124.07H138.152V121.68H144.152V124.07H142.254V125.172C142.23 128.699 142.641 132.414 145.277 134.406V119.828H148.277ZM174.996 119.852V135.438H172.02V130.375H167.145C166.113 131.465 164.625 132.133 162.973 132.133C159.738 132.133 157.277 129.789 157.301 126.625C157.277 123.414 159.738 121.094 162.973 121.07C164.625 121.082 166.102 121.738 167.145 122.828H172.02V119.852H174.996ZM175.512 138.391V140.781H160.84V133.867H163.84V138.391H175.512ZM162.973 123.742C161.309 123.742 160.113 124.82 160.137 126.625C160.113 128.406 161.309 129.484 162.973 129.484C164.543 129.484 165.762 128.406 165.762 126.625C165.762 124.82 164.543 123.742 162.973 123.742ZM168.434 125.219C168.539 125.664 168.598 126.133 168.598 126.625C168.598 127.094 168.539 127.551 168.434 127.984H172.02V125.219H168.434ZM195.738 119.828V130.562H192.762V128.922H187.887V126.648H192.762V124.773H188.121C186.797 127.984 183.75 130.035 179.027 131.055L178.02 128.617C182.906 127.645 185.168 125.629 185.566 123.062H179.215V120.648H188.871C188.871 121.293 188.824 121.914 188.73 122.5H192.762V119.828H195.738ZM195.738 131.336V137.172H184.582V138.578H196.207V140.945H181.582V134.969H192.738V133.68H181.559V131.336H195.738ZM208.23 120.133C213.129 120.133 215.965 121.422 215.988 123.766C215.965 126.133 213.129 127.422 208.23 127.422C203.309 127.422 200.449 126.133 200.449 123.766C200.449 121.422 203.309 120.133 208.23 120.133ZM208.23 122.312C205.09 122.312 203.566 122.828 203.59 123.766C203.566 124.82 205.09 125.219 208.23 125.219C211.395 125.219 212.895 124.82 212.895 123.766C212.895 122.828 211.395 122.312 208.23 122.312ZM217.957 128.43V130.797H198.504V128.43H217.957ZM215.59 132.039V137.477H203.707V138.766H216.152V141.016H200.777V135.391H212.637V134.219H200.754V132.039H215.59ZM231.738 120.719C234.996 120.695 237.363 122.547 237.363 125.242C237.363 127.914 234.996 129.789 231.738 129.766C228.48 129.789 226.113 127.914 226.137 125.242C226.113 122.547 228.48 120.695 231.738 120.719ZM231.738 123.109C230.145 123.109 229.02 123.883 229.02 125.242C229.02 126.578 230.145 127.352 231.738 127.328C233.379 127.352 234.527 126.578 234.527 125.242C234.527 123.883 233.379 123.109 231.738 123.109ZM242.754 119.852V141.156H239.801V119.852H242.754ZM224.824 131.078C228.598 131.078 233.965 130.984 238.512 130.305L238.699 132.508C236.941 132.859 235.137 133.082 233.355 133.211V140.523H230.379V133.398C228.504 133.48 226.734 133.492 225.199 133.516L224.824 131.078ZM262.441 119.852V126.391H265.324V128.828H262.441V135.766H259.441V119.852H262.441ZM258.176 122.078V124.445H245.52V122.078H250.371V119.805H253.348V122.078H258.176ZM251.848 125.195C254.941 125.195 257.098 126.859 257.098 129.32C257.098 131.781 254.941 133.398 251.848 133.398C248.73 133.398 246.551 131.781 246.551 129.32C246.551 126.859 248.73 125.195 251.848 125.195ZM251.848 127.469C250.418 127.492 249.457 128.148 249.48 129.32C249.457 130.492 250.418 131.125 251.848 131.125C253.277 131.125 254.262 130.492 254.262 129.32C254.262 128.148 253.277 127.492 251.848 127.469ZM263.215 138.391V140.781H248.613V134.547H251.59V138.391H263.215ZM174.012 156.672V164.172H168.223V166.211H176.473V168.625H157.02V166.211H165.223V164.172H159.434V156.672H174.012ZM162.363 158.992V161.828H171.082V158.992H162.363ZM174.105 170.195V177.156H171.129V172.539H159.176V170.195H174.105ZM197.285 172.211V174.672H177.762V172.211H182.121V166.984C180.469 166 179.473 164.488 179.473 162.602C179.473 159.156 182.848 156.859 187.488 156.859C192.105 156.859 195.504 159.156 195.527 162.602C195.516 164.441 194.543 165.941 192.949 166.938V172.211H197.285ZM187.488 159.227C184.441 159.227 182.426 160.445 182.426 162.602C182.426 164.688 184.441 165.977 187.488 165.977C190.512 165.977 192.551 164.688 192.574 162.602C192.551 160.445 190.512 159.227 187.488 159.227ZM185.074 172.211H189.926V168.062C189.164 168.215 188.344 168.297 187.488 168.297C186.633 168.297 185.824 168.227 185.074 168.062V172.211ZM204.574 156.461C207.809 156.461 210.27 158.477 210.27 161.336C210.27 164.148 207.809 166.188 204.574 166.188C201.27 166.188 198.832 164.148 198.832 161.336C198.832 158.477 201.27 156.461 204.574 156.461ZM204.574 158.898C202.934 158.898 201.715 159.789 201.738 161.336C201.715 162.859 202.934 163.773 204.574 163.773C206.191 163.773 207.387 162.859 207.387 161.336C207.387 159.789 206.191 158.898 204.574 158.898ZM216.363 155.828V166.516H213.363V155.828H216.363ZM216.363 167.406V173.195H205.02V174.578H216.949V176.922H202.09V171.016H213.387V169.703H202.043V167.406H216.363Z" fill="#22252A"/>
<g clip-path="url(#clip0_409_1274)">
<path opacity="0.5" d="M426.54 334.392C426.54 311.219 407.777 292.435 384.629 292.435C364.017 292.435 346.916 307.346 343.412 326.971C338.28 324.934 332.704 323.779 326.85 323.779C321.836 323.779 317.03 324.634 312.524 326.15C312.168 307.289 296.809 292.1 277.882 292.1C267.785 292.1 258.724 296.448 252.388 303.341C244.364 291.952 231.142 284.492 216.163 284.492C208.097 284.492 200.558 286.681 194.044 290.447C187.014 272.628 169.697 260 149.396 260C129.095 260 110.423 273.639 103.977 292.575C98.4121 288.923 91.7692 286.784 84.6213 286.784C66.7119 286.784 51.9456 300.122 49.6072 317.409C43.4615 313.932 36.3783 311.922 28.8129 311.922C21.2475 311.922 14.745 313.754 8.77769 316.965C4.50721 308.916 -3.94264 303.428 -13.6793 303.428C-27.7169 303.428 -39.0972 314.821 -39.0972 328.875C-39.0972 331.474 -38.7024 333.982 -37.9774 336.346C-51.3734 341.05 -61 353.785 -61 368.803C-61 387.808 -45.6111 403.218 -26.6236 403.218C-14.4727 403.218 -3.81737 396.887 2.29795 387.36C9.55965 393.208 18.7725 396.727 28.8167 396.727C30.1604 396.727 31.4814 396.647 32.7911 396.526C39.4758 410.811 53.9233 420.729 70.7243 420.729C81.4973 420.729 91.2909 416.625 98.7158 409.936C106.042 416.408 115.634 420.368 126.172 420.368C141.299 420.368 154.502 412.247 161.767 400.147C167.241 404.445 174.115 407.029 181.612 407.029C182.907 407.029 184.178 406.931 185.431 406.782C191.349 416.256 201.834 422.58 213.821 422.58C220.195 422.58 226.132 420.763 231.203 417.67C239.273 427.098 251.231 433.095 264.604 433.095C282.206 433.095 297.352 422.72 304.386 407.77C311.002 411.601 318.659 413.828 326.85 413.828C329.265 413.828 331.614 413.585 333.922 413.216C341.909 425.741 355.882 434.071 371.829 434.071C396.67 434.071 416.807 413.911 416.807 389.043C416.807 381.017 414.685 373.5 411.011 366.975C420.482 359.284 426.548 347.549 426.548 334.385L426.54 334.392Z" fill="white"/>
<path opacity="0.83" d="M435.989 357.14C435.989 333.967 417.225 315.183 394.077 315.183C373.465 315.183 356.364 330.095 352.861 349.719C347.729 347.682 342.152 346.527 336.299 346.527C331.284 346.527 326.479 347.382 321.973 348.898C321.616 330.038 306.257 314.848 287.331 314.848C277.233 314.848 268.172 319.196 261.837 326.089C253.812 314.7 240.591 307.24 225.612 307.24C217.549 307.24 210.007 309.429 203.493 313.195C196.466 295.372 179.149 282.744 158.852 282.744C138.555 282.744 119.879 296.383 113.433 315.319C107.868 311.667 101.225 309.528 94.0774 309.528C76.168 309.528 61.4016 322.867 59.0633 340.154C52.9176 336.676 45.8343 334.666 38.2689 334.666C30.7035 334.666 24.201 336.498 18.2337 339.709C13.9633 331.66 5.51342 326.173 -4.22327 326.173C-18.2608 326.173 -29.6411 337.566 -29.6411 351.619C-29.6411 354.222 -29.2464 356.73 -28.5213 359.09C-41.9211 363.787 -51.5439 376.525 -51.5439 391.544C-51.5439 410.548 -36.155 425.958 -17.1676 425.958C-5.01663 425.958 5.63868 419.627 11.754 410.1C19.0157 415.948 28.2285 419.467 38.2727 419.467C39.6165 419.467 40.9375 419.388 42.2471 419.266C48.9318 433.551 63.3793 443.469 80.1803 443.469C90.9533 443.469 100.747 439.365 108.172 432.677C115.498 439.149 125.091 443.108 135.628 443.108C150.755 443.108 163.954 434.987 171.219 422.888C176.693 427.186 183.568 429.77 191.065 429.77C192.359 429.77 193.627 429.671 194.883 429.523C200.801 438.997 211.286 445.32 223.274 445.32C229.647 445.32 235.584 443.504 240.655 440.41C248.726 449.839 260.683 455.835 274.056 455.835C291.658 455.835 306.804 445.461 313.838 430.511C320.454 434.341 328.111 436.568 336.303 436.568C338.717 436.568 341.067 436.325 343.375 435.956C351.361 448.482 365.334 456.812 381.281 456.812C406.122 456.812 426.26 436.652 426.26 411.783C426.26 403.757 424.138 396.241 420.463 389.716C429.934 382.024 436 370.289 436 357.125L435.989 357.14Z" fill="white"/>
<path d="M336.551 345.733C346.393 329.188 362.591 316.536 381.022 311" stroke="#495056" stroke-width="0.29" stroke-linecap="round" stroke-linejoin="round"/>
<path d="M359.755 321.188C347.327 327.458 336.508 316.146 336.508 316.146C349.628 307.861 359.755 321.188 359.755 321.188Z" fill="#DEE1E6"/>
<path d="M368.533 316.104C359.59 320.696 361.597 331.827 361.597 331.827C372.018 327.684 368.533 316.104 368.533 316.104Z" fill="#DEE1E6"/>
<path d="M359.755 321.188C354.609 322.382 346.765 320.384 346.765 320.384" stroke="#495056" stroke-width="0.29" stroke-linecap="round" stroke-linejoin="round"/>
<path d="M368.533 316.104C363.794 320.713 361.545 331.455 361.545 331.455" stroke="#495056" stroke-width="0.29" stroke-linecap="round" stroke-linejoin="round"/>
<path d="M329.269 342.844L342.856 351.423C348.832 353.403 365.065 351.068 362.125 345.68C360.058 341.884 352.369 344.262 347.993 346.009C352.309 343.933 359.288 339.756 356.391 335.562C352.309 329.646 341.1 339.946 341.1 339.946C341.1 339.946 346.454 324.362 339.483 323.142C334.588 322.286 333.031 330.312 332.53 335.172C332.685 330.148 332.27 321.629 327.531 321.983C320.837 322.485 324.953 338.416 329.26 342.844H329.269Z" fill="#FFA781"/>
<path d="M329.347 342.464C329.944 341.452 334.034 341.945 338.047 344.315C342.06 346.684 344.456 350.04 343.859 351.052C343.262 352.064 339.526 350.965 335.522 348.596C331.518 346.226 328.75 343.484 329.356 342.472L329.347 342.464Z" fill="white"/>
<path d="M250.081 250.131H124.265C120.355 250.131 117.766 253.305 118.48 257.21L135.916 352.902C136.63 356.815 140.379 359.982 144.281 359.982H270.097C274.007 359.982 276.596 356.807 275.882 352.902L258.446 257.21C257.732 253.297 253.983 250.131 250.081 250.131Z" fill="#FFD5BA"/>
<path d="M249.156 250.131H123.341C119.43 250.131 116.842 253.305 117.556 257.21L134.992 352.902C135.706 356.816 139.454 359.982 143.357 359.982H269.164C273.075 359.982 275.663 356.807 274.949 352.902L257.513 257.21C256.799 253.297 253.051 250.131 249.148 250.131H249.156Z" fill="#FFBFA2"/>
<path d="M259.452 267.829L257.513 257.21C256.799 253.297 253.051 250.131 249.148 250.131H123.333C119.422 250.131 116.834 253.305 117.548 257.21L119.487 267.829H259.452Z" fill="#ED4E0A"/>
<path d="M124.809 250.149H250.624C254.535 250.149 257.123 253.324 256.409 257.229L238.973 352.921C238.259 356.834 234.511 360 230.608 360H104.793C100.882 360 98.2938 356.826 99.0078 352.921L116.444 257.229C117.158 253.315 120.906 250.149 124.809 250.149Z" fill="#FFD5BA"/>
<path d="M123.884 250.149H249.699C253.61 250.149 256.198 253.323 255.484 257.228L238.048 352.921C237.334 356.834 233.586 360 229.683 360H103.868C99.9572 360 97.369 356.826 98.083 352.921L115.519 257.228C116.233 253.315 119.981 250.149 123.884 250.149Z" fill="#FFE6D7"/>
<path d="M113.58 267.847L115.519 257.228C116.233 253.315 119.981 250.149 123.884 250.149H249.699C253.61 250.149 256.198 253.323 255.484 257.228L253.545 267.847H113.58Z" fill="#FF6928"/>
<path d="M227.346 271.386H242.283C243.914 271.386 244.993 272.709 244.693 274.333L241.967 289.279C241.667 290.911 240.109 292.226 238.478 292.226H223.541C221.91 292.226 220.831 290.902 221.132 289.279L223.858 274.333C224.158 272.701 225.716 271.386 227.346 271.386Z" fill="white"/>
<path d="M201.399 271.386H216.336C217.967 271.386 219.046 272.709 218.746 274.333L216.02 289.279C215.719 290.911 214.162 292.226 212.531 292.226H197.594C195.963 292.226 194.884 290.902 195.184 289.279L197.91 274.333C198.211 272.701 199.768 271.386 201.399 271.386Z" fill="#FF8652"/>
<path d="M175.445 271.386H190.382C192.013 271.386 193.092 272.709 192.792 274.333L190.066 289.279C189.765 290.911 188.208 292.226 186.577 292.226H171.64C170.009 292.226 168.93 290.902 169.23 289.279L171.956 274.333C172.256 272.701 173.814 271.386 175.445 271.386Z" fill="#FFD5BA"/>
<path d="M143.291 289.287L146.017 274.34C146.317 272.709 147.875 271.393 149.506 271.393H164.443C166.073 271.393 167.152 272.717 166.852 274.34L164.126 289.287C163.826 290.918 162.268 292.234 160.637 292.234H145.7C144.07 292.234 142.991 290.91 143.291 289.287ZM144.857 290.496C145.043 290.723 145.335 290.845 145.7 290.845H160.637C161.587 290.845 162.576 290.001 162.755 289.043L165.481 274.097C165.554 273.715 165.481 273.374 165.286 273.139C165.1 272.912 164.808 272.79 164.443 272.79H149.506C148.556 272.79 147.567 273.634 147.388 274.592L144.662 289.538C144.589 289.92 144.662 290.261 144.857 290.496Z" fill="white"/>
<path d="M123.551 271.386H138.487C140.118 271.386 141.197 272.709 140.897 274.333L138.171 289.279C137.871 290.911 136.313 292.226 134.682 292.226H119.745C118.115 292.226 117.035 290.902 117.336 289.279L120.062 274.333C120.362 272.701 121.92 271.386 123.551 271.386Z" fill="#FFD5BA"/>
<path d="M222.762 296.57H237.699C239.33 296.57 240.409 297.893 240.109 299.517L237.383 314.463C237.083 316.095 235.525 317.41 233.894 317.41H218.957C217.326 317.41 216.247 316.087 216.548 314.463L219.274 299.517C219.574 297.885 221.132 296.57 222.762 296.57Z" fill="#FFD5BA"/>
<path d="M190.6 314.472L193.326 299.526C193.627 297.894 195.184 296.579 196.815 296.579H211.752C213.383 296.579 214.462 297.902 214.162 299.526L211.436 314.472C211.135 316.104 209.578 317.419 207.947 317.419H193.01C191.379 317.419 190.3 316.096 190.6 314.472ZM192.166 315.682C192.353 315.909 192.645 316.031 193.01 316.031H207.947C208.896 316.031 209.886 315.186 210.064 314.228L212.791 299.282C212.864 298.901 212.791 298.56 212.596 298.324C212.409 298.097 212.117 297.975 211.752 297.975H196.815C195.866 297.975 194.876 298.82 194.698 299.778L191.971 314.724C191.898 315.105 191.971 315.446 192.166 315.682Z" fill="white"/>
<path d="M164.654 314.472L167.38 299.526C167.68 297.894 169.238 296.579 170.869 296.579H185.806C187.437 296.579 188.516 297.902 188.215 299.526L185.489 314.472C185.189 316.104 183.631 317.419 182.001 317.419H167.064C165.433 317.419 164.354 316.096 164.654 314.472ZM166.22 315.682C166.407 315.909 166.699 316.031 167.064 316.031H182.001C182.95 316.031 183.94 315.186 184.118 314.228L186.844 299.282C186.917 298.901 186.844 298.56 186.65 298.324C186.463 298.097 186.171 297.975 185.806 297.975H170.869C169.92 297.975 168.93 298.82 168.751 299.778L166.025 314.724C165.952 315.105 166.025 315.446 166.22 315.682Z" fill="white"/>
<path d="M144.914 296.57H159.851C161.482 296.57 162.561 297.893 162.26 299.517L159.534 314.463C159.234 316.095 157.676 317.41 156.046 317.41H141.109C139.478 317.41 138.399 316.087 138.699 314.463L141.425 299.517C141.725 297.885 143.283 296.57 144.914 296.57Z" fill="#FF8652"/>
<path d="M118.959 296.57H133.896C135.526 296.57 136.606 297.893 136.305 299.517L133.579 314.463C133.279 316.095 131.721 317.41 130.09 317.41H115.154C113.523 317.41 112.444 316.087 112.744 314.463L115.47 299.517C115.77 297.885 117.328 296.57 118.959 296.57Z" fill="white"/>
<path d="M218.17 321.744H233.107C234.737 321.744 235.816 323.067 235.516 324.691L232.79 339.637C232.49 341.269 230.932 342.584 229.301 342.584H214.364C212.734 342.584 211.655 341.261 211.955 339.637L214.681 324.691C214.981 323.059 216.539 321.744 218.17 321.744Z" fill="#FF8652"/>
<path d="M192.222 321.744H207.159C208.79 321.744 209.869 323.067 209.569 324.691L206.843 339.637C206.543 341.269 204.985 342.584 203.354 342.584H188.417C186.786 342.584 185.707 341.261 186.008 339.637L188.734 324.691C189.034 323.059 190.592 321.744 192.222 321.744Z" fill="#FFD5BA"/>
<path d="M166.276 321.744H181.213C182.844 321.744 183.923 323.067 183.623 324.691L180.897 339.637C180.596 341.269 179.039 342.584 177.408 342.584H162.471C160.84 342.584 159.761 341.261 160.061 339.637L162.787 324.691C163.088 323.059 164.645 321.744 166.276 321.744Z" fill="white"/>
<path d="M140.321 321.744H155.258C156.889 321.744 157.968 323.067 157.668 324.691L154.942 339.637C154.641 341.269 153.084 342.584 151.453 342.584H136.516C134.885 342.584 133.806 341.261 134.106 339.637L136.832 324.691C137.132 323.059 138.69 321.744 140.321 321.744Z" fill="#FFD5BA"/>
<path d="M108.167 339.645L110.893 324.699C111.193 323.067 112.751 321.752 114.382 321.752H129.318C130.949 321.752 132.028 323.075 131.728 324.699L129.002 339.645C128.702 341.277 127.144 342.592 125.513 342.592H110.576C108.946 342.592 107.866 341.269 108.167 339.645ZM109.733 340.855C109.919 341.082 110.211 341.204 110.576 341.204H125.513C126.463 341.204 127.452 340.359 127.631 339.401L130.357 324.455C130.43 324.074 130.357 323.733 130.162 323.497C129.976 323.27 129.684 323.148 129.318 323.148H114.382C113.432 323.148 112.443 323.993 112.264 324.951L109.538 339.897C109.465 340.278 109.538 340.619 109.733 340.855Z" fill="white"/>
<path d="M237.01 258.379C237.01 259.54 237.951 260.49 239.119 260.49C240.287 260.49 241.229 259.548 241.229 258.379C241.229 257.21 240.287 256.269 239.119 256.269C237.951 256.269 237.01 257.21 237.01 258.379Z" fill="#ED4E0A"/>
<path d="M239.419 240.008C242.608 240.008 244.993 244.384 244.912 250.14H242.592C242.592 250.034 242.592 249.937 242.592 249.831C242.592 245.537 240.92 242.33 239.427 242.33C237.934 242.33 236.263 245.537 236.263 249.831C236.263 253.574 237.537 256.489 238.851 257.179C239.216 257.365 239.411 257.771 239.411 258.177C239.411 259.062 238.454 259.622 237.683 259.192C235.46 257.942 233.943 254.337 233.943 249.831C233.943 244.23 236.304 240 239.435 240L239.419 240.008Z" fill="#22252A"/>
<path d="M223.307 260.49C222.141 260.49 221.197 259.545 221.197 258.379C221.197 257.214 222.141 256.269 223.307 256.269C224.472 256.269 225.416 257.214 225.416 258.379C225.416 259.545 224.472 260.49 223.307 260.49Z" fill="#ED4E0A"/>
<path d="M223.615 240.008C226.803 240.008 229.189 244.384 229.107 250.14H226.787C226.787 250.034 226.787 249.937 226.787 249.831C226.787 245.537 225.116 242.33 223.623 242.33C222.13 242.33 220.458 245.537 220.458 249.831C220.458 253.574 221.732 256.489 223.047 257.179C223.412 257.365 223.606 257.771 223.606 258.177C223.606 259.062 222.649 259.622 221.878 259.192C219.655 257.942 218.138 254.337 218.138 249.831C218.138 244.23 220.499 240 223.631 240L223.615 240.008Z" fill="#22252A"/>
<path d="M205.391 258.379C205.391 259.54 206.333 260.49 207.501 260.49C208.669 260.49 209.61 259.548 209.61 258.379C209.61 257.21 208.669 256.269 207.501 256.269C206.333 256.269 205.391 257.21 205.391 258.379Z" fill="#ED4E0A"/>
<path d="M207.801 240.008C210.99 240.008 213.375 244.384 213.294 250.14H210.973C210.973 250.034 210.973 249.937 210.973 249.831C210.973 245.537 209.302 242.33 207.809 242.33C206.316 242.33 204.645 245.537 204.645 249.831C204.645 253.574 205.919 256.489 207.233 257.179C207.598 257.365 207.793 257.771 207.793 258.177C207.793 259.062 206.836 259.622 206.065 259.192C203.842 257.942 202.324 254.337 202.324 249.831C202.324 244.23 204.686 240 207.817 240L207.801 240.008Z" fill="#22252A"/>
<path d="M191.687 260.49C190.522 260.49 189.578 259.545 189.578 258.379C189.578 257.214 190.522 256.269 191.687 256.269C192.852 256.269 193.797 257.214 193.797 258.379C193.797 259.545 192.852 260.49 191.687 260.49Z" fill="#ED4E0A"/>
<path d="M191.988 240.008C195.176 240.008 197.562 244.384 197.48 250.14H195.16C195.16 250.034 195.16 249.937 195.16 249.831C195.16 245.537 193.489 242.33 191.996 242.33C190.503 242.33 188.831 245.537 188.831 249.831C188.831 253.574 190.105 256.489 191.42 257.179C191.785 257.365 191.979 257.771 191.979 258.177C191.979 259.062 191.022 259.622 190.251 259.192C188.028 257.942 186.511 254.337 186.511 249.831C186.511 244.23 188.872 240 192.004 240L191.988 240.008Z" fill="#22252A"/>
<path d="M173.764 258.379C173.764 259.54 174.706 260.49 175.874 260.49C177.042 260.49 177.983 259.548 177.983 258.379C177.983 257.21 177.042 256.269 175.874 256.269C174.706 256.269 173.764 257.21 173.764 258.379Z" fill="#ED4E0A"/>
<path d="M176.174 240.008C179.363 240.008 181.748 244.384 181.667 250.14H179.346C179.346 250.034 179.346 249.937 179.346 249.831C179.346 245.537 177.675 242.33 176.182 242.33C174.689 242.33 173.018 245.537 173.018 249.831C173.018 253.574 174.292 256.489 175.606 257.179C175.971 257.365 176.166 257.771 176.166 258.177C176.166 259.062 175.209 259.622 174.438 259.192C172.215 257.942 170.698 254.337 170.698 249.831C170.698 244.23 173.059 240 176.19 240L176.174 240.008Z" fill="#22252A"/>
<path d="M160.061 260.49C158.896 260.49 157.952 259.545 157.952 258.379C157.952 257.214 158.896 256.269 160.061 256.269C161.226 256.269 162.171 257.214 162.171 258.379C162.171 259.545 161.226 260.49 160.061 260.49Z" fill="#ED4E0A"/>
<path d="M160.362 240.008C163.55 240.008 165.936 244.384 165.854 250.14H163.534C163.534 250.034 163.534 249.937 163.534 249.831C163.534 245.537 161.863 242.33 160.37 242.33C158.877 242.33 157.205 245.537 157.205 249.831C157.205 253.574 158.479 256.489 159.794 257.179C160.159 257.365 160.353 257.771 160.353 258.177C160.353 259.062 159.396 259.622 158.625 259.192C156.402 257.942 154.885 254.337 154.885 249.831C154.885 244.23 157.246 240 160.378 240L160.362 240.008Z" fill="#22252A"/>
<path d="M142.146 258.379C142.146 259.54 143.087 260.49 144.256 260.49C145.424 260.49 146.365 259.548 146.365 258.379C146.365 257.21 145.424 256.269 144.256 256.269C143.087 256.269 142.146 257.21 142.146 258.379Z" fill="#ED4E0A"/>
<path d="M144.556 240.008C147.745 240.008 150.13 244.384 150.049 250.14H147.728C147.728 250.034 147.728 249.937 147.728 249.831C147.728 245.537 146.057 242.33 144.564 242.33C143.071 242.33 141.4 245.537 141.4 249.831C141.4 253.574 142.674 256.489 143.988 257.179C144.353 257.365 144.548 257.771 144.548 258.177C144.548 259.062 143.59 259.622 142.82 259.192C140.597 257.942 139.079 254.337 139.079 249.831C139.079 244.23 141.44 240 144.572 240L144.556 240.008Z" fill="#22252A"/>
<path d="M128.443 260.49C127.278 260.49 126.334 259.545 126.334 258.379C126.334 257.214 127.278 256.269 128.443 256.269C129.608 256.269 130.553 257.214 130.553 258.379C130.553 259.545 129.608 260.49 128.443 260.49Z" fill="#ED4E0A"/>
<path d="M128.743 240.008C131.932 240.008 134.317 244.384 134.236 250.14H131.916C131.916 250.034 131.916 249.937 131.916 249.831C131.916 245.537 130.244 242.33 128.752 242.33C127.259 242.33 125.587 245.537 125.587 249.831C125.587 253.574 126.861 256.489 128.176 257.179C128.541 257.365 128.735 257.771 128.735 258.177C128.735 259.062 127.778 259.622 127.007 259.192C124.784 257.942 123.267 254.337 123.267 249.831C123.267 244.23 125.628 240 128.76 240L128.743 240.008Z" fill="#22252A"/>
<path d="M202.901 310.542C203.12 310.542 203.339 310.461 203.509 310.315L208.97 305.63C209.359 305.297 209.408 304.705 209.067 304.315C208.734 303.925 208.142 303.877 207.753 304.218L203.055 308.244L197.408 300.467C197.108 300.053 196.524 299.955 196.11 300.264C195.696 300.564 195.599 301.149 195.907 301.563L202.146 310.152C202.3 310.363 202.536 310.501 202.787 310.526C202.82 310.526 202.86 310.526 202.893 310.526L202.901 310.542Z" fill="#FFE6D7"/>
<path d="M177.424 310.542C177.643 310.542 177.862 310.461 178.033 310.315L183.493 305.63C183.883 305.298 183.931 304.705 183.59 304.315C183.258 303.926 182.666 303.877 182.276 304.218L177.578 308.245L171.931 300.467C171.631 300.053 171.047 299.956 170.633 300.264C170.219 300.564 170.122 301.149 170.43 301.563L176.67 310.152C176.824 310.363 177.059 310.501 177.311 310.526C177.343 310.526 177.384 310.526 177.416 310.526L177.424 310.542Z" fill="#FFE6D7"/>
<path d="M155.55 285.869C155.769 285.869 155.988 285.788 156.159 285.642L161.619 280.958C162.009 280.625 162.057 280.032 161.716 279.642C161.384 279.253 160.792 279.204 160.402 279.545L155.704 283.572L150.057 275.794C149.757 275.38 149.173 275.283 148.759 275.591C148.345 275.892 148.248 276.476 148.556 276.89L154.796 285.48C154.95 285.691 155.185 285.829 155.437 285.853C155.469 285.853 155.51 285.853 155.542 285.853L155.55 285.869Z" fill="#FFE6D7"/>
<path d="M120.435 336.886C120.654 336.886 120.873 336.805 121.044 336.658L126.504 331.974C126.893 331.641 126.942 331.049 126.601 330.659C126.269 330.269 125.676 330.221 125.287 330.562L120.589 334.588L114.942 326.811C114.642 326.397 114.058 326.299 113.644 326.608C113.23 326.908 113.133 327.493 113.441 327.907L119.68 336.496C119.835 336.707 120.07 336.845 120.321 336.87C120.354 336.87 120.394 336.87 120.427 336.87L120.435 336.886Z" fill="#FFE6D7"/>
<mask id="mask0_409_1274" style="mask-type:luminance" maskUnits="userSpaceOnUse" x="0" y="269" width="86" height="92">
<path d="M8.39233e-05 360.316H85.1016L85.1016 270H8.39233e-05L8.39233e-05 360.316Z" fill="white"/>
</mask>
<g mask="url(#mask0_409_1274)">
<path d="M27.4071 388.026C21.111 361.847 26.1617 334.622 32.7605 309.065C32.8124 308.875 33.0027 308.771 33.1843 308.815C33.3659 308.858 33.4783 309.039 33.4351 309.221C30.6589 322.125 28.3498 335.149 27.5801 348.26C26.8103 361.337 27.6579 374.552 31.2211 387.014C31.887 389.566 28.099 390.604 27.3984 388.018L27.4071 388.026Z" fill="#495056"/>
<path d="M26.0926 332.46C26.1186 332.763 26.1445 333.083 26.1618 333.394C26.8537 342.337 26.5251 351.452 25.3489 360.507C25.1759 360.429 25.0116 360.36 24.8473 360.265C24.657 360.179 24.4667 360.075 24.2765 359.98C18.3003 356.806 14.5296 350.44 11.961 344.118C10.6377 340.858 9.53937 337.511 8.66587 334.103C8.62263 333.922 8.57074 333.749 8.53614 333.567C8.31128 332.685 8.10372 331.812 7.91345 330.921C7.87886 330.739 7.83561 330.549 7.80102 330.367C6.27888 323.051 5.80321 315.518 6.35672 308.063C6.35672 307.89 6.37401 307.717 6.39996 307.544C6.93617 300.66 8.36317 293.844 10.6723 287.332C10.7156 287.401 10.7675 287.462 10.8021 287.531V287.557C11.0096 287.851 11.1999 288.111 11.3902 288.405C12.6701 290.325 13.8636 292.296 14.962 294.294C15.0485 294.441 15.1263 294.597 15.2042 294.753C17.7295 299.388 19.7792 304.205 21.4138 309.152C21.4916 309.36 21.5522 309.568 21.6127 309.775C21.9846 310.934 22.3478 312.093 22.6678 313.269C22.737 313.485 22.7976 313.702 22.8495 313.926C24.4927 319.963 25.5564 326.173 26.1013 332.469L26.0926 332.46Z" fill="#DEE1E6"/>
<path d="M24.8556 360.274C24.6653 360.187 24.4751 360.083 24.2848 359.988C22.2783 353.156 20.5746 346.237 19.0784 339.258C19.0352 339.067 19.0006 338.877 18.9573 338.678C18.8103 338.03 18.6719 337.39 18.5508 336.741C18.4989 336.533 18.4643 336.326 18.4211 336.11C16.9941 329.096 15.7574 322.038 14.659 314.981C14.6244 314.748 14.5898 314.532 14.5552 314.298C13.1628 305.338 11.978 296.404 10.8018 287.557C11.0007 287.851 11.1996 288.11 11.3899 288.404C11.8309 291.743 12.2807 295.107 12.7477 298.471C12.7736 298.748 12.8082 299.016 12.8515 299.284C13.846 306.488 14.9012 313.727 16.1033 320.966C16.1465 321.225 16.1898 321.468 16.233 321.727C16.4233 322.895 16.6309 324.062 16.8298 325.23C16.873 325.481 16.9163 325.705 16.9509 325.93C17.7379 330.306 18.5768 334.665 19.5022 339.024C19.5022 339.059 19.5108 339.102 19.5281 339.137C19.5281 339.137 19.5281 339.142 19.5281 339.154C19.9 340.918 20.2978 342.682 20.7043 344.447C20.7562 344.672 20.8167 344.896 20.8686 345.139C22.0621 350.224 23.3767 355.275 24.8556 360.282V360.274Z" fill="#495056"/>
<path d="M14.8493 314.921C14.8493 314.921 14.7628 314.973 14.7196 314.973C14.7023 314.973 14.685 314.973 14.659 314.973C14.5985 314.973 14.5639 314.947 14.5207 314.904C12.0645 312.309 9.32289 310.009 6.35645 308.054C6.35645 307.881 6.37374 307.708 6.39969 307.535C9.36613 309.473 12.1077 311.73 14.5639 314.29C14.6677 314.385 14.7628 314.489 14.8579 314.584C14.9444 314.679 14.9444 314.826 14.8579 314.912L14.8493 314.921Z" fill="#495056"/>
<path d="M22.8491 313.918C20.7821 317.809 18.8535 321.805 17.0806 325.818C17.0546 325.878 17.0114 325.922 16.9595 325.93C16.9422 325.948 16.9162 325.956 16.8989 325.956C16.8643 325.956 16.8124 325.956 16.7779 325.948C16.6654 325.887 16.6135 325.757 16.6568 325.636C16.7173 325.507 16.7779 325.368 16.8384 325.238C18.6286 321.182 20.5919 317.187 22.6675 313.269C22.7367 313.485 22.7972 313.701 22.8491 313.926V313.918Z" fill="#495056"/>
<path d="M21.6036 309.775C19.6058 313.607 17.8501 317.568 16.3453 321.615C16.328 321.676 16.2848 321.719 16.2329 321.736C16.2156 321.754 16.1896 321.762 16.1637 321.762C16.1291 321.762 16.0858 321.762 16.0512 321.754C15.9302 321.71 15.8783 321.581 15.9129 321.459C15.9734 321.304 16.0339 321.131 16.1031 320.975C17.6166 316.945 19.3896 312.975 21.4133 309.161C21.4912 309.369 21.5517 309.576 21.6122 309.784L21.6036 309.775Z" fill="#495056"/>
<path d="M18.8104 336.637C18.7671 336.689 18.7066 336.723 18.646 336.732C18.6201 336.732 18.5768 336.732 18.5509 336.732C18.5336 336.732 18.499 336.723 18.4817 336.706C14.9618 334.353 11.3467 332.39 7.91321 330.929C7.87862 330.747 7.83538 330.557 7.80078 330.375C11.2429 331.811 14.8666 333.765 18.4212 336.109C18.5336 336.17 18.6374 336.247 18.7498 336.317C18.8536 336.394 18.8795 336.533 18.8104 336.645V336.637Z" fill="#495056"/>
<path d="M19.5284 339.128C19.5284 339.128 19.5284 339.136 19.5284 339.145C19.5284 339.171 19.5198 339.197 19.5025 339.214C19.4765 339.283 19.4073 339.318 19.3295 339.335C19.2862 339.335 19.2344 339.335 19.1998 339.318L19.0787 339.257L13.2409 336.213C11.7707 335.452 10.2485 334.665 8.66586 334.111C8.62262 333.93 8.57073 333.757 8.53613 333.575C10.2572 334.146 11.8831 334.985 13.4571 335.807L18.9663 338.669L19.4073 338.903C19.4592 338.937 19.5025 338.963 19.5111 339.024C19.5111 339.058 19.5198 339.102 19.5371 339.136L19.5284 339.128Z" fill="#495056"/>
<path d="M26.0928 332.459C26.1188 332.762 26.1447 333.082 26.162 333.393C24.3718 337.259 22.6334 341.16 20.947 345.025C20.9297 345.077 20.8951 345.112 20.8605 345.121C20.8259 345.146 20.7999 345.155 20.7653 345.164C20.7308 345.164 20.6789 345.164 20.6443 345.155C20.5232 345.095 20.4799 344.965 20.5232 344.844C20.5751 344.705 20.6443 344.576 20.7048 344.437C22.4432 340.45 24.2507 336.437 26.0928 332.459Z" fill="#495056"/>
<path d="M15.1952 294.752V294.761C14.2611 296.128 13.5087 297.615 12.9638 299.155C12.9466 299.224 12.8947 299.267 12.8428 299.284C12.8255 299.302 12.7995 299.31 12.7822 299.31C12.7476 299.31 12.7044 299.31 12.6784 299.293C12.5487 299.258 12.4882 299.12 12.5314 299.008C12.592 298.835 12.6611 298.653 12.739 298.471C13.2925 297.01 14.0449 295.591 14.953 294.294C15.0395 294.441 15.1173 294.597 15.1952 294.752Z" fill="#495056"/>
<path d="M50.6981 305.562C40.4323 322.34 32.2681 340.381 26.4649 359.123C26.3352 359.546 25.8768 359.789 25.4531 359.659C25.0293 359.529 24.7871 359.071 24.9169 358.647C31.1351 339.888 39.6885 321.925 50.3089 305.32C50.3781 305.216 50.5251 305.182 50.6289 305.251C50.7327 305.32 50.7673 305.459 50.6981 305.571V305.562Z" fill="#495056"/>
<path d="M64.6223 283.872C64.7174 280.94 63.8698 277.87 61.7942 275.794C60.8688 274.878 59.6321 274.151 58.3348 274.272C57.098 274.385 56.0343 275.267 55.4202 276.348C54.8062 277.42 54.5813 278.674 54.4602 279.911C54.0192 284.512 54.9532 289.234 57.1153 293.308C57.444 293.93 57.8505 294.588 58.5077 294.856C62.6331 296.568 64.5617 286.069 64.6309 283.863L64.6223 283.872Z" fill="#FFA781"/>
<path d="M75.8652 303.729C77.1539 303.426 78.4252 302.449 78.7711 301.091C79.0565 299.984 78.7019 298.86 78.3474 297.822C77.7247 295.988 77.0847 294.129 76.0036 292.581C74.5852 290.557 72.4231 289.165 70.0361 288.741C67.6491 288.317 65.0546 288.871 62.8924 290.263C61.673 291.05 60.5314 292.174 60.1163 293.61C59.1909 296.862 61.379 301.601 64.5357 302.042C66.1356 302.267 67.701 302.181 69.2751 302.639C71.3594 303.245 73.5907 304.282 75.8652 303.746V303.729Z" fill="#FFA781"/>
<path d="M45.7425 296.283C40.4755 298.056 35.7448 301.394 32.3113 305.762C30.8757 307.586 29.6043 309.947 30.3568 312.153C30.9362 313.857 32.6227 314.989 34.3697 315.431C38.4864 316.477 42.7328 314.306 46.1057 311.712C47.5241 310.613 48.7435 309.627 50.0235 308.365C48.0949 313.64 46.123 319.167 46.8495 324.736C47.0398 326.233 47.5587 327.867 48.8906 328.568C50.5424 329.45 52.5835 328.447 53.9759 327.184C58.4126 323.171 59.9347 316.762 61.1455 310.899C62.2612 313.926 63.8525 316.78 65.8503 319.305C66.5941 320.256 67.4243 321.173 68.4968 321.727C69.5692 322.28 70.8232 322.185 71.9562 321.753C74.7237 320.698 75.0437 318.008 74.715 316.097C73.0372 306.306 65.5303 298.255 59.3553 290.471C54.8667 284.815 52.4883 277.412 46.9792 272.75C46.1922 272.084 45.362 271.436 44.3674 271.159C43.3814 270.882 42.1966 271.064 41.5393 271.851C41.1069 272.37 40.9599 273.061 40.8907 273.736C40.5015 277.758 42.6377 281.537 44.7047 285.014C42.3523 283.293 39.2474 281.788 36.3588 281.355C34.1708 281.027 31.5935 281.269 30.3049 283.059C29.1546 284.65 29.5092 286.96 30.6508 288.56C31.7924 290.16 33.5567 291.18 35.3037 292.062C38.5642 293.697 42.2398 295.305 45.7598 296.265L45.7425 296.283Z" fill="#FFA781"/>
<path d="M67.1047 299.353C67.2777 300.486 67.2517 301.835 66.335 302.51C65.5566 303.089 64.4669 302.916 63.5415 302.613C60.2291 301.55 57.427 299.223 55.2389 296.516C53.0595 293.826 51.3557 290.566 51.3125 287.107C51.3125 286.441 51.3817 285.714 51.8401 285.221C52.2119 284.823 52.7741 284.659 53.3103 284.616C56.6313 284.339 60.3243 287.331 62.4086 289.615C64.8734 292.313 66.5598 295.729 67.1047 299.344V299.353Z" fill="#FFF1EA"/>
</g>
<mask id="mask1_409_1274" style="mask-type:luminance" maskUnits="userSpaceOnUse" x="253" y="276" width="64" height="84">
<path d="M316.005 276H253V359.614H316.005V276Z" fill="white"/>
</mask>
<g mask="url(#mask1_409_1274)">
<path d="M265.169 366.532C271.508 359.051 276.204 350.204 279.75 340.95C283.304 331.67 285.769 321.975 287.88 312.211C287.914 312.073 288.053 311.977 288.191 312.012C288.329 312.038 288.416 312.176 288.398 312.315C286.695 322.165 284.628 331.999 281.41 341.547C278.202 351.069 273.782 360.34 267.504 368.418C267.002 369.066 266.059 369.187 265.411 368.686C264.762 368.184 264.641 367.242 265.143 366.593C265.151 366.576 265.169 366.558 265.186 366.541L265.169 366.532Z" fill="#495056"/>
<path d="M285.7 330.52C285.588 330.728 285.475 330.936 285.354 331.143C282.094 337.093 279.482 343.485 277.467 350.083C277.605 350.083 277.744 350.083 277.891 350.075C278.046 350.075 278.211 350.066 278.375 350.058C283.486 349.729 288.061 346.52 291.806 342.957C293.735 341.124 295.534 339.152 297.203 337.085C297.289 336.972 297.376 336.869 297.462 336.756C297.895 336.22 298.31 335.675 298.708 335.13C298.785 335.018 298.881 334.897 298.958 334.784C302.288 330.209 304.96 325.167 306.906 319.857C306.958 319.736 307.001 319.615 307.045 319.485C308.818 314.573 309.959 309.427 310.4 304.22C310.348 304.255 310.297 304.281 310.245 304.315V304.333C310.003 304.471 309.786 304.592 309.57 304.731C308.091 305.656 306.656 306.651 305.272 307.68C305.168 307.758 305.064 307.835 304.96 307.922C301.778 310.335 298.863 313.016 296.2 315.913C296.087 316.034 295.975 316.155 295.871 316.276C295.248 316.96 294.643 317.643 294.055 318.352C293.942 318.482 293.83 318.611 293.726 318.75C290.716 322.4 288.044 326.343 285.709 330.52H285.7Z" fill="#DEE1E6"/>
<path d="M277.899 350.074C278.055 350.074 278.219 350.066 278.384 350.057C281.895 345.975 285.225 341.729 288.425 337.387C288.511 337.266 288.598 337.145 288.684 337.024C288.987 336.626 289.281 336.219 289.566 335.813C289.661 335.683 289.757 335.554 289.852 335.424C293.017 331.039 296.07 326.55 299.019 322.027C299.114 321.88 299.209 321.742 299.305 321.595C303.049 315.852 306.656 310.066 310.228 304.332C310.003 304.471 309.787 304.592 309.562 304.73C308.212 306.892 306.863 309.072 305.488 311.251C305.384 311.433 305.281 311.606 305.168 311.779C302.236 316.432 299.261 321.102 296.174 325.712C296.061 325.876 295.958 326.032 295.845 326.196C295.352 326.94 294.842 327.683 294.34 328.419C294.236 328.574 294.141 328.721 294.038 328.868C292.135 331.636 290.198 334.386 288.2 337.093C288.183 337.119 288.174 337.136 288.148 337.162C288.148 337.162 288.148 337.165 288.148 337.171C287.335 338.269 286.513 339.368 285.692 340.457C285.588 340.596 285.476 340.734 285.363 340.881C282.959 344.012 280.477 347.082 277.899 350.074Z" fill="#495056"/>
<path d="M298.924 321.932C298.924 321.932 298.967 321.993 299.002 322.01C299.01 322.01 299.028 322.028 299.045 322.028C299.088 322.045 299.123 322.045 299.166 322.028C301.665 321.007 304.277 320.272 306.932 319.848C306.984 319.727 307.027 319.606 307.071 319.476C304.424 319.883 301.83 320.592 299.339 321.586C299.235 321.621 299.14 321.664 299.045 321.699C298.958 321.733 298.907 321.837 298.941 321.924L298.924 321.932Z" fill="#495056"/>
<path d="M293.718 318.749C293.925 322.079 294.02 325.426 293.986 328.747C293.986 328.799 294.003 328.842 294.038 328.859C294.038 328.876 294.064 328.894 294.072 328.894C294.098 328.911 294.133 328.92 294.159 328.928C294.254 328.928 294.332 328.851 294.34 328.747C294.34 328.643 294.34 328.522 294.34 328.418C294.366 325.062 294.263 321.698 294.046 318.351C293.934 318.481 293.822 318.611 293.718 318.749Z" fill="#495056"/>
<path d="M295.871 316.276C296.061 319.537 296.035 322.823 295.811 326.075C295.811 326.118 295.819 326.161 295.854 326.196C295.854 326.213 295.88 326.231 295.897 326.239C295.923 326.256 295.949 326.265 295.984 326.265C296.079 326.274 296.156 326.196 296.165 326.109C296.165 325.98 296.182 325.85 296.191 325.72C296.407 322.468 296.416 319.182 296.208 315.922C296.096 316.043 295.984 316.164 295.88 316.285L295.871 316.276Z" fill="#495056"/>
<path d="M289.428 335.675C289.436 335.727 289.471 335.77 289.514 335.796C289.531 335.805 289.557 335.813 289.583 335.822C289.601 335.822 289.618 335.822 289.644 335.822C292.809 335.294 295.905 335.07 298.725 335.13C298.803 335.018 298.898 334.897 298.976 334.784C296.156 334.698 293.043 334.923 289.869 335.424C289.774 335.424 289.678 335.45 289.575 335.467C289.479 335.493 289.419 335.571 289.428 335.675Z" fill="#495056"/>
<path d="M288.156 337.162C288.156 337.162 288.156 337.162 288.156 337.171C288.156 337.197 288.156 337.206 288.156 337.232C288.156 337.292 288.191 337.335 288.234 337.37C288.26 337.387 288.295 337.405 288.329 337.396H288.433L293.406 337.111C294.66 337.041 295.949 336.972 297.211 337.085C297.298 336.972 297.384 336.868 297.471 336.756C296.113 336.609 294.729 336.687 293.38 336.756L288.692 337.015L288.312 337.033C288.269 337.033 288.225 337.05 288.208 337.085C288.191 337.111 288.182 337.128 288.156 337.154V337.162Z" fill="#495056"/>
<path d="M285.7 330.52C285.588 330.728 285.475 330.935 285.354 331.143C285.38 334.369 285.371 337.595 285.328 340.786C285.328 340.829 285.337 340.864 285.363 340.881C285.38 340.907 285.397 340.924 285.415 340.942C285.441 340.959 285.475 340.968 285.501 340.976C285.605 340.976 285.674 340.898 285.683 340.795C285.683 340.682 285.683 340.57 285.683 340.457C285.726 337.162 285.735 333.841 285.7 330.52Z" fill="#495056"/>
<path d="M304.969 307.922C305.185 309.158 305.237 310.421 305.142 311.649C305.142 311.701 305.15 311.744 305.185 311.779C305.185 311.796 305.211 311.814 305.22 311.814C305.246 311.831 305.271 311.84 305.297 311.84C305.401 311.848 305.479 311.779 305.488 311.684C305.505 311.545 305.514 311.398 305.514 311.251C305.583 310.067 305.514 308.856 305.289 307.68C305.185 307.757 305.081 307.835 304.977 307.922H304.969Z" fill="#495056"/>
<path d="M277.476 304.264C279.621 319.018 279.768 334.771 278.22 349.638C278.185 349.975 277.883 350.218 277.545 350.183C277.208 350.148 276.966 349.846 277 349.508V349.5C278.834 334.771 278.989 319.079 277.13 304.307C277.121 304.212 277.182 304.125 277.285 304.108C277.381 304.099 277.467 304.16 277.484 304.255L277.476 304.264Z" fill="#495056"/>
<path d="M274.284 285.02C275.132 282.971 276.671 281.111 278.747 280.333C279.672 279.987 280.753 279.875 281.601 280.367C282.414 280.834 282.881 281.769 282.968 282.703C283.054 283.637 282.82 284.571 282.518 285.461C281.393 288.774 279.275 291.732 276.516 293.876C276.092 294.205 275.608 294.525 275.071 294.508C271.69 294.404 273.636 286.56 274.276 285.02H274.284Z" fill="#FFA781"/>
<path d="M260.343 295.208C259.547 294.594 258.976 293.531 259.158 292.484C259.305 291.628 259.902 290.971 260.472 290.357C261.476 289.284 262.488 288.203 263.724 287.468C265.333 286.517 267.253 286.231 269.035 286.681C270.816 287.131 272.425 288.324 273.489 289.959C274.085 290.884 274.518 292.008 274.353 293.133C273.981 295.667 270.998 298.244 268.68 297.569C267.504 297.223 266.449 296.679 265.229 296.506C263.603 296.272 261.744 296.289 260.343 295.217V295.208Z" fill="#FFA781"/>
<path d="M283.426 299.454C286.505 302.317 288.727 306.097 289.73 310.179C290.154 311.882 290.293 313.906 289.09 315.195C288.156 316.189 286.643 316.449 285.302 316.207C282.137 315.645 279.888 312.825 278.375 309.988C277.735 308.795 277.207 307.731 276.723 306.46C276.412 310.698 276.048 315.117 273.808 318.732C273.212 319.701 272.347 320.669 271.205 320.739C269.787 320.825 268.697 319.502 268.135 318.204C266.328 314.053 267.27 309.158 268.265 304.747C266.552 306.486 264.563 307.956 262.401 309.08C261.588 309.504 260.732 309.876 259.815 309.928C258.907 309.98 258.068 309.521 257.42 308.873C255.845 307.281 256.46 305.327 257.281 304.116C261.484 297.889 269.173 294.681 275.85 291.238C280.701 288.739 284.654 284.371 289.903 282.875C290.647 282.659 291.426 282.477 292.195 282.59C292.965 282.711 293.717 283.204 293.925 283.948C294.063 284.441 293.951 284.968 293.787 285.453C292.801 288.341 290.146 290.287 287.646 292.043C289.808 291.593 292.42 291.515 294.539 292.121C296.148 292.57 297.851 293.548 298.18 295.182C298.474 296.635 297.514 298.123 296.225 298.866C294.945 299.61 293.406 299.766 291.927 299.826C289.168 299.939 286.133 299.904 283.408 299.472L283.426 299.454Z" fill="#FFA781"/>
<path d="M267.746 294.923C267.279 295.65 266.872 296.593 267.296 297.345C267.651 297.985 268.464 298.21 269.19 298.288C271.811 298.582 274.457 297.855 276.81 296.67C279.153 295.494 281.333 293.782 282.448 291.403C282.665 290.945 282.838 290.417 282.673 289.942C282.544 289.553 282.206 289.267 281.843 289.06C279.638 287.84 276.161 288.748 274.016 289.674C271.482 290.763 269.251 292.588 267.746 294.915V294.923Z" fill="white"/>
</g>
</g>
<defs>
<linearGradient id="paint0_linear_409_1274" x1="187.5" y1="0" x2="187.5" y2="360" gradientUnits="userSpaceOnUse">
<stop stop-color="white"/>
<stop offset="1" stop-color="#FFE6D7"/>
</linearGradient>
<clipPath id="clip0_409_1274">
<rect width="375" height="120" fill="white" transform="matrix(-1 0 0 1 375 240)"/>
</clipPath>
</defs>
</svg>
