<svg width="180" height="180" viewBox="0 0 180 180" fill="none" xmlns="http://www.w3.org/2000/svg">
<path d="M0 16C0 7.16344 7.16344 0 16 0H164C172.837 0 180 7.16344 180 16V164C180 172.837 172.837 180 164 180H16C7.16344 180 0 172.837 0 164V16Z" fill="url(#paint0_linear_409_1778)"/>
<path d="M113.368 53.9792H75.0266C71.3638 53.9792 68.3945 51.0099 68.3945 47.3471C68.3945 43.6843 71.3638 40.715 75.0266 40.715H80.493L83.3032 36.7967C83.8074 36.0939 84.8529 36.0937 85.3571 36.7967L88.1673 40.715H113.368C117.031 40.715 120 43.6843 120 47.3471C120 51.0099 117.031 53.9792 113.368 53.9792Z" fill="#FFAD28"/>
<path d="M63.5898 44.5494V47.7959C63.5898 52.5529 67.4829 56.5362 72.2391 56.4448C76.8477 56.3562 80.5558 52.5932 80.5558 47.9634V44.5494C80.5558 39.8643 76.7579 36.0664 72.0728 36.0664C67.3878 36.0664 63.5898 39.8643 63.5898 44.5494Z" fill="#FFDA9F"/>
<path d="M62.682 49.0944C64.1632 49.0944 65.3639 47.8936 65.3639 46.4124C65.3639 44.9312 64.1632 43.7305 62.682 43.7305C61.2008 43.7305 60 44.9312 60 46.4124C60 47.8936 61.2008 49.0944 62.682 49.0944Z" fill="#FFDA9F"/>
<path d="M72.7473 52.8423C71.4791 52.8423 70.3081 52.2056 69.6151 51.1393C69.3426 50.72 69.4616 50.1593 69.8809 49.8867C70.3001 49.6141 70.8609 49.7332 71.1335 50.1525C71.4911 50.7028 72.0944 51.0314 72.7473 51.0314C73.4 51.0314 74.0034 50.7028 74.3611 50.1525C74.6336 49.7332 75.1945 49.6142 75.6137 49.8867C76.033 50.1593 76.1519 50.72 75.8795 51.1393C75.1863 52.2057 74.0154 52.8423 72.7473 52.8423Z" fill="#FFC66B"/>
<path d="M60.4531 40.5379C60.4531 41.4866 60.6303 42.3942 60.952 43.231C61.7888 43.5527 62.6964 43.7299 63.6451 43.7299C67.7911 43.7299 71.152 40.3689 71.152 36.2203C71.152 35.2716 70.9748 34.364 70.6531 33.5272C69.819 33.2055 68.9114 33.0283 67.96 33.0283C63.8141 33.0282 60.4531 36.3893 60.4531 40.5379Z" fill="#5D4013"/>
<path d="M83.3234 39.1788C83.4766 40.4191 83.3914 41.6345 83.1059 42.7806C82.0638 43.3363 80.9055 43.7144 79.6652 43.8676C74.2443 44.5369 69.3073 40.6849 68.6376 35.2605C68.6361 35.248 68.6345 35.2356 68.633 35.223C68.3617 32.9553 69.9929 30.8648 72.2584 30.5764C72.2709 30.5749 72.2833 30.5733 72.2957 30.5717C77.7167 29.9025 82.6537 33.7544 83.3234 39.1788Z" fill="#5D4013"/>
<path d="M66.6371 75.0348H105.007C108.673 75.0348 111.645 72.0633 111.645 68.3977C111.645 64.732 108.673 61.7605 105.007 61.7605H99.537L96.7245 57.8392C96.2198 57.1357 95.1736 57.1357 94.669 57.8392L91.8565 61.7605H66.6371C62.9715 61.7605 60 64.732 60 68.3977C60 72.0633 62.9715 75.0348 66.6371 75.0348Z" fill="#FFC66B"/>
<path d="M114.413 70.2683H103.224C100.138 70.2683 97.6367 67.767 97.6367 64.6813V62.4737C97.6367 56.2983 102.643 51.2921 108.818 51.2921C114.994 51.2921 120 56.2982 120 62.4737V64.6813C120 67.767 117.499 70.2683 114.413 70.2683Z" fill="#AF8643"/>
<path d="M115.545 67.0031V69.6758C115.545 73.9991 112.041 77.5031 107.718 77.5031C103.395 77.5031 99.8906 73.9991 99.8906 69.6758V67.0031C99.8906 63.6053 102.056 60.7135 105.082 59.6308C106.292 61.5403 109.316 65.0406 115.382 65.4065C115.488 65.9223 115.545 66.4551 115.545 67.0031Z" fill="#FFDA9F"/>
<path d="M107.155 73.8578C105.766 73.8578 104.484 73.1605 103.724 71.9925C103.452 71.5732 103.571 71.0123 103.99 70.7399C104.409 70.4674 104.97 70.5864 105.243 71.0057C105.667 71.6577 106.382 72.047 107.155 72.047C107.929 72.047 108.644 71.6577 109.068 71.0057C109.34 70.5864 109.901 70.4674 110.32 70.74C110.739 71.0124 110.858 71.5733 110.586 71.9926C109.827 73.1604 108.544 73.8578 107.155 73.8578Z" fill="#FFC66B"/>
<path d="M116.172 70.0065C117.655 70.0065 118.856 68.8049 118.856 67.3226C118.856 65.8403 117.655 64.6386 116.172 64.6386C114.69 64.6386 113.488 65.8403 113.488 67.3226C113.488 68.8049 114.69 70.0065 116.172 70.0065Z" fill="#FFDA9F"/>
<path d="M88.4603 46.6261H86.0948C85.5948 46.6261 85.1895 46.2207 85.1895 45.7207C85.1895 45.2206 85.5948 44.8153 86.0948 44.8153H88.4603C88.9603 44.8153 89.3657 45.2206 89.3657 45.7207C89.3657 46.2207 88.9604 46.6261 88.4603 46.6261Z" fill="#D88B10"/>
<path d="M102.856 49.8791H86.0948C85.5948 49.8791 85.1895 49.4737 85.1895 48.9737C85.1895 48.4736 85.5948 48.0683 86.0948 48.0683H102.856C103.356 48.0683 103.761 48.4736 103.761 48.9737C103.761 49.4737 103.356 49.8791 102.856 49.8791Z" fill="#D88B10"/>
<path d="M93.1684 67.8459H74.6105C74.1104 67.8459 73.7051 67.4406 73.7051 66.9405C73.7051 66.4405 74.1104 66.0351 74.6105 66.0351H93.1684C93.6684 66.0351 94.0738 66.4405 94.0738 66.9405C94.0738 67.4406 93.6684 67.8459 93.1684 67.8459Z" fill="#FFAD28"/>
<path d="M70.9254 67.8459H67.3527C66.8526 67.8459 66.4473 67.4406 66.4473 66.9405C66.4473 66.4405 66.8526 66.0351 67.3527 66.0351H70.9254C71.4254 66.0351 71.8307 66.4405 71.8307 66.9405C71.8307 67.4406 71.4254 67.8459 70.9254 67.8459Z" fill="#FFAD28"/>
<path d="M93.1677 71.0989H67.3527C66.8526 71.0989 66.4473 70.6936 66.4473 70.1935C66.4473 69.6935 66.8526 69.2881 67.3527 69.2881H93.1677C93.6677 69.2881 94.073 69.6935 94.073 70.1935C94.0732 70.6936 93.6677 71.0989 93.1677 71.0989Z" fill="#FFAD28"/>
<path d="M114.507 46.6261H92.1456C91.6456 46.6261 91.2402 46.2207 91.2402 45.7207C91.2402 45.2206 91.6456 44.8153 92.1456 44.8153H114.507C115.007 44.8153 115.412 45.2206 115.412 45.7207C115.412 46.2207 115.007 46.6261 114.507 46.6261Z" fill="#D88B10"/>
<rect y="108" width="180" height="72" rx="16" fill="#FFAD28"/>
<path d="M37.1855 126.83V136.223H35.4355V135.238H33.0566V134.049H35.4355V126.83H37.1855ZM37.459 137.645V139.039H28.1895V135.32H29.9258V133.666C28.8115 133.714 27.752 133.721 26.8086 133.721L26.6035 132.34C28.8867 132.326 31.9629 132.299 34.5879 131.971L34.6836 133.215C33.6992 133.379 32.6807 133.495 31.6758 133.57V135.936H29.9258V137.645H37.459ZM30.6504 127.254C32.4551 127.24 33.7539 128.156 33.7539 129.482C33.7539 130.809 32.4551 131.67 30.6504 131.67C28.8047 131.67 27.5195 130.809 27.5195 129.482C27.5195 128.156 28.791 127.24 30.6504 127.254ZM30.6504 128.525C29.7617 128.525 29.1602 128.867 29.1738 129.482C29.1602 130.084 29.7617 130.412 30.6504 130.412C31.4844 130.412 32.0859 130.084 32.0996 129.482C32.0859 128.867 31.4844 128.525 30.6504 128.525ZM48.5605 126.816V131.684H50.3926V133.119H48.5605V139.258H46.8379V126.816H48.5605ZM45.9902 128.676V130.07H38.6758V128.676H41.4922V127.008H43.2422V128.676H45.9902ZM42.3672 130.768C44.1855 130.768 45.5391 131.998 45.5391 133.734C45.5391 135.471 44.1855 136.701 42.3672 136.701C40.5352 136.701 39.1816 135.471 39.1816 133.734C39.1816 131.998 40.5352 130.768 42.3672 130.768ZM42.3672 132.176C41.4922 132.189 40.8496 132.777 40.8496 133.734C40.8496 134.705 41.4922 135.279 42.3672 135.266C43.2422 135.279 43.8711 134.705 43.8711 133.734C43.8711 132.777 43.2422 132.189 42.3672 132.176ZM60.9473 130.207V131.574H52.252V127.254H53.9883V130.207H60.9473ZM62.2188 132.914V134.281H50.8301V132.914H62.2188ZM61.0293 137.59V138.984H52.1426V135.293H53.8926V137.59H61.0293ZM70.709 128.771C70.709 130.275 71.584 131.725 73.5527 132.34L72.623 133.693C71.3037 133.256 70.3809 132.408 69.8477 131.314C69.3076 132.572 68.3438 133.557 66.9219 134.035L65.9785 132.668C68.0566 131.971 68.9453 130.316 68.959 128.607V127.473H70.709V128.771ZM76.041 126.816V129.729H77.7227V131.178H76.041V134.199H74.291V126.816H76.041ZM71.9668 134.445C74.5371 134.445 76.1641 135.334 76.1641 136.852C76.1641 138.383 74.5371 139.258 71.9668 139.258C69.3418 139.258 67.7012 138.383 67.7012 136.852C67.7012 135.334 69.3418 134.445 71.9668 134.445ZM71.9668 135.812C70.3262 135.812 69.4375 136.168 69.4512 136.852C69.4375 137.562 70.3262 137.891 71.9668 137.891C73.5801 137.891 74.4414 137.562 74.4414 136.852C74.4414 136.168 73.5801 135.812 71.9668 135.812ZM89.0293 126.816V139.258H87.375V133.01H86.1719V138.656H84.5723V127.021H86.1719V131.615H87.375V126.816H89.0293ZM83.2598 128.252V129.66H80.375V134.965C81.5781 134.958 82.6445 134.896 83.8477 134.678L83.9707 136.1C82.4531 136.387 81.127 136.428 79.4863 136.441H78.625V128.252H83.2598ZM101.156 126.816V139.258H99.4883V126.816H101.156ZM98.5586 126.994V138.684H96.918V132.805H95.9199C95.7559 135.252 94.7168 136.729 93.1855 136.729C91.5449 136.729 90.4785 135.006 90.4785 132.203C90.4785 129.414 91.5449 127.705 93.1855 127.705C94.6826 127.705 95.708 129.1 95.9062 131.424H96.918V126.994H98.5586ZM93.1855 129.346C92.4883 129.346 92.0781 130.303 92.0918 132.203C92.0781 134.117 92.4883 135.061 93.1855 135.047C93.8965 135.061 94.3203 134.117 94.3203 132.203C94.3203 130.303 93.8965 129.346 93.1855 129.346ZM113.256 126.816V139.258H111.615V126.816H113.256ZM110.604 127.09V138.711H108.977V132.996H106.939C106.229 134.418 105.073 135.648 103.303 136.674L102.318 135.443C104.827 133.953 105.935 132.142 106.174 129.701H103.002V128.293H107.91C107.903 129.476 107.78 130.59 107.486 131.615H108.977V127.09H110.604ZM127.666 126.816V130.303H129.348V131.738H127.666V135.73H125.902V126.816H127.666ZM124.275 127.746C124.275 131.109 122.17 133.461 118.438 134.514L117.713 133.133C120.495 132.354 122.074 130.911 122.361 129.168H118.26V127.746H124.275ZM128.09 137.645V139.039H119.572V134.814H121.336V137.645H128.09ZM139.766 126.816V130.207H141.447V131.643H139.766V135.812H138.016V126.816H139.766ZM135.992 127.814V129.209H132.123V132.354C134.372 132.34 135.609 132.271 137.004 131.971L137.182 133.365C135.623 133.693 134.188 133.762 131.426 133.762H130.373V127.814H135.992ZM140.217 137.645V139.039H131.699V134.855H133.436V137.645H140.217ZM151.865 126.83V130.645H153.547V132.066H151.865V136.113H150.115V126.83H151.865ZM149.377 128.129V129.51H141.994V128.129H144.824V126.803H146.561V128.129H149.377ZM145.686 129.947C147.49 129.947 148.748 130.918 148.748 132.354C148.748 133.789 147.49 134.732 145.686 134.732C143.867 134.732 142.596 133.789 142.596 132.354C142.596 130.918 143.867 129.947 145.686 129.947ZM145.686 131.273C144.852 131.287 144.291 131.67 144.305 132.354C144.291 133.037 144.852 133.406 145.686 133.406C146.52 133.406 147.094 133.037 147.094 132.354C147.094 131.67 146.52 131.287 145.686 131.273ZM152.316 137.645V139.039H143.799V135.402H145.535V137.645H152.316ZM35.4492 147.83V156.771H33.6992V147.83H35.4492ZM35.7773 158.645V160.039H27.1094V155.869H28.873V158.645H35.7773ZM28.627 148.623C30.541 148.623 32.0312 149.936 32.0312 151.754C32.0312 153.613 30.541 154.912 28.627 154.912C26.7129 154.912 25.2227 153.613 25.2227 151.754C25.2227 149.936 26.7129 148.623 28.627 148.623ZM28.627 150.141C27.6562 150.127 26.918 150.742 26.9316 151.754C26.918 152.793 27.6562 153.395 28.627 153.395C29.5703 153.395 30.3086 152.793 30.3086 151.754C30.3086 150.742 29.5703 150.127 28.627 150.141ZM41.7246 149.812C41.7109 151.316 42.5859 152.766 44.582 153.354L43.6523 154.693C42.333 154.27 41.4102 153.422 40.877 152.342C40.3232 153.593 39.3457 154.57 37.9102 155.049L36.9805 153.682C39.0586 152.998 39.9609 151.344 39.9746 149.648V148.541H41.7246V149.812ZM47.002 147.816V151.002H48.6836V152.438H47.002V156.143H45.252V147.816H47.002ZM43.8711 155.869C43.8711 157.195 45.1973 158.508 47.8633 158.863L47.166 160.203C45.1973 159.923 43.7754 159.103 43.0234 157.961C42.2715 159.103 40.8496 159.923 38.8809 160.203L38.1973 158.863C40.8496 158.508 42.1484 157.195 42.1484 155.869V155.527H43.8711V155.869ZM59.1016 147.816V150.223H60.7832V151.658H59.1016V154.037H57.3516V147.816H59.1016ZM55.5742 148.404V153.572H49.5996V148.404H55.5742ZM51.3223 149.771V152.191H53.8516V149.771H51.3223ZM59.1016 154.529V157.92H52.5801V158.754H59.457V160.121H50.8711V156.662H57.3652V155.869H50.8438V154.529H59.1016ZM68.3301 149.061V150.059C68.3164 151.234 68.3164 152.766 67.9883 154.83L66.2656 154.693C66.5459 152.889 66.5732 151.556 66.5938 150.455H61.877V149.061H68.3301ZM65.2266 152.629V156.238C66.4502 156.19 67.6943 156.102 68.8359 155.951L68.9453 157.25C66.3887 157.688 63.5586 157.729 61.3848 157.715L61.2207 156.32C61.918 156.313 62.6973 156.313 63.5039 156.293V152.629H65.2266ZM71.1875 147.816V152.82H72.8828V154.27H71.1875V160.258H69.4238V147.816H71.1875ZM86.5273 147.816V150.879H88.209V152.342H86.5273V155.322H84.7773V147.816H86.5273ZM86.5273 155.869V160.121H78.3926V155.869H86.5273ZM80.1152 157.236V158.727H84.8047V157.236H80.1152ZM84.0391 148.938V150.318H76.6562V148.938H79.4863V147.748H81.2227V148.938H84.0391ZM80.3477 150.701C82.1523 150.701 83.4102 151.617 83.4102 152.93C83.4102 154.283 82.1523 155.186 80.3477 155.186C78.5156 155.186 77.2578 154.283 77.2578 152.93C77.2578 151.617 78.5156 150.701 80.3477 150.701ZM80.3477 152.014C79.5137 152.014 78.9531 152.342 78.9668 152.93C78.9531 153.559 79.5137 153.9 80.3477 153.9C81.1816 153.9 81.7559 153.559 81.7559 152.93C81.7559 152.342 81.1816 152.014 80.3477 152.014ZM91.8184 149.238C91.8047 152.342 91.5039 155.131 89.918 157.592L88.5645 156.881C89.8428 154.946 90.2256 153.06 90.3145 150.646H88.9746V149.238H91.8184ZM94.6074 149.238C94.6006 150.332 94.5801 151.419 94.4844 152.479H95.5508V148.09H97.1914V159.711H95.5508V153.887H94.3066C94.04 155.411 93.5684 156.874 92.707 158.221L91.3809 157.482C92.7686 155.363 93.0557 153.169 93.1172 150.646H92.1738V149.238H94.6074ZM99.6387 147.816V160.258H97.9707V147.816H99.6387ZM110.426 148.842V154.816H104.451V148.842H110.426ZM106.174 150.236V153.449H108.703V150.236H106.174ZM113.953 147.816V151.398H115.635V152.834H113.953V156.895H112.203V147.816H113.953ZM114.404 158.645V160.039H105.887V156.006H107.623V158.645H114.404ZM126.053 147.83V150.455H127.734V151.877H126.053V154.844H124.303V147.83H126.053ZM126.053 155.404V160.107H117.904V155.404H126.053ZM119.613 156.758V158.74H124.344V156.758H119.613ZM118.438 148.418V152.738C119.941 152.711 121.562 152.567 123.291 152.232L123.496 153.654C121.445 154.064 119.518 154.174 117.754 154.174H116.688V148.418H118.438ZM141.926 147.83V156.908H140.176V147.83H141.926ZM142.254 158.645V160.039H133.586V156.033H135.35V158.645H142.254ZM136.279 149.717C136.266 151.357 137.141 152.971 139.191 153.627L138.303 154.994C136.901 154.529 135.931 153.6 135.377 152.41C134.823 153.688 133.825 154.714 132.369 155.213L131.467 153.832C133.559 153.135 134.461 151.398 134.461 149.717V148.514H136.279V149.717ZM150.703 149.115V150.482H148.188C148.201 151.761 149.145 153.06 151.141 153.572L150.334 154.912C148.919 154.557 147.921 153.771 147.354 152.752C146.813 153.914 145.815 154.823 144.346 155.24L143.525 153.887C145.521 153.319 146.438 151.897 146.451 150.482H143.949V149.115H146.451V147.762H148.215V149.115H150.703ZM154.094 147.816V155.336H152.357V152.547H150.334V151.152H152.357V147.816H154.094ZM149.842 155.541C152.494 155.555 154.121 156.389 154.135 157.879C154.121 159.383 152.494 160.258 149.842 160.258C147.203 160.258 145.562 159.383 145.562 157.879C145.562 156.389 147.203 155.555 149.842 155.541ZM149.842 156.881C148.188 156.881 147.299 157.209 147.299 157.879C147.299 158.562 148.188 158.932 149.842 158.932C151.523 158.932 152.398 158.562 152.398 157.879C152.398 157.209 151.523 156.881 149.842 156.881Z" fill="white"/>
<rect x="12" y="12" width="24" height="24" rx="12" fill="#FFAD28"/>
<path d="M23.9727 28.6367C21.7988 28.6367 20.2402 27.4336 20.1992 25.7109H22.2773C22.3184 26.4492 23.0293 26.9414 23.9863 26.9414C24.9707 26.9414 25.6816 26.3809 25.668 25.5879C25.6816 24.7812 24.957 24.207 23.7949 24.207H22.8789V22.6895H23.7949C24.7656 22.6895 25.4492 22.1562 25.4492 21.377C25.4492 20.625 24.875 20.1055 24 20.1055C23.125 20.1055 22.4004 20.5977 22.373 21.3496H20.4043C20.4316 19.6406 21.9766 18.4648 24 18.4648C26.0645 18.4648 27.4453 19.6816 27.4316 21.2539C27.4453 22.3613 26.666 23.1543 25.5586 23.3457V23.4277C27.0078 23.6055 27.8145 24.4941 27.8008 25.7246C27.8145 27.4199 26.2012 28.6367 23.9727 28.6367Z" fill="white"/>
<defs>
<linearGradient id="paint0_linear_409_1778" x1="-0.499999" y1="89.5" x2="180.5" y2="89.5" gradientUnits="userSpaceOnUse">
<stop stop-color="#FFF0E4"/>
<stop offset="1" stop-color="#FFF8E5"/>
</linearGradient>
</defs>
</svg>
