<svg width="375" height="356" viewBox="0 0 375 356" fill="none" xmlns="http://www.w3.org/2000/svg">
<rect x="183" y="95" width="77" height="10" fill="#FBCBFF"/>
<rect x="75" y="118" width="225" height="10" fill="#FBCBFF"/>
<rect x="111" y="141" width="83" height="10" fill="#FBCBFF"/>
<rect x="134" y="234" width="163" height="10" fill="#FBCBFF"/>
<path d="M126.548 47.9766C126.548 49.5732 127.866 51.0088 129.785 51.5654L129.243 52.4883C127.742 52.0195 126.584 51.0454 126.006 49.793C125.442 51.2139 124.241 52.2979 122.71 52.8252L122.124 51.917C124.072 51.3164 125.42 49.7637 125.42 47.9766V47.7129H122.476V46.7607H125.42V45.1055H126.577V46.7607H129.492V47.7129H126.548V47.9766ZM132.29 45.1641V48.5625H134.253V49.5146H132.29V53.1621H131.147V45.1641H132.29ZM128.115 53.4844C130.796 53.4844 132.407 54.334 132.407 55.8135C132.407 57.3076 130.796 58.1426 128.115 58.1426C125.42 58.1426 123.794 57.3076 123.794 55.8135C123.794 54.334 125.42 53.4844 128.115 53.4844ZM128.115 54.3926C126.138 54.3926 124.937 54.9053 124.951 55.8135C124.937 56.7217 126.138 57.249 128.115 57.249C130.093 57.249 131.294 56.7217 131.294 55.8135C131.294 54.9053 130.093 54.3926 128.115 54.3926ZM138.662 45.7793C140.413 45.7646 141.738 46.7827 141.987 48.2842H144.712V45.1641H145.869V52.1514H144.712V49.2363H142.002C141.768 50.7744 140.427 51.7998 138.662 51.7998C136.685 51.7998 135.278 50.5693 135.278 48.7822C135.278 47.0098 136.685 45.7646 138.662 45.7793ZM138.662 46.7607C137.329 46.7461 136.377 47.5811 136.377 48.7822C136.377 49.9688 137.329 50.833 138.662 50.833C139.98 50.833 140.918 49.9688 140.918 48.7822C140.918 47.5811 139.98 46.7461 138.662 46.7607ZM138.633 52.8105V54.4658H144.712V52.8105H145.869V58.0107H137.476V52.8105H138.633ZM138.633 57.0732H144.712V55.3887H138.633V57.0732ZM152.3 46.1162C154.351 46.1162 155.801 47.3613 155.801 49.1777C155.801 50.9941 154.351 52.2393 152.3 52.2393C150.249 52.2393 148.77 50.9941 148.784 49.1777C148.77 47.3613 150.249 46.1162 152.3 46.1162ZM152.3 47.127C150.908 47.127 149.897 47.9619 149.912 49.1777C149.897 50.3936 150.908 51.2285 152.3 51.2285C153.677 51.2285 154.673 50.3936 154.673 49.1777C154.673 47.9619 153.677 47.127 152.3 47.127ZM158.716 45.1641V58.2158H157.573V45.1641H158.716ZM148.11 54.3633C150.513 54.3633 153.823 54.3486 156.709 53.9238L156.797 54.7734C153.823 55.3301 150.615 55.3447 148.271 55.3447L148.11 54.3633ZM175.21 46.4824V47.7861C175.195 49.3828 175.195 51.1699 174.727 53.792L173.555 53.6602C174.053 51.1699 174.053 49.3389 174.053 47.7861V47.4346H166.025V46.4824H175.21ZM176.631 55.3887V56.3408H164.766V55.3887H169.424V50.7305H170.552V55.3887H176.631ZM184.526 46.3066V52.3418H178.418V46.3066H184.526ZM179.546 47.2588V51.4189H183.398V47.2588H179.546ZM188.481 45.1787V54.5391H187.339V45.1787H188.481ZM188.892 56.7949V57.7471H180.073V53.6309H181.216V56.7949H188.892ZM201.431 45.1641V58.2158H200.273V45.1641H201.431ZM194.502 46.1748C196.436 46.1895 197.827 47.9473 197.827 50.7158C197.827 53.4844 196.436 55.2422 194.502 55.2422C192.554 55.2422 191.177 53.4844 191.177 50.7158C191.177 47.9473 192.554 46.1895 194.502 46.1748ZM194.502 47.2002C193.198 47.2148 192.29 48.5918 192.29 50.7158C192.29 52.8398 193.198 54.2168 194.502 54.2168C195.806 54.2168 196.714 52.8398 196.714 50.7158C196.714 48.5918 195.806 47.2148 194.502 47.2002ZM211.304 47.7568C211.304 49.1924 212.314 50.6572 213.984 51.2871L213.384 52.166C212.131 51.6826 211.23 50.7524 210.762 49.6318C210.278 50.877 209.348 51.9829 208.066 52.5322L207.437 51.6387C209.15 50.8916 210.205 49.207 210.205 47.7568V45.9844H211.304V47.7568ZM218.481 45.1787V53.2207H217.383V49.6318H215.654V52.8105H214.57V45.4277H215.654V48.6797H217.383V45.1787H218.481ZM214.175 53.5137C216.87 53.5137 218.555 54.3633 218.555 55.8428C218.555 57.3076 216.87 58.1572 214.175 58.1572C211.465 58.1572 209.795 57.3076 209.81 55.8428C209.795 54.3633 211.465 53.5137 214.175 53.5137ZM214.175 54.3926C212.183 54.3926 210.938 54.9346 210.952 55.8428C210.938 56.7363 212.183 57.2637 214.175 57.2637C216.152 57.2637 217.397 56.7363 217.412 55.8428C217.397 54.9346 216.152 54.3926 214.175 54.3926ZM231.138 45.1641V51.8291H229.995V45.1641H231.138ZM227.241 45.8086C227.241 49.1338 224.883 51.2139 221.03 52.1074L220.605 51.1406C223.865 50.4155 225.776 48.8555 225.981 46.7607H221.265V45.8086H227.241ZM231.138 52.4443V55.5938H223.843V57.1465H231.606V58.0693H222.7V54.7148H229.995V53.3672H222.671V52.4443H231.138ZM245.742 45.457V50.4961H247.324V45.1641H248.423V58.1865H247.324V51.4482H245.742V57.542H244.673V45.457H245.742ZM240.337 46.8193V47.7715H238.579V53.8066C239.07 53.792 239.714 53.7334 240.425 53.5576L240.527 54.5391C239.429 54.7881 238.579 54.7881 238.022 54.7881H237.51V46.8193H240.337ZM243.794 46.8193V47.7715H241.948V53.8066C242.556 53.7993 243.281 53.7407 244.072 53.5137L244.175 54.4951C243.091 54.7881 242.197 54.7881 241.436 54.7881H240.908V46.8193H243.794ZM252.217 56.0186L251.074 60.0029H249.99L250.796 56.0186H252.217ZM57.3486 73.3643V74.3311H55.2393V81.1865H54.0967V68.1641H55.2393V73.3643H57.3486ZM46.8457 69.4531V76.9092C48.75 76.9019 50.6909 76.7554 52.8369 76.3086L52.9834 77.29C50.7422 77.7441 48.7207 77.876 46.7432 77.876H45.7031V69.4531H46.8457ZM70.0488 78.5645V79.5166H58.125V78.5645H63.4863V75.752H59.5312V69.0869H60.6885V71.4453H67.4561V69.0869H68.584V75.752H64.6143V78.5645H70.0488ZM60.6885 74.8145H67.4561V72.3828H60.6885V74.8145ZM81.167 68.1641V73.3203H83.3496V74.2871H81.167V81.2158H80.0244V68.1641H81.167ZM77.7393 69.4385V70.3906H72.8027V76.9824C75.1611 76.9824 76.8311 76.8726 78.7646 76.5137L78.9111 77.5098C76.875 77.876 75.1611 77.9492 72.6855 77.9492H71.6602V69.4385H77.7393ZM94.4092 69.3066V71.8115H97.4561V68.1787H98.6133V77.6855H97.4561V72.749H94.4092V75.3418H88.4326V69.3066H94.4092ZM89.5752 70.2588V74.4189H93.2812V70.2588H89.5752ZM98.9795 79.9414V80.9082H90.249V76.8066H91.4062V79.9414H98.9795ZM111.577 68.1641V81.2158H110.42V73.8623H107.563V72.9102H110.42V68.1641H111.577ZM105.293 72.0312C105.293 74.1992 106.846 76.5576 108.75 77.4219L108.062 78.3447C106.575 77.6196 105.322 76.0449 104.736 74.2285C104.136 76.1548 102.854 77.8247 101.367 78.6084L100.664 77.7148C102.554 76.792 104.121 74.3457 104.136 72.0312V70.4639H101.162V69.5117H108.281V70.4639H105.293V72.0312ZM128.306 68.1641V74.8584H127.148V72.2656H124.263V71.3135H127.148V68.1641H128.306ZM124.16 68.8086C124.16 72.0459 121.875 74.1846 118.125 75.1367L117.715 74.1846C120.835 73.4302 122.703 71.8481 122.944 69.7607H118.389V68.8086H124.16ZM128.306 75.415V78.5938H121.04V80.1172H128.745V81.0693H119.897V77.7148H127.148V76.3525H119.868V75.415H128.306ZM133.975 69.1748C135.747 69.1895 137.021 70.7056 137.212 73.1445H140.127V68.1641H141.27V81.2158H140.127V74.0967H137.227C137.087 76.6455 135.791 78.2422 133.975 78.2422C132.056 78.2422 130.708 76.4844 130.708 73.7158C130.708 70.9473 132.056 69.1895 133.975 69.1748ZM133.975 70.2002C132.686 70.2148 131.807 71.5918 131.807 73.7158C131.807 75.8398 132.686 77.2168 133.975 77.2168C135.249 77.2168 136.143 75.8398 136.143 73.7158C136.143 71.5918 135.249 70.2148 133.975 70.2002ZM153.618 68.1641V72.1338H155.581V73.1006H153.618V77.7002H152.461V68.1641H153.618ZM150.103 69.1748C150.103 72.5293 147.7 75.0195 143.95 76.1914L143.452 75.2686C146.572 74.2944 148.608 72.4341 148.857 70.1416H143.994V69.1748H150.103ZM154.219 79.9414V80.9082H145.459V76.7334H146.602V79.9414H154.219ZM170.684 72.5586V73.5107H161.704V68.8379H162.847V72.5586H170.684ZM172.09 75.4736V76.4404H166.641V81.1865H165.498V76.4404H160.166V75.4736H172.09ZM183.486 68.8672V69.8926C183.486 70.9912 183.486 72.2363 183.164 73.9355H185.054V74.8584H179.692V78.0078H178.564V74.8584H173.13V73.9355H181.992C182.344 72.229 182.344 70.9912 182.344 69.8926V69.8193H174.639V68.8672H183.486ZM183.765 79.9414V80.9082H174.639V76.8359H175.796V79.9414H183.765ZM196.172 68.1641V73.4668H198.281V74.4336H196.172V81.1865H195.029V68.1641H196.172ZM192.803 69.5703C192.803 73.2617 191.074 76.6162 186.826 78.7109L186.182 77.8027C189.551 76.1255 191.382 73.6206 191.646 70.5371H186.782V69.5703H192.803ZM203.32 69.1162C205.371 69.1162 206.821 70.3613 206.821 72.1777C206.821 73.9941 205.371 75.2393 203.32 75.2393C201.27 75.2393 199.79 73.9941 199.805 72.1777C199.79 70.3613 201.27 69.1162 203.32 69.1162ZM203.32 70.127C201.929 70.127 200.918 70.9619 200.933 72.1777C200.918 73.3936 201.929 74.2285 203.32 74.2285C204.697 74.2285 205.693 73.3936 205.693 72.1777C205.693 70.9619 204.697 70.127 203.32 70.127ZM209.736 68.1641V81.2158H208.594V68.1641H209.736ZM199.131 77.3633C201.533 77.3633 204.844 77.3486 207.729 76.9238L207.817 77.7734C204.844 78.3301 201.636 78.3447 199.292 78.3447L199.131 77.3633ZM226.523 68.1641V81.2158H225.366V68.1641H226.523ZM219.595 69.1748C221.528 69.1895 222.92 70.9473 222.92 73.7158C222.92 76.4844 221.528 78.2422 219.595 78.2422C217.646 78.2422 216.27 76.4844 216.27 73.7158C216.27 70.9473 217.646 69.1895 219.595 69.1748ZM219.595 70.2002C218.291 70.2148 217.383 71.5918 217.383 73.7158C217.383 75.8398 218.291 77.2168 219.595 77.2168C220.898 77.2168 221.807 75.8398 221.807 73.7158C221.807 71.5918 220.898 70.2148 219.595 70.2002ZM232.236 69.1748C234.155 69.1895 235.518 70.9473 235.532 73.7158C235.518 76.4844 234.155 78.2422 232.236 78.2422C230.303 78.2422 228.955 76.4844 228.955 73.7158C228.955 70.9473 230.303 69.1895 232.236 69.1748ZM232.236 70.2002C230.947 70.2148 230.039 71.5918 230.039 73.7158C230.039 75.8398 230.947 77.2168 232.236 77.2168C233.54 77.2168 234.419 75.8398 234.419 73.7158C234.419 71.5918 233.54 70.2148 232.236 70.2002ZM240.938 71.4453V72.4268H238.828V75.3271H240.938V76.2939H238.828V81.1865H237.686V68.1641H238.828V71.4453H240.938ZM252.48 68.1641V81.1865H251.323V68.1641H252.48ZM248.628 69.585C248.613 73.335 246.87 76.6455 242.505 78.7402L241.875 77.8027C245.398 76.1328 247.192 73.6353 247.456 70.5225H242.476V69.585H248.628ZM264.756 68.1641V73.4668H266.865V74.4336H264.756V81.1865H263.613V68.1641H264.756ZM261.387 69.5703C261.387 73.2617 259.658 76.6162 255.41 78.7109L254.766 77.8027C258.135 76.1255 259.966 73.6206 260.229 70.5371H255.366V69.5703H261.387ZM282.173 68.1641V74.9316H281.016V68.1641H282.173ZM282.173 75.5615V78.667H274.819V80.1025H282.671V81.04H273.691V77.8027H281.03V76.4844H273.647V75.5615H282.173ZM279.038 69.0576V69.9805H277.72V73.3057C278.394 73.269 279.06 73.2031 279.683 73.1299L279.741 73.9795C277.134 74.3604 274.072 74.4629 271.772 74.4629L271.626 73.5107C272.146 73.5107 272.71 73.5107 273.296 73.4961V69.9805H271.992V69.0576H279.038ZM274.409 73.4668C275.127 73.4521 275.867 73.4302 276.606 73.3789V69.9805H274.409V73.4668ZM296.294 78.5498V79.5166H284.37V78.5498H287.329V75.0342C286.216 74.4556 285.542 73.5181 285.542 72.3389C285.542 70.3174 287.52 68.999 290.303 68.9844C293.086 68.999 295.063 70.3174 295.063 72.3389C295.063 73.4961 294.412 74.4263 293.335 75.0049V78.5498H296.294ZM290.303 69.9365C288.164 69.9219 286.655 70.8887 286.655 72.3389C286.655 73.7891 288.164 74.7705 290.303 74.7705C292.427 74.7705 293.95 73.7891 293.95 72.3389C293.95 70.8887 292.427 69.9219 290.303 69.9365ZM288.457 78.5498H292.178V75.4443C291.614 75.5981 290.984 75.6787 290.303 75.6787C289.636 75.6787 289.014 75.6055 288.457 75.459V78.5498ZM307.515 68.1201V71.2842H309.492V72.2363H307.515V75.3271H306.372V68.1201H307.515ZM307.515 76.001V78.8867H300.366V80.1611H307.998V81.04H299.238V78.0371H306.372V76.8652H299.209V76.001H307.515ZM305.127 69.3506V70.2734H297.363V69.3506H300.674V68.0322H301.816V69.3506H305.127ZM301.245 70.8594C303.135 70.8594 304.365 71.6797 304.38 72.998C304.365 74.3164 303.135 75.1367 301.245 75.1367C299.341 75.1367 298.096 74.3164 298.11 72.998C298.096 71.6797 299.341 70.8594 301.245 70.8594ZM301.245 71.709C300.015 71.709 299.194 72.2217 299.209 72.998C299.194 73.7891 300.015 74.2725 301.245 74.2725C302.476 74.2725 303.281 73.7891 303.296 72.998C303.281 72.2217 302.476 71.709 301.245 71.709ZM322.69 68.457V73.4961H324.272V68.1641H325.371V81.1865H324.272V74.4482H322.69V80.542H321.621V68.457H322.69ZM317.285 69.8193V70.7715H315.527V76.8066C316.018 76.792 316.663 76.7334 317.373 76.5576L317.476 77.5391C316.377 77.7881 315.527 77.7881 314.971 77.7881H314.458V69.8193H317.285ZM320.742 69.8193V70.7715H318.896V76.8066C319.504 76.7993 320.229 76.7407 321.021 76.5137L321.123 77.4951C320.039 77.7881 319.146 77.7881 318.384 77.7881H317.856V69.8193H320.742ZM329.165 79.0186L328.022 83.0029H326.938L327.744 79.0186H329.165ZM113.416 91.1641V104.216H112.258V91.1641H113.416ZM104.583 92.2773V95.7197H108.464V92.2773H109.592V101.066H103.44V92.2773H104.583ZM104.583 100.1H108.464V96.6426H104.583V100.1ZM127.566 101.491V102.458H115.642V101.491H127.566ZM122.175 94.0352C122.175 96.1152 124.753 97.8877 126.995 98.2539L126.526 99.1621C124.534 98.7739 122.432 97.4995 121.604 95.7051C120.762 97.5142 118.667 98.8252 116.711 99.2207L116.228 98.2979C118.425 97.917 120.989 96.1152 120.989 94.0352V93.4346H116.624V92.4824H126.541V93.4346H122.175V94.0352ZM133.235 94.665C133.22 97.0381 134.846 99.4404 136.765 100.305L136.062 101.213C134.583 100.488 133.301 98.957 132.678 97.0967C132.07 99.0669 130.789 100.708 129.265 101.477L128.533 100.51C130.466 99.6162 132.078 97.1406 132.092 94.665V92.292H133.235V94.665ZM139.343 91.1641V104.216H138.186V91.1641H139.343ZM151.838 92.5557V93.8594C151.838 95.5 151.838 97.3604 151.355 100.188L150.183 100.07C150.71 97.4043 150.71 95.4561 150.71 93.8594V93.5078H142.859V92.5557H151.838ZM153.435 101.315V102.268H141.57V101.315H153.435ZM156.467 91.8086V96.3789C158.503 96.3716 160.225 96.269 162.122 95.8955L162.297 96.8477C160.247 97.2432 158.474 97.3604 156.306 97.3457H155.31V91.8086H156.467ZM165.33 91.1641V97.917H164.172V94.2988H160.422V93.3613H164.172V91.1641H165.33ZM165.33 98.5176V101.638H158.064V103.073H165.798V104.011H156.921V100.744H164.172V99.4551H156.892V98.5176H165.33ZM171.76 92.1162C173.811 92.1162 175.261 93.3613 175.261 95.1777C175.261 96.9941 173.811 98.2393 171.76 98.2393C169.709 98.2393 168.23 96.9941 168.245 95.1777C168.23 93.3613 169.709 92.1162 171.76 92.1162ZM171.76 93.127C170.369 93.127 169.358 93.9619 169.373 95.1777C169.358 96.3936 170.369 97.2285 171.76 97.2285C173.137 97.2285 174.133 96.3936 174.133 95.1777C174.133 93.9619 173.137 93.127 171.76 93.127ZM178.176 91.1641V104.216H177.034V91.1641H178.176ZM167.571 100.363C169.973 100.363 173.284 100.349 176.169 99.9238L176.257 100.773C173.284 101.33 170.076 101.345 167.732 101.345L167.571 100.363ZM184.27 96.5693L185.53 92.3945H187.083L186.35 96.5693H184.27ZM194.846 92.1162V98.5176H188.445V92.1162H194.846ZM190.291 93.6104V97.0527H193V93.6104H190.291ZM198.625 91.0176V94.8555H200.427V96.3936H198.625V100.744H196.75V91.0176H198.625ZM199.109 102.619V104.113H189.983V99.792H191.843V102.619H199.109ZM211.589 91.0322V93.8447H213.391V95.3682H211.589V98.5469H209.714V91.0322H211.589ZM211.589 99.1475V104.187H202.859V99.1475H211.589ZM204.69 100.598V102.722H209.758V100.598H204.69ZM203.43 91.6621V96.291C205.042 96.2617 206.777 96.1079 208.63 95.749L208.85 97.2725C206.653 97.7119 204.587 97.8291 202.698 97.8291H201.555V91.6621H203.43ZM216.965 92.3945L215.706 96.5693H214.153L214.885 92.3945H216.965ZM226.428 94.0352C226.428 96.54 227.439 98.9717 229.666 99.9385L228.523 101.433C227.043 100.708 226.055 99.3818 225.505 97.7412C224.919 99.4844 223.894 100.913 222.371 101.667L221.199 100.144C223.484 99.1182 224.524 96.54 224.539 94.0352V92.043H226.428V94.0352ZM232.639 91.0176V104.377H230.793V96.7158H228.171V95.207H230.793V91.0176H232.639ZM245.515 91.0176V104.377H243.625V91.0176H245.515ZM236.887 92.0723V95.3242H239.758V92.0723H241.604V101.257H235.012V92.0723H236.887ZM236.887 99.748H239.758V96.7744H236.887V99.748ZM254.333 92.7754C254.333 94.7236 256.062 96.8184 259.08 97.3311L258.259 98.8838C255.938 98.4224 254.209 97.1187 253.352 95.3975C252.466 97.104 250.737 98.415 248.43 98.8838L247.625 97.3311C250.583 96.8037 252.327 94.709 252.341 92.7754V91.8086H254.333V92.7754ZM259.519 101.169V102.707H247.317V101.169H259.519ZM270.945 95.1191V96.042H262.024V91.6475H263.167V95.1191H270.945ZM272.322 97.8145V98.752H260.398V97.8145H272.322ZM271.018 102.912V103.864H261.951V100.085H263.093V102.912H271.018ZM82.2217 122.323C85.1367 122.323 86.9678 123.246 86.9824 124.843C86.9678 126.41 85.1367 127.348 82.2217 127.348C79.3359 127.348 77.4756 126.41 77.4756 124.843C77.4756 123.246 79.3359 122.323 82.2217 122.323ZM82.2217 123.715C80.3906 123.715 79.3359 124.096 79.3359 124.843C79.3359 125.561 80.3906 125.927 82.2217 125.927C84.0527 125.927 85.1221 125.561 85.1221 124.843C85.1221 124.096 84.0527 123.715 82.2217 123.715ZM86.9092 114.618V115.702C86.9092 116.757 86.9092 117.899 86.5283 119.276L84.6973 119.101C84.9902 117.892 85.0269 116.991 85.0488 116.083H77.6074V114.618H86.9092ZM88.3447 119.965V121.474H76.2451V119.965H80.7861V117.636H82.6318V119.965H88.3447ZM94.292 115.907C94.2773 117.577 95.2295 119.188 97.4268 119.848L96.4893 121.312C94.9731 120.829 93.9258 119.884 93.3252 118.661C92.7246 119.979 91.6406 121.012 90.0732 121.518L89.1357 120.053C91.3623 119.335 92.3438 117.606 92.3438 115.907V114.633H94.292V115.907ZM100.342 122.543V127.348H98.4668V124.037H91.1719V122.543H100.342ZM100.342 114.018V121.972H98.4668V114.018H100.342ZM117.056 114.018V123.949H115.283V114.018H117.056ZM114.346 114.223V123.539H112.588V119.101H111.372V121.591H106.069V115.292H111.372V117.577H112.588V114.223H114.346ZM117.393 125.619V127.113H108.018V122.763H109.893V125.619H117.393ZM107.827 116.742V120.17H109.629V116.742H107.827ZM129.434 120.624V122.104H125.596V124.359H130.767V125.854H118.564V124.359H123.706V122.104H120V114.94H129.331V116.435H121.904V117.768H129.023V119.232H121.904V120.624H129.434ZM135.498 114.809C137.549 114.809 139.146 116.156 139.16 118.075C139.146 119.687 138.025 120.895 136.45 121.239V123.056C137.505 123.012 138.552 122.924 139.541 122.792L139.673 124.169C136.89 124.696 133.887 124.696 131.616 124.667L131.367 123.158C132.327 123.151 133.433 123.151 134.59 123.129V121.254C132.957 120.924 131.836 119.708 131.836 118.075C131.836 116.156 133.389 114.809 135.498 114.809ZM135.498 116.391C134.443 116.391 133.652 117.006 133.667 118.075C133.652 119.13 134.443 119.76 135.498 119.76C136.523 119.76 137.314 119.13 137.314 118.075C137.314 117.006 136.523 116.391 135.498 116.391ZM142.119 114.018V119.247H143.936V120.814H142.119V127.348H140.244V114.018H142.119ZM158.467 114.018V118.969H160.43V120.492H158.467V127.377H156.592V114.018H158.467ZM154.731 115.248V116.757H150.337V122.602C152.271 122.58 153.867 122.492 155.64 122.177L155.845 123.744C153.779 124.096 151.963 124.154 149.604 124.14H148.477V115.248H154.731ZM173.218 115.673V117.196H171.489V118.573H173.218V120.111H171.489V121.811H169.614V114.018H171.489V115.673H173.218ZM164.663 114.75C166.729 114.735 168.296 116.083 168.296 117.973C168.296 119.862 166.729 121.195 164.663 121.195C162.583 121.195 161.001 119.862 161.001 117.973C161.001 116.083 162.583 114.735 164.663 114.75ZM164.663 116.317C163.608 116.303 162.832 116.947 162.847 117.973C162.832 119.013 163.608 119.628 164.663 119.628C165.688 119.628 166.465 119.013 166.479 117.973C166.465 116.947 165.688 116.303 164.663 116.317ZM167.124 122.074C169.863 122.074 171.621 123.07 171.621 124.726C171.621 126.366 169.863 127.348 167.124 127.348C164.326 127.348 162.554 126.366 162.554 124.726C162.554 123.07 164.326 122.074 167.124 122.074ZM167.124 123.554C165.366 123.554 164.414 123.949 164.429 124.726C164.414 125.502 165.366 125.868 167.124 125.868C168.853 125.868 169.775 125.502 169.775 124.726C169.775 123.949 168.853 123.554 167.124 123.554ZM184.453 114.032V118.119H186.255V119.643H184.453V123.979H182.578V114.032H184.453ZM181.787 115.424V116.903H173.877V115.424H176.909V114.003H178.77V115.424H181.787ZM177.832 117.372C179.766 117.372 181.113 118.412 181.113 119.95C181.113 121.488 179.766 122.499 177.832 122.499C175.884 122.499 174.521 121.488 174.521 119.95C174.521 118.412 175.884 117.372 177.832 117.372ZM177.832 118.793C176.938 118.808 176.338 119.218 176.353 119.95C176.338 120.683 176.938 121.078 177.832 121.078C178.726 121.078 179.341 120.683 179.341 119.95C179.341 119.218 178.726 118.808 177.832 118.793ZM184.937 125.619V127.113H175.811V123.217H177.671V125.619H184.937ZM197.9 115.424V116.889H195.205C195.22 118.258 196.187 119.606 198.325 120.17L197.476 121.635C195.967 121.239 194.912 120.39 194.312 119.32C193.726 120.543 192.656 121.51 191.089 121.972L190.195 120.507C192.349 119.914 193.33 118.405 193.345 116.889H190.664V115.424H193.345V113.959H195.234V115.424H197.9ZM200.874 114.018V117.182H202.676V118.69H200.874V122.06H198.999V114.018H200.874ZM196.509 122.309C199.292 122.309 201.006 123.231 201.006 124.843C201.006 126.425 199.292 127.333 196.509 127.333C193.667 127.333 191.938 126.425 191.938 124.843C191.938 123.231 193.667 122.309 196.509 122.309ZM196.509 123.744C194.736 123.744 193.799 124.081 193.813 124.843C193.799 125.561 194.736 125.927 196.509 125.927C198.237 125.927 199.16 125.561 199.16 124.843C199.16 124.081 198.237 123.744 196.509 123.744ZM206.982 114.589C208.689 114.574 210.044 115.548 210.41 116.977H212.637V114.018H214.497V121.181H212.637V118.471H210.425C210.073 119.936 208.704 120.932 206.982 120.932C204.932 120.932 203.423 119.599 203.438 117.738C203.423 115.907 204.932 114.574 206.982 114.589ZM206.982 116.142C205.942 116.127 205.195 116.742 205.21 117.738C205.195 118.734 205.942 119.364 206.982 119.364C207.993 119.364 208.726 118.734 208.726 117.738C208.726 116.742 207.993 116.127 206.982 116.142ZM207.451 121.767V123.056H212.637V121.767H214.497V127.201H205.605V121.767H207.451ZM207.451 125.692H212.637V124.491H207.451V125.692ZM221.147 117.65C221.133 119.687 222.217 122.03 224.414 123.041L223.374 124.506C221.887 123.825 220.825 122.462 220.239 120.858C219.639 122.624 218.547 124.118 217.002 124.843L215.918 123.363C218.145 122.323 219.258 119.848 219.272 117.65V116.83H216.445V115.307H223.828V116.83H221.147V117.65ZM226.743 114.018V119.101H228.706V120.668H226.743V127.348H224.868V114.018H226.743ZM234.229 114.896L230.801 127.597H228.94L232.354 114.896H234.229ZM245.903 114.018V120.771H244.043V114.018H245.903ZM245.918 121.342V124.96H238.828V125.78H246.284V127.26H236.997V123.568H244.058V122.792H236.968V121.342H245.918ZM239.868 115.336C239.854 116.947 240.82 118.5 243.003 119.13L242.095 120.565C240.564 120.119 239.509 119.196 238.916 118.017C238.301 119.306 237.209 120.331 235.62 120.8L234.697 119.335C236.924 118.676 237.92 116.991 237.92 115.336V114.311H239.868V115.336ZM259.907 121.474V122.968H254.692V127.333H252.847V122.968H247.705V121.474H259.907ZM258.442 114.662V120.038H249.141V114.662H258.442ZM250.986 116.142V118.573H256.582V116.142H250.986ZM265.605 117.65C265.591 119.687 266.675 122.03 268.872 123.041L267.832 124.506C266.345 123.825 265.283 122.462 264.697 120.858C264.097 122.624 263.005 124.118 261.46 124.843L260.376 123.363C262.603 122.323 263.716 119.848 263.73 117.65V116.83H260.903V115.307H268.286V116.83H265.605V117.65ZM271.201 114.018V119.101H273.164V120.668H271.201V127.348H269.326V114.018H271.201ZM285.835 119.218V120.683H273.647V119.218H285.835ZM284.385 117.021V118.485H275.171V114.281H284.282V115.775H277.031V117.021H284.385ZM284.326 121.474V124.96H276.899V125.78H284.678V127.23H275.068V123.627H282.48V122.88H275.054V121.474H284.326ZM290.933 114.911C293.042 114.896 294.624 116.273 294.624 118.178C294.624 120.097 293.042 121.459 290.933 121.459C288.823 121.459 287.227 120.097 287.227 118.178C287.227 116.273 288.823 114.896 290.933 114.911ZM290.933 116.522C289.878 116.522 289.072 117.138 289.087 118.178C289.072 119.232 289.878 119.833 290.933 119.833C291.987 119.833 292.793 119.232 292.808 118.178C292.793 117.138 292.002 116.522 290.933 116.522ZM297.817 114.018V127.377H295.957V114.018H297.817ZM286.67 123.129C289.043 123.144 292.339 123.1 295.195 122.704L295.342 124.052C292.383 124.623 289.219 124.652 286.89 124.652L286.67 123.129ZM125.186 147.242V148.795H112.983V147.242H125.186ZM124.16 138.189V139.684H122.285V143.727H124.102V145.191H113.994V143.727H115.781V139.684H113.936V138.189H124.16ZM117.656 143.727H120.439V139.684H117.656V143.727ZM138.149 147.33V148.868H125.947V147.33H131.089V145.323H127.354V140.841H134.897V139.376H127.339V137.882H136.743V142.306H129.229V143.8H137.051V145.323H132.949V147.33H138.149ZM150.103 137.018V143.858H148.228V137.018H150.103ZM150.103 144.386V147.945H142.91V148.78H150.469V150.26H141.064V146.612H148.257V145.836H141.035V144.386H150.103ZM146.733 137.838V139.259H145.635V141.91C146.184 141.874 146.726 141.822 147.246 141.764L147.334 143.097C144.683 143.521 141.65 143.595 139.336 143.595L139.131 142.13C139.585 142.13 140.068 142.123 140.566 142.115V139.259H139.482V137.838H146.733ZM142.354 142.071C142.844 142.064 143.335 142.049 143.833 142.027V139.259H142.354V142.071ZM166.509 137.018V150.377H164.648V137.018H166.509ZM162.378 138.131V143.272H157.983V145.719C160.012 145.711 161.741 145.594 163.696 145.279L163.857 146.788C161.66 147.169 159.683 147.257 157.251 147.257H156.05V141.793H160.474V139.64H156.035V138.131H162.378ZM175.312 138.775C175.312 140.724 177.041 142.818 180.059 143.331L179.238 144.884C176.917 144.422 175.188 143.119 174.331 141.397C173.445 143.104 171.716 144.415 169.409 144.884L168.604 143.331C171.562 142.804 173.306 140.709 173.32 138.775V137.809H175.312V138.775ZM180.498 147.169V148.707H168.296V147.169H180.498ZM192.129 143.902V145.382H182.695V137.999H192.026V139.508H184.6V140.914H191.719V142.379H184.6V143.902H192.129ZM193.462 147.271V148.795H181.26V147.271H193.462ZM206.265 143.214V144.122H194.341V143.214H206.265ZM204.771 145.162V147.931H196.948V149.176H205.195V150.011H195.791V147.14H203.628V146.026H195.776V145.162H204.771ZM204.727 137.56V140.255H197.036V141.397H204.961V142.232H195.894V139.464H203.569V138.395H195.85V137.56H204.727ZM214.673 137.633C215.815 137.633 216.782 138.058 217.383 138.761H220.723V137.164H221.865V143.858H220.723V142.364H217.427C216.819 143.097 215.837 143.536 214.673 143.536C212.71 143.536 211.289 142.335 211.289 140.577C211.289 138.834 212.71 137.633 214.673 137.633ZM214.673 138.585C213.34 138.57 212.388 139.405 212.388 140.577C212.388 141.764 213.34 142.599 214.673 142.613C215.962 142.599 216.929 141.764 216.929 140.577C216.929 139.405 215.962 138.57 214.673 138.585ZM221.865 144.518V147.638H214.6V149.088H222.363V150.011H213.457V146.759H220.723V145.44H213.428V144.518H221.865ZM217.91 139.684C217.991 139.962 218.042 140.262 218.042 140.577C218.042 140.885 217.991 141.17 217.91 141.441H220.723V139.684H217.91ZM234.229 137.179V140.519H236.206V141.5H234.229V144.942H233.086V137.179H234.229ZM234.229 145.587V150.011H225.981V145.587H234.229ZM227.109 146.48V149.073H233.115V146.48H227.109ZM230.508 137.882V141.441H225.762V143.287C228.076 143.287 229.753 143.221 231.782 142.892L231.899 143.814C229.805 144.181 228.062 144.254 225.645 144.254H224.634V140.548H229.38V138.834H224.604V137.882H230.508ZM247.09 137.164V142.54H249.272V143.492H247.09V150.187H245.947V137.164H247.09ZM244.688 139.259V140.211H236.938V139.259H240.293V137.325H241.436V139.259H244.688ZM240.879 141.295C242.725 141.295 244.058 142.525 244.072 144.283C244.058 146.041 242.725 147.271 240.879 147.271C239.019 147.271 237.671 146.041 237.686 144.283C237.671 142.525 239.019 141.295 240.879 141.295ZM240.879 142.262C239.663 142.262 238.77 143.111 238.784 144.283C238.77 145.47 239.663 146.305 240.879 146.29C242.08 146.305 242.959 145.47 242.974 144.283C242.959 143.111 242.08 142.262 240.879 142.262ZM260.42 138.482V139.786C260.405 141.383 260.405 143.17 259.937 145.792L258.765 145.66C259.263 143.17 259.263 141.339 259.263 139.786V139.435H251.235V138.482H260.42ZM261.841 147.389V148.341H249.976V147.389H254.634V142.73H255.762V147.389H261.841ZM54.3604 162.581C54.3604 164.339 55.752 165.936 57.7002 166.565L57.1143 167.459C55.5981 166.946 54.3896 165.87 53.8037 164.485C53.2324 165.972 52.0093 167.144 50.4639 167.708L49.8633 166.814C51.8115 166.126 53.2031 164.427 53.2031 162.581V162.024H50.1562V161.087H57.3633V162.024H54.3604V162.581ZM60.4248 160.164V168.045H59.2822V160.164H60.4248ZM60.4248 168.733V173.187H59.2822V169.686H51.665V168.733H60.4248ZM73.418 160.164V167.239H72.2754V164.295H69.6387V163.328H72.2754V160.164H73.418ZM66.1963 167.869V169.495H72.2754V167.869H73.418V173.011H65.0391V167.869H66.1963ZM66.1963 172.073H72.2754V170.418H66.1963V172.073ZM67.1631 162.288C67.1631 163.958 68.4668 165.599 70.3711 166.258L69.7705 167.151C68.2983 166.617 67.1631 165.525 66.6064 164.178C66.0425 165.687 64.8413 166.895 63.2959 167.459L62.6953 166.551C64.6143 165.862 66.0059 164.134 66.0059 162.288V161.907H63.0615V160.955H70.0781V161.907H67.1631V162.288ZM83.584 161.395V172H82.251V162.771H82.1924L79.6143 164.485V163.152L82.251 161.395H83.584ZM87.3193 172.088C86.8066 172.088 86.3672 171.663 86.3818 171.136C86.3672 170.623 86.8066 170.198 87.3193 170.198C87.832 170.198 88.2568 170.623 88.2568 171.136C88.2568 171.663 87.832 172.088 87.3193 172.088ZM87.3193 166.199C86.8066 166.199 86.3672 165.774 86.3818 165.247C86.3672 164.734 86.8066 164.31 87.3193 164.31C87.832 164.31 88.2568 164.734 88.2568 165.247C88.2568 165.774 87.832 166.199 87.3193 166.199ZM93.9697 161.395V172H92.6367V162.771H92.5781L90 164.485V163.152L92.6367 161.395H93.9697ZM106.714 161.526C106.699 165.291 105.366 168.733 100.767 171.033L100.107 170.154C102.502 168.953 103.982 167.452 104.795 165.687L100.356 166.111L100.151 165.115L105.146 164.778C105.381 164.053 105.52 163.284 105.571 162.479H100.811V161.526H106.714ZM110.874 160.164V173.187H109.731V166.36H106.67V165.408H109.731V160.164H110.874ZM123.823 160.164V173.187H122.666V160.164H123.823ZM120.82 161.585V162.537H119.341V168.807C120.073 168.755 120.798 168.689 121.494 168.602L121.567 169.466C118.726 169.905 115.591 169.949 113.174 169.964L113.042 168.982C113.606 168.982 114.214 168.982 114.844 168.968V162.537H113.379V161.585H120.82ZM115.972 168.953C116.704 168.938 117.458 168.909 118.213 168.865V162.537H115.972V168.953ZM129.873 162.889C129.873 164.383 130.898 165.892 132.554 166.551L131.997 167.43C130.73 166.924 129.822 165.936 129.36 164.749C128.906 166.053 127.998 167.151 126.709 167.723L126.123 166.858C127.778 166.141 128.774 164.515 128.789 162.889V162.859H126.387V161.937H128.789V160.384H129.873V161.937H132.231V162.859H129.873V162.889ZM137.08 160.179V168.982H135.981V164.471H134.282V167.854H133.169V160.413H134.282V163.504H135.981V160.179H137.08ZM133.301 168.763C133.301 170.477 135.498 171.883 137.754 172.234L137.344 173.128C135.366 172.798 133.521 171.795 132.729 170.33C131.938 171.795 130.085 172.798 128.13 173.128L127.705 172.234C129.976 171.883 132.144 170.477 132.158 168.763V168.44H133.301V168.763ZM144.917 160.398C147.817 160.398 149.517 161.189 149.517 162.64C149.517 164.119 147.817 164.91 144.917 164.925C142.017 164.91 140.303 164.119 140.303 162.64C140.303 161.189 142.017 160.398 144.917 160.398ZM144.917 161.263C142.749 161.263 141.489 161.79 141.504 162.64C141.489 163.548 142.749 164.046 144.917 164.046C147.07 164.046 148.345 163.548 148.345 162.64C148.345 161.79 147.07 161.263 144.917 161.263ZM150.85 165.804V166.741H138.984V165.804H150.85ZM149.326 167.869V170.784H141.592V172.132H149.722V173.04H140.449V169.935H148.198V168.748H140.42V167.869H149.326ZM166.465 160.179V169.729H165.322V160.179H166.465ZM166.875 171.941V172.908H158.057V168.851H159.199V171.941H166.875ZM160.327 162.215C160.312 164.192 161.675 165.979 163.608 166.683L163.008 167.605C161.499 167.027 160.327 165.855 159.756 164.354C159.177 165.95 157.991 167.232 156.475 167.84L155.845 166.946C157.822 166.185 159.155 164.266 159.155 162.215V160.911H160.327V162.215ZM173.115 162.962C173.115 164.588 174.521 166.038 176.44 166.609L175.884 167.503C174.375 167.056 173.167 166.067 172.588 164.778C172.017 166.207 170.83 167.327 169.277 167.84L168.721 166.961C170.64 166.316 171.987 164.734 171.987 162.962V162.684H169.043V161.761H171.987V160.105H173.145V161.761H176.06V162.684H173.115V162.962ZM179.473 160.164V168.06H178.315V164.852H175.649V163.899H178.315V160.164H179.473ZM175.151 168.411C177.861 168.411 179.517 169.261 179.517 170.784C179.517 172.293 177.861 173.157 175.151 173.157C172.441 173.157 170.786 172.293 170.786 170.784C170.786 169.261 172.441 168.411 175.151 168.411ZM175.151 169.305C173.159 169.319 171.914 169.861 171.929 170.784C171.914 171.692 173.159 172.249 175.151 172.249C177.158 172.249 178.374 171.692 178.374 170.784C178.374 169.861 177.158 169.319 175.151 169.305ZM191.821 160.12V163.284H193.799V164.236H191.821V167.327H190.679V160.12H191.821ZM191.821 168.001V170.887H184.673V172.161H192.305V173.04H183.545V170.037H190.679V168.865H183.516V168.001H191.821ZM189.434 161.351V162.273H181.67V161.351H184.98V160.032H186.123V161.351H189.434ZM185.552 162.859C187.441 162.859 188.672 163.68 188.687 164.998C188.672 166.316 187.441 167.137 185.552 167.137C183.647 167.137 182.402 166.316 182.417 164.998C182.402 163.68 183.647 162.859 185.552 162.859ZM185.552 163.709C184.321 163.709 183.501 164.222 183.516 164.998C183.501 165.789 184.321 166.272 185.552 166.272C186.782 166.272 187.588 165.789 187.603 164.998C187.588 164.222 186.782 163.709 185.552 163.709ZM204.902 161.38C204.902 163.211 207.305 164.808 209.648 165.13L209.18 166.067C207.158 165.73 205.159 164.61 204.316 163.006C203.481 164.617 201.475 165.73 199.453 166.067L198.984 165.13C201.328 164.808 203.716 163.24 203.716 161.38V160.633H204.902V161.38ZM210.234 167.503V168.47H204.844V173.187H203.716V168.47H198.369V167.503H210.234ZM219.507 168.909C219.507 170.059 220.122 171.282 221.367 171.985C222.598 171.216 223.257 169.92 223.257 168.909V168.191H224.385V168.909C224.385 170.242 225.366 171.59 227.036 172.161L226.465 173.011C225.161 172.549 224.246 171.641 223.799 170.55C223.396 171.604 222.598 172.601 221.396 173.113C220.129 172.63 219.324 171.67 218.936 170.579C218.474 171.634 217.573 172.542 216.328 173.011L215.742 172.161C217.383 171.546 218.379 170.154 218.394 168.909V168.191H219.507V168.909ZM225.85 160.179V167.62H224.707V160.179H225.85ZM218.818 160.94C220.796 160.94 222.231 162.171 222.231 163.987C222.231 165.774 220.796 167.005 218.818 167.005C216.841 167.005 215.405 165.774 215.405 163.987C215.405 162.171 216.841 160.94 218.818 160.94ZM218.818 161.922C217.485 161.907 216.519 162.771 216.533 163.987C216.519 165.188 217.485 166.038 218.818 166.053C220.137 166.038 221.104 165.188 221.104 163.987C221.104 162.771 220.137 161.907 218.818 161.922ZM238.594 164.119V165.042H229.673V160.647H230.815V164.119H238.594ZM239.971 166.814V167.752H228.047V166.814H239.971ZM238.667 171.912V172.864H229.6V169.085H230.742V171.912H238.667ZM249.375 163.665C249.375 166.023 250.884 168.396 252.773 169.261L252.085 170.198C250.605 169.437 249.382 167.876 248.804 166.023C248.225 167.972 247.002 169.642 245.522 170.433L244.775 169.51C246.68 168.572 248.203 166.067 248.203 163.665V161.292H249.375V163.665ZM255.586 160.164V173.216H254.443V165.555H251.353V164.617H254.443V160.164H255.586ZM268.491 160.164V173.216H267.334V160.164H268.491ZM259.658 161.277V164.72H263.54V161.277H264.668V170.066H258.516V161.277H259.658ZM259.658 169.1H263.54V165.643H259.658V169.1ZM277.207 162.083C277.207 164.31 279.756 166.302 282.026 166.727L281.499 167.693C279.536 167.239 277.463 165.84 276.621 163.914C275.779 165.833 273.713 167.232 271.743 167.693L271.216 166.727C273.472 166.287 276.006 164.324 276.006 162.083V161.087H277.207V162.083ZM282.642 170.462V171.414H270.718V170.462H282.642ZM294.434 160.164V167.151H293.291V160.164H294.434ZM287.139 167.811V169.393H293.291V167.811H294.434V173.011H285.996V167.811H287.139ZM287.139 172.073H293.291V170.315H287.139V172.073ZM287.402 160.809C289.38 160.794 290.815 162.01 290.815 163.797C290.815 165.569 289.38 166.785 287.402 166.785C285.425 166.785 283.989 165.569 283.989 163.797C283.989 162.01 285.425 160.794 287.402 160.809ZM287.402 161.775C286.069 161.761 285.103 162.61 285.117 163.797C285.103 164.983 286.069 165.833 287.402 165.833C288.721 165.833 289.688 164.983 289.688 163.797C289.688 162.61 288.721 161.761 287.402 161.775ZM307.383 160.164V173.187H306.24V160.164H307.383ZM298.623 161.453V168.836C300.608 168.829 302.666 168.667 304.849 168.206L305.01 169.188C302.695 169.671 300.63 169.832 298.55 169.832H297.495V161.453H298.623ZM319.688 160.164V165.32H321.87V166.287H319.688V173.216H318.545V160.164H319.688ZM316.26 161.438V162.391H311.323V168.982C313.682 168.982 315.352 168.873 317.285 168.514L317.432 169.51C315.396 169.876 313.682 169.949 311.206 169.949H310.181V161.438H316.26ZM323.95 172.088C323.438 172.088 322.998 171.663 323.013 171.136C322.998 170.623 323.438 170.198 323.95 170.198C324.463 170.198 324.888 170.623 324.888 171.136C324.888 171.663 324.463 172.088 323.95 172.088ZM84.7705 184.175V184.863C84.7559 185.713 84.7559 187.017 84.4336 188.716L83.2764 188.628C83.5913 187.068 83.6206 185.962 83.6426 185.142H78.2812V184.175H84.7705ZM81.416 187.061V189.858C82.8589 189.8 84.353 189.697 85.708 189.507L85.7812 190.356C83.0566 190.825 79.9072 190.884 77.5928 190.884L77.4756 189.932C78.3179 189.924 79.27 189.917 80.2734 189.888V187.061H81.416ZM87.7588 183.164V187.412H89.6631V188.394H87.7588V192.964H86.5869V183.164H87.7588ZM88.1836 194.941V195.908H79.4824V192.085H80.6396V194.941H88.1836ZM101.265 183.179V190.576H100.122V183.179H101.265ZM101.265 191.323V196.011H92.7979V191.323H101.265ZM93.9258 192.261V195.073H100.137V192.261H93.9258ZM95.127 184.966C95.1123 186.812 96.5186 188.438 98.4375 189.111L97.8516 189.99C96.3428 189.47 95.1416 188.372 94.5557 186.943C93.9771 188.467 92.7612 189.668 91.2012 190.239L90.6152 189.331C92.5928 188.643 93.9551 186.885 93.9551 184.966V183.691H95.127V184.966ZM113.818 185.01C113.804 186.753 116.133 188.232 118.403 188.569L117.979 189.478C115.942 189.133 113.965 188.049 113.174 186.475C112.383 188.049 110.398 189.133 108.398 189.478L107.944 188.569C110.2 188.232 112.529 186.753 112.529 185.01V184.922H108.354V183.984H117.979V184.922H113.818V185.01ZM119.106 190.591V191.543H113.716V196.187H112.588V191.543H107.241V190.591H119.106ZM131.338 183.164V196.187H130.239V183.164H131.338ZM128.701 183.486V195.513H127.617V188.804H125.42V187.866H127.617V183.486H128.701ZM124.028 186.885C124.028 189.141 125.039 191.382 126.841 192.422L126.138 193.271C124.856 192.502 123.948 191.096 123.501 189.434C123.025 191.228 122.08 192.759 120.776 193.579L120.044 192.715C121.86 191.631 122.915 189.258 122.915 186.885V185.654H120.41V184.702H126.416V185.654H124.028V186.885ZM135.308 194.019L134.165 198.003H133.081L133.887 194.019H135.308ZM145.151 185.625C145.137 187.412 146.499 189.067 148.418 189.741L147.832 190.664C146.353 190.129 145.203 189.023 144.624 187.632C144.075 189.192 142.896 190.393 141.357 190.986L140.728 190.063C142.705 189.36 144.009 187.603 144.023 185.581V183.97H145.151V185.625ZM150.952 183.164V187.163H152.915V188.145H150.952V192.788H149.81V183.164H150.952ZM151.553 194.941V195.908H142.822V191.865H143.994V194.941H151.553ZM157.324 183.779C159.075 183.765 160.4 184.783 160.649 186.284H163.374V183.164H164.531V190.151H163.374V187.236H160.664C160.43 188.774 159.089 189.8 157.324 189.8C155.347 189.8 153.94 188.569 153.94 186.782C153.94 185.01 155.347 183.765 157.324 183.779ZM157.324 184.761C155.991 184.746 155.039 185.581 155.039 186.782C155.039 187.969 155.991 188.833 157.324 188.833C158.643 188.833 159.58 187.969 159.58 186.782C159.58 185.581 158.643 184.746 157.324 184.761ZM157.295 190.811V192.466H163.374V190.811H164.531V196.011H156.138V190.811H157.295ZM157.295 195.073H163.374V193.389H157.295V195.073ZM168.838 194.019L167.695 198.003H166.611L167.417 194.019H168.838ZM180.923 184.526C180.908 188.291 179.575 191.733 174.976 194.033L174.316 193.154C176.711 191.953 178.191 190.452 179.004 188.687L174.565 189.111L174.36 188.115L179.355 187.778C179.59 187.053 179.729 186.284 179.78 185.479H175.02V184.526H180.923ZM185.083 183.164V196.187H183.94V189.36H180.879V188.408H183.94V183.164H185.083ZM198.018 183.164V196.216H196.875V183.164H198.018ZM194.062 184.38V189.009H189.199V192.085C191.36 192.085 193.286 191.99 195.615 191.616L195.732 192.583C193.33 192.964 191.353 193.052 189.111 193.052H188.027V188.071H192.905V185.332H187.998V184.38H194.062ZM203.73 184.175C205.503 184.189 206.777 185.706 206.968 188.145H209.883V183.164H211.025V196.216H209.883V189.097H206.982C206.843 191.646 205.547 193.242 203.73 193.242C201.812 193.242 200.464 191.484 200.464 188.716C200.464 185.947 201.812 184.189 203.73 184.175ZM203.73 185.2C202.441 185.215 201.562 186.592 201.562 188.716C201.562 190.84 202.441 192.217 203.73 192.217C205.005 192.217 205.898 190.84 205.898 188.716C205.898 186.592 205.005 185.215 203.73 185.2ZM228.838 189.36V190.327H216.958V189.36H228.838ZM227.446 187.178V188.115H218.467V183.691H227.358V184.658H219.595V187.178H227.446ZM222.891 191.47C225.688 191.47 227.358 192.319 227.373 193.813C227.358 195.322 225.688 196.157 222.891 196.157C220.078 196.157 218.394 195.322 218.394 193.813C218.394 192.319 220.078 191.47 222.891 191.47ZM222.891 192.363C220.796 192.378 219.551 192.905 219.565 193.813C219.551 194.736 220.796 195.249 222.891 195.249C224.956 195.249 226.216 194.736 226.216 193.813C226.216 192.905 224.956 192.378 222.891 192.363ZM235.854 183.398C238.755 183.398 240.454 184.189 240.454 185.64C240.454 187.119 238.755 187.91 235.854 187.925C232.954 187.91 231.24 187.119 231.24 185.64C231.24 184.189 232.954 183.398 235.854 183.398ZM235.854 184.263C233.687 184.263 232.427 184.79 232.441 185.64C232.427 186.548 233.687 187.046 235.854 187.046C238.008 187.046 239.282 186.548 239.282 185.64C239.282 184.79 238.008 184.263 235.854 184.263ZM241.787 188.804V189.741H229.922V188.804H241.787ZM240.264 190.869V193.784H232.529V195.132H240.659V196.04H231.387V192.935H239.136V191.748H231.357V190.869H240.264ZM257.417 183.164V196.187H256.26V183.164H257.417ZM253.564 184.585C253.55 188.335 251.807 191.646 247.441 193.74L246.812 192.803C250.334 191.133 252.129 188.635 252.393 185.522H247.412V184.585H253.564ZM269.795 183.179V187.119H271.758V188.086H269.795V192.744H268.652V183.179H269.795ZM270.396 194.941V195.908H261.65V191.807H262.778V194.941H270.396ZM261.299 184.116V186.313H265.093V184.116H266.235V190.547H260.171V184.116H261.299ZM261.299 189.609H265.093V187.222H261.299V189.609ZM278.511 184.014C281.235 184.014 283.271 185.435 283.271 187.588C283.271 189.756 281.235 191.177 278.511 191.162C275.786 191.177 273.75 189.756 273.75 187.588C273.75 185.435 275.786 184.014 278.511 184.014ZM278.511 184.951C276.416 184.937 274.834 186.035 274.849 187.588C274.834 189.17 276.416 190.225 278.511 190.225C280.591 190.225 282.158 189.17 282.158 187.588C282.158 186.035 280.591 184.937 278.511 184.951ZM284.502 193.491V194.458H272.578V193.491H284.502ZM297.466 193.608V194.575H285.542V193.608H290.903V191.147H287.036V187.134H294.829V185.083H287.007V184.131H295.957V188.071H288.179V190.195H296.265V191.147H292.031V193.608H297.466ZM100.005 211.364V212.331H97.8955V219.187H96.7529V206.164H97.8955V211.364H100.005ZM89.502 207.453V214.909C91.4062 214.902 93.3472 214.755 95.4932 214.309L95.6396 215.29C93.3984 215.744 91.377 215.876 89.3994 215.876H88.3594V207.453H89.502ZM111.943 206.164V219.187H110.83V206.164H111.943ZM109.321 206.442V218.527H108.223V212.199H106.553C106.428 214.733 105.352 216.315 103.74 216.315C102.041 216.315 100.942 214.558 100.942 211.789C100.942 209.021 102.041 207.263 103.74 207.263C105.322 207.263 106.392 208.793 106.538 211.247H108.223V206.442H109.321ZM103.74 208.347C102.686 208.347 102.012 209.665 102.026 211.789C102.012 213.898 102.686 215.231 103.74 215.217C104.795 215.231 105.469 213.898 105.469 211.789C105.469 209.665 104.795 208.347 103.74 208.347ZM124.893 206.164V219.187H123.794V206.164H124.893ZM122.153 206.516V218.527H121.055V212.448H118.301C117.502 213.964 116.25 215.305 114.434 216.374L113.76 215.539C116.594 213.862 118.015 211.511 118.228 208.786H114.316V207.834H119.37C119.363 209.116 119.158 210.354 118.726 211.511H121.055V206.516H122.153ZM137.051 207.058V212.624H131.03V207.058H137.051ZM132.158 207.995V211.687H135.938V207.995H132.158ZM140.654 206.164V209.299H142.617V210.266H140.654V213.605H139.512V206.164H140.654ZM140.889 214.367V215.305H137.197C137.322 216.696 139.263 217.912 141.387 218.249L140.962 219.143C139.058 218.828 137.329 217.883 136.582 216.579C135.842 217.89 134.128 218.82 132.231 219.128L131.792 218.249C133.945 217.912 135.85 216.718 135.996 215.305H132.305V214.367H140.889ZM153.97 210.119V211.042H145.049V206.647H146.191V210.119H153.97ZM155.347 212.814V213.752H143.423V212.814H155.347ZM154.043 217.912V218.864H144.976V215.085H146.118V217.912H154.043ZM171.299 206.164V219.187H170.2V212.36H168.281V218.513H167.227V206.457H168.281V211.408H170.2V206.164H171.299ZM165.527 207.761V208.713H161.792V214.982C163.586 214.975 164.832 214.909 166.274 214.616L166.377 215.583C164.81 215.905 163.477 215.964 161.484 215.964H160.649V207.761H165.527ZM183.237 206.164V211.716H185.317V212.683H183.237V219.187H182.08V206.164H183.237ZM172.969 215.715C174.031 215.715 175.269 215.715 176.558 215.671V214.221C175.042 214.052 174.053 213.166 174.067 211.877C174.053 210.412 175.298 209.46 177.144 209.46C178.96 209.46 180.22 210.412 180.234 211.877C180.22 213.166 179.216 214.052 177.715 214.235V215.627C178.931 215.568 180.154 215.473 181.289 215.305L181.362 216.184C178.521 216.667 175.444 216.696 173.159 216.696L172.969 215.715ZM181.055 207.761V208.698H173.203V207.761H176.558V206.193H177.715V207.761H181.055ZM177.144 210.354C175.942 210.354 175.137 210.969 175.137 211.877C175.137 212.785 175.942 213.371 177.144 213.356C178.33 213.371 179.136 212.785 179.136 211.877C179.136 210.969 178.33 210.354 177.144 210.354ZM194.209 208.273C194.209 210.046 195.557 211.672 197.446 212.316L196.816 213.225C195.374 212.697 194.238 211.621 193.667 210.266C193.11 211.796 191.953 213.005 190.43 213.591L189.814 212.668C191.763 211.936 193.066 210.192 193.081 208.186V206.838H194.209V208.273ZM200.039 206.164V209.562H202.002V210.529H200.039V214.089H198.896V206.164H200.039ZM195.864 214.426C198.545 214.426 200.156 215.29 200.156 216.784C200.156 218.308 198.545 219.157 195.864 219.157C193.184 219.157 191.543 218.308 191.543 216.784C191.543 215.29 193.184 214.426 195.864 214.426ZM195.864 215.349C193.901 215.349 192.686 215.891 192.7 216.784C192.686 217.707 193.901 218.234 195.864 218.249C197.842 218.234 199.043 217.707 199.043 216.784C199.043 215.891 197.842 215.349 195.864 215.349ZM213.955 206.164V219.187H212.856V212.36H210.938V218.513H209.883V206.457H210.938V211.408H212.856V206.164H213.955ZM208.184 207.761V208.713H204.448V214.982C206.243 214.975 207.488 214.909 208.931 214.616L209.033 215.583C207.466 215.905 206.133 215.964 204.141 215.964H203.306V207.761H208.184ZM227.695 212.214V213.122H215.771V212.214H227.695ZM226.201 214.162V216.931H218.379V218.176H226.626V219.011H217.222V216.14H225.059V215.026H217.207V214.162H226.201ZM226.157 206.56V209.255H218.467V210.397H226.392V211.232H217.324V208.464H225V207.395H217.28V206.56H226.157ZM239.121 206.97V207.937H234.272V209.562H238.872V210.515H234.272V212.243C236.807 212.258 238.264 212.207 239.971 211.877L240.103 212.814C238.301 213.137 236.807 213.181 234.111 213.166H233.13V206.97H239.121ZM242.695 214.514V219.011H234.478V214.514H242.695ZM235.605 215.437V218.073H241.553V215.437H235.605ZM242.695 206.164V209.401H244.658V210.383H242.695V213.84H241.553V206.164H242.695ZM249.36 208.713C249.36 210.192 250.356 211.687 252.026 212.346L251.411 213.239C250.181 212.727 249.28 211.774 248.818 210.617C248.335 211.884 247.397 212.99 246.123 213.562L245.493 212.668C247.207 211.906 248.262 210.192 248.262 208.713V206.97H249.36V208.713ZM256.538 206.179V214.045H255.439V210.544H253.711V213.972H252.627V206.413H253.711V209.577H255.439V206.179H256.538ZM256.538 214.763V219.187H255.41V215.715H247.764V214.763H256.538ZM268.521 206.164V211.54H270.703V212.492H268.521V219.187H267.378V206.164H268.521ZM266.118 208.259V209.211H258.369V208.259H261.724V206.325H262.866V208.259H266.118ZM262.31 210.295C264.155 210.295 265.488 211.525 265.503 213.283C265.488 215.041 264.155 216.271 262.31 216.271C260.449 216.271 259.102 215.041 259.116 213.283C259.102 211.525 260.449 210.295 262.31 210.295ZM262.31 211.262C261.094 211.262 260.2 212.111 260.215 213.283C260.2 214.47 261.094 215.305 262.31 215.29C263.511 215.305 264.39 214.47 264.404 213.283C264.39 212.111 263.511 211.262 262.31 211.262ZM281.851 207.482V208.786C281.836 210.383 281.836 212.17 281.367 214.792L280.195 214.66C280.693 212.17 280.693 210.339 280.693 208.786V208.435H272.666V207.482H281.851ZM283.271 216.389V217.341H271.406V216.389H276.064V211.73H277.192V216.389H283.271ZM286.509 217.019L285.366 221.003H284.282L285.088 217.019H286.509ZM41.0303 231.273C41.0303 233.046 42.3779 234.672 44.2676 235.316L43.6377 236.225C42.1948 235.697 41.0596 234.621 40.4883 233.266C39.9316 234.796 38.7744 236.005 37.251 236.591L36.6357 235.668C38.584 234.936 39.8877 233.192 39.9023 231.186V229.838H41.0303V231.273ZM46.8604 229.164V232.562H48.8232V233.529H46.8604V237.089H45.7178V229.164H46.8604ZM42.6855 237.426C45.3662 237.426 46.9775 238.29 46.9775 239.784C46.9775 241.308 45.3662 242.157 42.6855 242.157C40.0049 242.157 38.3643 241.308 38.3643 239.784C38.3643 238.29 40.0049 237.426 42.6855 237.426ZM42.6855 238.349C40.7227 238.349 39.5068 238.891 39.5215 239.784C39.5068 240.707 40.7227 241.234 42.6855 241.249C44.6631 241.234 45.8643 240.707 45.8643 239.784C45.8643 238.891 44.6631 238.349 42.6855 238.349ZM60.7764 229.164V242.187H59.6777V235.36H57.7588V241.513H56.7041V229.457H57.7588V234.408H59.6777V229.164H60.7764ZM55.0049 230.761V231.713H51.2695V237.982C53.064 237.975 54.3091 237.909 55.752 237.616L55.8545 238.583C54.2871 238.905 52.9541 238.964 50.9619 238.964H50.127V230.761H55.0049ZM72.6855 229.164V234.467H74.7949V235.434H72.6855V242.187H71.543V229.164H72.6855ZM69.3164 230.57C69.3164 234.262 67.5879 237.616 63.3398 239.711L62.6953 238.803C66.0645 237.125 67.8955 234.621 68.1592 231.537H63.2959V230.57H69.3164ZM85.8691 230.38C85.8691 232.211 88.2715 233.808 90.6152 234.13L90.1465 235.067C88.125 234.73 86.1255 233.61 85.2832 232.006C84.4482 233.617 82.4414 234.73 80.4199 235.067L79.9512 234.13C82.2949 233.808 84.6826 232.24 84.6826 230.38V229.633H85.8691V230.38ZM91.2012 236.503V237.47H85.8105V242.187H84.6826V237.47H79.3359V236.503H91.2012ZM98.7598 229.955V233.544H94.0137V235.434C96.3281 235.434 98.0054 235.353 100.034 235.009L100.151 235.961C98.0566 236.312 96.3135 236.386 93.8965 236.386H92.8857V232.636H97.6318V230.893H92.8564V229.955H98.7598ZM102.48 229.179V232.519H104.458V233.485H102.48V237.089H101.338V229.179H102.48ZM102.48 237.777V242.187H101.338V238.715H93.9551V237.777H102.48ZM115.342 229.164V234.54H117.524V235.492H115.342V242.187H114.199V229.164H115.342ZM112.939 231.259V232.211H105.19V231.259H108.545V229.325H109.688V231.259H112.939ZM109.131 233.295C110.977 233.295 112.31 234.525 112.324 236.283C112.31 238.041 110.977 239.271 109.131 239.271C107.271 239.271 105.923 238.041 105.938 236.283C105.923 234.525 107.271 233.295 109.131 233.295ZM109.131 234.262C107.915 234.262 107.021 235.111 107.036 236.283C107.021 237.47 107.915 238.305 109.131 238.29C110.332 238.305 111.211 237.47 111.226 236.283C111.211 235.111 110.332 234.262 109.131 234.262ZM124.819 230.307V231.464H127.866V229.179H129.023V238.686H127.866V235.214H124.819V236.386H118.843V230.307H124.819ZM119.985 231.259V235.463H123.691V231.259H119.985ZM129.316 240.941V241.908H120.601V237.836H121.758V240.941H129.316ZM124.819 234.262H127.866V232.431H124.819V234.262ZM139.834 230.395V241H137.622V232.489H137.563L135.132 234.013V232.064L137.754 230.395H139.834ZM143.584 241.132C142.896 241.132 142.339 240.575 142.354 239.901C142.339 239.228 142.896 238.686 143.584 238.686C144.229 238.686 144.8 239.228 144.8 239.901C144.8 240.575 144.229 241.132 143.584 241.132ZM143.584 235.551C142.896 235.551 142.339 234.994 142.354 234.32C142.339 233.646 142.896 233.104 143.584 233.104C144.229 233.104 144.8 233.646 144.8 234.32C144.8 234.994 144.229 235.551 143.584 235.551ZM151.099 230.395V241H148.887V232.489H148.828L146.396 234.013V232.064L149.019 230.395H151.099ZM160.737 233.046C160.737 235.053 161.455 237.089 163.374 238.1L162.334 239.477C161.133 238.861 160.334 237.785 159.873 236.474C159.404 237.902 158.606 239.096 157.397 239.784L156.343 238.378C158.232 237.294 158.965 235.111 158.979 233.046V232.797H156.768V231.273H158.979V229.472H160.723V231.273H162.92V232.797H160.737V233.046ZM168.208 229.018V242.348H166.421V235.668H165.293V241.732H163.521V229.208H165.293V234.145H166.421V229.018H168.208ZM176.733 229.94V231.435H172.148V232.475H176.338V233.925H172.148V234.994C174.492 234.994 175.979 234.965 177.671 234.687L177.861 236.151C175.957 236.459 174.272 236.503 171.416 236.488H170.273V229.94H176.733ZM180.703 229.032V237.104H178.828V229.032H180.703ZM176.162 237.279C178.975 237.279 180.762 238.217 180.776 239.813C180.762 241.425 178.975 242.348 176.162 242.348C173.306 242.348 171.577 241.425 171.577 239.813C171.577 238.217 173.306 237.279 176.162 237.279ZM176.162 238.729C174.375 238.729 173.438 239.096 173.438 239.813C173.438 240.546 174.375 240.927 176.162 240.927C177.935 240.927 178.901 240.546 178.901 239.813C178.901 239.096 177.935 238.729 176.162 238.729ZM188.716 237.177C191.484 237.177 193.213 238.129 193.213 239.755C193.213 241.41 191.484 242.362 188.716 242.362C185.889 242.362 184.146 241.41 184.146 239.755C184.146 238.129 185.889 237.177 188.716 237.177ZM188.716 238.627C186.958 238.627 186.006 238.993 186.021 239.755C186.006 240.517 186.958 240.912 188.716 240.912C190.444 240.912 191.367 240.517 191.367 239.755C191.367 238.993 190.444 238.627 188.716 238.627ZM193.081 229.018V232.108H194.883V233.676H193.081V236.884H191.206V229.018H193.081ZM184.761 229.853V231.537H187.485V229.853H189.36V236.122H182.9V229.853H184.761ZM184.761 234.643H187.485V232.987H184.761V234.643ZM202.969 230.351V231.42C202.954 232.68 202.954 234.32 202.603 236.532L200.757 236.386C201.057 234.452 201.086 233.024 201.108 231.845H196.055V230.351H202.969ZM199.644 234.174V238.041C200.955 237.99 202.288 237.895 203.511 237.733L203.628 239.125C200.889 239.594 197.856 239.638 195.527 239.623L195.352 238.129C196.099 238.122 196.934 238.122 197.798 238.1V234.174H199.644ZM206.03 229.018V234.379H207.847V235.932H206.03V242.348H204.141V229.018H206.03ZM215.684 229.413C217.705 229.413 219.243 230.673 219.243 232.46C219.243 234.218 217.705 235.492 215.684 235.492C213.618 235.492 212.095 234.218 212.095 232.46C212.095 230.673 213.618 229.413 215.684 229.413ZM215.684 230.937C214.658 230.937 213.896 231.493 213.911 232.46C213.896 233.412 214.658 233.983 215.684 233.983C216.694 233.983 217.441 233.412 217.441 232.46C217.441 231.493 216.694 230.937 215.684 230.937ZM223.052 229.018V235.697H221.177V229.018H223.052ZM223.052 236.254V239.872H215.962V240.736H223.418V242.201H214.131V238.51H221.191V237.689H214.102V236.254H223.052ZM236.089 229.018V236.928H234.229V233.778H232.148V232.27H234.229V229.018H236.089ZM231.533 237.221C234.375 237.235 236.118 238.173 236.133 239.799C236.118 241.41 234.375 242.362 231.533 242.362C228.691 242.362 226.948 241.41 226.948 239.799C226.948 238.173 228.691 237.235 231.533 237.221ZM231.533 238.656C229.761 238.656 228.809 239.022 228.809 239.799C228.809 240.561 229.761 240.941 231.533 240.941C233.306 240.941 234.272 240.561 234.272 239.799C234.272 239.022 233.306 238.656 231.533 238.656ZM232.544 229.823V231.317H229.893C229.937 232.87 230.874 234.438 232.954 235.126L232.031 236.591C230.559 236.115 229.548 235.148 228.97 233.939C228.376 235.302 227.314 236.4 225.732 236.942L224.766 235.463C226.956 234.73 227.937 232.987 227.988 231.317H225.308V229.823H232.544ZM252.803 229.018V242.348H251.03V229.018H252.803ZM250.078 229.237V241.732H248.32V235.097H246.562V233.588H248.32V229.237H250.078ZM245.493 232.592C245.493 234.804 246.182 237.045 248.13 238.158L247.031 239.535C245.845 238.832 245.061 237.638 244.614 236.21C244.153 237.763 243.347 239.081 242.124 239.828L240.996 238.451C242.959 237.25 243.691 234.848 243.691 232.592V231.874H241.509V230.38H247.515V231.874H245.493V232.592ZM264.814 229.018V232.841H266.616V234.394H264.814V238.729H262.939V229.018H264.814ZM265.298 240.619V242.113H256.172V237.704H258.032V240.619H265.298ZM257.988 229.882C260.024 229.882 261.621 231.288 261.621 233.266C261.621 235.214 260.024 236.649 257.988 236.649C255.938 236.649 254.326 235.214 254.326 233.266C254.326 231.288 255.938 229.882 257.988 229.882ZM257.988 231.508C256.978 231.493 256.157 232.152 256.172 233.266C256.157 234.35 256.978 235.023 257.988 235.023C259.014 235.023 259.79 234.35 259.805 233.266C259.79 232.152 259.014 231.493 257.988 231.508ZM281.865 229.018V242.348H279.976V229.018H281.865ZM277.866 230.409C277.866 234.452 276.445 237.807 271.685 240.062L270.703 238.568C274.146 236.942 275.662 234.833 275.962 231.874H271.421V230.409H277.866ZM294.434 232.357V233.852H285.161V229.223H287.021V232.357H294.434ZM295.811 234.994V236.518H283.623V234.994H295.811ZM289.688 237.353C292.573 237.367 294.316 238.261 294.331 239.828C294.316 241.41 292.573 242.304 289.688 242.304C286.772 242.304 285.015 241.41 285.015 239.828C285.015 238.261 286.772 237.367 289.688 237.353ZM289.688 238.803C287.842 238.817 286.904 239.125 286.919 239.828C286.904 240.517 287.842 240.883 289.688 240.883C291.489 240.883 292.441 240.517 292.456 239.828C292.441 239.125 291.489 238.817 289.688 238.803ZM302.651 229.398C305.552 229.398 307.251 230.189 307.251 231.64C307.251 233.119 305.552 233.91 302.651 233.925C299.751 233.91 298.037 233.119 298.037 231.64C298.037 230.189 299.751 229.398 302.651 229.398ZM302.651 230.263C300.483 230.263 299.224 230.79 299.238 231.64C299.224 232.548 300.483 233.046 302.651 233.046C304.805 233.046 306.079 232.548 306.079 231.64C306.079 230.79 304.805 230.263 302.651 230.263ZM308.584 234.804V235.741H296.719V234.804H308.584ZM307.061 236.869V239.784H299.326V241.132H307.456V242.04H298.184V238.935H305.933V237.748H298.154V236.869H307.061ZM325.312 236.078V237.016H313.433V236.078H318.794V234.789H315.015V229.545H323.833V230.482H316.172V231.698H323.481V232.577H316.172V233.866H323.906V234.789H319.937V236.078H325.312ZM319.38 237.997C322.236 237.982 323.848 238.715 323.862 240.077C323.848 241.439 322.236 242.157 319.38 242.157C316.494 242.157 314.883 241.439 314.883 240.077C314.883 238.715 316.494 237.982 319.38 237.997ZM319.38 238.861C317.227 238.861 316.025 239.301 316.04 240.077C316.025 240.868 317.227 241.278 319.38 241.264C321.504 241.278 322.705 240.868 322.705 240.077C322.705 239.301 321.504 238.861 319.38 238.861ZM332.915 231.42V232.357H326.382V231.42H329.092V229.56H330.234V231.42H332.915ZM329.648 233.236C331.289 233.236 332.461 234.467 332.476 236.195C332.461 237.938 331.289 239.184 329.648 239.184C328.022 239.184 326.851 237.938 326.851 236.195C326.851 234.467 328.022 233.236 329.648 233.236ZM329.648 234.203C328.623 234.218 327.876 235.053 327.876 236.195C327.876 237.353 328.623 238.188 329.648 238.173C330.688 238.188 331.45 237.353 331.45 236.195C331.45 235.053 330.688 234.218 329.648 234.203ZM337.5 229.164V242.187H336.401V235.609H334.673V241.542H333.589V229.486H334.673V234.657H336.401V229.164H337.5ZM86.4551 253.058C86.4404 256.354 83.9941 258.595 80.2002 259.547L79.7168 258.609C82.9907 257.833 84.9902 256.163 85.2246 254.01H80.3906V253.058H86.4551ZM90.2197 252.179V259.312H89.0625V252.179H90.2197ZM90.4541 260.045V260.968H88.623V264.044H90.6006V264.981H81.5625V264.044H83.4961V260.968H81.6797V260.045H90.4541ZM84.6387 264.044H87.4951V260.968H84.6387V264.044ZM103.184 252.164V265.216H102.026V252.164H103.184ZM96.2549 253.175C98.1885 253.189 99.5801 254.947 99.5801 257.716C99.5801 260.484 98.1885 262.242 96.2549 262.242C94.3066 262.242 92.9297 260.484 92.9297 257.716C92.9297 254.947 94.3066 253.189 96.2549 253.175ZM96.2549 254.2C94.9512 254.215 94.043 255.592 94.043 257.716C94.043 259.84 94.9512 261.217 96.2549 261.217C97.5586 261.217 98.4668 259.84 98.4668 257.716C98.4668 255.592 97.5586 254.215 96.2549 254.2ZM113.584 260.909C113.584 262.059 114.199 263.282 115.444 263.985C116.675 263.216 117.334 261.92 117.334 260.909V260.191H118.462V260.909C118.462 262.242 119.443 263.59 121.113 264.161L120.542 265.011C119.238 264.549 118.323 263.641 117.876 262.55C117.473 263.604 116.675 264.601 115.474 265.113C114.207 264.63 113.401 263.67 113.013 262.579C112.551 263.634 111.65 264.542 110.405 265.011L109.819 264.161C111.46 263.546 112.456 262.154 112.471 260.909V260.191H113.584V260.909ZM119.927 252.179V259.62H118.784V252.179H119.927ZM112.896 252.94C114.873 252.94 116.309 254.171 116.309 255.987C116.309 257.774 114.873 259.005 112.896 259.005C110.918 259.005 109.482 257.774 109.482 255.987C109.482 254.171 110.918 252.94 112.896 252.94ZM112.896 253.922C111.562 253.907 110.596 254.771 110.61 255.987C110.596 257.188 111.562 258.038 112.896 258.053C114.214 258.038 115.181 257.188 115.181 255.987C115.181 254.771 114.214 253.907 112.896 253.922ZM132.671 256.119V257.042H123.75V252.647H124.893V256.119H132.671ZM134.048 258.814V259.752H122.124V258.814H134.048ZM132.744 263.912V264.864H123.677V261.085H124.819V263.912H132.744ZM150 252.164V265.187H148.901V258.36H146.982V264.513H145.928V252.457H146.982V257.408H148.901V252.164H150ZM144.229 253.761V254.713H140.493V260.982C142.288 260.975 143.533 260.909 144.976 260.616L145.078 261.583C143.511 261.905 142.178 261.964 140.186 261.964H139.351V253.761H144.229ZM161.938 252.164V257.716H164.019V258.683H161.938V265.187H160.781V252.164H161.938ZM151.67 261.715C152.732 261.715 153.97 261.715 155.259 261.671V260.221C153.743 260.052 152.754 259.166 152.769 257.877C152.754 256.412 153.999 255.46 155.845 255.46C157.661 255.46 158.921 256.412 158.936 257.877C158.921 259.166 157.917 260.052 156.416 260.235V261.627C157.632 261.568 158.855 261.473 159.99 261.305L160.063 262.184C157.222 262.667 154.146 262.696 151.86 262.696L151.67 261.715ZM159.756 253.761V254.698H151.904V253.761H155.259V252.193H156.416V253.761H159.756ZM155.845 256.354C154.644 256.354 153.838 256.969 153.838 257.877C153.838 258.785 154.644 259.371 155.845 259.356C157.031 259.371 157.837 258.785 157.837 257.877C157.837 256.969 157.031 256.354 155.845 256.354ZM176.704 258.214V259.122H164.78V258.214H176.704ZM175.21 260.162V262.931H167.388V264.176H175.635V265.011H166.23V262.14H174.067V261.026H166.216V260.162H175.21ZM175.166 252.56V255.255H167.476V256.397H175.4V257.232H166.333V254.464H174.009V253.395H166.289V252.56H175.166ZM188.101 253.351V259.342H182.08V253.351H188.101ZM183.208 254.288V258.419H186.987V254.288H183.208ZM191.704 252.164V256.134H193.667V257.101H191.704V261.715H190.562V252.164H191.704ZM192.305 263.941V264.908H183.56V260.807H184.688V263.941H192.305ZM206.367 257.643V258.565H194.487V257.643H206.367ZM204.946 255.636V256.573H196.069V252.618H204.814V253.541H197.227V255.636H204.946ZM204.829 259.737V262.755H197.095V264.103H205.225V265.04H195.952V261.891H203.701V260.631H195.923V259.737H204.829ZM210.952 253.175C212.725 253.189 213.999 254.706 214.189 257.145H217.104V252.164H218.247V265.216H217.104V258.097H214.204C214.065 260.646 212.769 262.242 210.952 262.242C209.033 262.242 207.686 260.484 207.686 257.716C207.686 254.947 209.033 253.189 210.952 253.175ZM210.952 254.2C209.663 254.215 208.784 255.592 208.784 257.716C208.784 259.84 209.663 261.217 210.952 261.217C212.227 261.217 213.12 259.84 213.12 257.716C213.12 255.592 212.227 254.215 210.952 254.2ZM230.596 252.164V255.108H232.559V256.075H230.596V258.8H229.453V252.164H230.596ZM227.051 252.809C227.051 256.09 224.678 258.229 220.884 259.137L220.43 258.17C223.674 257.438 225.593 255.819 225.791 253.761H221.016V252.809H227.051ZM230.596 259.386V262.608H223.447V264.117H231.079V265.069H222.319V261.715H229.453V260.323H222.29V259.386H230.596ZM243.677 253.38C243.677 255.211 246.079 256.808 248.423 257.13L247.954 258.067C245.933 257.73 243.933 256.61 243.091 255.006C242.256 256.617 240.249 257.73 238.228 258.067L237.759 257.13C240.103 256.808 242.49 255.24 242.49 253.38V252.633H243.677V253.38ZM249.009 259.503V260.47H243.618V265.187H242.49V260.47H237.144V259.503H249.009ZM258.281 260.909C258.281 262.059 258.896 263.282 260.142 263.985C261.372 263.216 262.031 261.92 262.031 260.909V260.191H263.159V260.909C263.159 262.242 264.141 263.59 265.811 264.161L265.239 265.011C263.936 264.549 263.02 263.641 262.573 262.55C262.17 263.604 261.372 264.601 260.171 265.113C258.904 264.63 258.098 263.67 257.71 262.579C257.249 263.634 256.348 264.542 255.103 265.011L254.517 264.161C256.157 263.546 257.153 262.154 257.168 260.909V260.191H258.281V260.909ZM264.624 252.179V259.62H263.481V252.179H264.624ZM257.593 252.94C259.57 252.94 261.006 254.171 261.006 255.987C261.006 257.774 259.57 259.005 257.593 259.005C255.615 259.005 254.18 257.774 254.18 255.987C254.18 254.171 255.615 252.94 257.593 252.94ZM257.593 253.922C256.26 253.907 255.293 254.771 255.308 255.987C255.293 257.188 256.26 258.038 257.593 258.053C258.911 258.038 259.878 257.188 259.878 255.987C259.878 254.771 258.911 253.907 257.593 253.922ZM270.337 253.175C272.109 253.189 273.384 254.706 273.574 257.145H276.489V252.164H277.632V265.216H276.489V258.097H273.589C273.45 260.646 272.153 262.242 270.337 262.242C268.418 262.242 267.07 260.484 267.07 257.716C267.07 254.947 268.418 253.189 270.337 253.175ZM270.337 254.2C269.048 254.215 268.169 255.592 268.169 257.716C268.169 259.84 269.048 261.217 270.337 261.217C271.611 261.217 272.505 259.84 272.505 257.716C272.505 255.592 271.611 254.215 270.337 254.2ZM291.724 262.55V263.517H279.8V262.55H282.759V259.034C281.646 258.456 280.972 257.518 280.972 256.339C280.972 254.317 282.949 252.999 285.732 252.984C288.516 252.999 290.493 254.317 290.493 256.339C290.493 257.496 289.841 258.426 288.765 259.005V262.55H291.724ZM285.732 253.937C283.594 253.922 282.085 254.889 282.085 256.339C282.085 257.789 283.594 258.771 285.732 258.771C287.856 258.771 289.38 257.789 289.38 256.339C289.38 254.889 287.856 253.922 285.732 253.937ZM283.887 262.55H287.607V259.444C287.043 259.598 286.414 259.679 285.732 259.679C285.066 259.679 284.443 259.605 283.887 259.459V262.55ZM294.141 264.088C293.628 264.088 293.188 263.663 293.203 263.136C293.188 262.623 293.628 262.198 294.141 262.198C294.653 262.198 295.078 262.623 295.078 263.136C295.078 263.663 294.653 264.088 294.141 264.088ZM145.254 275.164V279.046H147.231V280.013H145.254V284.598H144.111V275.164H145.254ZM141.489 276.292V277.259H136.831V281.316C139.446 281.316 140.933 281.25 142.676 280.892L142.822 281.844C140.991 282.195 139.438 282.283 136.699 282.283H135.688V276.292H141.489ZM145.854 286.941V287.908H137.109V283.646H138.237V286.941H145.854ZM161.982 275.179V279.471H163.945V280.438H161.982V284.935H160.84V275.179H161.982ZM159.595 276.775V277.713H151.831V276.775H155.142V275.179H156.284V276.775H159.595ZM155.713 278.431C157.573 278.431 158.833 279.383 158.848 280.862C158.833 282.327 157.573 283.265 155.713 283.265C153.838 283.265 152.563 282.327 152.578 280.862C152.563 279.383 153.838 278.431 155.713 278.431ZM155.713 279.339C154.482 279.339 153.662 279.939 153.677 280.862C153.662 281.785 154.482 282.371 155.713 282.356C156.929 282.371 157.749 281.785 157.764 280.862C157.749 279.939 156.929 279.339 155.713 279.339ZM162.583 286.941V287.908H153.838V284.158H154.966V286.941H162.583ZM179.326 275.179V284.817H178.169V279.808H175.093V282.591H169.189V276.043H170.332V278.357H173.965V276.043H175.093V278.841H178.169V275.179H179.326ZM179.619 286.941V287.908H170.903V283.865H172.061V286.941H179.619ZM170.332 281.639H173.965V279.266H170.332V281.639ZM185.757 276.116C187.808 276.116 189.258 277.361 189.258 279.178C189.258 280.994 187.808 282.239 185.757 282.239C183.706 282.239 182.227 280.994 182.241 279.178C182.227 277.361 183.706 276.116 185.757 276.116ZM185.757 277.127C184.365 277.127 183.354 277.962 183.369 279.178C183.354 280.394 184.365 281.229 185.757 281.229C187.134 281.229 188.13 280.394 188.13 279.178C188.13 277.962 187.134 277.127 185.757 277.127ZM192.173 275.164V288.216H191.03V275.164H192.173ZM181.567 284.363C183.97 284.363 187.28 284.349 190.166 283.924L190.254 284.773C187.28 285.33 184.072 285.345 181.729 285.345L181.567 284.363ZM204.8 276.351V282.342H198.779V276.351H204.8ZM199.907 277.288V281.419H203.687V277.288H199.907ZM208.403 275.164V279.134H210.366V280.101H208.403V284.715H207.261V275.164H208.403ZM209.004 286.941V287.908H200.259V283.807H201.387V286.941H209.004ZM221.367 275.179V278.167H223.345V279.134H221.367V282.532H220.225V275.179H221.367ZM221.367 283.25V288.011H213.12V283.25H221.367ZM214.248 284.158V287.073H220.254V284.158H214.248ZM212.974 275.838V280.569C214.827 280.562 216.738 280.416 218.848 279.983L218.994 280.95C216.782 281.39 214.819 281.536 212.856 281.536H211.816V275.838H212.974ZM234.888 275.164V288.216H233.73V275.164H234.888ZM227.959 276.175C229.893 276.189 231.284 277.947 231.284 280.716C231.284 283.484 229.893 285.242 227.959 285.242C226.011 285.242 224.634 283.484 224.634 280.716C224.634 277.947 226.011 276.189 227.959 276.175ZM227.959 277.2C226.655 277.215 225.747 278.592 225.747 280.716C225.747 282.84 226.655 284.217 227.959 284.217C229.263 284.217 230.171 282.84 230.171 280.716C230.171 278.592 229.263 277.215 227.959 277.2ZM239.253 286.019L238.11 290.003H237.026L237.832 286.019H239.253ZM69.2725 298.164V311.187H68.1445V304.448H66.2695V310.513H65.1855V298.457H66.2695V303.467H68.1445V298.164H69.2725ZM59.9561 299.761V306.792C61.2524 306.777 62.6294 306.689 64.2188 306.367L64.3652 307.393C62.5488 307.715 61.0547 307.817 59.6191 307.817H58.8135V299.761H59.9561ZM80.8887 306.353C83.5693 306.353 85.1807 307.231 85.1807 308.755C85.1807 310.293 83.5693 311.172 80.8887 311.187C78.208 311.172 76.5674 310.293 76.5674 308.755C76.5674 307.231 78.208 306.353 80.8887 306.353ZM80.8887 307.261C78.9258 307.275 77.71 307.817 77.7246 308.755C77.71 309.692 78.9258 310.249 80.8887 310.249C82.8662 310.249 84.0674 309.692 84.0674 308.755C84.0674 307.817 82.8662 307.275 80.8887 307.261ZM85.0635 298.164V301.445H87.0264V302.427H85.0635V306.001H83.9209V298.164H85.0635ZM76.5674 298.984V300.977H80.3613V298.984H81.5039V304.99H75.4395V298.984H76.5674ZM76.5674 304.053H80.3613V301.885H76.5674V304.053ZM99.9609 300.449V301.401H98.0273V303.203H99.9609V304.17H98.0273V306.572H96.8848V298.164H98.0273V300.449H99.9609ZM93.9111 306.66C96.5625 306.66 98.1738 307.495 98.1738 308.916C98.1738 310.337 96.5625 311.157 93.9111 311.157C91.2598 311.157 89.6338 310.337 89.6484 308.916C89.6338 307.495 91.2598 306.66 93.9111 306.66ZM93.9111 307.568C91.9629 307.568 90.7764 308.052 90.791 308.916C90.7764 309.766 91.9629 310.264 93.9111 310.264C95.8594 310.264 97.0312 309.766 97.0312 308.916C97.0312 308.052 95.8594 307.568 93.9111 307.568ZM95.6396 299.658V300.566H87.876V299.658H91.1865V298.062H92.3291V299.658H95.6396ZM91.7578 301.24C93.6328 301.24 94.8779 302.148 94.8926 303.54C94.8779 304.946 93.6328 305.84 91.7578 305.84C89.8682 305.84 88.6084 304.946 88.623 303.54C88.6084 302.148 89.8682 301.24 91.7578 301.24ZM91.7578 302.104C90.5273 302.119 89.707 302.69 89.7217 303.54C89.707 304.39 90.5273 304.946 91.7578 304.946C92.9736 304.946 93.7939 304.39 93.8086 303.54C93.7939 302.69 92.9736 302.119 91.7578 302.104ZM106.743 298.398C109.644 298.398 111.343 299.189 111.343 300.64C111.343 302.119 109.644 302.91 106.743 302.925C103.843 302.91 102.129 302.119 102.129 300.64C102.129 299.189 103.843 298.398 106.743 298.398ZM106.743 299.263C104.575 299.263 103.315 299.79 103.33 300.64C103.315 301.548 104.575 302.046 106.743 302.046C108.896 302.046 110.171 301.548 110.171 300.64C110.171 299.79 108.896 299.263 106.743 299.263ZM112.676 303.804V304.741H100.811V303.804H112.676ZM111.152 305.869V308.784H103.418V310.132H111.548V311.04H102.275V307.935H110.024V306.748H102.246V305.869H111.152ZM127.617 298.164V303.291H129.8V304.287H127.617V311.187H126.475V298.164H127.617ZM119.224 299.277V302.72H123.032V299.277H124.175V308.066H118.081V299.277H119.224ZM119.224 307.1H123.032V303.643H119.224V307.1ZM142.368 304.492V305.459H136.992V311.201H135.85V305.459H130.503V304.492H133.931C134.458 302.493 134.553 300.984 134.59 300.024H131.455V299.087H135.703V299.482C135.703 300.31 135.703 302.024 135.103 304.492H139.38C139.834 302.463 139.885 300.991 139.893 300.024H136.67V299.087H141.035V299.658C141.035 300.552 141.035 302.163 140.552 304.492H142.368ZM153.999 302.119V303.042H145.078V298.647H146.221V302.119H153.999ZM155.376 304.814V305.752H143.452V304.814H155.376ZM154.072 309.912V310.864H145.005V307.085H146.147V309.912H154.072ZM170.947 298.179V307.7H169.805V298.179H170.947ZM171.357 309.941V310.908H162.539V306.733H163.682V309.941H171.357ZM163.916 299.087C165.864 299.087 167.329 300.405 167.329 302.28C167.329 304.185 165.864 305.488 163.916 305.488C161.968 305.488 160.503 304.185 160.503 302.28C160.503 300.405 161.968 299.087 163.916 299.087ZM163.916 300.098C162.598 300.098 161.616 301.006 161.631 302.28C161.616 303.584 162.598 304.478 163.916 304.478C165.205 304.478 166.201 303.584 166.201 302.28C166.201 301.006 165.205 300.098 163.916 300.098ZM177.524 301.665C177.524 303.965 179.048 306.323 180.894 307.231L180.19 308.154C178.755 307.4 177.554 305.862 176.982 304.053C176.396 305.979 175.166 307.62 173.701 308.403L172.969 307.48C174.873 306.543 176.382 304.038 176.396 301.665V299.292H177.524V301.665ZM183.237 298.164V303.452H185.42V304.448H183.237V311.187H182.095V298.164H183.237ZM196.86 298.164V311.216H195.703V298.164H196.86ZM189.932 299.175C191.865 299.189 193.257 300.947 193.257 303.716C193.257 306.484 191.865 308.242 189.932 308.242C187.983 308.242 186.606 306.484 186.606 303.716C186.606 300.947 187.983 299.189 189.932 299.175ZM189.932 300.2C188.628 300.215 187.72 301.592 187.72 303.716C187.72 305.84 188.628 307.217 189.932 307.217C191.235 307.217 192.144 305.84 192.144 303.716C192.144 301.592 191.235 300.215 189.932 300.2ZM209.634 305.21V306.147H200.625V299.292H209.487V300.259H201.797V302.192H209.209V303.115H201.797V305.21H209.634ZM211.011 308.535V309.487H199.087V308.535H211.011ZM222.129 298.164V303.467H224.238V304.434H222.129V311.187H220.986V298.164H222.129ZM218.76 299.57C218.76 303.262 217.031 306.616 212.783 308.711L212.139 307.803C215.508 306.125 217.339 303.621 217.603 300.537H212.739V299.57H218.76ZM236.353 301.606V302.515H233.73V303.833C234.961 303.782 236.199 303.694 237.349 303.555L237.407 304.36C234.624 304.785 231.489 304.873 229.014 304.873L228.853 303.95C230.002 303.943 231.27 303.928 232.573 303.877V302.515H230.054V298.735H236.206V299.629H231.24V301.606H236.353ZM239.531 298.179V305.195H238.389V298.179H239.531ZM239.531 305.781V308.799H232.061V310.103H240V311.04H230.918V307.92H238.403V306.704H230.889V305.781H239.531ZM252.041 299.38C252.041 301.211 254.443 302.808 256.787 303.13L256.318 304.067C254.297 303.73 252.297 302.61 251.455 301.006C250.62 302.617 248.613 303.73 246.592 304.067L246.123 303.13C248.467 302.808 250.854 301.24 250.854 299.38V298.633H252.041V299.38ZM257.373 305.503V306.47H251.982V311.187H250.854V306.47H245.508V305.503H257.373ZM266.646 306.909C266.646 308.059 267.261 309.282 268.506 309.985C269.736 309.216 270.396 307.92 270.396 306.909V306.191H271.523V306.909C271.523 308.242 272.505 309.59 274.175 310.161L273.604 311.011C272.3 310.549 271.384 309.641 270.938 308.55C270.535 309.604 269.736 310.601 268.535 311.113C267.268 310.63 266.462 309.67 266.074 308.579C265.613 309.634 264.712 310.542 263.467 311.011L262.881 310.161C264.521 309.546 265.518 308.154 265.532 306.909V306.191H266.646V306.909ZM272.988 298.179V305.62H271.846V298.179H272.988ZM265.957 298.94C267.935 298.94 269.37 300.171 269.37 301.987C269.37 303.774 267.935 305.005 265.957 305.005C263.979 305.005 262.544 303.774 262.544 301.987C262.544 300.171 263.979 298.94 265.957 298.94ZM265.957 299.922C264.624 299.907 263.657 300.771 263.672 301.987C263.657 303.188 264.624 304.038 265.957 304.053C267.275 304.038 268.242 303.188 268.242 301.987C268.242 300.771 267.275 299.907 265.957 299.922ZM277.852 305.986V307.51H284.355V305.986H285.513V311.011H276.709V305.986H277.852ZM277.852 310.088H284.355V308.418H277.852V310.088ZM287.065 304.111V305.063H275.2V304.111H287.065ZM281.733 298.926C281.733 300.537 284.106 301.973 286.392 302.266L285.967 303.188C283.945 302.888 281.968 301.855 281.147 300.391C280.312 301.863 278.32 302.888 276.313 303.188L275.874 302.266C278.188 301.958 280.547 300.581 280.547 298.926V298.311H281.733V298.926ZM298.901 298.164V311.187H297.759V298.164H298.901ZM290.142 299.453V306.836C292.126 306.829 294.185 306.667 296.367 306.206L296.528 307.188C294.214 307.671 292.148 307.832 290.068 307.832H289.014V299.453H290.142ZM311.206 298.164V303.32H313.389V304.287H311.206V311.216H310.063V298.164H311.206ZM307.778 299.438V300.391H302.842V306.982C305.2 306.982 306.87 306.873 308.804 306.514L308.95 307.51C306.914 307.876 305.2 307.949 302.725 307.949H301.699V299.438H307.778ZM315.469 310.088C314.956 310.088 314.517 309.663 314.531 309.136C314.517 308.623 314.956 308.198 315.469 308.198C315.981 308.198 316.406 308.623 316.406 309.136C316.406 309.663 315.981 310.088 315.469 310.088Z" fill="#353A40"/>
</svg>
