<svg width="180" height="180" viewBox="0 0 180 180" fill="none" xmlns="http://www.w3.org/2000/svg">
<path d="M0 16C0 7.16344 7.16344 0 16 0H164C172.837 0 180 7.16344 180 16V164C180 172.837 172.837 180 164 180H16C7.16344 180 0 172.837 0 164V16Z" fill="url(#paint0_linear_409_1851)"/>
<g clip-path="url(#clip0_409_1851)">
<path d="M101.761 74.2743C110.482 65.5537 110.482 51.4147 101.761 42.6941C93.0405 33.9734 78.9015 33.9735 70.1808 42.6941C61.4601 51.4148 61.4601 65.5538 70.1807 74.2744C78.9014 82.9951 93.0403 82.995 101.761 74.2743Z" fill="#1643CB"/>
<path d="M107.508 52.539H102.04C102.726 54.3913 103.102 56.3944 103.102 58.4852C103.102 67.943 95.4346 75.61 85.9769 75.61C83.7948 75.61 81.7084 75.201 79.7891 74.4568V79.9478C81.7543 80.5135 83.8296 80.8192 85.9769 80.8192C98.3117 80.8192 108.311 70.8199 108.311 58.4851C108.311 56.4258 108.03 54.4324 107.508 52.539Z" fill="#1643CB"/>
<path d="M98.0774 70.5925C104.764 63.9059 104.764 53.0647 98.0774 46.3781C91.3908 39.6915 80.5497 39.6915 73.863 46.3781C67.1764 53.0647 67.1764 63.9059 73.863 70.5925C80.5497 77.2791 91.3908 77.2791 98.0774 70.5925Z" fill="#D6E0FF"/>
<path d="M116.982 52.5393H94.8873C93.2204 52.5393 91.8691 51.188 91.8691 49.5211V27.4263C91.8691 25.7594 93.2204 24.4082 94.8873 24.4082H116.982C118.649 24.4082 120 25.7594 120 27.4263V49.5211C120 51.188 118.649 52.5393 116.982 52.5393Z" fill="#6E8BE1"/>
<path d="M79.7896 63.9232V60.6177C79.7896 58.9509 78.4383 57.5996 76.7714 57.5996H63.0182C61.3513 57.5996 60 58.9509 60 60.6177V63.9232H79.7896Z" fill="#103198"/>
<path d="M60 63.8027V80.5742C60 82.2411 61.3513 83.5924 63.0182 83.5924H76.7715C78.4384 83.5924 79.7897 82.2411 79.7897 80.5742V63.8027H60Z" fill="#91A8EF"/>
<path d="M91.7356 62.6891C91.5866 62.6891 91.4354 62.6511 91.297 62.5712L85.5371 59.2458C85.2652 59.0887 85.0977 58.7987 85.0977 58.4846V50.0664C85.0977 49.581 85.4911 49.1875 85.9766 49.1875C86.4621 49.1875 86.8555 49.581 86.8555 50.0664V57.9771L92.1759 61.0488C92.5963 61.2915 92.7403 61.8291 92.4976 62.2494C92.3349 62.5315 92.0394 62.6891 91.7356 62.6891Z" fill="#6E8BE1"/>
<path d="M85.9766 46.5008C85.4911 46.5008 85.0977 46.1073 85.0977 45.6219V45.1931C85.0977 44.7077 85.4911 44.3142 85.9766 44.3142C86.4621 44.3142 86.8555 44.7077 86.8555 45.1931V45.6219C86.8555 46.1073 86.462 46.5008 85.9766 46.5008Z" fill="#91A8EF"/>
<path d="M85.9766 72.6559C85.4911 72.6559 85.0977 72.2623 85.0977 71.777V71.3482C85.0977 70.8628 85.4911 70.4693 85.9766 70.4693C86.4621 70.4693 86.8555 70.8628 86.8555 71.3482V71.777C86.8555 72.2623 86.462 72.6559 85.9766 72.6559Z" fill="#91A8EF"/>
<path d="M99.2686 59.3639H98.8398C98.3543 59.3639 97.9609 58.9703 97.9609 58.485C97.9609 57.9996 98.3543 57.606 98.8398 57.606H99.2686C99.7541 57.606 100.148 57.9996 100.148 58.485C100.148 58.9703 99.754 59.3639 99.2686 59.3639Z" fill="#91A8EF"/>
<path d="M79.5454 48.2238C79.2416 48.2238 78.9462 48.0661 78.7834 47.7841L78.5691 47.4129C78.3264 46.9925 78.4704 46.455 78.8907 46.2123C79.3112 45.9697 79.8488 46.1136 80.0913 46.5341L80.3057 46.9053C80.5484 47.3257 80.4043 47.8632 79.984 48.1059C79.8455 48.1858 79.6944 48.2238 79.5454 48.2238Z" fill="#91A8EF"/>
<path d="M92.6236 70.8752C92.3198 70.8752 92.0245 70.7176 91.8618 70.4357L91.6473 70.0645C91.4045 69.6443 91.5484 69.1066 91.9687 68.8638C92.3889 68.621 92.9268 68.765 93.1693 69.1854L93.3838 69.5566C93.6266 69.9768 93.4827 70.5145 93.0623 70.7573C92.9239 70.8372 92.7727 70.8752 92.6236 70.8752Z" fill="#91A8EF"/>
<path d="M74.8354 52.9323C74.6864 52.9323 74.5352 52.8942 74.3967 52.8143L74.0254 52.5999C73.6051 52.3572 73.4612 51.8195 73.7039 51.3991C73.9466 50.9789 74.4839 50.8349 74.9046 51.0776L75.2758 51.292C75.6962 51.5347 75.8401 52.0724 75.5974 52.4927C75.4346 52.7746 75.1392 52.9323 74.8354 52.9323Z" fill="#91A8EF"/>
<path d="M97.4859 66.0094C97.3368 66.0094 97.1857 65.9714 97.0473 65.8915L96.6759 65.677C96.2556 65.4344 96.1115 64.8968 96.3542 64.4765C96.5968 64.0561 97.1342 63.912 97.5548 64.1548L97.9262 64.3692C98.3465 64.6119 98.4906 65.1495 98.2479 65.5698C98.0851 65.8518 97.7895 66.0094 97.4859 66.0094Z" fill="#91A8EF"/>
<path d="M98.8035 33.7133C98.5785 33.7133 98.3536 33.6275 98.1819 33.4558L96.3024 31.5763C95.9591 31.233 95.9591 30.6765 96.3024 30.3334C96.6457 29.9901 97.2021 29.9901 97.5454 30.3334L98.8034 31.5915L101.099 29.2965C101.442 28.9531 101.998 28.9533 102.341 29.2965C102.685 29.6397 102.685 30.1963 102.341 30.5394L99.4247 33.4559C99.2534 33.6274 99.0284 33.7133 98.8035 33.7133Z" fill="#3D63D8"/>
<path d="M114.941 32.4814H105.09C104.604 32.4814 104.211 32.0879 104.211 31.6025C104.211 31.1171 104.604 30.7236 105.09 30.7236H114.941C115.427 30.7236 115.82 31.1171 115.82 31.6025C115.82 32.0879 115.427 32.4814 114.941 32.4814Z" fill="#3D63D8"/>
<path d="M98.8035 40.8139C98.5785 40.8139 98.3536 40.7281 98.1819 40.5565L96.3024 38.6769C95.9591 38.3336 95.9591 37.7771 96.3024 37.434C96.6457 37.0908 97.2021 37.0908 97.5454 37.434L98.8034 38.6921L101.098 36.397C101.442 36.0538 101.998 36.0538 102.341 36.397C102.685 36.7402 102.685 37.2968 102.341 37.6399L99.4248 40.5565C99.2534 40.7281 99.0284 40.8139 98.8035 40.8139Z" fill="#3D63D8"/>
<path d="M114.941 39.5829H105.09C104.604 39.5829 104.211 39.1894 104.211 38.704C104.211 38.2186 104.604 37.8251 105.09 37.8251H114.941C115.427 37.8251 115.82 38.2186 115.82 38.704C115.82 39.1894 115.427 39.5829 114.941 39.5829Z" fill="#3D63D8"/>
<path d="M98.8035 48.0239C98.5785 48.0239 98.3536 47.9381 98.1819 47.7664L96.3024 45.8869C95.9591 45.5436 95.9591 44.9871 96.3024 44.644C96.6457 44.3007 97.2021 44.3007 97.5454 44.644L98.8034 45.9021L101.098 43.607C101.442 43.2638 101.998 43.2638 102.341 43.607C102.685 43.9502 102.685 44.5068 102.341 44.8499L99.4248 47.7664C99.2534 47.938 99.0284 48.0239 98.8035 48.0239Z" fill="#3D63D8"/>
<path d="M114.941 46.7919H105.09C104.604 46.7919 104.211 46.3984 104.211 45.913C104.211 45.4276 104.604 45.0341 105.09 45.0341H114.941C115.427 45.0341 115.82 45.4276 115.82 45.913C115.82 46.3984 115.427 46.7919 114.941 46.7919Z" fill="#3D63D8"/>
<path d="M75.0015 67.9113H72.9043C72.4188 67.9113 72.0254 68.3048 72.0254 68.7902C72.0254 69.2756 72.4188 69.6691 72.9043 69.6691H74.1226V78.6022C74.1226 79.0876 74.516 79.4811 75.0015 79.4811C75.487 79.4811 75.8804 79.0876 75.8804 78.6022V68.7902C75.8804 68.3048 75.4869 67.9113 75.0015 67.9113Z" fill="#1643CB"/>
<path d="M70.6874 71.1854C70.6874 69.3164 69.1668 67.7959 67.2979 67.7959C65.6817 67.7959 64.2829 68.9455 63.9718 70.5295C63.8783 71.0057 64.1886 71.4677 64.6649 71.5613C65.1414 71.6546 65.6032 71.3446 65.6967 70.8683C65.8462 70.1066 66.5196 69.5538 67.2979 69.5538C68.1976 69.5538 68.9296 70.2859 68.9296 71.1855C68.9296 72.0853 68.1976 72.8173 67.2979 72.8173C66.8123 72.8173 66.4189 73.2109 66.4189 73.6962C66.4189 74.1816 66.8123 74.5752 67.2979 74.5752C68.1976 74.5752 68.9296 75.3072 68.9296 76.2069C68.9296 77.1066 68.1976 77.8387 67.2979 77.8387C66.4882 77.8387 65.7934 77.2355 65.6818 76.4352C65.6713 76.3605 65.666 76.2837 65.666 76.2069C65.666 75.7215 65.2726 75.328 64.7871 75.328C64.3016 75.328 63.9082 75.7215 63.9082 76.2069C63.9082 76.365 63.9192 76.5239 63.9409 76.6784C64.1728 78.3419 65.6161 79.5964 67.2979 79.5964C69.1668 79.5964 70.6874 78.0758 70.6874 76.2068C70.6874 75.2124 70.2568 74.3166 69.5726 73.6961C70.2568 73.0755 70.6874 72.1798 70.6874 71.1854Z" fill="#1643CB"/>
</g>
<rect y="108" width="180" height="72" rx="16" fill="#1643CB"/>
<path d="M53.9404 126.816V139.258H52.2861V133.01H51.083V138.656H49.4834V127.021H51.083V131.615H52.2861V126.816H53.9404ZM48.1709 128.252V129.66H45.2861V134.965C46.4893 134.958 47.5557 134.896 48.7588 134.678L48.8818 136.1C47.3643 136.387 46.0381 136.428 44.3975 136.441H43.5361V128.252H48.1709ZM65.2334 126.816V131.875H66.8604V133.324H65.2334V139.258H63.4697V126.816H65.2334ZM55.1299 135.744C56.0391 135.744 57.0986 135.744 58.2061 135.717V134.65C56.8799 134.391 56.0186 133.55 56.0322 132.395C56.0186 131 57.2764 130.057 59.0947 130.057C60.8721 130.057 62.1436 131 62.1572 132.395C62.1436 133.55 61.2686 134.397 59.9561 134.65V135.648C60.9404 135.601 61.9316 135.519 62.8545 135.389L62.9639 136.66C60.3115 137.152 57.4678 137.166 55.3623 137.166L55.1299 135.744ZM62.7588 128.197V129.564H55.376V128.197H58.2061V126.885H59.9561V128.197H62.7588ZM59.0947 131.383C58.2471 131.383 57.6729 131.752 57.6865 132.395C57.6729 133.051 58.2471 133.406 59.0947 133.406C59.915 133.406 60.4756 133.051 60.4756 132.395C60.4756 131.752 59.915 131.383 59.0947 131.383ZM77.3193 127.568V132.805H71.2354V127.568H77.3193ZM72.958 128.922V131.438H75.583V128.922H72.958ZM81.0107 126.816V133.871H79.2744V126.816H81.0107ZM81.2295 134.555V135.854H77.7432C77.9346 136.701 79.2471 137.679 81.708 137.918L81.1201 139.23C79.0488 139.039 77.5791 138.287 76.8271 137.303C76.0547 138.301 74.5781 139.032 72.4932 139.23L71.8916 137.918C74.3867 137.72 75.6992 136.722 75.8838 135.854H72.3975V134.555H75.9385V133.529H77.6885V134.555H81.2295ZM97.417 128.457V129.865H95.8037V131.137H97.417V132.586H95.8037V134.158H94.0537V126.816H95.8037V128.457H97.417ZM95.8037 134.65V139.258H94.0537V136.059H87.4229V134.65H95.8037ZM89.4326 127.5C91.3604 127.486 92.8232 128.771 92.8232 130.521C92.8232 132.312 91.3604 133.57 89.4326 133.57C87.4912 133.57 86.0146 132.312 86.0146 130.521C86.0146 128.771 87.4912 127.486 89.4326 127.5ZM89.4326 128.99C88.4482 128.99 87.7236 129.551 87.7373 130.521C87.7236 131.52 88.4482 132.094 89.4326 132.094C90.3896 132.094 91.1143 131.52 91.1279 130.521C91.1143 129.551 90.3896 128.99 89.4326 128.99ZM109.38 132.873V134.268H98.0322V132.873H102.831V131.219H104.554V132.873H109.38ZM104.581 127.432C104.581 128.881 105.976 130.262 108.778 130.604L108.108 131.957C106.01 131.643 104.465 130.761 103.679 129.51C102.879 130.761 101.334 131.649 99.2354 131.957L98.6201 130.604C101.368 130.262 102.804 128.84 102.804 127.432V127.021H104.581V127.432ZM107.999 135.143V139.258H106.263V136.496H99.29V135.143H107.999ZM116.899 127.186C118.786 127.186 120.222 128.361 120.222 130.029C120.222 131.67 118.786 132.859 116.899 132.859C114.972 132.859 113.55 131.67 113.55 130.029C113.55 128.361 114.972 127.186 116.899 127.186ZM116.899 128.607C115.942 128.607 115.231 129.127 115.245 130.029C115.231 130.918 115.942 131.451 116.899 131.451C117.843 131.451 118.54 130.918 118.54 130.029C118.54 129.127 117.843 128.607 116.899 128.607ZM123.776 126.816V133.051H122.026V126.816H123.776ZM123.776 133.57V136.947H117.159V137.754H124.118V139.121H115.45V135.676H122.04V134.91H115.423V133.57H123.776ZM135.944 126.816V134.199H134.208V131.26H132.267V129.852H134.208V126.816H135.944ZM131.692 134.473C134.345 134.486 135.972 135.361 135.985 136.879C135.972 138.383 134.345 139.271 131.692 139.271C129.04 139.271 127.413 138.383 127.413 136.879C127.413 135.361 129.04 134.486 131.692 134.473ZM131.692 135.812C130.038 135.812 129.149 136.154 129.149 136.879C129.149 137.59 130.038 137.945 131.692 137.945C133.347 137.945 134.249 137.59 134.249 136.879C134.249 136.154 133.347 135.812 131.692 135.812ZM132.636 127.568V128.963H130.161C130.202 130.412 131.077 131.875 133.019 132.518L132.157 133.885C130.783 133.44 129.84 132.538 129.3 131.41C128.746 132.682 127.755 133.707 126.278 134.213L125.376 132.832C127.42 132.148 128.336 130.521 128.384 128.963H125.882V127.568H132.636ZM75.3164 147.816V160.258H73.6621V147.816H75.3164ZM72.7734 148.021V159.684H71.1328V153.49H69.4922V152.082H71.1328V148.021H72.7734ZM68.4941 151.152C68.4941 153.217 69.1367 155.309 70.9551 156.348L69.9297 157.633C68.8223 156.977 68.0908 155.862 67.6738 154.529C67.2432 155.979 66.4912 157.209 65.3496 157.906L64.2969 156.621C66.1289 155.5 66.8125 153.258 66.8125 151.152V150.482H64.7754V149.088H70.3809V150.482H68.4941V151.152ZM86.5273 147.816V151.385H88.209V152.834H86.5273V156.881H84.7773V147.816H86.5273ZM86.9785 158.645V160.039H78.4609V155.924H80.1973V158.645H86.9785ZM80.1562 148.623C82.0566 148.623 83.5469 149.936 83.5469 151.781C83.5469 153.6 82.0566 154.939 80.1562 154.939C78.2422 154.939 76.7383 153.6 76.7383 151.781C76.7383 149.936 78.2422 148.623 80.1562 148.623ZM80.1562 150.141C79.2129 150.127 78.4473 150.742 78.4609 151.781C78.4473 152.793 79.2129 153.422 80.1562 153.422C81.1133 153.422 81.8379 152.793 81.8516 151.781C81.8379 150.742 81.1133 150.127 80.1562 150.141ZM101.799 147.816V152.588H103.562V154.023H101.799V160.23H100.049V147.816H101.799ZM98.4766 149.088C98.4629 152.807 97.0137 156.033 92.8301 158.084L91.8457 156.744C94.792 155.268 96.3711 153.285 96.6992 150.51H92.5566V149.088H98.4766ZM114.172 150.934V152.328H105.518V148.008H107.254V150.934H114.172ZM115.457 153.395V154.816H104.082V153.395H115.457ZM109.742 155.596C112.436 155.609 114.062 156.443 114.076 157.906C114.062 159.383 112.436 160.217 109.742 160.217C107.021 160.217 105.381 159.383 105.381 157.906C105.381 156.443 107.021 155.609 109.742 155.596ZM109.742 156.949C108.02 156.963 107.145 157.25 107.158 157.906C107.145 158.549 108.02 158.891 109.742 158.891C111.424 158.891 112.312 158.549 112.326 157.906C112.312 157.25 111.424 156.963 109.742 156.949Z" fill="white"/>
<rect x="12" y="12" width="24" height="24" rx="12" fill="#1643CB"/>
<path d="M24.1094 28.6367C22.0586 28.623 20.1172 27.4062 20.1172 23.7832C20.1172 20.4473 21.7168 18.4648 24.1914 18.4648C26.1875 18.4648 27.541 19.7227 27.7461 21.3496H25.7227C25.5586 20.6523 24.9844 20.2285 24.1914 20.2285C22.8516 20.2285 22.1406 21.4453 22.127 23.3867H22.2227C22.6738 22.5117 23.6582 21.9922 24.752 21.9922C26.5293 21.9922 27.8555 23.332 27.8555 25.1914C27.8555 27.2012 26.3379 28.6504 24.1094 28.6367ZM24.0957 27.0098C25.1074 27.0098 25.8594 26.2441 25.8594 25.2461C25.8594 24.2617 25.1348 23.4824 24.123 23.4824C23.1113 23.4824 22.3457 24.2754 22.332 25.2461C22.3457 26.2168 23.084 27.0098 24.0957 27.0098Z" fill="white"/>
<defs>
<linearGradient id="paint0_linear_409_1851" x1="-0.499999" y1="89.5" x2="180.5" y2="89.5" gradientUnits="userSpaceOnUse">
<stop stop-color="#E6F5FF"/>
<stop offset="1" stop-color="#E4EDFF"/>
</linearGradient>
<clipPath id="clip0_409_1851">
<rect width="60" height="60" fill="white" transform="translate(60 24)"/>
</clipPath>
</defs>
</svg>
