<svg width="375" height="360" viewBox="0 0 375 360" fill="none" xmlns="http://www.w3.org/2000/svg">
<g clip-path="url(#clip0_409_1571)">
<path d="M0 0H375V340C375 351.046 366.046 360 355 360H20C8.95431 360 0 351.046 0 340V0Z" fill="url(#paint0_linear_409_1571)"/>
<g clip-path="url(#clip1_409_1571)">
<path d="M201.686 296.814L151.395 422.663C148.633 429.576 140.794 432.94 133.883 430.176L58.4724 399.994C51.5646 397.23 48.2029 389.385 50.9679 382.469L101.259 256.62C104.021 249.707 111.863 246.337 118.774 249.101L194.185 279.283C201.093 282.047 204.451 289.898 201.689 296.814H201.686Z" fill="#BF69C7"/>
<path d="M107.258 260.907L61.9902 374.19C60.3374 378.33 62.3495 383.02 66.486 384.674L138.644 413.555C142.775 415.209 147.464 413.201 149.117 409.062L194.385 295.779C196.037 291.639 194.029 286.943 189.898 285.292L172.19 278.204L170.534 280.299C168.372 283.022 164.688 284.004 161.47 282.716L140.103 274.164C136.879 272.873 134.883 269.621 135.195 266.157L135.439 263.499L117.737 256.414C113.6 254.76 108.907 256.77 107.255 260.91L107.258 260.907Z" fill="#8C3894"/>
<path d="M161.096 277.391L144.034 270.562C143.241 270.243 142.853 269.34 143.172 268.546C143.491 267.751 144.394 267.364 145.187 267.68L162.249 274.508C163.043 274.827 163.43 275.731 163.114 276.525C162.796 277.319 161.893 277.707 161.099 277.388L161.096 277.391Z" fill="#4C1151"/>
<path d="M179.572 301.453L114.069 275.234C112.018 274.413 109.691 275.41 108.871 277.461L104.057 289.507C103.237 291.558 104.235 293.886 106.286 294.707L171.789 320.927C173.84 321.748 176.167 320.75 176.987 318.699L181.801 306.654C182.621 304.602 181.623 302.274 179.572 301.453Z" fill="#6A1771"/>
<path d="M169.877 325.712L104.374 299.492C102.323 298.671 99.9955 299.669 99.1757 301.72L79.6797 350.501C78.8599 352.552 79.8579 354.881 81.9088 355.702L147.412 381.921C149.463 382.742 151.79 381.745 152.61 379.693L172.106 330.913C172.926 328.861 171.928 326.533 169.877 325.712Z" fill="#6A1771"/>
<path d="M124.949 289.566C125.72 285.613 123.143 281.784 119.193 281.013C115.244 280.242 111.418 282.821 110.647 286.773C109.877 290.726 112.454 294.555 116.403 295.326C120.352 296.097 124.179 293.518 124.949 289.566Z" fill="white"/>
<path d="M169.877 325.713L104.374 299.493C102.323 298.672 99.9955 299.67 99.1757 301.721L96.4484 308.545L169.379 337.737L172.106 330.914C172.926 328.862 171.928 326.534 169.877 325.713Z" fill="white"/>
<path d="M117.253 265.986L111.401 262.668L103.469 258.175H103.475L111.401 256.606L114.944 255.905L115.653 259.007L117.253 265.986Z" fill="#22252A"/>
<path d="M135.645 238.164C135.645 248.586 127.016 257.25 115.656 259.004C114.275 259.22 112.853 259.329 111.404 259.329C108.629 259.329 105.964 258.923 103.478 258.172C93.9766 255.308 87.1562 247.429 87.1562 238.161C87.1562 226.474 98.01 217 111.404 217C124.798 217 135.648 226.474 135.648 238.161L135.645 238.164Z" fill="#22252A"/>
<path d="M104.508 238.811C104.864 236.749 103.483 234.788 101.422 234.431C99.3613 234.075 97.4019 235.457 97.0456 237.52C96.6892 239.582 98.0709 241.543 100.132 241.9C102.192 242.256 104.152 240.873 104.508 238.811Z" fill="white"/>
<path d="M115.074 239.031C115.552 236.993 114.289 234.954 112.253 234.476C110.217 233.997 108.179 235.262 107.701 237.299C107.223 239.337 108.486 241.376 110.522 241.854C112.558 242.333 114.596 241.069 115.074 239.031Z" fill="white"/>
<path d="M125.689 239.031C126.167 236.993 124.904 234.954 122.868 234.476C120.832 233.997 118.794 235.262 118.316 237.299C117.839 239.337 119.102 241.376 121.138 241.854C123.174 242.333 125.211 241.069 125.689 239.031Z" fill="white"/>
<path d="M174.919 296.814L225.21 422.663C227.972 429.576 235.811 432.94 242.722 430.176L318.133 399.994C325.041 397.23 328.402 389.385 325.637 382.469L275.346 256.62C272.584 249.707 264.742 246.337 257.831 249.101L182.42 279.283C175.513 282.047 172.154 289.898 174.916 296.814H174.919Z" fill="#E5B4E9"/>
<path d="M269.344 260.907L314.612 374.19C316.265 378.33 314.252 383.02 310.116 384.674L237.958 413.555C233.827 415.209 229.138 413.201 227.485 409.062L182.217 295.776C180.565 291.636 182.573 286.94 186.704 285.289L204.412 278.201L206.068 280.296C208.23 283.019 211.914 284.001 215.132 282.713L236.499 274.161C239.723 272.87 241.719 269.618 241.407 266.154L241.163 263.496L258.865 256.411C263.002 254.757 267.694 256.767 269.347 260.907H269.344Z" fill="#8C3894"/>
<path d="M215.506 277.391L232.567 270.562C233.361 270.243 233.748 269.34 233.43 268.546C233.111 267.751 232.208 267.364 231.414 267.68L214.353 274.508C213.559 274.827 213.172 275.731 213.49 276.525C213.809 277.319 214.712 277.707 215.506 277.388V277.391Z" fill="#4C1151"/>
<path d="M204.801 320.919L270.304 294.699C272.355 293.878 273.353 291.55 272.533 289.499L267.719 277.453C266.899 275.402 264.572 274.405 262.521 275.226L197.018 301.445C194.967 302.266 193.969 304.594 194.789 306.646L199.603 318.691C200.423 320.742 202.75 321.74 204.801 320.919Z" fill="#6A1771"/>
<path d="M229.178 381.921L294.681 355.701C296.732 354.88 297.73 352.552 296.91 350.5L277.414 301.72C276.594 299.668 274.267 298.671 272.216 299.492L206.713 325.711C204.662 326.532 203.664 328.861 204.484 330.912L223.98 379.693C224.8 381.744 227.127 382.742 229.178 381.921Z" fill="#6A1771"/>
<path d="M260.211 295.324C264.158 294.544 266.727 290.709 265.947 286.758C265.168 282.807 261.336 280.237 257.388 281.017C253.44 281.797 250.872 285.632 251.652 289.583C252.431 293.534 256.263 296.104 260.211 295.324Z" fill="white"/>
<path d="M207.212 337.731L280.143 308.539L277.415 301.715C276.595 299.664 274.268 298.666 272.217 299.487L206.714 325.707C204.663 326.528 203.665 328.856 204.485 330.908L207.212 337.731Z" fill="white"/>
<path d="M259.35 265.986L265.201 262.668L273.137 258.175H273.128L265.201 256.606L261.662 255.905L260.949 259.007L259.35 265.986Z" fill="#22252A"/>
<path d="M240.96 238.165C240.96 248.586 249.589 257.25 260.949 259.004C262.33 259.22 263.752 259.329 265.201 259.329C267.976 259.329 270.641 258.923 273.128 258.172C282.629 255.308 289.449 247.429 289.449 238.161C289.452 226.477 278.595 217.003 265.201 217.003C251.808 217.003 240.957 226.477 240.957 238.165H240.96Z" fill="#22252A"/>
<path d="M276.426 241.904C278.49 241.568 279.892 239.622 279.557 237.556C279.222 235.49 277.277 234.087 275.212 234.422C273.148 234.758 271.746 236.704 272.081 238.77C272.416 240.836 274.361 242.239 276.426 241.904Z" fill="white"/>
<path d="M266.073 241.861C268.109 241.38 269.369 239.339 268.889 237.302C268.409 235.265 266.369 234.003 264.334 234.484C262.298 234.965 261.038 237.006 261.518 239.043C261.999 241.08 264.038 242.341 266.073 241.861Z" fill="white"/>
<path d="M255.46 241.859C257.496 241.378 258.756 239.337 258.276 237.3C257.795 235.263 255.756 234.002 253.721 234.482C251.685 234.963 250.425 237.004 250.905 239.041C251.385 241.078 253.425 242.34 255.46 241.859Z" fill="white"/>
<path d="M297.578 224.106L304.175 217.483" stroke="#FAC0FF" stroke-width="2" stroke-miterlimit="10" stroke-linecap="round"/>
<path d="M304.175 224.106L297.578 217.483" stroke="#FAC0FF" stroke-width="2" stroke-miterlimit="10" stroke-linecap="round"/>
<path d="M78.0325 224.106L71.4355 217.483" stroke="#FAC0FF" stroke-width="2" stroke-miterlimit="10" stroke-linecap="round"/>
<path d="M78.0325 217.483L71.4355 224.106" stroke="#FAC0FF" stroke-width="2" stroke-miterlimit="10" stroke-linecap="round"/>
<path d="M328.307 324.517L334.906 317.895" stroke="#FAC0FF" stroke-width="2" stroke-miterlimit="10" stroke-linecap="round"/>
<path d="M334.906 324.517L328.307 317.895" stroke="#FAC0FF" stroke-width="2" stroke-miterlimit="10" stroke-linecap="round"/>
<path d="M45.9061 324.517L39.3066 317.895" stroke="#FAC0FF" stroke-width="2" stroke-miterlimit="10" stroke-linecap="round"/>
<path d="M45.9061 317.895L39.3066 324.517" stroke="#FAC0FF" stroke-width="2" stroke-miterlimit="10" stroke-linecap="round"/>
<path d="M359.014 247.848L365.613 241.227" stroke="#FAC0FF" stroke-width="2" stroke-miterlimit="10" stroke-linecap="round"/>
<path d="M365.613 247.848L359.014 241.227" stroke="#FAC0FF" stroke-width="2" stroke-miterlimit="10" stroke-linecap="round"/>
<path d="M10 247.848L16.5995 241.227" stroke="#FAC0FF" stroke-width="2" stroke-miterlimit="10" stroke-linecap="round"/>
<path d="M16.5995 247.848L10 241.227" stroke="#FAC0FF" stroke-width="2" stroke-miterlimit="10" stroke-linecap="round"/>
</g>
<rect x="133" y="32" width="109" height="28" rx="14" fill="#FDE6FF"/>
<path d="M151.233 41.5674V47.1152H145.686V41.5674H151.233ZM147.285 42.8623V45.8457H149.634V42.8623H147.285ZM154.509 40.6152V43.9414H156.07V45.2744H154.509V49.0449H152.884V40.6152H154.509ZM154.928 50.6699V51.9648H147.019V48.2197H148.631V50.6699H154.928ZM165.744 40.6279V43.0654H167.306V44.3857H165.744V47.1406H164.119V40.6279H165.744ZM165.744 47.6611V52.0283H158.178V47.6611H165.744ZM159.765 48.918V50.7588H164.157V48.918H159.765ZM158.673 41.1738V45.1855C160.069 45.1602 161.574 45.0269 163.18 44.7158L163.37 46.0361C161.466 46.417 159.676 46.5186 158.038 46.5186H157.048V41.1738H158.673ZM175.177 43.2305C175.177 45.4014 176.053 47.5088 177.982 48.3467L176.992 49.6416C175.71 49.0132 174.853 47.8643 174.377 46.4424C173.869 47.9531 172.98 49.1909 171.66 49.8447L170.645 48.5244C172.625 47.6357 173.526 45.4014 173.539 43.2305V41.5039H175.177V43.2305ZM180.56 40.6152V52.1934H178.96V45.5537H176.688V44.2461H178.96V40.6152H180.56ZM191.719 40.6152V52.1934H190.081V40.6152H191.719ZM184.241 41.5293V44.3477H186.729V41.5293H188.329V49.4893H182.616V41.5293H184.241ZM184.241 48.1816H186.729V45.6045H184.241V48.1816ZM199.361 42.1387C199.361 43.8271 200.859 45.6426 203.475 46.0869L202.764 47.4326C200.751 47.0327 199.253 45.9028 198.511 44.4111C197.743 45.8901 196.245 47.0264 194.245 47.4326L193.547 46.0869C196.111 45.6299 197.622 43.8145 197.635 42.1387V41.3008H199.361V42.1387ZM203.855 49.4131V50.7461H193.28V49.4131H203.855ZM218.087 49.4893V50.7842H207.512V49.4893H211.93V46.874H213.542V49.4893H218.087ZM213.593 42.1006C213.593 43.751 215.078 45.4902 217.719 45.8965L217.033 47.2422C215.002 46.874 213.491 45.7886 212.729 44.3477C211.968 45.7822 210.47 46.8804 208.451 47.2422L207.766 45.8965C210.381 45.4902 211.854 43.7383 211.866 42.1006V41.2754H213.593V42.1006ZM228.713 40.6152V52.168H227.151V46.29H226.098V51.6602H224.587V40.9199H226.098V44.9951H227.151V40.6152H228.713ZM223.774 42.0371C223.762 45.2617 222.797 47.9023 219.547 49.7939L218.607 48.6768C220.962 47.293 221.972 45.5981 222.2 43.332H219.191V42.0371H223.774Z" fill="#ED28FF"/>
<path d="M84.2812 85.1875C84.2812 90.8359 80.5781 94.3984 74.2734 95.8516L73.0547 93.4844C78.0586 92.4766 80.6367 90.1914 81.0703 87.5781H74.2031V85.1875H84.2812ZM90.4922 83.8516V95.3125H87.4922V83.8516H90.4922ZM90.75 96.2969V98.6172H88.1719V102.438H90.9609V104.828H75.9141V102.438H78.6797V98.6172H76.1016V96.2969H90.75ZM81.5859 102.438H85.2422V98.6172H81.5859V102.438ZM112.875 94.7266V97.1172H93.4219V94.7266H112.875ZM110.672 102.391V104.781H95.7656V98.5469H98.7656V102.391H110.672ZM103.148 84.4844C107.812 84.4609 110.883 86.125 110.906 88.8438C110.883 91.5625 107.812 93.25 103.148 93.25C98.4375 93.25 95.3672 91.5625 95.3672 88.8438C95.3672 86.125 98.4375 84.4609 103.148 84.4844ZM103.148 86.8281C100.195 86.8516 98.4609 87.5547 98.4844 88.8438C98.4609 90.1797 100.195 90.8359 103.148 90.8359C106.102 90.8359 107.812 90.1797 107.812 88.8438C107.812 87.5547 106.102 86.8516 103.148 86.8281ZM138.141 83.8281V105.156H135.305V94.4453H133.242V104.125H130.5V84.1797H133.242V92.0547H135.305V83.8281H138.141ZM128.25 86.2891V88.7031H123.305V97.7969C125.367 97.7852 127.195 97.6797 129.258 97.3047L129.469 99.7422C126.867 100.234 124.594 100.305 121.781 100.328H120.305V86.2891H128.25ZM157.5 83.8281V92.5H160.289V94.9844H157.5V105.156H154.477V83.8281H157.5ZM140.18 99.1328C141.738 99.1328 143.555 99.1328 145.453 99.0859V97.2578C143.18 96.8125 141.703 95.3711 141.727 93.3906C141.703 91 143.859 89.3828 146.977 89.3828C150.023 89.3828 152.203 91 152.227 93.3906C152.203 95.3711 150.703 96.8242 148.453 97.2578V98.9688C150.141 98.8867 151.84 98.7461 153.422 98.5234L153.609 100.703C149.062 101.547 144.188 101.57 140.578 101.57L140.18 99.1328ZM153.258 86.1953V88.5391H140.602V86.1953H145.453V83.9453H148.453V86.1953H153.258ZM146.977 91.6562C145.523 91.6562 144.539 92.2891 144.562 93.3906C144.539 94.5156 145.523 95.125 146.977 95.125C148.383 95.125 149.344 94.5156 149.344 93.3906C149.344 92.2891 148.383 91.6562 146.977 91.6562ZM178.008 83.8281V92.0078H181.031V94.4688H178.008V105.109H175.008V83.8281H178.008ZM172.312 86.0078C172.289 92.3828 169.805 97.9141 162.633 101.43L160.945 99.1328C165.996 96.6016 168.703 93.2031 169.266 88.4453H162.164V86.0078H172.312ZM205.359 83.8281V94.7734H202.359V83.8281H205.359ZM205.359 95.6172V101.312H193.852V102.648H205.945V105.016H190.898V99.1797H202.406V97.9375H190.852V95.6172H205.359ZM199.969 85.1406V87.4141H198.211V91.6562C199.09 91.5977 199.957 91.5156 200.789 91.4219L200.93 93.5547C196.688 94.2344 191.836 94.3516 188.133 94.3516L187.805 92.0078C188.531 92.0078 189.305 91.9961 190.102 91.9844V87.4141H188.367V85.1406H199.969ZM192.961 91.9141C193.746 91.9023 194.531 91.8789 195.328 91.8438V87.4141H192.961V91.9141ZM227.719 100.211V102.672H208.195V100.211H212.555V94.9844C210.902 94 209.906 92.4883 209.906 90.6016C209.906 87.1562 213.281 84.8594 217.922 84.8594C222.539 84.8594 225.938 87.1562 225.961 90.6016C225.949 92.4414 224.977 93.9414 223.383 94.9375V100.211H227.719ZM217.922 87.2266C214.875 87.2266 212.859 88.4453 212.859 90.6016C212.859 92.6875 214.875 93.9766 217.922 93.9766C220.945 93.9766 222.984 92.6875 223.008 90.6016C222.984 88.4453 220.945 87.2266 217.922 87.2266ZM215.508 100.211H220.359V96.0625C219.598 96.2148 218.777 96.2969 217.922 96.2969C217.066 96.2969 216.258 96.2266 215.508 96.0625V100.211ZM245.859 83.8516V90.3906H248.742V92.8281H245.859V99.7656H242.859V83.8516H245.859ZM241.594 86.0781V88.4453H228.938V86.0781H233.789V83.8047H236.766V86.0781H241.594ZM235.266 89.1953C238.359 89.1953 240.516 90.8594 240.516 93.3203C240.516 95.7812 238.359 97.3984 235.266 97.3984C232.148 97.3984 229.969 95.7812 229.969 93.3203C229.969 90.8594 232.148 89.1953 235.266 89.1953ZM235.266 91.4688C233.836 91.4922 232.875 92.1484 232.898 93.3203C232.875 94.4922 233.836 95.125 235.266 95.125C236.695 95.125 237.68 94.4922 237.68 93.3203C237.68 92.1484 236.695 91.4922 235.266 91.4688ZM246.633 102.391V104.781H232.031V98.5469H235.008V102.391H246.633ZM266.484 85.0703C266.484 87.4375 268.992 90.0859 273.68 90.7188L272.555 93.0859C268.957 92.5586 266.309 90.9062 264.961 88.7031C263.578 90.9297 260.918 92.5938 257.32 93.1328L256.219 90.7891C260.883 90.1328 263.391 87.5312 263.414 85.0703V84.3672H266.484V85.0703ZM274.711 94.3047V96.6953H266.672V100.375H263.719V96.6953H255.188V94.3047H274.711ZM272.555 102.391V104.781H257.484V98.5234H260.461V102.391H272.555ZM292.875 83.8281V89.8047H295.758V92.2656H292.875V99.1094H289.852V83.8281H292.875ZM287.062 85.4219C287.062 91.1875 283.453 95.2188 277.055 97.0234L275.812 94.6562C280.582 93.3203 283.289 90.8477 283.781 87.8594H276.75V85.4219H287.062ZM293.602 102.391V104.781H279V97.5391H282.023V102.391H293.602ZM301.195 101.266L299.18 107.945H296.695L297.867 101.266H301.195ZM118.031 119.828V141.156H115.148V130.492H113.156V140.125H110.344V120.18H113.156V128.078H115.148V119.828H118.031ZM103.5 122.195V133.328C105.211 133.293 107.086 133.141 109.148 132.742L109.453 135.32C106.594 135.812 104.156 135.953 101.953 135.953H100.5V122.195H103.5ZM137.203 119.828V128.008H140.227V130.469H137.203V141.109H134.203V119.828H137.203ZM131.508 122.008C131.484 128.383 129 133.914 121.828 137.43L120.141 135.133C125.191 132.602 127.898 129.203 128.461 124.445H121.359V122.008H131.508ZM158.812 121.891V124.258H154.5C154.547 126.355 156.094 128.512 159.492 129.367L158.18 131.664C155.719 131.043 154.008 129.707 153.047 128.008C152.098 129.883 150.387 131.371 147.891 132.062L146.484 129.695C149.883 128.816 151.477 126.566 151.523 124.258H147.234V121.891H151.523V119.734H154.547V121.891H158.812ZM163.57 119.828V124.609H166.453V127.07H163.57V131.992H160.57V119.828H163.57ZM163.828 132.906V135.25H158.414C158.953 136.82 161.051 138.344 164.766 138.836L163.711 141.109C160.277 140.652 157.863 139.281 156.633 137.453C155.414 139.27 153.012 140.605 149.625 141.062L148.547 138.789C152.297 138.332 154.371 136.855 154.922 135.25H149.461V132.906H163.828ZM184.711 125.641V127.984H169.805V120.578H172.781V125.641H184.711ZM186.891 130.281V132.625H167.367V130.281H186.891ZM184.852 138.297V140.688H169.617V134.359H172.617V138.297H184.852ZM201.516 124.656C201.492 128.477 203.133 132.344 206.555 133.984L204.75 136.375C202.465 135.25 200.93 133.141 200.039 130.562C199.113 133.328 197.461 135.59 195.047 136.773L193.195 134.359C196.805 132.695 198.516 128.617 198.516 124.656V121.469H201.516V124.656ZM210.492 119.828V128.055H213.633V130.586H210.492V141.156H207.492V119.828H210.492ZM231.328 119.852V124.891H234.211V127.375H231.328V132.508H228.328V119.852H231.328ZM231.328 133.398V140.922H217.359V133.398H231.328ZM220.289 135.742V138.531H228.398V135.742H220.289ZM224.953 120.883V127.375H218.156V129.297C221.684 129.273 224.074 129.156 226.781 128.688L227.109 131.031C224.039 131.641 221.297 131.734 216.984 131.734H215.18V125.125H222.047V123.273H215.156V120.883H224.953ZM247.148 121.961V123.672C247.125 125.688 247.125 128.312 246.562 131.852L243.609 131.617C244.09 128.523 244.137 126.238 244.172 124.352H236.086V121.961H247.148ZM241.828 128.078V134.266C243.926 134.184 246.059 134.031 248.016 133.773L248.203 136C243.82 136.75 238.969 136.82 235.242 136.797L234.961 134.406C236.156 134.395 237.492 134.395 238.875 134.359V128.078H241.828ZM252.047 119.828V128.406H254.953V130.891H252.047V141.156H249.023V119.828H252.047ZM262.805 121.258C266.18 121.234 268.711 123.438 268.711 126.484C268.711 129.555 266.18 131.734 262.805 131.734C259.43 131.734 256.875 129.555 256.875 126.484C256.875 123.438 259.43 121.234 262.805 121.258ZM262.805 123.836C261.117 123.836 259.828 124.82 259.852 126.484C259.828 128.172 261.117 129.133 262.805 129.133C264.492 129.133 265.781 128.172 265.805 126.484C265.781 124.82 264.516 123.836 262.805 123.836ZM273.82 119.828V141.203H270.844V119.828H273.82ZM255.984 134.406C259.781 134.43 265.055 134.359 269.625 133.727L269.859 135.883C265.125 136.797 260.062 136.844 256.336 136.844L255.984 134.406ZM158.004 158.031V175H154.465V161.383H154.371L150.48 163.82V160.703L154.676 158.031H158.004ZM164.004 175.211C162.902 175.211 162.012 174.32 162.035 173.242C162.012 172.164 162.902 171.297 164.004 171.297C165.035 171.297 165.949 172.164 165.949 173.242C165.949 174.32 165.035 175.211 164.004 175.211ZM164.004 166.281C162.902 166.281 162.012 165.391 162.035 164.312C162.012 163.234 162.902 162.367 164.004 162.367C165.035 162.367 165.949 163.234 165.949 164.312C165.949 165.391 165.035 166.281 164.004 166.281ZM176.027 158.031V175H172.488V161.383H172.395L168.504 163.82V160.703L172.699 158.031H176.027ZM195.668 157.586V167.828H185.426V157.586H195.668ZM188.379 159.977V165.484H192.715V159.977H188.379ZM201.715 155.828V161.969H204.598V164.43H201.715V171.391H198.715V155.828H201.715ZM202.488 174.391V176.781H187.887V169.867H190.863V174.391H202.488ZM222.457 155.852V160.352H225.34V162.789H222.457V167.875H219.457V155.852H222.457ZM222.457 168.836V176.898H208.488V168.836H222.457ZM211.418 171.156V174.555H219.527V171.156H211.418ZM209.402 156.859V164.266C211.98 164.219 214.758 163.973 217.723 163.398L218.074 165.836C214.559 166.539 211.254 166.727 208.23 166.727H206.402V156.859H209.402Z" fill="#22252A"/>
</g>
<defs>
<linearGradient id="paint0_linear_409_1571" x1="187.5" y1="0" x2="187.5" y2="360" gradientUnits="userSpaceOnUse">
<stop stop-color="white"/>
<stop offset="1" stop-color="#FCDDFF"/>
</linearGradient>
<clipPath id="clip0_409_1571">
<path d="M0 0H375V340C375 351.046 366.046 360 355 360H20C8.95431 360 0 351.046 0 340V0Z" fill="white"/>
</clipPath>
<clipPath id="clip1_409_1571">
<rect width="358" height="216" fill="white" transform="translate(9 216)"/>
</clipPath>
</defs>
</svg>
