<svg width="327" height="23" viewBox="0 0 327 23" fill="none" xmlns="http://www.w3.org/2000/svg">
<path d="M37.9375 10.25C44.6294 11.7372 45.125 18.375 45.125 18.375C45.125 18.375 45.6206 11.7372 52.3125 10.25C45.6206 8.76281 45.125 2.125 45.125 2.125C45.125 2.125 44.6294 8.76281 37.9375 10.25Z" fill="url(#paint0_linear_409_1948)"/>
<path d="M47.9375 16.5C48.9916 16.7032 49.9535 17.2368 50.684 18.0234C51.4144 18.81 51.8753 19.8088 52 20.875C52.1247 19.8088 52.5856 18.81 53.316 18.0234C54.0465 17.2368 55.0084 16.7032 56.0625 16.5C55.0084 16.2968 54.0465 15.7632 53.316 14.9766C52.5856 14.19 52.1247 13.1912 52 12.125C51.8753 13.1912 51.4144 14.19 50.684 14.9766C49.9535 15.7632 48.9916 16.2968 47.9375 16.5Z" fill="url(#paint1_linear_409_1948)"/>
<path d="M72.8574 5.03223V12.708H70.9971V11.4043H67.9941V9.91016H70.9971V8.63574H68.126C67.2983 10.7451 65.4087 12.1953 62.4717 13.001L61.7393 11.5215C64.8081 10.7158 66.3096 9.25098 66.5732 7.41992H62.457V5.92578H68.6094C68.6094 6.35791 68.5801 6.77539 68.5215 7.1709H70.9971V5.03223H72.8574ZM68.4189 12.8691C71.1289 12.8691 72.9453 13.9092 72.96 15.5645C72.9453 17.2344 71.1289 18.2891 68.4189 18.2891C65.6797 18.2891 63.8486 17.2344 63.8633 15.5645C63.8486 13.9092 65.6797 12.8691 68.4189 12.8691ZM68.4189 14.334C66.7344 14.3193 65.7236 14.7441 65.7236 15.5645C65.7236 16.3848 66.7344 16.8096 68.4189 16.8096C70.0742 16.8096 71.085 16.3848 71.085 15.5645C71.085 14.7441 70.0742 14.3193 68.4189 14.334ZM85.8213 5.01758V13.0742H83.9609V10.4521H82.2324V8.92871H83.9609V5.01758H85.8213ZM85.8213 13.6455V18.2012H76.8564V13.6455H85.8213ZM78.7314 15.1104V16.707H83.9902V15.1104H78.7314ZM82.4668 6.1748V7.66895H74.6152V6.1748H77.6328V4.90039H79.4785V6.1748H82.4668ZM78.5557 8.1084C80.4307 8.1084 81.749 9.10449 81.749 10.4961C81.749 11.9463 80.4307 12.9131 78.5557 12.9131C76.6953 12.9131 75.3477 11.9463 75.3477 10.4961C75.3477 9.10449 76.6953 8.1084 78.5557 8.1084ZM78.5557 9.51465C77.6914 9.51465 77.1348 9.86621 77.1494 10.4961C77.1348 11.1699 77.6914 11.5361 78.5557 11.5361C79.4053 11.5361 79.9619 11.1699 79.9619 10.4961C79.9619 9.86621 79.4053 9.51465 78.5557 9.51465ZM93.6289 5.20801C96.6904 5.20801 98.4629 6.01367 98.4775 7.47852C98.4629 8.95801 96.6904 9.76367 93.6289 9.76367C90.5527 9.76367 88.7656 8.95801 88.7656 7.47852C88.7656 6.01367 90.5527 5.20801 93.6289 5.20801ZM93.6289 6.57031C91.666 6.57031 90.7139 6.89258 90.7285 7.47852C90.7139 8.1377 91.666 8.38672 93.6289 8.38672C95.6064 8.38672 96.5439 8.1377 96.5439 7.47852C96.5439 6.89258 95.6064 6.57031 93.6289 6.57031ZM99.708 10.3936V11.873H87.5498V10.3936H99.708ZM98.2285 12.6494V16.0479H90.8018V16.8535H98.5801V18.2598H88.9707V14.7441H96.3828V14.0117H88.9561V12.6494H98.2285ZM116.378 10.0713V11.5947H114.488V18.3184H112.613V5.01758H114.488V10.0713H116.378ZM106.256 6.29199V13.5137C107.962 13.4917 109.793 13.3306 111.72 12.9424L111.91 14.4951C109.684 14.9492 107.516 15.0664 105.553 15.0664H104.396V6.29199H106.256ZM127.848 9.19238V10.6865H118.443V5.61816H120.318V9.19238H127.848ZM129.137 12.21V13.7334H123.907V18.3477H122.032V13.7334H116.935V12.21H129.137ZM140.885 6.1748V7.43457C140.885 9.10449 140.885 10.9795 140.343 13.8066L138.468 13.6162C138.973 11.0967 138.995 9.22168 139.01 7.6543H131.158V6.1748H140.885ZM142.057 15.1982V16.7217H129.898V15.1982H134.249V10.6133H136.109V15.1982H142.057ZM145.675 15.916L144.415 20.0908H142.862L143.595 15.916H145.675Z" fill="#353A40"/>
<path d="M156.238 6.18945V7.71289H152.048V13.6309C153.989 13.6089 155.388 13.521 156.956 13.2354L157.146 14.7441C155.315 15.0957 153.704 15.1689 151.243 15.1543H150.159V6.18945H156.238ZM160.793 5.01758V18.377H158.933V11.1553H155.579V9.63184H158.933V5.01758H160.793ZM178.357 10.0713V11.5947H176.467V18.3184H174.592V5.01758H176.467V10.0713H178.357ZM168.235 6.29199V13.5137C169.941 13.4917 171.772 13.3306 173.699 12.9424L173.889 14.4951C171.663 14.9492 169.495 15.0664 167.532 15.0664H166.375V6.29199H168.235ZM191.072 11.8291V13.3232H178.914V11.8291H191.072ZM189.695 16.6191V18.1133H180.378V14.2168H182.253V16.6191H189.695ZM184.993 5.42773C187.908 5.41309 189.827 6.45312 189.841 8.15234C189.827 9.85156 187.908 10.9062 184.993 10.9062C182.048 10.9062 180.129 9.85156 180.129 8.15234C180.129 6.45312 182.048 5.41309 184.993 5.42773ZM184.993 6.89258C183.147 6.90723 182.063 7.34668 182.078 8.15234C182.063 8.9873 183.147 9.39746 184.993 9.39746C186.838 9.39746 187.908 8.9873 187.908 8.15234C187.908 7.34668 186.838 6.90723 184.993 6.89258ZM202.131 6.11621V12.5176H195.73V6.11621H202.131ZM197.576 7.61035V11.0527H200.286V7.61035H197.576ZM205.911 5.01758V8.85547H207.712V10.3936H205.911V14.7441H204.036V5.01758H205.911ZM206.394 16.6191V18.1133H197.268V13.792H199.128V16.6191H206.394ZM218.875 5.03223V7.84473H220.676V9.36816H218.875V12.5469H217V5.03223H218.875ZM218.875 13.1475V18.1865H210.144V13.1475H218.875ZM211.975 14.5977V16.7217H217.043V14.5977H211.975ZM210.715 5.66211V10.291C212.327 10.2617 214.062 10.1079 215.916 9.74902L216.135 11.2725C213.938 11.7119 211.873 11.8291 209.983 11.8291H208.84V5.66211H210.715Z" fill="url(#paint2_linear_409_1948)"/>
<path d="M227.836 5.20801C230.898 5.20801 232.67 6.01367 232.685 7.47852C232.67 8.95801 230.898 9.76367 227.836 9.76367C224.76 9.76367 222.973 8.95801 222.973 7.47852C222.973 6.01367 224.76 5.20801 227.836 5.20801ZM227.836 6.57031C225.874 6.57031 224.921 6.89258 224.936 7.47852C224.921 8.1377 225.874 8.38672 227.836 8.38672C229.814 8.38672 230.751 8.1377 230.751 7.47852C230.751 6.89258 229.814 6.57031 227.836 6.57031ZM233.916 10.3936V11.873H221.757V10.3936H233.916ZM232.436 12.6494V16.0479H225.009V16.8535H232.788V18.2598H223.178V14.7441H230.59V14.0117H223.164V12.6494H232.436ZM244.975 6.11621V12.5176H238.574V6.11621H244.975ZM240.419 7.61035V11.0527H243.129V7.61035H240.419ZM248.754 5.01758V8.85547H250.556V10.3936H248.754V14.7441H246.879V5.01758H248.754ZM249.238 16.6191V18.1133H240.112V13.792H241.972V16.6191H249.238ZM263.33 10.8037V12.2979H251.142V10.8037H263.33ZM261.997 8.38672V9.88086H252.622V5.33984H261.865V6.87793H254.482V8.38672H261.997ZM254.438 13.0303V14.1289H259.96V13.0303H261.835V18.1572H252.607V13.0303H254.438ZM254.438 16.6631H259.96V15.5645H254.438V16.6631ZM275.312 5.01758V18.3477H273.452V5.01758H275.312ZM266.669 6.29199V13.4551C268.471 13.4331 270.405 13.2646 272.368 12.8838L272.602 14.4219C270.258 14.9053 268.061 15.0664 265.996 15.0518H264.824V6.29199H266.669ZM287.587 5.01758V9.96875H289.55V11.4922H287.587V18.377H285.712V5.01758H287.587ZM283.852 6.24805V7.75684H279.458V13.6016C281.391 13.5796 282.988 13.4917 284.76 13.1768L284.965 14.7441C282.9 15.0957 281.083 15.1543 278.725 15.1396H277.597V6.24805H283.852Z" fill="#353A40"/>
<defs>
<linearGradient id="paint0_linear_409_1948" x1="37.9375" y1="11.5" x2="56.0625" y2="11.5" gradientUnits="userSpaceOnUse">
<stop stop-color="#ED28FF"/>
<stop offset="1" stop-color="#FF6928"/>
</linearGradient>
<linearGradient id="paint1_linear_409_1948" x1="37.9375" y1="11.5" x2="56.0625" y2="11.5" gradientUnits="userSpaceOnUse">
<stop stop-color="#ED28FF"/>
<stop offset="1" stop-color="#FF6928"/>
</linearGradient>
<linearGradient id="paint2_linear_409_1948" x1="149" y1="11.5" x2="221" y2="11.5" gradientUnits="userSpaceOnUse">
<stop stop-color="#ED28FF"/>
<stop offset="1" stop-color="#FF6928"/>
</linearGradient>
</defs>
</svg>
