<svg width="180" height="180" viewBox="0 0 180 180" fill="none" xmlns="http://www.w3.org/2000/svg">
<path d="M0 16C0 7.16344 7.16344 0 16 0H164C172.837 0 180 7.16344 180 16V164C180 172.837 172.837 180 164 180H16C7.16344 180 0 172.837 0 164V16Z" fill="url(#paint0_linear_409_1837)"/>
<g clip-path="url(#clip0_409_1837)">
<path d="M72.4219 39.9375C70.4512 39.9375 68.9062 41.4825 68.9062 43.4531C68.9062 45.4237 70.4512 46.9688 72.4219 46.9688C74.3925 46.9688 75.9375 45.4237 75.9375 43.4531C75.9375 41.4825 74.3925 39.9375 72.4219 39.9375ZM82.9688 43.4531C82.9688 41.4825 81.4237 39.9375 79.4531 39.9375C77.4825 39.9375 75.9375 41.4825 75.9375 43.4531C75.9375 45.4237 77.4825 46.9688 79.4531 46.9688C81.4237 46.9688 82.9688 45.4237 82.9688 43.4531ZM86.4844 46.9688C88.455 46.9688 90 45.4237 90 43.4531C90 41.4825 88.455 39.9375 86.4844 39.9375C84.5138 39.9375 82.9688 41.4825 82.9688 43.4531C82.9688 45.4237 84.5138 46.9688 86.4844 46.9688ZM119.028 80.6698L119.025 80.668C116.824 79.3153 116.093 76.3468 117.411 74.1427C119.128 71.1558 120 67.9269 120 64.5469C120 53.885 111.207 45.2109 100.547 45.2109C98.9848 45.2109 97.505 45.3826 96.1489 45.7191C95.5104 45.8787 95.0126 46.3852 94.8615 47.0271C93.5088 52.8601 88.8636 57.5053 83.0272 58.8632C82.3852 59.0125 81.8805 59.5086 81.7192 60.1489C81.3826 61.5016 81.2109 62.9814 81.2109 64.5469C81.2109 75.2087 89.8867 84 100.547 84H118.242C119.056 84 119.767 83.4387 119.952 82.6455C120.141 81.8525 119.756 81.0337 119.028 80.6698Z" fill="#15A0EA"/>
<path d="M79.4531 24C68.8007 24 60 32.8007 60 43.4531C60 46.828 60.8789 50.1327 62.5663 52.9804C63.8671 55.2656 63.1289 58.1836 60.8789 59.5195C60.1758 59.9062 59.8595 60.7147 60.0704 61.4883C60.2814 62.2616 60.9493 62.7891 61.7578 62.7891H79.4531C81 62.7891 82.5117 62.6133 83.8125 62.2969C90.9493 60.6445 96.6445 54.9491 98.2969 47.8477C98.6134 46.5117 98.7891 45.0352 98.7891 43.4531C98.7891 32.8007 90.1056 24 79.4531 24ZM72.4219 45.2109C71.4374 45.2109 70.6641 44.4374 70.6641 43.4531C70.6641 42.4686 71.4374 41.6953 72.4219 41.6953C73.4064 41.6953 74.1797 42.4686 74.1797 43.4531C74.1797 44.4374 73.4064 45.2109 72.4219 45.2109ZM79.4531 45.2109C78.4686 45.2109 77.6953 44.4374 77.6953 43.4531C77.6953 42.4686 78.4686 41.6953 79.4531 41.6953C80.4376 41.6953 81.2109 42.4686 81.2109 43.4531C81.2109 44.4374 80.4376 45.2109 79.4531 45.2109ZM86.4844 45.2109C85.4999 45.2109 84.7266 44.4374 84.7266 43.4531C84.7266 42.4686 85.4999 41.6953 86.4844 41.6953C87.4689 41.6953 88.2422 42.4686 88.2422 43.4531C88.2422 44.4374 87.4689 45.2109 86.4844 45.2109ZM93.5156 62.7891C92.5448 62.7891 91.7578 63.5761 91.7578 64.5469C91.7578 65.5177 92.5448 66.3047 93.5156 66.3047C94.4864 66.3047 95.2734 65.5177 95.2734 64.5469C95.2734 63.5761 94.4864 62.7891 93.5156 62.7891ZM100.547 62.7891C99.5761 62.7891 98.7891 63.5761 98.7891 64.5469C98.7891 65.5177 99.5761 66.3047 100.547 66.3047C101.518 66.3047 102.305 65.5177 102.305 64.5469C102.305 63.5761 101.518 62.7891 100.547 62.7891ZM107.578 62.7891C106.607 62.7891 105.82 63.5761 105.82 64.5469C105.82 65.5177 106.607 66.3047 107.578 66.3047C108.549 66.3047 109.336 65.5177 109.336 64.5469C109.336 63.5761 108.549 62.7891 107.578 62.7891Z" fill="#A8E1FF"/>
</g>
<rect y="108" width="180" height="72" rx="16" fill="#15A0EA"/>
<path d="M39.3184 138.602V148.5H37.2539V140.557H37.1992L34.9297 141.979V140.16L37.377 138.602H39.3184ZM42.8184 148.623C42.1758 148.623 41.6562 148.104 41.6699 147.475C41.6562 146.846 42.1758 146.34 42.8184 146.34C43.4199 146.34 43.9531 146.846 43.9531 147.475C43.9531 148.104 43.4199 148.623 42.8184 148.623ZM42.8184 143.414C42.1758 143.414 41.6562 142.895 41.6699 142.266C41.6562 141.637 42.1758 141.131 42.8184 141.131C43.4199 141.131 43.9531 141.637 43.9531 142.266C43.9531 142.895 43.4199 143.414 42.8184 143.414ZM49.832 138.602V148.5H47.7676V140.557H47.7129L45.4434 141.979V140.16L47.8906 138.602H49.832ZM58.8281 141.076C58.8281 142.949 59.498 144.85 61.2891 145.793L60.3184 147.078C59.1973 146.504 58.4521 145.499 58.0215 144.275C57.584 145.608 56.8389 146.723 55.7109 147.365L54.7266 146.053C56.4902 145.041 57.1738 143.004 57.1875 141.076V140.844H55.123V139.422H57.1875V137.74H58.8145V139.422H60.8652V140.844H58.8281V141.076ZM65.8008 137.316V149.758H64.1328V143.523H63.0801V149.184H61.4258V137.494H63.0801V142.102H64.1328V137.316H65.8008ZM73.7578 138.178V139.572H69.4785V140.543H73.3887V141.896H69.4785V142.895C71.666 142.895 73.0537 142.867 74.6328 142.607L74.8105 143.975C73.0332 144.262 71.4609 144.303 68.7949 144.289H67.7285V138.178H73.7578ZM77.4629 137.33V144.863H75.7129V137.33H77.4629ZM73.2246 145.027C75.8496 145.027 77.5176 145.902 77.5312 147.393C77.5176 148.896 75.8496 149.758 73.2246 149.758C70.5586 149.758 68.9453 148.896 68.9453 147.393C68.9453 145.902 70.5586 145.027 73.2246 145.027ZM73.2246 146.381C71.5566 146.381 70.6816 146.723 70.6816 147.393C70.6816 148.076 71.5566 148.432 73.2246 148.432C74.8789 148.432 75.7812 148.076 75.7812 147.393C75.7812 146.723 74.8789 146.381 73.2246 146.381ZM84.9414 144.932C87.5254 144.932 89.1387 145.82 89.1387 147.338C89.1387 148.883 87.5254 149.771 84.9414 149.771C82.3027 149.771 80.6758 148.883 80.6758 147.338C80.6758 145.82 82.3027 144.932 84.9414 144.932ZM84.9414 146.285C83.3008 146.285 82.4121 146.627 82.4258 147.338C82.4121 148.049 83.3008 148.418 84.9414 148.418C86.5547 148.418 87.416 148.049 87.416 147.338C87.416 146.627 86.5547 146.285 84.9414 146.285ZM89.0156 137.316V140.201H90.6973V141.664H89.0156V144.658H87.2656V137.316H89.0156ZM81.25 138.096V139.668H83.793V138.096H85.543V143.947H79.5137V138.096H81.25ZM81.25 142.566H83.793V141.021H81.25V142.566ZM99.0645 140.707C99.0508 142.607 100.062 144.795 102.113 145.738L101.143 147.105C99.7549 146.47 98.7637 145.198 98.2168 143.701C97.6562 145.349 96.6377 146.743 95.1953 147.42L94.1836 146.039C96.2617 145.068 97.3008 142.758 97.3145 140.707V139.941H94.6758V138.52H101.566V139.941H99.0645V140.707ZM104.287 137.316V142.061H106.119V143.523H104.287V149.758H102.537V137.316H104.287ZM117.945 143.195V144.562H106.57V143.195H111.41V142.129H107.951V137.863H116.578V139.217H109.688V140.762H116.646V142.129H113.119V143.195H117.945ZM112.23 145.191C114.924 145.191 116.551 146.012 116.564 147.488C116.551 148.938 114.924 149.771 112.23 149.771C109.51 149.771 107.869 148.938 107.869 147.488C107.869 146.012 109.51 145.191 112.23 145.191ZM112.23 146.518C110.508 146.518 109.633 146.846 109.646 147.488C109.633 148.145 110.508 148.445 112.23 148.445C113.912 148.445 114.801 148.145 114.814 147.488C114.801 146.846 113.912 146.518 112.23 146.518ZM125.875 139.531C125.875 140.871 126.572 142.211 128.227 142.84L127.297 144.166C126.237 143.763 125.506 143.024 125.055 142.102C124.604 143.182 123.824 144.084 122.662 144.562L121.719 143.223C123.469 142.457 124.18 140.926 124.18 139.531V138.068H125.875V139.531ZM132.588 137.33V144.932H130.934V141.773H129.895V144.549H128.268V137.549H129.895V140.365H130.934V137.33H132.588ZM128.336 145.109C130.961 145.109 132.643 145.984 132.656 147.434C132.643 148.883 130.961 149.758 128.336 149.758C125.697 149.758 124.029 148.883 124.029 147.434C124.029 145.984 125.697 145.109 128.336 145.109ZM128.336 146.408C126.709 146.408 125.766 146.764 125.779 147.434C125.766 148.104 126.709 148.445 128.336 148.445C129.949 148.445 130.893 148.104 130.893 147.434C130.893 146.764 129.949 146.408 128.336 146.408ZM138.699 139.012C138.686 140.68 139.547 142.211 141.543 142.826L140.627 144.193C139.287 143.729 138.378 142.867 137.865 141.746C137.305 143.045 136.3 144.07 134.803 144.576L133.887 143.182C136.02 142.498 136.922 140.83 136.936 139.094V137.959H138.699V139.012ZM144.482 137.316V144.604H142.746V141.021H140.408V139.6H142.746V137.316H144.482ZM140.23 144.932C142.883 144.932 144.51 145.82 144.523 147.352C144.51 148.883 142.883 149.758 140.23 149.758C137.578 149.758 135.951 148.883 135.951 147.352C135.951 145.82 137.578 144.932 140.23 144.932ZM140.23 146.285C138.576 146.285 137.688 146.641 137.688 147.352C137.688 148.035 138.576 148.404 140.23 148.404C141.885 148.404 142.787 148.035 142.787 147.352C142.787 146.641 141.885 146.285 140.23 146.285Z" fill="white"/>
<rect x="12" y="12" width="24" height="24" rx="12" fill="#15A0EA"/>
<path d="M24.0273 28.6367C21.9629 28.6367 20.459 27.4199 20.418 25.7109H22.4141C22.4551 26.4902 23.166 27.0098 24.0273 27.0098C25.0527 27.0098 25.7773 26.2852 25.7773 25.2598C25.7773 24.207 25.0391 23.4824 24 23.4688C23.2617 23.4688 22.7422 23.7422 22.4414 24.3027H20.582L21.1152 18.6016H27.2129V20.2832H22.8105L22.5371 22.7852H22.6191C22.9883 22.293 23.7266 21.9512 24.6016 21.9512C26.4199 21.9512 27.7734 23.3047 27.7734 25.2051C27.7734 27.2012 26.2559 28.6367 24.0273 28.6367Z" fill="white"/>
<defs>
<linearGradient id="paint0_linear_409_1837" x1="-0.499999" y1="89.5" x2="180.5" y2="89.5" gradientUnits="userSpaceOnUse">
<stop stop-color="#EAFFED"/>
<stop offset="1" stop-color="#E4F6FF"/>
</linearGradient>
<clipPath id="clip0_409_1837">
<rect width="60" height="60" fill="white" transform="translate(60 24)"/>
</clipPath>
</defs>
</svg>
