<svg width="180" height="180" viewBox="0 0 180 180" fill="none" xmlns="http://www.w3.org/2000/svg">
<rect width="180" height="180" rx="16" fill="url(#paint0_linear_409_1735)"/>
<path d="M114.857 70.5715H65.1428C62.8549 70.5715 61 68.7166 61 66.4287V33.2861H118.999V66.4287C118.999 68.7166 117.145 70.5715 114.857 70.5715Z" fill="#A33100"/>
<path d="M112.786 41.5713H92.0714C90.927 41.5713 90 40.6443 90 39.4998C90 38.3554 90.927 37.4284 92.0714 37.4284H112.786C113.93 37.4284 114.857 38.3554 114.857 39.4998C114.857 40.6443 113.93 41.5713 112.786 41.5713Z" fill="#ED4E0A"/>
<path d="M112.786 49.8566H92.0714C90.927 49.8566 90 48.9296 90 47.7851C90 46.6407 90.927 45.7137 92.0714 45.7137H112.786C113.93 45.7137 114.857 46.6407 114.857 47.7851C114.857 48.9296 113.93 49.8566 112.786 49.8566Z" fill="#ED4E0A"/>
<path d="M112.786 58.1427H92.0714C90.927 58.1427 90 57.2157 90 56.0713C90 54.9268 90.927 53.9999 92.0714 53.9999H112.786C113.93 53.9999 114.857 54.9268 114.857 56.0713C114.857 57.2157 113.93 58.1427 112.786 58.1427Z" fill="#ED4E0A"/>
<path d="M87.9281 66.4288H67.214C66.0695 66.4288 65.1426 65.5019 65.1426 64.3574C65.1426 63.213 66.0695 62.286 67.214 62.286H87.9281C89.0725 62.286 89.9995 63.213 89.9995 64.3574C89.9995 65.5019 89.0725 66.4288 87.9281 66.4288Z" fill="#ED4E0A"/>
<path d="M83.7853 58.1427H67.214C66.0695 58.1427 65.1426 57.2157 65.1426 56.0713V39.5C65.1426 38.3555 66.0695 37.4286 67.214 37.4286H83.7853C84.9297 37.4286 85.8567 38.3555 85.8567 39.5V56.0713C85.8567 57.2157 84.9297 58.1427 83.7853 58.1427Z" fill="#FFA781"/>
<path d="M77.5728 39.4999H73.4299C71.1421 39.4999 69.2871 41.3548 69.2871 43.6427V48.8212C69.2871 49.3929 69.7511 49.8569 70.3228 49.8569H80.6799C81.2516 49.8569 81.7156 49.3929 81.7156 48.8212V43.6427C81.7156 41.3548 79.8606 39.4999 77.5728 39.4999Z" fill="#FF6928"/>
<path d="M67.2148 58.1427V56.0713C67.2148 53.7834 69.0698 51.9284 71.3577 51.9284H79.6433C81.9312 51.9284 83.7861 53.7834 83.7861 56.0713V58.1427H67.2148Z" fill="#FF6928"/>
<path d="M77.5717 51.9284V48.8213H73.4288V51.9284H71.3574C71.3574 54.2163 73.2124 56.0712 75.5002 56.0712C77.7881 56.0712 79.6431 54.2163 79.6431 51.9284H77.5717Z" fill="#FFD5BA"/>
<path d="M76.5359 49.8569H74.4645C72.7484 49.8569 71.3574 48.466 71.3574 46.7498V43.6427C71.3574 42.4982 72.2844 41.5713 73.4288 41.5713H74.4645C74.4645 42.7157 75.3915 43.6427 76.5359 43.6427H79.6431V46.7498C79.6431 48.466 78.2521 49.8569 76.5359 49.8569Z" fill="#FFD5BA"/>
<path d="M118.999 33.2856H61V29.1428C61 26.8549 62.8549 25 65.1428 25H114.857C117.145 25 118.999 26.8549 118.999 29.1428V33.2856Z" fill="#FF8652"/>
<path d="M110.715 60.2137C110.715 52.2057 104.223 45.7139 96.2147 45.7139C88.2066 45.7139 81.7148 52.2057 81.7148 60.2137C81.7148 68.2218 88.2066 74.7136 96.2147 74.7136C99.472 74.7136 102.478 73.6396 104.898 71.8271L107.178 74.1067L110.107 71.1777L107.827 68.8981C109.641 66.4766 110.715 63.471 110.715 60.2137Z" fill="#FFD5BA"/>
<path d="M96.2145 70.5715C101.935 70.5715 106.572 65.9345 106.572 60.2145C106.572 54.4944 101.935 49.8574 96.2145 49.8574C90.4944 49.8574 85.8574 54.4944 85.8574 60.2145C85.8574 65.9345 90.4944 70.5715 96.2145 70.5715Z" fill="white"/>
<path d="M117.785 75.9276C116.977 75.1187 114.452 72.5936 113.643 71.7848C112.025 70.167 109.401 70.167 107.784 71.7848C106.166 73.4025 106.166 76.026 107.784 77.6437L111.926 81.7866C113.544 83.4043 116.168 83.4043 117.785 81.7866C119.404 80.1678 119.404 77.5454 117.785 75.9276Z" fill="#FFA781"/>
<rect y="108" width="180" height="72" rx="16" fill="#FF6928"/>
<path d="M44.3496 134.568C47.0703 134.568 48.7793 135.43 48.793 136.92C48.7793 138.383 47.0703 139.258 44.3496 139.258C41.6562 139.258 39.9199 138.383 39.9199 136.92C39.9199 135.43 41.6562 134.568 44.3496 134.568ZM44.3496 135.867C42.6406 135.867 41.6562 136.223 41.6562 136.92C41.6562 137.59 42.6406 137.932 44.3496 137.932C46.0586 137.932 47.0566 137.59 47.0566 136.92C47.0566 136.223 46.0586 135.867 44.3496 135.867ZM48.7246 127.377V128.389C48.7246 129.373 48.7246 130.439 48.3691 131.725L46.6602 131.561C46.9336 130.433 46.9678 129.592 46.9883 128.744H40.043V127.377H48.7246ZM50.0645 132.367V133.775H38.7715V132.367H43.0098V130.193H44.7324V132.367H50.0645ZM61.5762 126.816V139.258H59.8945V132.928H58.7598V138.711H57.1328V127.145H58.7598V131.533H59.8945V126.816H61.5762ZM56.2578 128.348C56.2441 131.82 55.2051 134.664 51.7051 136.701L50.6934 135.498C53.2295 134.008 54.3164 132.183 54.5625 129.742H51.3223V128.348H56.2578ZM70.2031 130.631V132.025H67.9746V133.283C68.959 133.235 69.9365 133.174 70.8594 133.078L70.9824 134.322C68.3438 134.691 65.5273 134.76 63.2305 134.76L62.998 133.379C63.9961 133.372 65.0967 133.365 66.2246 133.338V132.025H64.0508V127.568H70.0938V128.963H65.8008V130.631H70.2031ZM73.4023 126.803V136.182H71.625V126.803H73.4023ZM73.7305 137.645V139.039H64.9258V135.471H66.6895V137.645H73.7305ZM89.6582 136.359V137.809H78.2695V136.359H89.6582ZM88.7012 127.91V129.305H86.9512V133.078H88.6465V134.445H79.2129V133.078H80.8809V129.305H79.1582V127.91H88.7012ZM82.6309 133.078H85.2285V129.305H82.6309V133.078ZM101.758 136.441V137.877H90.3691V136.441H95.168V134.568H91.6816V130.385H98.7227V129.018H91.668V127.623H100.445V131.752H93.4316V133.146H100.732V134.568H96.9043V136.441H101.758ZM112.914 126.816V133.201H111.164V126.816H112.914ZM112.914 133.693V137.016H106.201V137.795H113.256V139.176H104.479V135.771H111.191V135.047H104.451V133.693H112.914ZM109.77 127.582V128.908H108.744V131.383C109.257 131.349 109.763 131.301 110.248 131.246L110.33 132.49C107.855 132.887 105.025 132.955 102.865 132.955L102.674 131.588C103.098 131.588 103.549 131.581 104.014 131.574V128.908H103.002V127.582H109.77ZM105.682 131.533C106.14 131.526 106.598 131.513 107.062 131.492V128.908H105.682V131.533ZM124.289 128.006C124.275 131.848 123.346 135.047 118.697 137.371L117.74 136.059C119.818 135.026 121.056 133.871 121.76 132.49L118.082 132.832L117.863 131.342L122.293 131.068C122.416 130.549 122.505 129.988 122.553 129.4H118.52V128.006H124.289ZM127.611 126.816V131.588H129.375V133.023H127.611V139.23H125.861V126.816H127.611ZM140.039 132.572V133.967H131.234V127.855H139.943V129.264H132.957V132.572H140.039ZM141.283 136.305V137.74H129.895V136.305H141.283ZM68.9385 147.816V160.285H67.2021V147.816H68.9385ZM65.083 148.855V153.654H60.9814V155.938C62.875 155.931 64.4883 155.821 66.3135 155.527L66.4639 156.936C64.4131 157.291 62.5674 157.373 60.2979 157.373H59.1768V152.273H63.3057V150.264H59.1631V148.855H65.083ZM77.1553 149.457C77.1553 151.275 78.7686 153.23 81.585 153.709L80.8193 155.158C78.6523 154.728 77.0391 153.511 76.2393 151.904C75.4121 153.497 73.7988 154.721 71.6455 155.158L70.8936 153.709C73.6553 153.217 75.2822 151.262 75.2959 149.457V148.555H77.1553V149.457ZM81.9951 157.291V158.727H70.6064V157.291H81.9951ZM92.8506 154.242V155.623H84.0459V148.732H92.7549V150.141H85.8232V151.453H92.4678V152.82H85.8232V154.242H92.8506ZM94.0947 157.387V158.809H82.7061V157.387H94.0947ZM101.505 148.172C102.51 148.172 103.385 148.514 103.979 149.088H106.782V147.816H108.519V154.051H106.782V152.971H103.993C103.405 153.565 102.523 153.914 101.505 153.914C99.6045 153.914 98.1826 152.725 98.1963 151.029C98.1826 149.348 99.6045 148.172 101.505 148.172ZM101.505 149.58C100.534 149.58 99.8369 150.127 99.8506 151.029C99.8369 151.959 100.534 152.506 101.505 152.506C102.448 152.506 103.132 151.959 103.132 151.029C103.132 150.127 102.448 149.58 101.505 149.58ZM108.519 154.584V157.947H101.997V158.754H108.888V160.121H100.247V156.662H106.782V155.924H100.233V154.584H108.519ZM104.731 150.441C104.766 150.626 104.786 150.824 104.786 151.029C104.786 151.234 104.766 151.433 104.731 151.617H106.782V150.441H104.731ZM120.003 147.83V150.77H121.685V152.219H120.003V155.213H118.253V147.83H120.003ZM120.003 155.732V160.121H111.854V155.732H120.003ZM113.563 157.1V158.727H118.294V157.1H113.563ZM116.284 148.432V152.219H112.319V153.34C114.377 153.326 115.771 153.258 117.351 152.984L117.542 154.352C115.751 154.707 114.151 154.762 111.636 154.762H110.583V150.906H114.589V149.826H110.569V148.432H116.284Z" fill="white"/>
<rect x="12" y="12" width="24" height="24" rx="12" fill="#FF6928"/>
<path d="M20.5068 28.5L20.4932 27.0098L24.0479 23.7422C24.9775 22.8535 25.4697 22.3066 25.4697 21.5273C25.4697 20.6523 24.7998 20.1055 23.8975 20.1055C22.9678 20.1055 22.3662 20.6934 22.3662 21.6367H20.4111C20.3975 19.6953 21.833 18.4648 23.9248 18.4648C26.0439 18.4648 27.4521 19.668 27.4521 21.3906C27.4521 22.5117 26.9053 23.4414 24.8682 25.2871L23.3643 26.75V26.8047H27.5889V28.5H20.5068Z" fill="white"/>
<defs>
<linearGradient id="paint0_linear_409_1735" x1="-0.499999" y1="89.5" x2="180.5" y2="89.5" gradientUnits="userSpaceOnUse">
<stop stop-color="#FFE9E9"/>
<stop offset="1" stop-color="#FFF2E7"/>
</linearGradient>
</defs>
</svg>
