<svg width="180" height="180" viewBox="0 0 180 180" fill="none" xmlns="http://www.w3.org/2000/svg">
<path d="M0 16C0 7.16344 7.16344 0 16 0H164C172.837 0 180 7.16344 180 16V164C180 172.837 172.837 180 164 180H16C7.16344 180 0 172.837 0 164V16Z" fill="url(#paint0_linear_409_1918)"/>
<g clip-path="url(#clip0_409_1918)">
<path d="M78.2227 31.6172C78.2227 35.824 74.8123 39.2344 70.6055 39.2344C66.3986 39.2344 62.9883 35.824 62.9883 31.6172C62.9883 27.4103 66.3986 24 70.6055 24C74.8123 24 78.2227 27.4103 78.2227 31.6172Z" fill="#E7C6FF"/>
<path d="M81.2109 49.5469H84.7266V53.0625H81.2109V49.5469Z" fill="#8C25D5"/>
<path d="M95.2734 49.5469H98.7891V53.0625H95.2734V49.5469Z" fill="#8C25D5"/>
<path d="M91.7578 49.5469H90L88.8281 51.3047L90 53.0625H91.7578V49.5469Z" fill="#8C25D5"/>
<path d="M88.2422 49.5469H90V53.0625H88.2422V49.5469Z" fill="#8C25D5"/>
<path d="M67.0312 42.75C63.154 42.75 60 45.904 60 49.7812V59.8594L77.6953 63.9609V42.75H67.0312Z" fill="#C58BEE"/>
<path d="M70.6641 66.8906V84H77.6953L81.2109 66.8906H70.6641Z" fill="#5D168E"/>
<path d="M81.2109 59.8594H60V63.375C60 67.2523 63.154 70.4063 67.0312 70.4063H77.6953V84H88.2422V66.8906C88.2422 63.0134 85.0882 59.8594 81.2109 59.8594Z" fill="#8C25D5"/>
<path d="M112.969 42.75C116.846 42.75 120 45.904 120 49.7812V59.8594L102.305 63.9609V42.75H112.969Z" fill="#C58BEE"/>
<path d="M109.336 66.8906V84H102.305L98.7891 66.8906H109.336Z" fill="#5D168E"/>
<path d="M98.7891 59.8594H120V63.375C120 67.2523 116.846 70.4063 112.969 70.4063H102.305V84H91.7578V66.8906C91.7578 63.0134 94.9118 59.8594 98.7891 59.8594Z" fill="#8C25D5"/>
<path d="M117.012 31.6172C117.012 35.824 113.601 39.2344 109.395 39.2344C105.188 39.2344 101.777 35.824 101.777 31.6172C101.777 27.4103 105.188 24 109.395 24C113.601 24 117.012 27.4103 117.012 31.6172Z" fill="#E7C6FF"/>
</g>
<rect y="108" width="180" height="72" rx="16" fill="#8C25D5"/>
<path d="M67.9814 128.457V129.865H66.3682V131.137H67.9814V132.586H66.3682V134.158H64.6182V126.816H66.3682V128.457H67.9814ZM66.3682 134.65V139.258H64.6182V136.059H57.9873V134.65H66.3682ZM59.9971 127.5C61.9248 127.486 63.3877 128.771 63.3877 130.521C63.3877 132.312 61.9248 133.57 59.9971 133.57C58.0557 133.57 56.5791 132.312 56.5791 130.521C56.5791 128.771 58.0557 127.486 59.9971 127.5ZM59.9971 128.99C59.0127 128.99 58.2881 129.551 58.3018 130.521C58.2881 131.52 59.0127 132.094 59.9971 132.094C60.9541 132.094 61.6787 131.52 61.6924 130.521C61.6787 129.551 60.9541 128.99 59.9971 128.99ZM79.9443 132.873V134.268H68.5967V132.873H73.3955V131.219H75.1182V132.873H79.9443ZM75.1455 127.432C75.1455 128.881 76.54 130.262 79.3428 130.604L78.6729 131.957C76.5742 131.643 75.0293 130.761 74.2432 129.51C73.4434 130.761 71.8984 131.649 69.7998 131.957L69.1846 130.604C71.9326 130.262 73.3682 128.84 73.3682 127.432V127.021H75.1455V127.432ZM78.5635 135.143V139.258H76.8271V136.496H69.8545V135.143H78.5635ZM87.9561 130.631V132.025H85.7275V133.283C86.7119 133.235 87.6895 133.174 88.6123 133.078L88.7354 134.322C86.0967 134.691 83.2803 134.76 80.9834 134.76L80.751 133.379C81.749 133.372 82.8496 133.365 83.9775 133.338V132.025H81.8037V127.568H87.8467V128.963H83.5537V130.631H87.9561ZM91.1553 126.803V136.182H89.3779V126.803H91.1553ZM91.4834 137.645V139.039H82.6787V135.471H84.4424V137.645H91.4834ZM100.862 129.633C100.862 131.916 101.901 134.213 104.007 135.102L102.981 136.496C101.56 135.854 100.575 134.616 100.015 133.078C99.4473 134.753 98.4287 136.106 96.9111 136.797L95.8584 135.348C98.0322 134.432 99.085 132.053 99.0986 129.633V127.773H100.862V129.633ZM106.44 126.816V139.285H104.677V126.816H106.44ZM117.993 126.816V130.303H119.675V131.738H117.993V135.73H116.229V126.816H117.993ZM114.603 127.746C114.603 131.109 112.497 133.461 108.765 134.514L108.04 133.133C110.822 132.354 112.401 130.911 112.688 129.168H108.587V127.746H114.603ZM118.417 137.645V139.039H109.899V134.814H111.663V137.645H118.417ZM122.847 136.988L121.671 140.885H120.222L120.905 136.988H122.847ZM59.0811 149.102V159H57.0166V151.057H56.9619L54.6924 152.479V150.66L57.1396 149.102H59.0811ZM62.5811 159.123C61.9385 159.123 61.4189 158.604 61.4326 157.975C61.4189 157.346 61.9385 156.84 62.5811 156.84C63.1826 156.84 63.7158 157.346 63.7158 157.975C63.7158 158.604 63.1826 159.123 62.5811 159.123ZM62.5811 153.914C61.9385 153.914 61.4189 153.395 61.4326 152.766C61.4189 152.137 61.9385 151.631 62.5811 151.631C63.1826 151.631 63.7158 152.137 63.7158 152.766C63.7158 153.395 63.1826 153.914 62.5811 153.914ZM69.5947 149.102V159H67.5303V151.057H67.4756L65.2061 152.479V150.66L67.6533 149.102H69.5947ZM81.0518 148.842V154.816H75.0771V148.842H81.0518ZM76.7998 150.236V153.449H79.3291V150.236H76.7998ZM84.5791 147.816V151.398H86.2607V152.834H84.5791V156.895H82.8291V147.816H84.5791ZM85.0303 158.645V160.039H76.5127V156.006H78.249V158.645H85.0303ZM96.6787 147.83V150.455H98.3604V151.877H96.6787V154.844H94.9287V147.83H96.6787ZM96.6787 155.404V160.107H88.5303V155.404H96.6787ZM90.2393 156.758V158.74H94.9697V156.758H90.2393ZM89.0635 148.418V152.738C90.5674 152.711 92.1875 152.567 93.917 152.232L94.1221 153.654C92.0713 154.064 90.1436 154.174 88.3799 154.174H87.3135V148.418H89.0635ZM106.987 150.277C106.987 151.768 107.903 153.285 109.954 153.9L109.065 155.268C107.671 154.83 106.687 153.935 106.126 152.807C105.559 154.03 104.547 155.015 103.091 155.5L102.188 154.133C104.253 153.463 105.21 151.85 105.21 150.277V150.1H102.653V148.705H109.489V150.1H106.987V150.277ZM112.552 147.83V156.826H110.802V147.83H112.552ZM112.88 158.645V160.039H104.212V156.006H105.976V158.645H112.88ZM124.925 147.816V155.623H123.271V152.314H122.272V155.213H120.646V148.049H122.272V150.893H123.271V147.816H124.925ZM120.276 149.102V150.455H114.165V149.102H116.366V147.926H118.103V149.102H120.276ZM117.241 150.865C118.827 150.865 119.948 151.74 119.962 153.039C119.948 154.324 118.827 155.199 117.241 155.199C115.683 155.199 114.548 154.324 114.548 153.039C114.548 151.74 115.683 150.865 117.241 150.865ZM117.241 152.123C116.558 152.123 116.106 152.465 116.106 153.039C116.106 153.613 116.558 153.969 117.241 153.955C117.925 153.969 118.376 153.613 118.39 153.039C118.376 152.465 117.925 152.123 117.241 152.123ZM120.673 155.732C123.366 155.732 124.979 156.553 124.993 158.002C124.979 159.438 123.366 160.258 120.673 160.258C117.993 160.258 116.366 159.438 116.366 158.002C116.366 156.553 117.993 155.732 120.673 155.732ZM120.673 157.045C118.991 157.045 118.103 157.346 118.116 158.002C118.103 158.631 118.991 158.945 120.673 158.945C122.368 158.945 123.229 158.631 123.229 158.002C123.229 157.346 122.368 157.045 120.673 157.045Z" fill="white"/>
<rect x="12" y="12" width="24" height="24" rx="12" fill="#8C25D5"/>
<path d="M21.1357 28.5L25.3057 20.3516V20.2832H20.4521V18.6016H27.4385V20.3105L23.2686 28.5H21.1357Z" fill="white"/>
<defs>
<linearGradient id="paint0_linear_409_1918" x1="-0.499999" y1="89.5" x2="180.5" y2="89.5" gradientUnits="userSpaceOnUse">
<stop stop-color="#E8EDFF"/>
<stop offset="1" stop-color="#F7E8FF"/>
</linearGradient>
<clipPath id="clip0_409_1918">
<rect width="60" height="60" fill="white" transform="translate(60 24)"/>
</clipPath>
</defs>
</svg>
