<svg width="375" height="418" viewBox="0 0 375 418" fill="none" xmlns="http://www.w3.org/2000/svg">
<rect width="375" height="418" fill="url(#paint0_linear_409_1643)"/>
<path d="M110.446 46.4258V66.0195H107.675V46.4258H110.446ZM99.833 47.8008C102.776 47.8008 104.968 50.5078 104.968 54.7617C104.968 59.0586 102.776 61.7441 99.833 61.7441C96.8252 61.7441 94.6338 59.0586 94.6553 54.7617C94.6338 50.5078 96.8252 47.8008 99.833 47.8008ZM99.833 50.2715C98.3076 50.2715 97.2979 51.8613 97.2979 54.7617C97.2979 57.6836 98.3076 59.252 99.833 59.252C101.315 59.252 102.325 57.6836 102.325 54.7617C102.325 51.8613 101.315 50.2715 99.833 50.2715ZM122.714 47.7363V53.9668H116.569V56.0938C119.599 56.0723 121.726 55.9863 124.067 55.6211L124.282 57.8125C121.597 58.2207 119.19 58.2852 115.452 58.2852H113.819V51.8828H119.985V49.9062H113.798V47.7363H122.714ZM129.567 46.4473V60.8418H126.839V53.4512H123.702V51.1309H126.839V46.4473H129.567ZM130.062 63.4414V65.6328H116.483V59.6602H119.212V63.4414H130.062ZM155.048 56.459V58.6074H147.679V61.7656H144.972V58.6074H137.151V56.459H155.048ZM153.071 63.4414V65.6328H139.257V60.2188H141.964V63.4414H153.071ZM142.157 47.0488V49.0898H149.999V47.0488H152.728V55.084H139.45V47.0488H142.157ZM142.157 52.9141H149.999V51.1309H142.157V52.9141ZM160.999 48.6602C160.978 53.5371 160.505 57.9199 158.013 61.7871L155.886 60.6699C157.895 57.6299 158.496 54.665 158.636 50.873H156.53V48.6602H160.999ZM165.382 48.6602C165.371 50.3789 165.339 52.0869 165.188 53.752H166.864V46.8555H169.442V65.1172H166.864V55.9648H164.909C164.49 58.3604 163.749 60.6592 162.396 62.7754L160.312 61.6152C162.492 58.2852 162.943 54.8369 163.04 50.873H161.558V48.6602H165.382ZM173.288 46.4258V65.9766H170.667V46.4258H173.288ZM198.103 58.1348V60.3691H190.519V65.998H187.812V60.3691H180.271V58.1348H198.103ZM196.47 48.6816V50.8301H190.604C190.916 52.5488 193.118 54.4824 197.157 54.9336L196.169 57.082C192.86 56.7061 190.465 55.3525 189.187 53.5586C187.919 55.374 185.502 56.7061 182.161 57.082L181.173 54.9336C185.212 54.4824 187.436 52.5596 187.769 50.8301H181.882V48.6816H187.812V46.4473H190.519V48.6816H196.47ZM206.481 51.0234C206.481 53.2148 207.921 55.4707 211.101 56.4375L209.79 58.5645C207.599 57.9414 206.052 56.5986 205.171 54.8906C204.301 56.7383 202.743 58.1885 200.487 58.8867L199.155 56.7383C202.335 55.793 203.753 53.4082 203.753 51.0234V50.873H199.821V48.7246H203.753V46.5547H206.524V48.7246H210.435V50.873H206.481V51.0234ZM215.763 46.4473V60.9492H213.034V54.3535H209.79V52.1406H213.034V46.4473H215.763ZM216.235 63.4414V65.6328H202.786V59.7031H205.536V63.4414H216.235ZM234.239 55.4707V57.6621H220.403V48.0586H234.089V50.2715H223.11V55.4707H234.239ZM236.194 61.3359V63.5918H218.298V61.3359H236.194ZM253.79 46.4258V66.0195H251.062V58.1348H247.71V55.8789H251.062V52.8066H247.774V50.5723H251.062V46.4258H253.79ZM246.743 48.0586V55.5781H240.728V59.3809C243.145 59.3701 245.293 59.252 247.753 58.8867L247.968 61.1211C245.046 61.5938 242.554 61.6367 239.546 61.6367H237.999V53.4512H244.058V50.2285H237.956V48.0586H246.743ZM274.222 61.4434V63.6992H256.325V61.4434H260.321V56.6523C258.807 55.75 257.894 54.3643 257.894 52.6348C257.894 49.4766 260.987 47.3711 265.241 47.3711C269.474 47.3711 272.589 49.4766 272.61 52.6348C272.6 54.3213 271.708 55.6963 270.247 56.6094V61.4434H274.222ZM265.241 49.541C262.448 49.541 260.601 50.6582 260.601 52.6348C260.601 54.5469 262.448 55.7285 265.241 55.7285C268.013 55.7285 269.882 54.5469 269.903 52.6348C269.882 50.6582 268.013 49.541 265.241 49.541ZM263.028 61.4434H267.476V57.6406C266.777 57.7803 266.025 57.8555 265.241 57.8555C264.457 57.8555 263.716 57.791 263.028 57.6406V61.4434ZM279.786 48.4453L279.507 59.3379H276.757L276.478 48.4453H279.786ZM278.153 64.1934C277.144 64.1934 276.327 63.377 276.349 62.3887C276.327 61.4004 277.144 60.6055 278.153 60.6055C279.099 60.6055 279.937 61.4004 279.937 62.3887C279.937 63.377 279.099 64.1934 278.153 64.1934Z" fill="#22252A"/>
<g opacity="0.99">
<rect x="24" y="105" width="263" height="45" rx="22.5" fill="white"/>
<path d="M44.7441 123.537C44.7441 124.959 45.8516 126.271 47.7246 126.805L47.123 127.83C45.7148 127.427 44.6689 126.559 44.1289 125.438C43.5889 126.702 42.5156 127.68 41.0801 128.145L40.4375 127.119C42.3105 126.572 43.459 125.123 43.459 123.537V123.387H40.793V122.334H43.459V120.857H44.7578V122.334H47.4102V123.387H44.7441V123.537ZM50.0762 120.912V124.002H51.8535V125.068H50.0762V128.377H48.7773V120.912H50.0762ZM46.125 128.664C48.6543 128.664 50.1855 129.471 50.1855 130.906C50.1855 132.314 48.6543 133.135 46.125 133.135C43.5684 133.135 42.0098 132.314 42.0098 130.906C42.0098 129.471 43.5684 128.664 46.125 128.664ZM46.125 129.676C44.334 129.676 43.2949 130.1 43.3086 130.906C43.2949 131.686 44.334 132.137 46.125 132.137C47.8887 132.137 48.9141 131.686 48.9141 130.906C48.9141 130.1 47.8887 129.676 46.125 129.676ZM55.9414 121.473C57.5547 121.459 58.7988 122.396 59.0723 123.77H61.4648V120.912H62.7637V127.488H61.4648V124.836H59.0859C58.8193 126.244 57.5684 127.188 55.9414 127.188C54.0684 127.188 52.7285 126.012 52.7285 124.316C52.7285 122.648 54.0684 121.459 55.9414 121.473ZM55.9414 122.553C54.7793 122.553 53.9727 123.264 53.9727 124.316C53.9727 125.369 54.7793 126.094 55.9414 126.094C57.0762 126.094 57.8828 125.369 57.8828 124.316C57.8828 123.264 57.0762 122.553 55.9414 122.553ZM56.0645 128.076V129.498H61.4648V128.076H62.7637V133.012H54.7793V128.076H56.0645ZM56.0645 131.945H61.4648V130.523H56.0645V131.945ZM79.2793 130.592V131.658H68.0684V130.592H73.0176V127.926H74.3027V130.592H79.2793ZM78.2402 122.771V123.824H74.3164C74.3711 125.54 76.1895 126.962 78.7051 127.338L78.2129 128.35C76.1689 128.028 74.46 127.058 73.6602 125.629C72.8604 127.058 71.1582 128.028 69.1074 128.35L68.6152 127.338C71.1309 126.962 72.9355 125.54 73.0039 123.824H69.0801V122.771H73.0176V121.131H74.3027V122.771H78.2402ZM90.3535 120.912V133.162H89.041V120.912H90.3535ZM86.7031 122.225C86.7031 125.807 85.1719 128.924 80.9746 130.934L80.291 129.881C83.5518 128.329 85.1377 126.121 85.3906 123.264H80.8789V122.225H86.7031ZM94.4688 131.057L93.375 134.83H92.2129L92.9375 131.057H94.4688ZM185.428 120.912V133.189H184.129V120.912H185.428ZM178.879 121.828C180.697 121.828 182.037 123.496 182.037 126.121C182.037 128.76 180.697 130.428 178.879 130.428C177.033 130.428 175.707 128.76 175.707 126.121C175.707 123.496 177.033 121.828 178.879 121.828ZM178.879 122.99C177.744 122.99 176.965 124.193 176.965 126.121C176.965 128.062 177.744 129.266 178.879 129.266C180 129.266 180.779 128.062 180.779 126.121C180.779 124.193 180 122.99 178.879 122.99ZM200.986 120.912V127.242H199.674V120.912H200.986ZM200.986 127.803V130.838H194.164V132H201.41V133.039H192.893V129.895H199.701V128.828H192.852V127.803H200.986ZM197.992 121.719V122.744H196.816V125.643C197.411 125.602 197.999 125.547 198.553 125.479L198.607 126.422C196.16 126.791 193.303 126.873 191.156 126.873L191.006 125.834C191.471 125.834 191.977 125.827 192.496 125.82V122.744H191.334V121.719H197.992ZM193.74 125.793C194.342 125.772 194.957 125.752 195.572 125.711V122.744H193.74V125.793ZM214.111 130.551V131.631H202.9V130.551H205.58V127.352C204.575 126.798 203.967 125.916 203.967 124.822C203.967 122.895 205.854 121.623 208.479 121.623C211.117 121.623 213.004 122.895 213.004 124.822C213.004 125.902 212.416 126.771 211.432 127.324V130.551H214.111ZM208.479 122.662C206.551 122.662 205.225 123.496 205.225 124.822C205.225 126.135 206.551 126.996 208.479 126.996C210.393 126.996 211.746 126.135 211.746 124.822C211.746 123.496 210.393 122.662 208.479 122.662ZM206.865 130.551H210.119V127.816C209.62 127.946 209.066 128.008 208.479 128.008C207.904 128.008 207.357 127.946 206.865 127.83V130.551ZM224.625 120.871V123.742H226.416V124.809H224.625V127.611H223.326V120.871H224.625ZM224.625 128.186V131.029H218.008V132.055H225.049V133.039H216.736V130.113H223.34V129.156H216.709V128.186H224.625ZM222.314 121.951V122.977H215.014V121.951H218.021V120.803H219.32V121.951H222.314ZM218.664 123.441C220.455 123.441 221.631 124.207 221.631 125.451C221.631 126.695 220.455 127.447 218.664 127.447C216.859 127.447 215.684 126.695 215.684 125.451C215.684 124.207 216.859 123.441 218.664 123.441ZM218.664 124.371C217.611 124.371 216.928 124.795 216.941 125.451C216.928 126.107 217.611 126.504 218.664 126.504C219.717 126.504 220.4 126.107 220.414 125.451C220.4 124.795 219.717 124.371 218.664 124.371ZM238.666 121.158V125.834H239.965V120.912H241.195V133.162H239.965V126.9H238.666V132.574H237.463V121.158H238.666ZM233.484 122.43V123.496H232.021V128.938C232.452 128.917 232.965 128.862 233.525 128.719L233.635 129.812C232.65 130.031 231.898 130.045 231.338 130.045H230.832V122.43H233.484ZM236.711 122.43V123.496H235.166V128.938C235.692 128.924 236.267 128.869 236.916 128.691L237.025 129.785C236.041 130.031 235.234 130.045 234.51 130.045H233.99V122.43H236.711Z" fill="#353A40"/>
<path d="M109.016 121.678V122.758C109.016 123.92 109.016 125.178 108.674 126.928H110.438V127.994H105.475V133.176H104.162V127.994H99.2676V126.928H107.361C107.73 125.185 107.73 123.899 107.73 122.758V122.744H100.635V121.678H109.016ZM115.031 124.672C115.031 126.6 115.92 128.568 117.615 129.471L116.891 130.428C115.708 129.799 114.881 128.623 114.443 127.229C113.999 128.726 113.179 130.011 111.996 130.715L111.23 129.73C112.926 128.746 113.801 126.654 113.814 124.672V124.18H111.6V123.113H113.814V121.35H115.031V123.113H117.205V124.18H115.031V124.672ZM121.881 120.912V133.162H120.637V120.912H121.881ZM119.393 121.172V132.547H118.162V126.764H116.398V125.684H118.162V121.172H119.393ZM127.855 123.086C127.855 124.631 128.963 126.148 130.809 126.777L130.139 127.789C128.765 127.311 127.746 126.333 127.213 125.123C126.68 126.47 125.606 127.55 124.15 128.062L123.48 127.037C125.367 126.395 126.529 124.754 126.529 123.1V122.758H123.877V121.705H130.48V122.758H127.855V123.086ZM133.68 128.855V133.162H132.381V129.908H125.381V128.855H133.68ZM133.68 120.912V128.24H132.381V125.096H130.111V124.029H132.381V120.912H133.68ZM145.725 120.926V129.826H144.426V120.926H145.725ZM146.094 131.85V132.902H137.713V128.924H139.025V131.85H146.094ZM139.08 121.746C140.926 121.746 142.334 123.004 142.334 124.781C142.334 126.586 140.926 127.83 139.08 127.83C137.234 127.83 135.812 126.586 135.812 124.781C135.812 123.004 137.234 121.746 139.08 121.746ZM139.08 122.881C137.932 122.881 137.084 123.66 137.084 124.781C137.084 125.93 137.932 126.695 139.08 126.695C140.201 126.695 141.062 125.93 141.062 124.781C141.062 123.66 140.201 122.881 139.08 122.881ZM162.295 130.564V131.631H151.084V130.564H156.033V127.666H157.332V130.564H162.295ZM157.346 123.141C157.346 125.014 159.465 126.682 161.803 127.051L161.283 128.076C159.308 127.7 157.482 126.552 156.689 124.945C155.89 126.572 154.078 127.755 152.137 128.131L151.604 127.105C153.887 126.723 155.992 125.014 155.992 123.141V123.031H152.014V121.965H161.324V123.031H157.346V123.141ZM173.396 120.926V129.922H172.098V125.328H169.705C169.425 126.805 168.16 127.803 166.574 127.803C164.729 127.803 163.361 126.531 163.361 124.74C163.361 122.949 164.729 121.691 166.574 121.691C168.201 121.691 169.486 122.73 169.732 124.262H172.098V120.926H173.396ZM173.725 131.85V132.902H165.439V129.006H166.738V131.85H173.725ZM166.574 122.826C165.439 122.826 164.605 123.592 164.605 124.74C164.605 125.889 165.439 126.682 166.574 126.682C167.682 126.682 168.516 125.889 168.516 124.74C168.516 123.592 167.682 122.826 166.574 122.826Z" fill="#ED28FF"/>
<path fill-rule="evenodd" clip-rule="evenodd" d="M262.62 119.672C262.546 119.677 262.478 119.717 262.439 119.78C262.399 119.843 262.391 119.922 262.419 119.991C262.481 120.149 262.515 120.321 262.515 120.501V120.501C262.515 121.411 262.515 122.585 262.512 123.495V123.496C262.512 124.103 262.12 124.627 261.564 124.812C261.468 124.844 261.404 124.934 261.404 125.035C261.405 125.136 261.47 125.225 261.566 125.257C261.668 125.29 261.774 125.313 261.885 125.325C261.886 125.325 261.886 125.325 261.887 125.325C262.092 125.346 262.297 125.363 262.503 125.378C262.729 125.395 262.943 125.486 263.111 125.638L263.697 126.165C263.98 126.421 264.411 126.421 264.694 126.165L265.282 125.636C265.45 125.484 265.663 125.393 265.889 125.376H265.889C266.094 125.361 266.299 125.343 266.504 125.322C266.505 125.322 266.505 125.322 266.506 125.322C267.303 125.236 267.907 124.563 267.907 123.762C267.909 123.013 267.909 122.045 267.909 121.295C267.909 120.491 267.304 119.817 266.505 119.731C266.504 119.731 266.503 119.731 266.503 119.731C265.209 119.603 263.915 119.583 262.62 119.672Z" fill="#33DFB1"/>
<path fill-rule="evenodd" clip-rule="evenodd" d="M261.139 132.139L261.133 132.128L261.129 132.121C261.13 132.123 261.131 132.125 261.133 132.128C261.136 132.133 261.138 132.137 261.139 132.139C261.221 132.276 261.318 132.401 261.428 132.511C261.47 132.553 261.524 132.577 261.582 132.58L261.607 132.58C262.263 132.542 262.901 132.352 263.471 132.023L264.608 131.366C264.71 131.308 264.752 131.183 264.707 131.074C264.69 131.033 264.671 130.993 264.648 130.955C264.514 130.723 264.294 130.553 264.035 130.484C263.776 130.414 263.5 130.451 263.268 130.585L261.201 131.778C261.109 131.831 261.065 131.939 261.092 132.041C261.097 132.059 261.153 132.162 261.139 132.139Z" fill="#FF9898"/>
<path fill-rule="evenodd" clip-rule="evenodd" d="M261.582 132.112C261.49 132.117 261.41 132.176 261.377 132.262C261.344 132.348 261.365 132.446 261.43 132.511C261.784 132.866 262.271 133.07 262.786 133.065C262.893 133.064 263.002 133.063 263.11 133.062C263.835 133.055 264.546 132.861 265.173 132.498L268.065 130.829C268.167 130.77 268.21 130.643 268.164 130.535C268.142 130.484 268.117 130.434 268.089 130.386C267.909 130.074 267.612 129.846 267.264 129.752C266.916 129.659 266.545 129.708 266.232 129.888C266.232 129.888 264.39 130.952 263.238 131.617C262.732 131.909 262.164 132.079 261.582 132.112Z" fill="#FFB4B4"/>
<path fill-rule="evenodd" clip-rule="evenodd" d="M257.612 134.779L257.565 134.774C257.565 134.774 259.98 135.279 261.723 135.643C262.908 135.891 264.142 135.693 265.19 135.088C266.459 134.355 268.213 133.342 269.293 132.719C269.605 132.539 269.833 132.242 269.926 131.894C270.019 131.545 269.971 131.174 269.79 130.862C269.61 130.55 269.313 130.322 268.965 130.229C268.617 130.135 268.245 130.184 267.933 130.365C267.933 130.365 266.091 131.428 264.939 132.093C264.381 132.415 263.75 132.588 263.105 132.594L262.781 132.597C262.268 132.603 261.792 132.331 261.535 131.887C261.476 131.785 261.415 131.678 261.353 131.571C261.225 131.349 261.221 131.077 261.342 130.852C261.463 130.626 261.692 130.479 261.947 130.463L264.145 130.324C264.87 130.32 265.456 129.731 265.456 129.005V129.005C265.456 128.276 264.866 127.686 264.137 127.686C262.917 127.686 260.932 127.693 259.604 127.697C258.664 127.701 257.741 127.948 256.925 128.415C255.968 128.963 254.782 129.641 254.782 129.641C254.728 129.672 254.688 129.723 254.672 129.783C254.656 129.843 254.664 129.907 254.695 129.961L257.41 134.662L257.612 134.779Z" fill="#FFD1D1"/>
<path fill-rule="evenodd" clip-rule="evenodd" d="M262.746 121.893H265.945C266.074 121.893 266.179 121.788 266.179 121.659C266.179 121.53 266.074 121.425 265.945 121.425H262.746C262.617 121.425 262.512 121.53 262.512 121.659C262.512 121.788 262.617 121.893 262.746 121.893Z" fill="white"/>
<path fill-rule="evenodd" clip-rule="evenodd" d="M262.746 123.632H265.345C265.474 123.632 265.579 123.527 265.579 123.398C265.579 123.269 265.474 123.164 265.345 123.164H262.746C262.617 123.164 262.512 123.269 262.512 123.398C262.512 123.527 262.617 123.632 262.746 123.632Z" fill="white"/>
<path fill-rule="evenodd" clip-rule="evenodd" d="M255.052 129.644C254.95 129.467 254.781 129.337 254.584 129.284C254.386 129.231 254.175 129.259 253.998 129.361L252.814 130.045C252.06 130.48 251.802 131.445 252.237 132.199C252.82 133.208 253.659 134.663 254.242 135.672C254.678 136.426 255.642 136.685 256.396 136.249C256.812 136.009 257.257 135.752 257.58 135.566C257.757 135.463 257.887 135.295 257.94 135.097C257.993 134.899 257.965 134.689 257.862 134.511L255.052 129.644Z" fill="#7CCFFF"/>
<path fill-rule="evenodd" clip-rule="evenodd" d="M253.26 129.787L252.814 130.045C252.06 130.48 251.802 131.444 252.237 132.198L254.242 135.672C254.678 136.426 255.642 136.684 256.396 136.249L256.842 135.991L256.176 134.838L253.26 129.787Z" fill="#00A1FF"/>
<path fill-rule="evenodd" clip-rule="evenodd" d="M256.472 125.409C256.758 125.43 257.028 125.545 257.241 125.737L257.952 126.378C258.277 126.671 258.771 126.671 259.096 126.378L259.809 125.734C260.021 125.543 260.291 125.428 260.576 125.407C260.576 125.407 260.576 125.407 260.576 125.407C260.825 125.388 261.073 125.367 261.322 125.341C261.322 125.341 261.323 125.341 261.323 125.341C262.265 125.239 262.979 124.444 262.979 123.496C262.983 122.587 262.983 121.412 262.983 120.501C262.983 119.551 262.267 118.754 261.322 118.652C261.322 118.652 261.321 118.652 261.32 118.652C259.456 118.468 257.591 118.468 255.727 118.656C255.726 118.656 255.726 118.656 255.725 118.656C254.783 118.757 254.068 119.553 254.068 120.501C254.064 121.41 254.064 122.586 254.064 123.496C254.064 124.446 254.78 125.243 255.724 125.345C255.725 125.345 255.725 125.345 255.726 125.345C255.975 125.37 256.223 125.391 256.472 125.409Z" fill="#00D5F6"/>
<path fill-rule="evenodd" clip-rule="evenodd" d="M256.4 121.176H260.65C260.779 121.176 260.884 121.071 260.884 120.942C260.884 120.813 260.779 120.708 260.65 120.708H256.4C256.271 120.708 256.166 120.813 256.166 120.942C256.166 121.071 256.271 121.176 256.4 121.176Z" fill="white"/>
<path fill-rule="evenodd" clip-rule="evenodd" d="M256.4 123.289H259.853C259.982 123.289 260.087 123.185 260.087 123.055C260.087 122.926 259.982 122.821 259.853 122.821H256.4C256.271 122.821 256.166 122.926 256.166 123.055C256.166 123.185 256.271 123.289 256.4 123.289Z" fill="white"/>
</g>
<g opacity="0.99">
<rect x="80" y="162" width="271" height="45" rx="22.5" fill="white"/>
<path d="M107.621 184.352V185.377H96.4238V184.352H107.621ZM106.199 186.443V190.162H104.873V187.482H97.6953V186.443H106.199ZM106.336 182.314V183.312H97.8867V178.227H106.254V179.252H99.1992V180.25H105.939V181.234H99.1992V182.314H106.336ZM118.764 177.912V185.199H117.465V182.096H115.182V181.029H117.465V177.912H118.764ZM114.662 185.541C117.232 185.541 118.805 186.389 118.805 187.852C118.805 189.314 117.232 190.148 114.662 190.162C112.092 190.148 110.506 189.314 110.52 187.852C110.506 186.389 112.092 185.541 114.662 185.541ZM114.662 186.553C112.871 186.553 111.805 187.018 111.805 187.852C111.805 188.672 112.871 189.15 114.662 189.137C116.453 189.15 117.52 188.672 117.52 187.852C117.52 187.018 116.453 186.553 114.662 186.553ZM112.939 180.072C112.939 181.631 114.047 183.135 115.893 183.764L115.223 184.789C113.849 184.311 112.837 183.333 112.311 182.123C111.771 183.497 110.697 184.598 109.234 185.131L108.551 184.092C110.451 183.436 111.613 181.781 111.613 180.086V179.812H108.961V178.76H115.564V179.812H112.939V180.072ZM135.266 184.324V185.363H130.398V187.619H129.113V185.363H124.055V184.324H135.266ZM134.021 188.85V189.902H125.449V186.553H126.734V188.85H134.021ZM126.816 178.295V179.785H132.49V178.295H133.789V183.244H125.531V178.295H126.816ZM126.816 182.205H132.49V180.756H126.816V182.205ZM139.449 178.828C141.281 178.828 142.58 180.496 142.594 183.121C142.58 185.76 141.281 187.428 139.449 187.428C137.617 187.428 136.305 185.76 136.318 183.121C136.305 180.496 137.617 178.828 139.449 178.828ZM139.449 179.99C138.328 179.99 137.562 181.193 137.562 183.121C137.562 185.062 138.328 186.266 139.449 186.266C140.584 186.266 141.35 185.062 141.35 183.121C141.35 181.193 140.584 179.99 139.449 179.99ZM147.611 180.906V182.014H145.711V184.557H147.611V185.623H145.711V190.162H144.412V177.912H145.711V180.906H147.611ZM158.809 177.912V190.162H157.564V177.912H158.809ZM156.32 178.145V189.561H155.076V183.654H153.695C153.586 186.047 152.561 187.537 151.043 187.523C149.443 187.537 148.404 185.855 148.404 183.203C148.404 180.551 149.443 178.883 151.043 178.896C152.533 178.883 153.545 180.298 153.695 182.602H155.076V178.145H156.32ZM151.043 180.113C150.154 180.113 149.607 181.248 149.607 183.203C149.607 185.158 150.154 186.293 151.043 186.293C151.945 186.293 152.506 185.158 152.506 183.203C152.506 181.248 151.945 180.113 151.043 180.113ZM249.945 177.912V190.189H248.646V177.912H249.945ZM243.396 178.828C245.215 178.828 246.555 180.496 246.555 183.121C246.555 185.76 245.215 187.428 243.396 187.428C241.551 187.428 240.225 185.76 240.225 183.121C240.225 180.496 241.551 178.828 243.396 178.828ZM243.396 179.99C242.262 179.99 241.482 181.193 241.482 183.121C241.482 185.062 242.262 186.266 243.396 186.266C244.518 186.266 245.297 185.062 245.297 183.121C245.297 181.193 244.518 179.99 243.396 179.99ZM265.504 177.912V184.242H264.191V177.912H265.504ZM265.504 184.803V187.838H258.682V189H265.928V190.039H257.41V186.895H264.219V185.828H257.369V184.803H265.504ZM262.51 178.719V179.744H261.334V182.643C261.929 182.602 262.517 182.547 263.07 182.479L263.125 183.422C260.678 183.791 257.82 183.873 255.674 183.873L255.523 182.834C255.988 182.834 256.494 182.827 257.014 182.82V179.744H255.852V178.719H262.51ZM258.258 182.793C258.859 182.772 259.475 182.752 260.09 182.711V179.744H258.258V182.793ZM278.629 187.551V188.631H267.418V187.551H270.098V184.352C269.093 183.798 268.484 182.916 268.484 181.822C268.484 179.895 270.371 178.623 272.996 178.623C275.635 178.623 277.521 179.895 277.521 181.822C277.521 182.902 276.934 183.771 275.949 184.324V187.551H278.629ZM272.996 179.662C271.068 179.662 269.742 180.496 269.742 181.822C269.742 183.135 271.068 183.996 272.996 183.996C274.91 183.996 276.264 183.135 276.264 181.822C276.264 180.496 274.91 179.662 272.996 179.662ZM271.383 187.551H274.637V184.816C274.138 184.946 273.584 185.008 272.996 185.008C272.422 185.008 271.875 184.946 271.383 184.83V187.551ZM289.143 177.871V180.742H290.934V181.809H289.143V184.611H287.844V177.871H289.143ZM289.143 185.186V188.029H282.525V189.055H289.566V190.039H281.254V187.113H287.857V186.156H281.227V185.186H289.143ZM286.832 178.951V179.977H279.531V178.951H282.539V177.803H283.838V178.951H286.832ZM283.182 180.441C284.973 180.441 286.148 181.207 286.148 182.451C286.148 183.695 284.973 184.447 283.182 184.447C281.377 184.447 280.201 183.695 280.201 182.451C280.201 181.207 281.377 180.441 283.182 180.441ZM283.182 181.371C282.129 181.371 281.445 181.795 281.459 182.451C281.445 183.107 282.129 183.504 283.182 183.504C284.234 183.504 284.918 183.107 284.932 182.451C284.918 181.795 284.234 181.371 283.182 181.371ZM303.184 178.158V182.834H304.482V177.912H305.713V190.162H304.482V183.9H303.184V189.574H301.98V178.158H303.184ZM298.002 179.43V180.496H296.539V185.938C296.97 185.917 297.482 185.862 298.043 185.719L298.152 186.812C297.168 187.031 296.416 187.045 295.855 187.045H295.35V179.43H298.002ZM301.229 179.43V180.496H299.684V185.938C300.21 185.924 300.784 185.869 301.434 185.691L301.543 186.785C300.559 187.031 299.752 187.045 299.027 187.045H298.508V179.43H301.229Z" fill="#353A40"/>
<path d="M173.998 177.926V186.895H172.699V182.287H170.361V181.234H172.699V177.926H173.998ZM174.326 188.85V189.902H166.041V186.088H167.34V188.85H174.326ZM168.174 180.4C168.174 181.932 169.281 183.463 171.127 184.078L170.457 185.117C169.083 184.632 168.064 183.647 167.531 182.438C166.998 183.784 165.925 184.871 164.469 185.391L163.799 184.338C165.686 183.695 166.848 182.082 166.848 180.4V179.922H164.195V178.855H170.799V179.922H168.174V180.4ZM187.082 184.105V185.158H182.215V187.537H180.93V185.158H175.871V184.105H187.082ZM185.633 178.486V182.834H177.307V178.486H185.633ZM178.578 179.512V181.809H184.348V179.512H178.578ZM185.838 188.85V189.902H177.266V186.375H178.564V188.85H185.838ZM192.373 180.086C192.373 181.631 193.48 183.148 195.326 183.777L194.656 184.789C193.282 184.311 192.264 183.333 191.73 182.123C191.197 183.47 190.124 184.55 188.668 185.062L187.998 184.037C189.885 183.395 191.047 181.754 191.047 180.1V179.758H188.395V178.705H194.998V179.758H192.373V180.086ZM198.197 185.855V190.162H196.898V186.908H189.898V185.855H198.197ZM198.197 177.912V185.24H196.898V182.096H194.629V181.029H196.898V177.912H198.197ZM213.947 177.912V187.072H212.717V177.912H213.947ZM211.555 178.131V186.703H210.324V182.369H208.807V184.748H204.021V179.088H208.807V181.303H210.324V178.131H211.555ZM214.303 188.85V189.902H205.826V185.938H207.111V188.85H214.303ZM205.238 180.113V183.736H207.604V180.113H205.238ZM225.541 184.188V185.227H221.836V187.619H226.812V188.686H215.602V187.619H220.537V185.227H217.01V178.855H225.418V179.922H218.322V181.494H225.158V182.52H218.322V184.188H225.541ZM237.859 177.926V185.432H236.561V177.926H237.859ZM233.949 178.678V182.15H229.615V183.682C231.755 183.661 233.334 183.6 235.193 183.312L235.357 184.365C233.361 184.693 231.68 184.748 229.369 184.748H228.344V181.152H232.664V179.744H228.316V178.678H233.949ZM233.771 185.664C236.355 185.664 237.941 186.471 237.941 187.906C237.941 189.314 236.355 190.148 233.771 190.135C231.174 190.148 229.602 189.314 229.602 187.906C229.602 186.471 231.174 185.664 233.771 185.664ZM233.771 186.689C231.953 186.689 230.887 187.127 230.887 187.906C230.887 188.686 231.953 189.109 233.771 189.109C235.59 189.109 236.643 188.686 236.643 187.906C236.643 187.127 235.59 186.689 233.771 186.689Z" fill="#ED28FF"/>
<g clip-path="url(#clip0_409_1643)">
<path d="M325 178.602C321.748 178.602 319.102 181.248 319.102 184.5C319.102 186.208 319.996 187.411 320.785 188.471C321.391 189.286 321.914 189.989 321.914 190.75C321.914 191.074 322.176 191.336 322.5 191.336H327.5C327.824 191.336 328.086 191.074 328.086 190.75C328.086 189.989 328.609 189.286 329.215 188.471C330.004 187.411 330.898 186.208 330.898 184.5C330.898 181.248 328.252 178.602 325 178.602Z" fill="#FFD34E"/>
<path d="M326.836 186.062C326.836 185.739 326.574 185.477 326.25 185.477C325.926 185.477 325.664 185.739 325.664 186.062C325.664 186.429 325.366 186.727 325 186.727C324.634 186.727 324.336 186.429 324.336 186.062C324.336 185.739 324.074 185.477 323.75 185.477C323.426 185.477 323.164 185.739 323.164 186.062C323.164 186.87 323.688 187.557 324.414 187.802V190.75C324.414 191.074 324.676 191.336 325 191.336C325.324 191.336 325.586 191.074 325.586 190.75V187.802C326.312 187.557 326.836 186.87 326.836 186.062Z" fill="#FFB700"/>
<path d="M321.914 190.75V192.664C321.914 193.676 322.738 194.5 323.75 194.5H326.25C327.262 194.5 328.086 193.676 328.086 192.664V190.75H321.914Z" fill="#78777F"/>
<path d="M330 178.836C329.85 178.836 329.7 178.779 329.586 178.664C329.357 178.436 329.357 178.065 329.586 177.836L330.836 176.586C331.064 176.357 331.435 176.357 331.664 176.586C331.893 176.814 331.893 177.185 331.664 177.414L330.414 178.664C330.3 178.779 330.15 178.836 330 178.836Z" fill="#FFB700"/>
<path d="M320 178.836C319.85 178.836 319.7 178.779 319.586 178.664L318.336 177.414C318.107 177.186 318.107 176.815 318.336 176.586C318.564 176.357 318.935 176.357 319.164 176.586L320.414 177.836C320.643 178.064 320.643 178.435 320.414 178.664C320.3 178.779 320.15 178.836 320 178.836Z" fill="#FFB700"/>
<path d="M325 177.273C324.676 177.273 324.414 177.011 324.414 176.688V175.086C324.414 174.762 324.676 174.5 325 174.5C325.324 174.5 325.586 174.762 325.586 175.086V176.688C325.586 177.011 325.324 177.273 325 177.273Z" fill="#FFB700"/>
</g>
</g>
<g opacity="0.99">
<rect x="24" y="219" width="204" height="45" rx="22.5" fill="white"/>
<path d="M43.8418 235.473C45.4551 235.459 46.6992 236.396 46.9727 237.77H49.3652V234.912H50.6641V241.488H49.3652V238.836H46.9863C46.7197 240.244 45.4688 241.188 43.8418 241.188C41.9688 241.188 40.6289 240.012 40.6289 238.316C40.6289 236.648 41.9688 235.459 43.8418 235.473ZM43.8418 236.553C42.6797 236.553 41.873 237.264 41.873 238.316C41.873 239.369 42.6797 240.094 43.8418 240.094C44.9766 240.094 45.7832 239.369 45.7832 238.316C45.7832 237.264 44.9766 236.553 43.8418 236.553ZM43.9648 242.076V243.498H49.3652V242.076H50.6641V247.012H42.6797V242.076H43.9648ZM43.9648 245.945H49.3652V244.523H43.9648V245.945ZM63.0781 234.912V247.162H61.8477V234.912H63.0781ZM60.5762 235.227V246.561H59.3457V242.391H57.2539V241.324H59.3457V239.328H57.459C56.8643 241.386 55.5586 243.17 53.248 244.551L52.4824 243.621C55.0801 242.076 56.3311 240.019 56.5566 237.496H53.084V236.43H57.8418C57.8418 237.059 57.7939 237.667 57.6914 238.262H59.3457V235.227H60.5762ZM78.2266 234.926V243.826H76.9277V234.926H78.2266ZM78.5957 245.85V246.902H70.2148V242.924H71.5273V245.85H78.5957ZM71.582 235.746C73.4277 235.746 74.8359 237.004 74.8359 238.781C74.8359 240.586 73.4277 241.83 71.582 241.83C69.7363 241.83 68.3145 240.586 68.3145 238.781C68.3145 237.004 69.7363 235.746 71.582 235.746ZM71.582 236.881C70.4336 236.881 69.5859 237.66 69.5859 238.781C69.5859 239.93 70.4336 240.695 71.582 240.695C72.7031 240.695 73.5645 239.93 73.5645 238.781C73.5645 237.66 72.7031 236.881 71.582 236.881ZM84.4199 238.029C84.4062 240.203 85.6641 242.418 87.4961 243.307L86.6895 244.346C85.3564 243.655 84.3242 242.281 83.791 240.641C83.2373 242.391 82.1641 243.854 80.7695 244.578L79.9629 243.525C81.8496 242.623 83.1211 240.271 83.1211 238.029V235.938H84.4199V238.029ZM89.7109 234.912V239.793H91.6797V240.9H89.7109V247.162H88.4121V234.912H89.7109ZM102.412 234.912V247.189H101.113V234.912H102.412ZM95.8633 235.828C97.6816 235.828 99.0215 237.496 99.0215 240.121C99.0215 242.76 97.6816 244.428 95.8633 244.428C94.0176 244.428 92.6914 242.76 92.6914 240.121C92.6914 237.496 94.0176 235.828 95.8633 235.828ZM95.8633 236.99C94.7285 236.99 93.9492 238.193 93.9492 240.121C93.9492 242.062 94.7285 243.266 95.8633 243.266C96.9844 243.266 97.7637 242.062 97.7637 240.121C97.7637 238.193 96.9844 236.99 95.8633 236.99ZM114.307 241.434V242.473H105.775V235.924H114.184V236.977H107.088V238.631H113.924V239.656H107.088V241.434H114.307ZM115.578 244.551V245.617H104.367V244.551H115.578Z" fill="#ED28FF"/>
<path d="M126.01 234.912V239.793H127.91V240.873H126.01V247.148H124.711V234.912H126.01ZM122.811 236.197C122.797 239.738 121.238 242.896 117.205 244.893L116.48 243.881C119.55 242.35 121.218 240.135 121.484 237.277H117.096V236.197H122.811ZM141.773 235.418V236.307C141.773 237.229 141.773 238.337 141.486 239.752H143.195V240.791H138.205V242.568C140.488 242.698 141.855 243.512 141.855 244.838C141.855 246.314 140.229 247.148 137.562 247.135C134.883 247.148 133.256 246.314 133.256 244.838C133.256 243.512 134.623 242.698 136.92 242.568V240.791H131.984V239.752H140.188C140.475 238.378 140.488 237.359 140.488 236.457H133.393V235.418H141.773ZM137.562 243.607C135.662 243.607 134.555 244.045 134.568 244.838C134.555 245.658 135.662 246.096 137.562 246.096C139.436 246.096 140.543 245.658 140.557 244.838C140.543 244.045 139.436 243.607 137.562 243.607ZM153.873 235.527V236.457C153.873 237.421 153.873 238.515 153.559 239.998H155.295V241.064H144.084V239.998H152.246C152.574 238.569 152.588 237.523 152.588 236.594H145.492V235.527H153.873ZM153.887 242.623V247.012H145.451V242.623H153.887ZM146.723 243.648V245.959H152.602V243.648H146.723ZM165.809 234.871V237.742H167.6V238.809H165.809V241.611H164.51V234.871H165.809ZM165.809 242.186V245.029H159.191V246.055H166.232V247.039H157.92V244.113H164.523V243.156H157.893V242.186H165.809ZM163.498 235.951V236.977H156.197V235.951H159.205V234.803H160.504V235.951H163.498ZM159.848 237.441C161.639 237.441 162.814 238.207 162.814 239.451C162.814 240.695 161.639 241.447 159.848 241.447C158.043 241.447 156.867 240.695 156.867 239.451C156.867 238.207 158.043 237.441 159.848 237.441ZM159.848 238.371C158.795 238.371 158.111 238.795 158.125 239.451C158.111 240.107 158.795 240.504 159.848 240.504C160.9 240.504 161.584 240.107 161.598 239.451C161.584 238.795 160.9 238.371 159.848 238.371ZM179.85 235.158V239.834H181.148V234.912H182.379V247.162H181.148V240.9H179.85V246.574H178.646V235.158H179.85ZM174.668 236.43V237.496H173.205V242.938C173.636 242.917 174.148 242.862 174.709 242.719L174.818 243.812C173.834 244.031 173.082 244.045 172.521 244.045H172.016V236.43H174.668ZM177.895 236.43V237.496H176.35V242.938C176.876 242.924 177.45 242.869 178.1 242.691L178.209 243.785C177.225 244.031 176.418 244.045 175.693 244.045H175.174V236.43H177.895Z" fill="#353A40"/>
<path d="M195.292 240.916H198.21C198.371 240.916 198.502 241.047 198.502 241.208V248.211C198.502 248.372 198.371 248.503 198.21 248.503H195.292C195.131 248.503 195 248.372 195 248.211V241.208C195 241.047 195.131 240.916 195.292 240.916Z" fill="#FFD34E"/>
<path d="M200.538 234.496H203.456C203.617 234.496 203.748 234.627 203.748 234.788V248.211C203.748 248.372 203.617 248.503 203.456 248.503H200.538C200.377 248.503 200.246 248.372 200.246 248.211V234.788C200.246 234.627 200.377 234.496 200.538 234.496Z" fill="#33DFB1"/>
<path d="M205.79 237.415H208.708C208.869 237.415 209 237.546 209 237.707V248.212C209 248.373 208.869 248.503 208.708 248.503H205.79C205.629 248.503 205.498 248.373 205.498 248.212V237.707C205.498 237.546 205.629 237.415 205.79 237.415Z" fill="#00D5F6"/>
</g>
<g opacity="0.99">
<rect x="80" y="276" width="271" height="45" rx="22.5" fill="white"/>
<path d="M107.648 298.324V299.363H102.781V301.619H101.496V299.363H96.4375V298.324H107.648ZM106.404 302.85V303.902H97.832V300.553H99.1172V302.85H106.404ZM99.1992 292.295V293.785H104.873V292.295H106.172V297.244H97.9141V292.295H99.1992ZM99.1992 296.205H104.873V294.756H99.1992V296.205ZM111.832 292.828C113.664 292.828 114.963 294.496 114.977 297.121C114.963 299.76 113.664 301.428 111.832 301.428C110 301.428 108.688 299.76 108.701 297.121C108.688 294.496 110 292.828 111.832 292.828ZM111.832 293.99C110.711 293.99 109.945 295.193 109.945 297.121C109.945 299.062 110.711 300.266 111.832 300.266C112.967 300.266 113.732 299.062 113.732 297.121C113.732 295.193 112.967 293.99 111.832 293.99ZM119.994 294.906V296.014H118.094V298.557H119.994V299.623H118.094V304.162H116.795V291.912H118.094V294.906H119.994ZM130.85 291.912V298.283H129.564V296.82H126.885V297.832H121.238V292.473H122.537V294.127H125.6V292.473H126.885V293.594H129.564V291.912H130.85ZM130.85 298.83V301.838H124.164V302.973H131.287V304.012H122.865V300.867H129.564V299.842H122.838V298.83H130.85ZM122.537 296.793H125.6V295.125H122.537V296.793ZM126.885 295.822H129.564V294.592H126.885V295.822ZM263.098 297.531V298.529H251.887V297.531H263.098ZM261.717 299.391V302.084H254.525V303.096H262.1V304.012H253.227V301.223H260.432V300.32H253.213V299.391H261.717ZM261.689 292.227V294.879H254.607V295.809H261.895V296.725H253.322V294.018H260.391V293.143H253.295V292.227H261.689ZM277.604 291.926V301.209H276.305V300.033H273.844V299.117H276.305V291.926H277.604ZM277.904 302.85V303.902H269.059V300.307H270.344V302.85H277.904ZM267.363 297.518C269.633 297.504 272.682 297.477 275.293 297.148L275.375 298.078C274.329 298.249 273.229 298.365 272.148 298.434V300.826H270.85V298.502C269.66 298.557 268.519 298.563 267.527 298.557L267.363 297.518ZM271.369 292.391C273.16 292.391 274.404 293.252 274.404 294.551C274.404 295.85 273.16 296.684 271.369 296.684C269.551 296.684 268.32 295.85 268.32 294.551C268.32 293.252 269.551 292.391 271.369 292.391ZM271.369 293.361C270.275 293.348 269.537 293.812 269.551 294.551C269.537 295.275 270.275 295.727 271.369 295.727C272.422 295.727 273.16 295.275 273.174 294.551C273.16 293.812 272.422 293.348 271.369 293.361ZM289.143 291.871V294.742H290.934V295.809H289.143V298.611H287.844V291.871H289.143ZM289.143 299.186V302.029H282.525V303.055H289.566V304.039H281.254V301.113H287.857V300.156H281.227V299.186H289.143ZM286.832 292.951V293.977H279.531V292.951H282.539V291.803H283.838V292.951H286.832ZM283.182 294.441C284.973 294.441 286.148 295.207 286.148 296.451C286.148 297.695 284.973 298.447 283.182 298.447C281.377 298.447 280.201 297.695 280.201 296.451C280.201 295.207 281.377 294.441 283.182 294.441ZM283.182 295.371C282.129 295.371 281.445 295.795 281.459 296.451C281.445 297.107 282.129 297.504 283.182 297.504C284.234 297.504 284.918 297.107 284.932 296.451C284.918 295.795 284.234 295.371 283.182 295.371ZM303.184 292.158V296.834H304.482V291.912H305.713V304.162H304.482V297.9H303.184V303.574H301.98V292.158H303.184ZM298.002 293.43V294.496H296.539V299.938C296.97 299.917 297.482 299.862 298.043 299.719L298.152 300.812C297.168 301.031 296.416 301.045 295.855 301.045H295.35V293.43H298.002ZM301.229 293.43V294.496H299.684V299.938C300.21 299.924 300.784 299.869 301.434 299.691L301.543 300.785C300.559 301.031 299.752 301.045 299.027 301.045H298.508V293.43H301.229Z" fill="#353A40"/>
<path d="M146.381 291.926V300.895H145.082V296.287H142.744V295.234H145.082V291.926H146.381ZM146.709 302.85V303.902H138.424V300.088H139.723V302.85H146.709ZM140.557 294.4C140.557 295.932 141.664 297.463 143.51 298.078L142.84 299.117C141.466 298.632 140.447 297.647 139.914 296.438C139.381 297.784 138.308 298.871 136.852 299.391L136.182 298.338C138.068 297.695 139.23 296.082 139.23 294.4V293.922H136.578V292.855H143.182V293.922H140.557V294.4ZM159.465 298.105V299.158H154.598V301.537H153.312V299.158H148.254V298.105H159.465ZM158.016 292.486V296.834H149.689V292.486H158.016ZM150.961 293.512V295.809H156.73V293.512H150.961ZM158.221 302.85V303.902H149.648V300.375H150.947V302.85H158.221ZM169.91 291.912V296.793H171.811V297.873H169.91V304.148H168.611V291.912H169.91ZM166.711 293.197C166.697 296.738 165.139 299.896 161.105 301.893L160.381 300.881C163.45 299.35 165.118 297.135 165.385 294.277H160.996V293.197H166.711ZM176.145 292.691C178.031 292.691 179.439 293.881 179.439 295.604C179.439 297.121 178.346 298.222 176.801 298.461V300.402C177.888 300.354 178.975 300.272 179.986 300.143L180.082 301.113C177.498 301.564 174.641 301.578 172.521 301.564L172.316 300.498C173.267 300.491 174.36 300.484 175.502 300.457V298.461C173.916 298.235 172.836 297.128 172.85 295.604C172.836 293.881 174.217 292.691 176.145 292.691ZM176.145 293.785C174.969 293.799 174.107 294.51 174.107 295.604C174.107 296.697 174.969 297.422 176.145 297.408C177.307 297.422 178.154 296.697 178.168 295.604C178.154 294.51 177.307 293.799 176.145 293.785ZM182.023 291.912V296.889H183.91V297.982H182.023V304.162H180.725V291.912H182.023ZM199.195 301.537V302.604H187.984V301.537H192.893V298.625H194.178V301.537H199.195ZM194.205 293.621C194.205 295.562 196.338 297.381 198.703 297.777L198.143 298.844C196.16 298.447 194.335 297.224 193.521 295.535C192.715 297.217 190.91 298.461 188.941 298.844L188.367 297.777C190.719 297.381 192.838 295.562 192.838 293.621V292.691H194.205V293.621ZM209.736 292.664V293.553C209.736 294.64 209.736 296.027 209.408 297.982H211.254V299.049H208.396V304.148H207.111V299.049H204.172V304.148H202.873V299.049H200.084V297.982H208.096C208.458 296.137 208.479 294.776 208.479 293.73H201.479V292.664H209.736ZM223.395 301.551V302.631H212.184V301.551H217.119V298.721H213.469V292.896H222.055V298.721H218.404V301.551H223.395ZM214.727 293.936V297.695H220.783V293.936H214.727ZM238.215 291.912V304.162H236.971V297.832H235.385V303.533H234.195V292.158H235.385V296.766H236.971V291.912H238.215ZM232.705 293.389V294.441H229.41V300.115C230.914 300.102 232.049 300.033 233.361 299.787L233.457 300.854C231.98 301.154 230.723 301.209 228.932 301.223H228.111V293.389H232.705ZM249.398 291.912V297.039H251.244V298.133H249.398V304.162H248.1V291.912H249.398ZM239.65 300.826C240.614 300.826 241.735 300.826 242.904 300.785V299.541C241.523 299.35 240.621 298.516 240.635 297.326C240.621 295.945 241.811 295.029 243.561 295.029C245.297 295.029 246.5 295.945 246.514 297.326C246.5 298.516 245.584 299.356 244.203 299.555V300.73C245.29 300.689 246.384 300.601 247.402 300.457L247.484 301.414C244.832 301.893 241.961 301.906 239.855 301.906L239.65 300.826ZM247.225 293.361V294.4H239.883V293.361H242.904V291.939H244.203V293.361H247.225ZM243.561 296.041C242.535 296.041 241.852 296.547 241.852 297.326C241.852 298.105 242.535 298.584 243.561 298.584C244.586 298.584 245.27 298.105 245.27 297.326C245.27 296.547 244.586 296.041 243.561 296.041Z" fill="#ED28FF"/>
<path d="M329.999 290.167H319.999C319.115 290.167 318.267 290.518 317.642 291.143C317.017 291.768 316.666 292.616 316.666 293.5V300.167C316.666 301.051 317.017 301.899 317.642 302.524C318.267 303.149 319.115 303.5 319.999 303.5V306C319.998 306.166 320.047 306.328 320.138 306.466C320.23 306.604 320.36 306.711 320.513 306.775C320.666 306.838 320.834 306.855 320.997 306.822C321.159 306.79 321.308 306.71 321.424 306.592L324.508 303.5H329.999C330.883 303.5 331.731 303.149 332.356 302.524C332.981 301.899 333.333 301.051 333.333 300.167V293.5C333.333 292.616 332.981 291.768 332.356 291.143C331.731 290.518 330.883 290.167 329.999 290.167Z" fill="#00D5F6"/>
<path d="M321.25 298.084C321.94 298.084 322.5 297.524 322.5 296.834C322.5 296.144 321.94 295.584 321.25 295.584C320.56 295.584 320 296.144 320 296.834C320 297.524 320.56 298.084 321.25 298.084Z" fill="white"/>
<path d="M325 298.084C325.69 298.084 326.25 297.524 326.25 296.834C326.25 296.144 325.69 295.584 325 295.584C324.31 295.584 323.75 296.144 323.75 296.834C323.75 297.524 324.31 298.084 325 298.084Z" fill="white"/>
<path d="M328.75 298.084C329.44 298.084 330 297.524 330 296.834C330 296.144 329.44 295.584 328.75 295.584C328.06 295.584 327.5 296.144 327.5 296.834C327.5 297.524 328.06 298.084 328.75 298.084Z" fill="white"/>
</g>
<g opacity="0.99">
<rect x="24" y="333" width="318" height="45" rx="22.5" fill="white"/>
<path d="M50.6641 348.912V358.004H49.3652V354.627H47.4512V353.533H49.3652V352.248H47.4512V351.182H49.3652V348.912H50.6641ZM47.3145 349.869V350.922H46.1387V355.023C46.6582 354.982 47.1572 354.941 47.6426 354.887L47.6973 355.844C45.3457 356.213 42.5977 356.254 40.6289 356.268L40.4648 355.174C40.9229 355.174 41.4287 355.174 41.9551 355.16V350.922H40.8066V349.869H47.3145ZM50.9785 359.85V360.902H42.6797V357.266H43.9922V359.85H50.9785ZM43.2129 355.146C43.7666 355.133 44.3271 355.119 44.8945 355.092V350.922H43.2129V355.146ZM62.0938 348.912V353.875H64.0625V354.955H62.0938V361.162H60.8086V348.912H62.0938ZM59.7422 350.826V351.893H52.4824V350.826H55.5039V349.076H56.8027V350.826H59.7422ZM56.1602 352.795C57.9102 352.795 59.1953 353.971 59.209 355.639C59.1953 357.32 57.9102 358.482 56.1602 358.496C54.3965 358.482 53.1113 357.32 53.1113 355.639C53.1113 353.971 54.3965 352.795 56.1602 352.795ZM56.1602 353.861C55.1211 353.861 54.3418 354.586 54.3555 355.639C54.3418 356.705 55.1211 357.416 56.1602 357.402C57.1992 357.416 57.9648 356.705 57.9648 355.639C57.9648 354.586 57.1992 353.861 56.1602 353.861ZM75.1777 348.912V361.162H73.9473V348.912H75.1777ZM72.5938 349.227V360.561H71.3633V354.873H68.9707C68.2393 356.295 67.0771 357.539 65.3477 358.551L64.6094 357.621C67.207 356.076 68.458 354.019 68.6836 351.496H65.1836V350.43H69.9688C69.9619 351.626 69.7979 352.768 69.4219 353.834H71.3633V349.227H72.5938ZM78.9512 359.057L77.8574 362.83H76.6953L77.4199 359.057H78.9512ZM89.998 350.156C89.9844 353.766 88.8086 356.979 84.4609 359.193L83.7363 358.209C85.8828 357.108 87.209 355.789 87.9473 354.23L83.9824 354.613L83.7773 353.492L88.3574 353.205C88.542 352.576 88.6582 351.906 88.7129 351.209H84.4062V350.156H89.998ZM93.9492 348.912V361.162H92.6641V354.832H89.9707V353.766H92.6641V348.912H93.9492ZM106.035 348.912V361.162H104.723V348.912H106.035ZM103.123 350.17V351.236H101.852V356.924C102.487 356.883 103.116 356.828 103.725 356.76L103.793 357.717C101.141 358.141 98.2285 358.182 95.9727 358.195L95.8223 357.115C96.3281 357.115 96.8682 357.108 97.4355 357.102V351.236H96.1504V350.17H103.123ZM98.6934 357.074C99.3086 357.061 99.9443 357.04 100.58 357.006V351.236H98.6934V357.074ZM120.992 348.926V352.863H122.77V353.943H120.992V358.086H119.693V348.926H120.992ZM118.682 350.348V351.4H111.381V350.348H114.389V348.912H115.688V350.348H118.682ZM115.031 351.988C116.795 351.988 117.998 352.904 117.998 354.299C117.998 355.693 116.795 356.596 115.031 356.596C113.254 356.596 112.051 355.693 112.051 354.299C112.051 352.904 113.254 351.988 115.031 351.988ZM115.031 352.986C113.992 352.986 113.295 353.492 113.309 354.299C113.295 355.092 113.992 355.584 115.031 355.584C116.07 355.584 116.768 355.092 116.781 354.299C116.768 353.492 116.07 352.986 115.031 352.986ZM121.512 359.85V360.902H113.227V357.361H114.525V359.85H121.512ZM131.164 351.387C131.164 352.986 132.258 354.477 134.145 355.119L133.42 356.09C132.066 355.625 131.062 354.668 130.535 353.465C129.995 354.812 128.929 355.885 127.486 356.404L126.803 355.365C128.703 354.709 129.852 353.082 129.865 351.387V350.977H127.199V349.938H133.803V350.977H131.164V351.387ZM136.51 348.898V352.604H138.287V353.684H136.51V357.867H135.211V348.898H136.51ZM137.029 359.85V360.902H128.744V357.047H130.043V359.85H137.029ZM144.562 349.65C147.133 349.65 149.088 351.004 149.088 353.068C149.088 355.133 147.133 356.5 144.562 356.486C141.992 356.5 140.051 355.133 140.051 353.068C140.051 351.004 141.992 349.65 144.562 349.65ZM144.562 350.703C142.689 350.689 141.281 351.646 141.295 353.068C141.281 354.504 142.689 355.42 144.562 355.42C146.436 355.42 147.83 354.504 147.83 353.068C147.83 351.646 146.436 350.689 144.562 350.703ZM150.195 358.496V359.576H138.984V358.496H150.195ZM162.295 358.605V359.699H151.084V358.605H156.02V356.459H152.451V352.562H159.643V350.84H152.424V349.773H160.928V353.602H153.736V355.393H161.215V356.459H157.305V358.605H162.295ZM177.115 348.912V361.162H175.871V354.832H174.285V360.533H173.096V349.158H174.285V353.766H175.871V348.912H177.115ZM171.605 350.389V351.441H168.311V357.115C169.814 357.102 170.949 357.033 172.262 356.787L172.357 357.854C170.881 358.154 169.623 358.209 167.832 358.223H167.012V350.389H171.605ZM188.299 348.912V354.039H190.145V355.133H188.299V361.162H187V348.912H188.299ZM178.551 357.826C179.515 357.826 180.636 357.826 181.805 357.785V356.541C180.424 356.35 179.521 355.516 179.535 354.326C179.521 352.945 180.711 352.029 182.461 352.029C184.197 352.029 185.4 352.945 185.414 354.326C185.4 355.516 184.484 356.356 183.104 356.555V357.73C184.19 357.689 185.284 357.601 186.303 357.457L186.385 358.414C183.732 358.893 180.861 358.906 178.756 358.906L178.551 357.826ZM186.125 350.361V351.4H178.783V350.361H181.805V348.939H183.104V350.361H186.125ZM182.461 353.041C181.436 353.041 180.752 353.547 180.752 354.326C180.752 355.105 181.436 355.584 182.461 355.584C183.486 355.584 184.17 355.105 184.17 354.326C184.17 353.547 183.486 353.041 182.461 353.041Z" fill="#ED28FF"/>
<path d="M201.998 354.531V355.529H190.787V354.531H201.998ZM200.617 356.391V359.084H193.426V360.096H201V361.012H192.127V358.223H199.332V357.32H192.113V356.391H200.617ZM200.59 349.227V351.879H193.508V352.809H200.795V353.725H192.223V351.018H199.291V350.143H192.195V349.227H200.59ZM210.816 352.029C210.803 354.271 212.156 356.514 214.057 357.361L213.277 358.387C211.869 357.717 210.755 356.343 210.188 354.668C209.613 356.459 208.485 357.942 207.016 358.66L206.223 357.566C208.15 356.705 209.504 354.367 209.504 352.029V349.938H210.816V352.029ZM216.463 348.912V361.189H215.164V348.912H216.463ZM222.697 351.113C222.697 352.672 223.777 354.162 225.65 354.791L224.994 355.803C223.606 355.324 222.588 354.367 222.055 353.164C221.521 354.49 220.462 355.529 219.02 356.035L218.322 355.023C220.236 354.367 221.385 352.795 221.398 351.1V350.771H218.705V349.719H225.336V350.771H222.697V351.113ZM228.043 348.912V352.057H229.82V353.15H228.043V356.295H226.744V348.912H228.043ZM228.043 356.896V361.162H226.744V357.949H219.949V356.896H228.043ZM240.061 348.912V353.875H242.029V354.955H240.061V361.162H238.775V348.912H240.061ZM237.709 350.826V351.893H230.449V350.826H233.471V349.076H234.77V350.826H237.709ZM234.127 352.795C235.877 352.795 237.162 353.971 237.176 355.639C237.162 357.32 235.877 358.482 234.127 358.496C232.363 358.482 231.078 357.32 231.078 355.639C231.078 353.971 232.363 352.795 234.127 352.795ZM234.127 353.861C233.088 353.861 232.309 354.586 232.322 355.639C232.309 356.705 233.088 357.416 234.127 357.402C235.166 357.416 235.932 356.705 235.932 355.639C235.932 354.586 235.166 353.861 234.127 353.861ZM252.529 350.088V351.291C252.529 352.809 252.529 354.504 252.064 357.006L250.752 356.869C251.23 354.504 251.23 352.768 251.23 351.291V351.141H243.793V350.088H252.529ZM253.787 358.428V359.508H242.617V358.428H246.869V354.107H248.154V358.428H253.787ZM268.293 348.926V355.721H266.994V348.926H268.293ZM262.592 350.553C262.578 352.18 263.768 353.67 265.641 354.244L265.012 355.27C263.569 354.805 262.496 353.841 261.936 352.59C261.382 353.937 260.288 354.996 258.818 355.488L258.176 354.463C260.09 353.834 261.266 352.248 261.266 350.553V349.363H262.592V350.553ZM268.375 356.391V357.43H266.762V359.959H268.498V361.012H259.967V359.959H261.717V357.43H260.076V356.391H268.375ZM263.002 359.959H265.477V357.43H263.002V359.959ZM275.812 349.117C278.574 349.117 280.188 349.855 280.188 351.223C280.188 352.59 278.574 353.342 275.812 353.342C273.051 353.342 271.438 352.59 271.438 351.223C271.438 349.855 273.051 349.117 275.812 349.117ZM275.812 350.074C273.857 350.074 272.777 350.498 272.791 351.223C272.777 351.975 273.857 352.371 275.812 352.371C277.768 352.371 278.848 351.975 278.848 351.223C278.848 350.498 277.768 350.074 275.812 350.074ZM281.404 354.094V355.133H270.234V354.094H281.404ZM279.996 356.076V358.947H272.859V360.041H280.338V361.039H271.588V358.004H278.711V357.047H271.574V356.076H279.996ZM293.9 349.158V353.834H295.199V348.912H296.43V361.162H295.199V354.9H293.9V360.574H292.697V349.158H293.9ZM288.719 350.43V351.496H287.256V356.938C287.687 356.917 288.199 356.862 288.76 356.719L288.869 357.812C287.885 358.031 287.133 358.045 286.572 358.045H286.066V350.43H288.719ZM291.945 350.43V351.496H290.4V356.938C290.927 356.924 291.501 356.869 292.15 356.691L292.26 357.785C291.275 358.031 290.469 358.045 289.744 358.045H289.225V350.43H291.945Z" fill="#353A40"/>
<path d="M321.286 351.143V354.714C321.286 356.608 320.533 358.425 319.194 359.765C317.854 361.104 316.037 361.857 314.143 361.857C312.248 361.857 310.432 361.104 309.092 359.765C307.753 358.425 307 356.608 307 354.714V351.143H321.286Z" fill="#E9AF68"/>
<path d="M314.143 353.285C318.088 353.285 321.286 352.325 321.286 351.142C321.286 349.958 318.088 348.999 314.143 348.999C310.198 348.999 307 349.958 307 351.142C307 352.325 310.198 353.285 314.143 353.285Z" fill="#EDD6B7"/>
<path d="M314.143 353.285C318.088 353.285 321.286 352.325 321.286 351.142C321.286 349.958 318.088 348.999 314.143 348.999C310.198 348.999 307 349.958 307 351.142C307 352.325 310.198 353.285 314.143 353.285Z" fill="#EDD6B7"/>
<path d="M314.143 353.285C318.088 353.285 321.286 352.325 321.286 351.142C321.286 349.958 318.088 348.999 314.143 348.999C310.198 348.999 307 349.958 307 351.142C307 352.325 310.198 353.285 314.143 353.285Z" fill="#EDD6B7"/>
<path d="M314.143 353.285C318.088 353.285 321.286 352.325 321.286 351.142C321.286 349.958 318.088 348.999 314.143 348.999C310.198 348.999 307 349.958 307 351.142C307 352.325 310.198 353.285 314.143 353.285Z" fill="#F8CC96"/>
<path d="M314.143 353.285C316.872 353.285 319.241 352.826 320.444 352.151C319.219 351.55 316.825 351.143 314.143 351.143C311.461 351.143 309.067 351.55 307.842 352.151C309.044 352.826 311.414 353.285 314.143 353.285Z" fill="#9B5B14"/>
<path d="M321.286 352.215V353.643H323.429V354.494C323.429 354.617 323.405 354.739 323.358 354.852C323.311 354.965 323.242 355.069 323.155 355.155C323.068 355.242 322.965 355.311 322.852 355.358C322.738 355.405 322.616 355.429 322.494 355.429H321.248C321.199 355.914 321.099 356.393 320.951 356.858H322.388C322.814 356.858 323.233 356.747 323.604 356.537C323.975 356.327 324.286 356.024 324.505 355.659C324.735 355.275 324.857 354.836 324.857 354.388V352.215H321.286Z" fill="#D6913E"/>
</g>
<defs>
<linearGradient id="paint0_linear_409_1643" x1="0" y1="0" x2="353.924" y2="435.142" gradientUnits="userSpaceOnUse">
<stop stop-color="#FFF1EA"/>
<stop offset="1" stop-color="#FEF2FF"/>
</linearGradient>
<clipPath id="clip0_409_1643">
<rect width="20" height="20" fill="white" transform="translate(315 174.5)"/>
</clipPath>
</defs>
</svg>
