<svg width="180" height="180" viewBox="0 0 180 180" fill="none" xmlns="http://www.w3.org/2000/svg">
<rect width="180" height="180" rx="16" fill="url(#paint0_linear_409_1718)"/>
<path d="M114.727 34.6641H65.2734C62.3655 34.6641 60 37.0296 60 39.9375V68.0625C60 70.9704 62.3655 73.3359 65.2734 73.3359H114.727C117.634 73.3359 120 70.9704 120 68.0625V39.9375C120 37.0296 117.634 34.6641 114.727 34.6641Z" fill="#FF6C6C"/>
<path d="M81.2109 46.9688C81.2109 44.0609 78.8454 41.6953 75.9375 41.6953C73.0296 41.6953 70.6641 44.0609 70.6641 46.9688C70.6641 49.8766 73.0296 52.2422 75.9375 52.2422C78.8454 52.2422 81.2109 49.8766 81.2109 46.9688ZM75.9375 52.2422C71.0898 52.2422 67.1484 56.1852 67.1484 61.0312V64.5469C67.1484 65.5185 67.9346 66.3047 68.9062 66.3047H82.9688C83.9404 66.3047 84.7266 65.5185 84.7266 64.5469V61.0312C84.7266 56.1852 80.7852 52.2422 75.9375 52.2422Z" fill="#C14040"/>
<path d="M111.094 41.6953H90C89.0284 41.6953 88.2422 42.4815 88.2422 43.4531V50.4844C88.2422 51.456 89.0284 52.2422 90 52.2422H111.094C112.065 52.2422 112.852 51.456 112.852 50.4844V43.4531C112.852 42.4815 112.065 41.6953 111.094 41.6953Z" fill="#AB3D3D"/>
<path d="M95.2734 57.5156C95.2734 56.5448 94.4864 55.7578 93.5156 55.7578C92.5448 55.7578 91.7578 56.5448 91.7578 57.5156C91.7578 58.4864 92.5448 59.2734 93.5156 59.2734C94.4864 59.2734 95.2734 58.4864 95.2734 57.5156ZM102.305 57.5156C102.305 56.5448 101.518 55.7578 100.547 55.7578C99.5761 55.7578 98.7891 56.5448 98.7891 57.5156C98.7891 58.4864 99.5761 59.2734 100.547 59.2734C101.518 59.2734 102.305 58.4864 102.305 57.5156ZM109.336 57.5156C109.336 56.5448 108.549 55.7578 107.578 55.7578C106.607 55.7578 105.82 56.5448 105.82 57.5156C105.82 58.4864 106.607 59.2734 107.578 59.2734C108.549 59.2734 109.336 58.4864 109.336 57.5156Z" fill="#AB3D3D"/>
<path d="M111.094 62.7891H90C89.0284 62.7891 88.2422 63.5753 88.2422 64.5469C88.2422 65.5185 89.0284 66.3047 90 66.3047H111.094C112.065 66.3047 112.852 65.5185 112.852 64.5469C112.852 63.5753 112.065 62.7891 111.094 62.7891Z" fill="#AB3D3D"/>
<rect y="108" width="180" height="72" rx="16" fill="#E83838"/>
<path d="M56.1826 146.859V148.309H44.7939V146.859H56.1826ZM55.2256 138.41V139.805H53.4756V143.578H55.1709V144.945H45.7373V143.578H47.4053V139.805H45.6826V138.41H55.2256ZM49.1553 143.578H51.7529V139.805H49.1553V143.578ZM68.2822 146.941V148.377H56.8936V146.941H61.6924V145.068H58.2061V140.885H65.2471V139.518H58.1924V138.123H66.9697V142.252H59.9561V143.646H67.2568V145.068H63.4287V146.941H68.2822ZM79.4385 137.316V143.701H77.6885V137.316H79.4385ZM79.4385 144.193V147.516H72.7256V148.295H79.7803V149.676H71.0029V146.271H77.7158V145.547H70.9756V144.193H79.4385ZM76.2939 138.082V139.408H75.2686V141.883C75.7812 141.849 76.2871 141.801 76.7725 141.746L76.8545 142.99C74.3799 143.387 71.5498 143.455 69.3896 143.455L69.1982 142.088C69.6221 142.088 70.0732 142.081 70.5381 142.074V139.408H69.5264V138.082H76.2939ZM72.2061 142.033C72.6641 142.026 73.1221 142.013 73.5869 141.992V139.408H72.2061V142.033ZM90.8135 138.506C90.7998 142.348 89.8701 145.547 85.2217 147.871L84.2646 146.559C86.3428 145.526 87.5801 144.371 88.2842 142.99L84.6064 143.332L84.3877 141.842L88.8174 141.568C88.9404 141.049 89.0293 140.488 89.0771 139.9H85.0439V138.506H90.8135ZM94.1357 137.316V142.088H95.8994V143.523H94.1357V149.73H92.3857V137.316H94.1357ZM106.563 143.072V144.467H97.7588V138.355H106.468V139.764H99.4814V143.072H106.563ZM107.808 146.805V148.24H96.4189V146.805H107.808ZM122.231 137.316V143.646H120.495V140.557H118.157V139.176H120.495V137.316H122.231ZM122.231 144.166V147.488H115.696V148.254H122.587V149.621H113.974V146.217H120.509V145.506H113.96V144.166H122.231ZM116.407 138.629C116.394 140.119 117.269 141.555 119.251 142.143L118.335 143.482C117.002 143.052 116.072 142.218 115.532 141.145C114.992 142.341 114.008 143.284 112.552 143.742L111.649 142.361C113.714 141.76 114.63 140.242 114.644 138.629V137.727H116.407V138.629ZM134.331 137.316V144.699H132.595V141.76H130.653V140.352H132.595V137.316H134.331ZM130.079 144.973C132.731 144.986 134.358 145.861 134.372 147.379C134.358 148.883 132.731 149.771 130.079 149.771C127.427 149.771 125.8 148.883 125.8 147.379C125.8 145.861 127.427 144.986 130.079 144.973ZM130.079 146.312C128.425 146.312 127.536 146.654 127.536 147.379C127.536 148.09 128.425 148.445 130.079 148.445C131.733 148.445 132.636 148.09 132.636 147.379C132.636 146.654 131.733 146.312 130.079 146.312ZM131.022 138.068V139.463H128.548C128.589 140.912 129.464 142.375 131.405 143.018L130.544 144.385C129.17 143.94 128.227 143.038 127.687 141.91C127.133 143.182 126.142 144.207 124.665 144.713L123.763 143.332C125.807 142.648 126.723 141.021 126.771 139.463H124.269V138.068H131.022Z" fill="white"/>
<rect x="12" y="12" width="24" height="24" rx="12" fill="#E83838"/>
<path d="M25.7637 18.6016V28.5H23.6992V20.5566H23.6445L21.375 21.9785V20.1602L23.8223 18.6016H25.7637Z" fill="white"/>
<defs>
<linearGradient id="paint0_linear_409_1718" x1="-0.499999" y1="89.5" x2="180.5" y2="89.5" gradientUnits="userSpaceOnUse">
<stop stop-color="#FFF5E3"/>
<stop offset="1" stop-color="#FFE8E8"/>
</linearGradient>
</defs>
</svg>
