<svg width="180" height="180" viewBox="0 0 180 180" fill="none" xmlns="http://www.w3.org/2000/svg">
<path d="M0 16C0 7.16344 7.16344 0 16 0H164C172.837 0 180 7.16344 180 16V164C180 172.837 172.837 180 164 180H16C7.16344 180 0 172.837 0 164V16Z" fill="url(#paint0_linear_409_1826)"/>
<path d="M115 51.5C114.337 51.5 113.701 51.7634 113.232 52.2322C112.763 52.7011 112.5 53.3369 112.5 54C112.5 59.9674 110.129 65.6903 105.91 69.9099C101.69 74.1295 95.9674 76.5 90 76.5C85.255 76.5088 80.6433 74.9922 76.8386 72.1899C76.5347 71.9662 76.6976 71.5 77.075 71.5C77.738 71.5 78.3739 71.2366 78.8428 70.7678C79.3116 70.2989 79.575 69.663 79.575 69C79.575 68.3369 79.3116 67.7011 78.8428 67.2322C78.3739 66.7634 77.738 66.5 77.075 66.5H70C69.337 66.5 68.7011 66.7634 68.2322 67.2322C67.7634 67.7011 67.5 68.3369 67.5 69V76.075C67.5 76.738 67.7634 77.3739 68.2322 77.8428C68.7011 78.3116 69.337 78.575 70 78.575C70.663 78.575 71.2989 78.3116 71.7678 77.8428C72.2366 77.3739 72.5 76.738 72.5 76.075C72.5 75.6991 72.9417 75.492 73.2376 75.7239C78.0138 79.4651 83.9147 81.5047 90 81.5C97.2935 81.5 104.288 78.6027 109.445 73.4454C114.603 68.2882 117.5 61.2934 117.5 54C117.5 53.3369 117.237 52.7011 116.768 52.2322C116.299 51.7634 115.663 51.5 115 51.5Z" fill="#46BC3D"/>
<path d="M98.425 46.5L88.275 56.5L84.075 52.225C83.6066 51.7594 82.973 51.498 82.3125 51.498C81.6521 51.498 81.0185 51.7594 80.55 52.225C80.3157 52.4574 80.1297 52.7339 80.0028 53.0385C79.8759 53.3432 79.8105 53.67 79.8105 54C79.8105 54.33 79.8759 54.6568 80.0028 54.9614C80.1297 55.2661 80.3157 55.5426 80.55 55.775L86.5 61.6C86.9697 62.0527 87.5977 62.3039 88.25 62.3C88.9024 62.3039 89.5304 62.0527 90 61.6L101.9 49.925C102.201 49.443 102.328 48.873 102.262 48.3088C102.195 47.7446 101.939 47.2198 101.534 46.821C101.129 46.4222 100.601 46.1731 100.036 46.1148C99.4708 46.0564 98.9026 46.1923 98.425 46.5Z" fill="#1D6618"/>
<path d="M67.5 54C67.5 54.663 67.2366 55.2989 66.7678 55.7678C66.2989 56.2366 65.663 56.5 65 56.5C64.337 56.5 63.7011 56.2366 63.2322 55.7678C62.7634 55.2989 62.5 54.663 62.5 54C62.5 46.7065 65.3973 39.7118 70.5546 34.5546C75.7118 29.3973 82.7065 26.5 90 26.5C96.4025 26.4951 102.601 28.753 107.5 32.875V31.925C107.5 31.262 107.763 30.6261 108.232 30.1572C108.701 29.6884 109.337 29.425 110 29.425C110.663 29.425 111.299 29.6884 111.768 30.1572C112.237 30.6261 112.5 31.262 112.5 31.925V39C112.5 39.663 112.237 40.2989 111.768 40.7678C111.299 41.2366 110.663 41.5 110 41.5H102.925C102.262 41.5 101.626 41.2366 101.157 40.7678C100.688 40.2989 100.425 39.663 100.425 39C100.425 38.337 100.688 37.7011 101.157 37.2322C101.626 36.7634 102.262 36.5 102.925 36.5H104.1C100.125 33.243 95.1387 31.4747 90 31.5C84.0326 31.5 78.3097 33.8705 74.0901 38.0901C69.8705 42.3097 67.5 48.0326 67.5 54Z" fill="#98E492"/>
<rect y="108" width="180" height="72" rx="16" fill="#46BC3D"/>
<path d="M48.834 138.137C46.6602 138.137 45.1016 136.934 45.0605 135.211H47.1387C47.1797 135.949 47.8906 136.441 48.8477 136.441C49.832 136.441 50.543 135.881 50.5293 135.088C50.543 134.281 49.8184 133.707 48.6562 133.707H47.7402V132.189H48.6562C49.627 132.189 50.3105 131.656 50.3105 130.877C50.3105 130.125 49.7363 129.605 48.8613 129.605C47.9863 129.605 47.2617 130.098 47.2344 130.85H45.2656C45.293 129.141 46.8379 127.965 48.8613 127.965C50.9258 127.965 52.3066 129.182 52.293 130.754C52.3066 131.861 51.5273 132.654 50.4199 132.846V132.928C51.8691 133.105 52.6758 133.994 52.6621 135.225C52.6758 136.92 51.0625 138.137 48.834 138.137ZM57.2422 127.186C59.1289 127.186 60.5645 128.361 60.5645 130.029C60.5645 131.67 59.1289 132.859 57.2422 132.859C55.3145 132.859 53.8926 131.67 53.8926 130.029C53.8926 128.361 55.3145 127.186 57.2422 127.186ZM57.2422 128.607C56.2852 128.607 55.5742 129.127 55.5879 130.029C55.5742 130.918 56.2852 131.451 57.2422 131.451C58.1855 131.451 58.8828 130.918 58.8828 130.029C58.8828 129.127 58.1855 128.607 57.2422 128.607ZM64.1191 126.816V133.051H62.3691V126.816H64.1191ZM64.1191 133.57V136.947H57.502V137.754H64.4609V139.121H55.793V135.676H62.3828V134.91H55.7656V133.57H64.1191ZM79.4453 126.816V139.285H77.6816V126.816H79.4453ZM72.6914 127.691C74.5645 127.691 75.959 129.414 75.959 132.121C75.959 134.855 74.5645 136.564 72.6914 136.564C70.7773 136.564 69.3828 134.855 69.3965 132.121C69.3828 129.414 70.7773 127.691 72.6914 127.691ZM72.6914 129.264C71.7207 129.264 71.0781 130.275 71.0781 132.121C71.0781 133.98 71.7207 134.979 72.6914 134.979C73.6348 134.979 74.2773 133.98 74.2773 132.121C74.2773 130.275 73.6348 129.264 72.6914 129.264ZM91.8594 126.816V139.258H90.1777V133.037H89.0156V138.656H87.375V127.021H89.0156V131.629H90.1777V126.816H91.8594ZM83.3828 128.197V134.691C84.3809 134.671 85.4746 134.582 86.6777 134.35L86.8555 135.854C85.1875 136.141 83.7656 136.223 82.4805 136.223H81.6328V128.197H83.3828ZM103.057 127.787C103.057 129.25 104.547 130.877 107.404 131.232L106.721 132.641C104.547 132.326 102.954 131.321 102.141 129.975C101.32 131.321 99.7412 132.326 97.5879 132.641L96.8906 131.232C99.7207 130.877 101.225 129.25 101.225 127.787V127.186H103.057V127.787ZM107.801 133.584V135.006H102.961V139.258H101.238V135.006H96.4531V133.584H107.801ZM114.705 127.514V131.328H110.74V132.518C112.798 132.504 114.192 132.436 115.771 132.148L115.963 133.543C114.172 133.857 112.572 133.939 110.057 133.939H109.004V130.002H113.01V128.908H108.99V127.514H114.705ZM118.424 126.83V129.797H120.105V131.232H118.424V134.377H116.674V126.83H118.424ZM118.424 134.951V139.244H116.674V136.346H110.043V134.951H118.424ZM128.719 129.633C128.719 131.916 129.758 134.213 131.863 135.102L130.838 136.496C129.416 135.854 128.432 134.616 127.871 133.078C127.304 134.753 126.285 136.106 124.768 136.797L123.715 135.348C125.889 134.432 126.941 132.053 126.955 129.633V127.773H128.719V129.633ZM134.297 126.816V139.285H132.533V126.816H134.297ZM75.3438 147.816V160.258H73.6758V153.982H72.5547V159.684H70.9004V147.994H72.5547V152.561H73.6758V147.816H75.3438ZM69.8613 149.102V157.127H64.9121V149.102H69.8613ZM66.5391 150.482V155.76H68.2344V150.482H66.5391ZM84.0391 149.115V150.496H81.4961C81.5371 151.761 82.4941 153.053 84.4902 153.572L83.6836 154.912C82.248 154.543 81.2363 153.743 80.6621 152.711C80.1016 153.859 79.083 154.769 77.5996 155.186L76.7656 153.832C78.748 153.285 79.6846 151.884 79.7324 150.496H77.1895V149.115H79.7324V147.83H81.5098V149.115H84.0391ZM87.0742 147.83V155.336H85.3242V147.83H87.0742ZM82.8359 155.527C85.4746 155.527 87.1016 156.402 87.1152 157.893C87.1016 159.396 85.4746 160.258 82.8359 160.258C80.1836 160.258 78.5566 159.396 78.5566 157.893C78.5566 156.402 80.1836 155.527 82.8359 155.527ZM82.8359 156.881C81.168 156.881 80.3066 157.223 80.3066 157.893C80.3066 158.576 81.168 158.932 82.8359 158.932C84.5039 158.932 85.3926 158.576 85.3926 157.893C85.3926 157.223 84.5039 156.881 82.8359 156.881ZM96.6855 149.512C96.6719 151.18 97.5332 152.711 99.5293 153.326L98.6133 154.693C97.2734 154.229 96.3643 153.367 95.8516 152.246C95.291 153.545 94.2861 154.57 92.7891 155.076L91.873 153.682C94.0059 152.998 94.9082 151.33 94.9219 149.594V148.459H96.6855V149.512ZM102.469 147.816V155.104H100.732V151.521H98.3945V150.1H100.732V147.816H102.469ZM98.2168 155.432C100.869 155.432 102.496 156.32 102.51 157.852C102.496 159.383 100.869 160.258 98.2168 160.258C95.5645 160.258 93.9375 159.383 93.9375 157.852C93.9375 156.32 95.5645 155.432 98.2168 155.432ZM98.2168 156.785C96.5625 156.785 95.6738 157.141 95.6738 157.852C95.6738 158.535 96.5625 158.904 98.2168 158.904C99.8711 158.904 100.773 158.535 100.773 157.852C100.773 157.141 99.8711 156.785 98.2168 156.785ZM108.662 150.633C108.648 152.861 109.605 155.117 111.602 156.074L110.549 157.469C109.216 156.812 108.32 155.582 107.801 154.078C107.261 155.691 106.297 157.011 104.889 157.701L103.809 156.293C105.914 155.322 106.912 152.943 106.912 150.633V148.773H108.662V150.633ZM113.898 147.816V152.615H115.73V154.092H113.898V160.258H112.148V147.816H113.898Z" fill="white"/>
<rect x="12" y="12" width="24" height="24" rx="12" fill="#46BC3D"/>
<path d="M20.0146 26.75V25.123L24.1982 18.6016H26.7822V25.0957H28.04V26.75H26.7822V28.5H24.8271V26.75H20.0146ZM22.0928 25.0957H24.8545V20.8574H24.7588L22.0928 25.0137V25.0957Z" fill="white"/>
<defs>
<linearGradient id="paint0_linear_409_1826" x1="-0.499999" y1="89.5" x2="180.5" y2="89.5" gradientUnits="userSpaceOnUse">
<stop stop-color="#FFFAE6"/>
<stop offset="1" stop-color="#EBFFE8"/>
</linearGradient>
</defs>
</svg>
