<svg width="17" height="16" viewBox="0 0 17 16" fill="none" xmlns="http://www.w3.org/2000/svg">
<path d="M3.83322 7.33333C3.83322 4.38781 6.22083 2 9.16611 2C12.1114 2 14.499 4.38781 14.499 7.33333C14.499 8.10002 14.3372 8.82891 14.046 9.48775L14.5 12.6662L11.7764 11.9852C11.0048 12.4192 10.1144 12.6667 9.16611 12.6667M2.50063 10.6667C2.50063 11.1458 2.60172 11.6014 2.78374 12.0132L2.5 13.9997L4.2021 13.5741C4.68429 13.8453 5.24077 14 5.83337 14C7.67399 14 9.16611 12.5076 9.16611 10.6667C9.16611 8.82572 7.67399 7.33333 5.83337 7.33333C3.99275 7.33333 2.50063 8.82572 2.50063 10.6667Z" stroke="#ADB6BD" stroke-width="1.5" stroke-linecap="round" stroke-linejoin="round"/>
</svg>
