<svg width="15" height="15" viewBox="0 0 15 15" fill="none" xmlns="http://www.w3.org/2000/svg">
<path d="M9.84806 12.5391L9.84823 10.6644C9.84832 9.62886 9.00889 8.78935 7.97336 8.78935H3.77498C2.7396 8.78935 1.90023 9.62862 1.90011 10.664L1.8999 12.5391M13.0997 12.5392L13.0999 10.6645C13.1 9.62896 12.2606 8.78945 11.225 8.78945M9.48693 2.90812C9.94736 3.24974 10.2457 3.7974 10.2457 4.41476C10.2457 5.03212 9.94735 5.57979 9.48693 5.92141M7.78795 4.41466C7.78795 5.45012 6.94855 6.28953 5.91309 6.28953C4.87763 6.28953 4.03822 5.45012 4.03822 4.41466C4.03822 3.3792 4.87763 2.53979 5.91309 2.53979C6.94855 2.53979 7.78795 3.3792 7.78795 4.41466Z" stroke="#ADB6BD" stroke-width="1.5" stroke-linecap="round" stroke-linejoin="round"/>
</svg>
