<svg width="15" height="15" viewBox="0 0 15 15" fill="none" xmlns="http://www.w3.org/2000/svg">
<g clip-path="url(#clip0_270_5831)">
<path d="M1.04785 3.62427L3.24227 4.80525L5.20103 4.46611C5.86225 4.35163 6.53987 4.54091 7.04605 4.98148" stroke="#ADB6BD" stroke-width="1.5" stroke-linecap="round" stroke-linejoin="round"/>
<path d="M11.782 9.82194L8.6794 12.0254C7.9974 12.5098 7.086 12.5185 6.39482 12.0473L1.04785 8.40234" stroke="#ADB6BD" stroke-width="1.5" stroke-linecap="round" stroke-linejoin="round"/>
<path d="M13.902 8.37902L11.7067 9.87913L8.30051 7.12882L7.04761 8.0407C6.53816 8.41149 5.82647 8.31159 5.43879 7.81487C5.052 7.31929 5.12662 6.60651 5.60766 6.20177L6.91224 5.10412C7.53751 4.57803 8.35033 4.32976 9.16284 4.4167L11.1961 4.63424L13.902 3.17163" stroke="#ADB6BD" stroke-width="1.5" stroke-linecap="round" stroke-linejoin="round"/>
<path d="M8.30127 7.13612C9.12088 7.86634 10.2832 7.49381 10.7154 6.89771" stroke="#ADB6BD" stroke-width="1.5" stroke-linecap="round" stroke-linejoin="round"/>
</g>
<defs>
<clipPath id="clip0_270_5831">
<rect width="14" height="14" fill="white" transform="translate(0.5 0.539551)"/>
</clipPath>
</defs>
</svg>
