<svg width="17" height="16" viewBox="0 0 17 16" fill="none" xmlns="http://www.w3.org/2000/svg">
<path d="M3.3001 13.2001C3.52967 12.943 5.07199 11.7317 5.8386 11.1346C6.1178 10.9171 6.46028 10.8001 6.81419 10.8001C7.66996 10.8001 9.31904 10.8001 10.1789 10.8001C10.537 10.8001 10.8829 10.9221 11.1711 11.1345C12.161 11.8637 13.0889 12.407 14.1001 13.2001M4.5001 14.4H12.5001C13.8256 14.4 14.9001 13.3255 14.9001 12V3.99998C14.9001 2.67449 13.8256 1.59998 12.5001 1.59998H4.5001C3.17461 1.59998 2.1001 2.67449 2.1001 3.99998V12C2.1001 13.3255 3.17461 14.4 4.5001 14.4ZM10.7925 6.18134C10.7925 4.96033 9.76171 3.9627 8.5001 3.9627C7.23851 3.9627 6.20773 4.96033 6.20773 6.18134C6.20773 7.40234 7.23851 8.39997 8.5001 8.39997C9.76168 8.39997 10.7925 7.40234 10.7925 6.18134Z" stroke="#ADB6BD" stroke-width="1.5"/>
</svg>
