<svg width="13" height="15" viewBox="0 0 13 15" fill="none" xmlns="http://www.w3.org/2000/svg">
<path d="M3.06296 13.8271L2.68796 13.1776H2.68796L3.06296 13.8271ZM2.49786 13.4022L1.7536 13.3096H1.7536L2.49786 13.4022ZM2.05053 11.0253L1.39644 11.3924L1.40101 11.4003L2.05053 11.0253ZM1.3752 9.82199L2.02929 9.4549L2.02472 9.44699L1.3752 9.82199ZM12.002 8.66618L12.377 9.3157L12.002 8.66618ZM11.9252 7.97212L12.2309 7.28727L12.2309 7.28727L11.9252 7.97212ZM10.111 6.37161L9.45666 6.73829L9.46146 6.74661L10.111 6.37161ZM9.46984 5.22749L10.1242 4.86082L10.1194 4.85249L9.46984 5.22749ZM3.05511 3.49231L2.68011 2.84279L3.05511 3.49231ZM7.29282 13.771L7.66782 14.4206L7.29282 13.771ZM2.49786 13.4022L3.24213 13.4948C3.33916 12.7147 3.28086 11.6563 2.70005 10.6503L2.05053 11.0253L1.40101 11.4003C1.77242 12.0436 1.82343 12.7482 1.7536 13.3096L2.49786 13.4022ZM2.05053 11.0253L2.70457 10.6583L2.02924 9.45493L1.3752 9.82199L0.72116 10.189L1.39649 11.3924L2.05053 11.0253ZM11.9252 7.97212L12.2309 7.28727C11.723 7.06049 11.1397 6.65342 10.7605 5.99661L10.111 6.37161L9.46146 6.74661C10.041 7.75044 10.9108 8.34059 11.6194 8.65697L11.9252 7.97212ZM10.111 6.37161L10.7653 6.00497L10.1241 4.86085L9.46984 5.22749L8.81557 5.59414L9.45671 6.73826L10.111 6.37161ZM9.46984 5.22749L10.1194 4.85249C8.61328 2.24389 5.28384 1.33952 2.68011 2.84279L3.05511 3.49231L3.43011 4.14182C5.31058 3.05613 7.72509 3.7055 8.82032 5.60249L9.46984 5.22749ZM12.002 8.66618L12.377 9.3157C12.8425 9.04693 12.941 8.55265 12.8996 8.21744C12.8583 7.88338 12.6586 7.47821 12.2309 7.28727L11.9252 7.97212L11.6194 8.65697C11.4545 8.58331 11.4173 8.45347 11.4109 8.40127C11.4043 8.34792 11.4098 8.14204 11.627 8.01666L12.002 8.66618ZM1.3752 9.82199L2.02472 9.44699C0.94837 7.5827 1.58218 5.20873 3.43011 4.14182L3.05511 3.49231L2.68011 2.84279C0.108918 4.32726 -0.761514 7.62109 0.725681 10.197L1.3752 9.82199ZM3.06296 13.8271L2.68796 13.1776C2.90987 13.0495 3.09213 13.1539 3.13088 13.1838C3.16916 13.2133 3.26495 13.3113 3.24213 13.4948L2.49786 13.4022L1.7536 13.3096C1.69482 13.7822 1.94742 14.1652 2.21436 14.3712C2.48177 14.5776 2.96457 14.75 3.43796 14.4766L3.06296 13.8271ZM12.002 8.66618L11.627 8.01666L2.68796 13.1776L3.06296 13.8271L3.43796 14.4766L12.377 9.3157L12.002 8.66618ZM8.16844 10.8795L7.51893 11.2545C7.86 11.8452 7.65342 12.6968 6.91782 13.1215L7.29282 13.771L7.66782 14.4206C9.04062 13.628 9.61811 11.8904 8.81796 10.5045L8.16844 10.8795ZM7.29282 13.771L6.91782 13.1215C6.18221 13.5462 5.34143 13.2993 5.00035 12.7086L4.35083 13.0836L3.70131 13.4586C4.50146 14.8445 6.29501 15.2131 7.66782 14.4206L7.29282 13.771ZM3.59294 1.48507L2.94342 1.86007C3.14208 2.20415 3.02419 2.64413 2.68011 2.84279L3.05511 3.49231L3.43011 4.14182C4.49163 3.52895 4.85533 2.17159 4.24246 1.11007L3.59294 1.48507ZM3.05511 3.49231L2.68011 2.84279C2.33602 3.04144 1.89604 2.92355 1.69739 2.57947L1.04787 2.95447L0.398349 3.32947C1.01122 4.39099 2.36858 4.75469 3.43011 4.14182L3.05511 3.49231ZM1.04787 2.95447L1.69739 2.57947C1.49873 2.23538 1.61662 1.79541 1.96071 1.59675L1.58571 0.94723L1.21071 0.297711C0.149183 0.910581 -0.214521 2.26795 0.398349 3.32947L1.04787 2.95447ZM1.58571 0.94723L1.96071 1.59675C2.30479 1.39809 2.74477 1.51598 2.94342 1.86007L3.59294 1.48507L4.24246 1.11007C3.62959 0.0485448 2.27223 -0.31516 1.21071 0.297711L1.58571 0.94723Z" fill="#FF6928"/>
</svg>
