<svg width="14" height="14" viewBox="0 0 14 14" fill="none" xmlns="http://www.w3.org/2000/svg">
<path d="M9.77064 2.07663V1.16663C9.77064 0.927459 9.57231 0.729126 9.33314 0.729126C9.09397 0.729126 8.89564 0.927459 8.89564 1.16663V2.04163H5.10397V1.16663C5.10397 0.927459 4.90564 0.729126 4.66647 0.729126C4.42731 0.729126 4.22897 0.927459 4.22897 1.16663V2.07663C2.65397 2.22246 1.88981 3.16163 1.77314 4.55579C1.76147 4.72496 1.90147 4.86496 2.06481 4.86496H11.9348C12.104 4.86496 12.244 4.71913 12.2265 4.55579C12.1098 3.16163 11.3456 2.22246 9.77064 2.07663Z" fill="#495056"/>
<path d="M11.6667 5.73999H2.33333C2.0125 5.73999 1.75 6.00249 1.75 6.32332V9.91666C1.75 11.6667 2.625 12.8333 4.66667 12.8333H9.33333C11.375 12.8333 12.25 11.6667 12.25 9.91666V6.32332C12.25 6.00249 11.9875 5.73999 11.6667 5.73999ZM5.3725 10.6225C5.31417 10.675 5.25 10.7158 5.18 10.745C5.11 10.7742 5.03417 10.7917 4.95833 10.7917C4.8825 10.7917 4.80667 10.7742 4.73667 10.745C4.66667 10.7158 4.6025 10.675 4.54417 10.6225C4.43917 10.5117 4.375 10.36 4.375 10.2083C4.375 10.0567 4.43917 9.90499 4.54417 9.79416C4.6025 9.74166 4.66667 9.70082 4.73667 9.67166C4.87667 9.61332 5.04 9.61332 5.18 9.67166C5.25 9.70082 5.31417 9.74166 5.3725 9.79416C5.4775 9.90499 5.54167 10.0567 5.54167 10.2083C5.54167 10.36 5.4775 10.5117 5.3725 10.6225ZM5.495 8.38832C5.46583 8.45832 5.425 8.52249 5.3725 8.58082C5.31417 8.63332 5.25 8.67416 5.18 8.70332C5.11 8.73249 5.03417 8.74999 4.95833 8.74999C4.8825 8.74999 4.80667 8.73249 4.73667 8.70332C4.66667 8.67416 4.6025 8.63332 4.54417 8.58082C4.49167 8.52249 4.45083 8.45832 4.42167 8.38832C4.3925 8.31832 4.375 8.24249 4.375 8.16666C4.375 8.09082 4.3925 8.01499 4.42167 7.94499C4.45083 7.87499 4.49167 7.81082 4.54417 7.75249C4.6025 7.69999 4.66667 7.65916 4.73667 7.62999C4.87667 7.57166 5.04 7.57166 5.18 7.62999C5.25 7.65916 5.31417 7.69999 5.3725 7.75249C5.425 7.81082 5.46583 7.87499 5.495 7.94499C5.52417 8.01499 5.54167 8.09082 5.54167 8.16666C5.54167 8.24249 5.52417 8.31832 5.495 8.38832ZM7.41417 8.58082C7.35583 8.63332 7.29167 8.67416 7.22167 8.70332C7.15167 8.73249 7.07583 8.74999 7 8.74999C6.92417 8.74999 6.84833 8.73249 6.77833 8.70332C6.70833 8.67416 6.64417 8.63332 6.58583 8.58082C6.48083 8.46999 6.41667 8.31832 6.41667 8.16666C6.41667 8.01499 6.48083 7.86332 6.58583 7.75249C6.64417 7.69999 6.70833 7.65916 6.77833 7.62999C6.91833 7.56582 7.08167 7.56582 7.22167 7.62999C7.29167 7.65916 7.35583 7.69999 7.41417 7.75249C7.51917 7.86332 7.58333 8.01499 7.58333 8.16666C7.58333 8.31832 7.51917 8.46999 7.41417 8.58082Z" fill="#495056"/>
</svg>
