<svg width="40" height="40" viewBox="0 0 40 40" fill="none" xmlns="http://www.w3.org/2000/svg">
<path d="M29.9997 4.58337H6.66634C4.13504 4.58337 2.08301 6.6354 2.08301 9.16671V29.1667C2.08301 31.698 4.13504 33.75 6.66634 33.75H29.9997C32.531 33.75 34.583 31.698 34.583 29.1667V9.16671C34.583 6.6354 32.531 4.58337 29.9997 4.58337Z" fill="#FFD5BA"/>
<path d="M29.9997 37.9167C34.3719 37.9167 37.9163 34.3723 37.9163 30C37.9163 25.6278 34.3719 22.0834 29.9997 22.0834C25.6274 22.0834 22.083 25.6278 22.083 30C22.083 34.3723 25.6274 37.9167 29.9997 37.9167Z" fill="#FF6928"/>
<path d="M30 31.25C29.6686 31.2496 29.3509 31.1177 29.1166 30.8834C28.8823 30.6491 28.7504 30.3314 28.75 30V27.5C28.75 27.1685 28.8817 26.8505 29.1161 26.6161C29.3505 26.3817 29.6685 26.25 30 26.25C30.3315 26.25 30.6495 26.3817 30.8839 26.6161C31.1183 26.8505 31.25 27.1685 31.25 27.5V28.75H31.6667C31.9982 28.75 32.3161 28.8817 32.5506 29.1161C32.785 29.3505 32.9167 29.6685 32.9167 30C32.9167 30.3315 32.785 30.6495 32.5506 30.8839C32.3161 31.1183 31.9982 31.25 31.6667 31.25H30Z" fill="white"/>
<path d="M34.583 9.16671V14.5834H2.08301V9.16671C2.08257 8.56469 2.20082 7.9685 2.431 7.41222C2.66118 6.85595 2.99877 6.35051 3.42446 5.92483C3.85015 5.49914 4.35558 5.16155 4.91186 4.93137C5.46813 4.70119 6.06433 4.58294 6.66634 4.58338H29.9997C30.6017 4.58294 31.1979 4.70119 31.7542 4.93137C32.3104 5.16155 32.8159 5.49914 33.2416 5.92483C33.6672 6.35051 34.0048 6.85595 34.235 7.41222C34.4652 7.9685 34.5834 8.56469 34.583 9.16671Z" fill="#FFA781"/>
<path d="M18.333 9.58337C18.0015 9.58337 17.6835 9.45168 17.4491 9.21726C17.2147 8.98284 17.083 8.66489 17.083 8.33337V3.33337C17.083 3.00185 17.2147 2.68391 17.4491 2.44949C17.6835 2.21507 18.0015 2.08337 18.333 2.08337C18.6645 2.08337 18.9825 2.21507 19.2169 2.44949C19.4513 2.68391 19.583 3.00185 19.583 3.33337V8.33337C19.583 8.66489 19.4513 8.98284 19.2169 9.21726C18.9825 9.45168 18.6645 9.58337 18.333 9.58337Z" fill="#FF6928"/>
<path d="M10.833 9.58337C10.5015 9.58337 10.1835 9.45168 9.94912 9.21726C9.7147 8.98284 9.58301 8.66489 9.58301 8.33337V3.33337C9.58301 3.00185 9.7147 2.68391 9.94912 2.44949C10.1835 2.21507 10.5015 2.08337 10.833 2.08337C11.1645 2.08337 11.4825 2.21507 11.7169 2.44949C11.9513 2.68391 12.083 3.00185 12.083 3.33337V8.33337C12.083 8.66489 11.9513 8.98284 11.7169 9.21726C11.4825 9.45168 11.1645 9.58337 10.833 9.58337Z" fill="#FF6928"/>
<path d="M25.833 9.58337C25.5015 9.58337 25.1835 9.45168 24.9491 9.21726C24.7147 8.98284 24.583 8.66489 24.583 8.33337V3.33337C24.583 3.00185 24.7147 2.68391 24.9491 2.44949C25.1835 2.21507 25.5015 2.08337 25.833 2.08337C26.1645 2.08337 26.4825 2.21507 26.7169 2.44949C26.9513 2.68391 27.083 3.00185 27.083 3.33337V8.33337C27.083 8.66489 26.9513 8.98284 26.7169 9.21726C26.4825 9.45168 26.1645 9.58337 25.833 9.58337Z" fill="#FF6928"/>
</svg>
