<svg width="32" height="32" viewBox="0 0 32 32" fill="none" xmlns="http://www.w3.org/2000/svg">
<path d="M28.9729 6.89082V8.11352H2V6.89082C2 4.18869 4.18869 2 6.89082 2H24.0821C26.7842 2 28.9729 4.18869 28.9729 6.89082Z" fill="#CFD4DA"/>
<path fill-rule="evenodd" clip-rule="evenodd" d="M28.9746 21.7571C28.9746 21.7851 28.9731 21.8132 28.9727 21.8411V23.2014C28.9727 25.9035 26.7842 28.092 24.082 28.092H6.89062C4.18858 28.0919 2 25.9035 2 23.2014V21.759C2 23.3999 2.80781 24.8505 4.04688 25.7375C2.80894 24.8504 2.00195 23.3997 2.00195 21.7571V8.11548H28.9746V21.7571Z" fill="white"/>
<path d="M6.92173 5.05672C6.92173 5.57392 6.51213 5.9943 5.99493 5.9943C5.47774 5.9943 5.05762 5.57392 5.05762 5.05672C5.05762 4.53953 5.47774 4.11914 5.99493 4.11914C6.51213 4.11914 6.92173 4.53953 6.92173 5.05672Z" fill="white"/>
<path d="M9.83654 5.05672C9.83654 5.57392 9.41616 5.9943 8.90975 5.9943C8.39255 5.9943 7.97217 5.57392 7.97217 5.05672C7.97217 4.53953 8.39255 4.11914 8.90975 4.11914C9.41616 4.11914 9.83654 4.53953 9.83654 5.05672Z" fill="white"/>
<path d="M12.7508 5.05672C12.7508 5.57392 12.3304 5.9943 11.8243 5.9943C11.3068 5.9943 10.8867 5.57392 10.8867 5.05672C10.8867 4.53953 11.3068 4.11914 11.8243 4.11914C12.3304 4.11914 12.7508 4.53953 12.7508 5.05672Z" fill="white"/>
<path d="M18.2571 12.1701C18.2571 12.3199 18.1963 12.4552 18.0986 12.5537C18.0001 12.6514 17.8648 12.7122 17.7151 12.7122H16.7945C16.495 12.7122 16.2524 12.4696 16.2524 12.1701C16.2524 12.0204 16.3133 11.8851 16.411 11.7866C16.5095 11.6889 16.6448 11.6281 16.7945 11.6281H17.7151C18.0145 11.6281 18.2571 11.8707 18.2571 12.1701Z" fill="#DEE1E6"/>
<path d="M26.7568 12.1703C26.7568 12.32 26.6959 12.4553 26.5983 12.5538C26.4998 12.6515 26.3645 12.7123 26.2147 12.7123H19.8795C19.58 12.7123 19.3374 12.4697 19.3374 12.1703C19.3374 12.0206 19.3983 11.8852 19.4959 11.7867C19.5944 11.689 19.7297 11.6282 19.8795 11.6282H26.2147C26.5142 11.6282 26.7568 11.8708 26.7568 12.1703Z" fill="#DEE1E6"/>
<path d="M23.7124 14.6475C23.7124 14.7973 23.6515 14.9326 23.5538 15.0311C23.4553 15.1288 23.32 15.1896 23.1703 15.1896H16.835C16.5356 15.1896 16.293 14.947 16.293 14.6475C16.293 14.4978 16.3538 14.3625 16.4515 14.264C16.55 14.1663 16.6853 14.1055 16.835 14.1055H23.1703C23.4698 14.1055 23.7124 14.3481 23.7124 14.6475Z" fill="#DEE1E6"/>
<path d="M18.2571 17.3831C18.2571 17.5329 18.1963 17.6682 18.0986 17.7667C18.0001 17.8644 17.8648 17.9252 17.7151 17.9252H16.7945C16.495 17.9252 16.2524 17.6826 16.2524 17.3831C16.2524 17.2334 16.3133 17.0981 16.411 16.9996C16.5095 16.9019 16.6448 16.8411 16.7945 16.8411H17.7151C18.0145 16.8411 18.2571 17.0837 18.2571 17.3831Z" fill="#DEE1E6"/>
<path d="M26.7568 17.3833C26.7568 17.533 26.6959 17.6683 26.5983 17.7668C26.4998 17.8645 26.3645 17.9253 26.2147 17.9253H19.8795C19.58 17.9253 19.3374 17.6827 19.3374 17.3833C19.3374 17.2336 19.3983 17.0982 19.4959 16.9997C19.5944 16.9021 19.7297 16.8412 19.8795 16.8412H26.2147C26.5142 16.8412 26.7568 17.0838 26.7568 17.3833Z" fill="#DEE1E6"/>
<path d="M23.7124 19.8606C23.7124 20.0103 23.6515 20.1456 23.5538 20.2441C23.4553 20.3418 23.32 20.4026 23.1703 20.4026H16.835C16.5356 20.4026 16.293 20.16 16.293 19.8606C16.293 19.7109 16.3538 19.5755 16.4515 19.477C16.55 19.3794 16.6853 19.3185 16.835 19.3185H23.1703C23.4698 19.3185 23.7124 19.5611 23.7124 19.8606Z" fill="#DEE1E6"/>
<path d="M18.2571 22.5963C18.2571 22.746 18.1963 22.8813 18.0986 22.9798C18.0001 23.0775 17.8648 23.1384 17.7151 23.1384H16.7945C16.495 23.1384 16.2524 22.8958 16.2524 22.5963C16.2524 22.4466 16.3133 22.3112 16.411 22.2127C16.5095 22.1151 16.6448 22.0542 16.7945 22.0542H17.7151C18.0145 22.0542 18.2571 22.2968 18.2571 22.5963Z" fill="#DEE1E6"/>
<path d="M26.7569 22.5964C26.7569 22.7461 26.696 22.8815 26.5983 22.9799C26.4999 23.0776 26.3646 23.1385 26.2148 23.1385H17.441C17.1415 23.1385 16.8989 22.8959 16.8989 22.5964C16.8989 22.4467 16.9598 22.3113 17.0575 22.2129C17.1559 22.1152 17.2913 22.0543 17.441 22.0543H26.2148C26.5143 22.0543 26.7569 22.297 26.7569 22.5964Z" fill="#DEE1E6"/>
<path d="M15.7007 24.9731L24.9503 13.3815L29.0484 16.6516L19.7988 28.2432L15.7007 24.9731Z" fill="#ED4E0A"/>
<path d="M15.7007 24.9731L24.9503 13.3815L26.9993 15.0165L17.7497 26.6082L15.7007 24.9731Z" fill="#FF8652"/>
<path d="M17.0303 26.0338L26.2799 14.4421L27.7187 15.5902L18.469 27.1819L17.0303 26.0338Z" fill="#FF6928"/>
<path d="M24.9478 13.38L25.5001 12.6879L29.5981 15.9579L29.0458 16.6501L24.9478 13.38Z" fill="#F3F5F8"/>
<path d="M25.4883 12.6935L26.3089 11.6651C26.7902 11.0618 27.6695 10.963 28.2728 11.4443L30.1844 12.9696C30.7877 13.4509 30.8865 14.3302 30.4051 14.9334L29.5845 15.9619L25.4883 12.6935Z" fill="#FF6928"/>
<path d="M19.7872 28.2406L17.4521 29.3128L15.1646 27.4875L15.6916 24.9728L19.7872 28.2406Z" fill="#FFD5BA"/>
<path d="M15.1647 27.4872L14.8683 28.9038C14.7156 29.6335 15.4585 30.2262 16.1361 29.9153L17.4516 29.3119L15.1647 27.4872Z" fill="#353A40"/>
<path d="M14.4095 20.5569V23.1341H4.55615V20.5531C4.55615 19.062 5.76684 17.8551 7.25402 17.8551H11.7078C13.1999 17.8551 14.4095 19.0647 14.4095 20.5569Z" fill="#FFA781"/>
<path d="M10.6718 16.6444V18.01C10.6718 18.6631 10.1385 19.1964 9.48266 19.1964C8.82676 19.1964 8.29346 18.6631 8.29346 18.01V16.6444H10.6718Z" fill="#FFD5BA"/>
<path d="M4.55762 20.7714H6.50306V23.1325H4.55762V20.7714Z" fill="#FFD5BA"/>
<path d="M12.4653 20.7714H14.4108V23.1325H12.4653V20.7714Z" fill="#FFD5BA"/>
<path d="M12.0985 13.38V15.0462C12.0985 16.4905 10.9266 17.6624 9.48234 17.6624C8.03793 17.6624 6.86621 16.4905 6.86621 15.0462V13.8433L12.0985 13.38Z" fill="#FFD5BA"/>
<path d="M13.2974 11.6282C13.5759 11.6282 13.7796 11.8911 13.7129 12.1615C13.4747 13.1267 12.6047 13.8433 11.566 13.8433H6.86719V13.8083C6.86719 12.6043 7.84327 11.6282 9.04734 11.6282H13.2974Z" fill="#353A40"/>
</svg>
