<svg width="44" height="44" viewBox="0 0 44 44" fill="none" xmlns="http://www.w3.org/2000/svg">
<rect width="44" height="44" rx="16" fill="#FFF0BF"/>
<g clip-path="url(#clip0_270_4224)">
<path d="M19.8854 31.3501H19.8929C20.5362 31.3501 21.0575 30.8284 21.0575 30.1855C21.0575 29.5422 20.5362 29.0205 19.8929 29.0205C19.8846 29.0205 19.8762 29.0205 19.8678 29.0209H9.20383C9.19546 29.0205 9.1871 29.0205 9.17873 29.0205C8.53544 29.0205 8.01416 29.5422 8.01416 30.1855C8.01416 30.8284 8.53544 31.3501 9.17873 31.3501H9.18622" fill="white"/>
<path d="M19.6178 25.9795C16.2299 25.651 12.8421 25.651 9.4543 25.9795C9.19141 28.0859 9.11398 30.1923 9.22198 32.2987C9.30063 33.8321 10.5276 35.0526 12.0613 35.125C13.7111 35.2029 15.3609 35.2029 17.0107 35.125C18.5444 35.0526 19.7714 33.8321 19.8501 32.2988C19.9581 30.1923 19.8806 28.0859 19.6178 25.9795Z" fill="white"/>
<path d="M14.5362 33.3862C13.9106 33.3862 13.333 33.0209 13.0648 32.4556C12.9648 32.2448 13.0546 31.9928 13.2654 31.8927C13.4762 31.7926 13.7282 31.8825 13.8283 32.0933C13.9574 32.3653 14.2352 32.5411 14.5362 32.5411C14.8372 32.5411 15.1151 32.3653 15.2442 32.0933C15.3442 31.8825 15.5961 31.7927 15.8071 31.8927C16.0179 31.9928 16.1077 32.2448 16.0076 32.4556C15.7393 33.0209 15.1618 33.3862 14.5362 33.3862Z" fill="#DBC49E"/>
<path d="M19.8681 29.021C17.4807 29.021 13.8133 27.4751 12.2412 26.7585C11.7668 26.542 11.483 26.4014 11.483 26.4014C11.483 26.4014 10.5724 28.7283 9.20397 29.021C9.19549 29.0205 9.18746 29.0205 9.17898 29.0205C8.93081 29.0205 8.70079 29.098 8.5119 29.2306C8.0604 25.9787 7.55345 23.8661 8.69445 23.2325C9.83501 22.5985 10.6169 23.3803 10.6169 23.3803C10.6169 23.3803 11.7591 22.7759 13.3347 22.41C15.2071 21.9746 17.6911 21.8759 19.5958 23.5281C21.5953 25.263 21.0553 27.559 19.8681 29.021Z" fill="#A78C52"/>
<path d="M35.3515 29.1413L27.4415 29.1752L23.5137 29.1917C23.2143 26.4578 22.3452 22.9073 25.5381 22.2745C26.3048 22.1225 26.9951 22.0323 27.6156 21.9899C31.7717 21.7079 32.8056 23.5845 32.8056 23.5845C32.8056 23.5845 33.5577 22.9238 34.3756 22.9912C34.6712 23.0153 34.9757 23.1352 35.2561 23.4155C36.7351 24.8945 35.3515 29.1413 35.3515 29.1413Z" fill="#7C6439"/>
<path d="M34.8278 31.3501H34.8353C35.4786 31.3501 35.9999 30.8284 35.9999 30.1855C35.9999 29.5422 35.4786 29.0205 34.8353 29.0205C34.827 29.0205 34.8186 29.0205 34.8102 29.0209H24.1462C24.1378 29.0205 24.1295 29.0205 24.1211 29.0205C23.4778 29.0205 22.9565 29.5422 22.9565 30.1855C22.9565 30.8284 23.4778 31.3501 24.1211 31.3501H24.1286" fill="white"/>
<path d="M34.8394 30.4585C34.8394 31.0718 34.8237 31.6855 34.7924 32.2988C34.714 33.832 33.487 35.0526 31.953 35.125C30.8806 35.1758 29.8078 35.1932 28.7354 35.178H28.7349C28.1577 35.1699 27.5808 35.1522 27.0035 35.125C25.4699 35.0526 24.243 33.832 24.1642 32.2988C24.1083 31.2061 24.1023 30.1138 24.146 29.021H24.1464C24.7444 28.7995 25.1002 28.1109 25.3115 27.3451C25.5283 26.5595 26.281 26.13 27.0035 26.2287C27.2852 26.2672 27.5626 26.3862 27.8015 26.5955C28.2814 27.0156 28.8798 27.2257 29.4783 27.2257C30.0767 27.2257 30.6756 27.0156 31.1555 26.5955C31.4528 26.335 31.809 26.2147 32.1597 26.2147C32.814 26.2147 33.449 26.634 33.6454 27.3451C33.8564 28.1109 34.2121 28.7995 34.8106 29.021C34.8301 29.5005 34.8394 29.9795 34.8394 30.4585Z" fill="white"/>
<path d="M29.4781 32.9627C28.8525 32.9627 28.275 32.5975 28.0067 32.0322C27.9067 31.8214 27.9965 31.5694 28.2073 31.4693C28.418 31.3694 28.6701 31.4591 28.7702 31.6699C28.8993 31.9419 29.1772 32.1177 29.4782 32.1177C29.7791 32.1177 30.057 31.9419 30.1861 31.6699C30.2862 31.4591 30.5384 31.3694 30.749 31.4693C30.9599 31.5694 31.0497 31.8214 30.9496 32.0322C30.6812 32.5974 30.1037 32.9627 29.4781 32.9627Z" fill="#C0A87A"/>
<path d="M31.696 8.81665H12.1706C10.7334 8.81665 9.56836 9.98171 9.56836 11.4189V15.4319C9.56836 16.8691 10.7334 18.0341 12.1706 18.0341H13.4559L14.8325 20.2393L16.2091 18.0341H27.6574L29.034 20.2393L30.4107 18.0341H31.696C33.1332 18.0341 34.2982 16.8691 34.2982 15.4319V11.4188C34.2982 9.98171 33.1331 8.81665 31.696 8.81665Z" fill="#FFC400"/>
<path d="M18.4116 14.6618C18.9703 14.6618 19.4232 14.2088 19.4232 13.6501C19.4232 13.0914 18.9703 12.6384 18.4116 12.6384C17.8528 12.6384 17.3999 13.0914 17.3999 13.6501C17.3999 14.2088 17.8528 14.6618 18.4116 14.6618Z" fill="#816321"/>
<path d="M21.9335 14.6618C22.4923 14.6618 22.9452 14.2088 22.9452 13.6501C22.9452 13.0914 22.4923 12.6384 21.9335 12.6384C21.3748 12.6384 20.9219 13.0914 20.9219 13.6501C20.9219 14.2088 21.3748 14.6618 21.9335 14.6618Z" fill="#816321"/>
<path d="M25.4555 14.6618C26.0142 14.6618 26.4672 14.2088 26.4672 13.6501C26.4672 13.0914 26.0142 12.6384 25.4555 12.6384C24.8968 12.6384 24.4438 13.0914 24.4438 13.6501C24.4438 14.2088 24.8968 14.6618 25.4555 14.6618Z" fill="#816321"/>
</g>
<defs>
<clipPath id="clip0_270_4224">
<rect width="28" height="28" fill="white" transform="translate(8 8)"/>
</clipPath>
</defs>
</svg>
