<svg width="44" height="44" viewBox="0 0 44 44" fill="none" xmlns="http://www.w3.org/2000/svg">
<rect width="44" height="44" rx="16" fill="#FFE6D7"/>
<g clip-path="url(#clip0_270_4193)">
<path d="M9.23926 13.7651L13.764 9.2404L17.8622 13.3386L13.3374 17.8633L9.23926 13.7651Z" fill="#ED4E0A"/>
<path d="M14.2285 19.4748C13.5379 20.1654 12.4182 20.1654 11.7275 19.4748L9.50282 17.2501C8.46781 16.2151 8.46781 14.537 9.50282 13.502L10.1297 12.8751L14.2285 16.9739C14.9191 17.6644 14.9191 18.7842 14.2285 19.4748Z" fill="#FF6928"/>
<path d="M13.7632 34.7627L9.23844 30.238L13.3366 26.1398L17.8613 30.6645L13.7632 34.7627Z" fill="#FF8652"/>
<path d="M19.4747 29.7715C20.1653 30.4621 20.1653 31.5818 19.4747 32.2725L17.25 34.4971C16.215 35.5322 14.5369 35.5322 13.5019 34.4971L12.875 33.8703L16.9738 29.7715C17.6644 29.0809 18.7841 29.0809 19.4747 29.7715Z" fill="#FFA781"/>
<path d="M30.2329 9.2373L34.7576 13.762L30.6595 17.8602L26.1348 13.3355L30.2329 9.2373Z" fill="#FF8652"/>
<path d="M24.5253 14.2285C23.8347 13.5379 23.8347 12.4182 24.5253 11.7275L26.75 9.50282C27.785 8.46781 29.4631 8.46781 30.4981 9.50282L31.125 10.1297L27.0262 14.2285C26.3356 14.9191 25.2159 14.9191 24.5253 14.2285Z" fill="#FFA781"/>
<path d="M34.7646 30.235L30.2399 34.7597L26.1417 30.6616L30.6665 26.1368L34.7646 30.235Z" fill="#ED4E0A"/>
<path d="M29.7714 24.5253C30.462 23.8347 31.5817 23.8347 32.2724 24.5253L34.4971 26.75C35.5321 27.785 35.5321 29.4631 34.4971 30.4981L33.8702 31.125L29.7714 27.0262C29.0808 26.3356 29.0808 25.2159 29.7714 24.5253Z" fill="#FF6928"/>
<path d="M20.9612 9.13586L9.13586 20.9612C8.56213 21.5349 8.56213 22.4651 9.13586 23.0388L20.9612 34.8642C21.5349 35.4379 22.4652 35.4379 23.0389 34.8642L34.8643 23.0388C35.438 22.4651 35.438 21.5349 34.8643 20.9612L23.0389 9.13586C22.4652 8.56213 21.5349 8.56213 20.9612 9.13586Z" fill="#762300"/>
<path d="M22.1807 19.7982L25.593 23.2105L21.0366 27.7669L17.6243 24.3546L22.1807 19.7982Z" fill="#FFD5BA"/>
<path d="M17.918 20.6752L21.3303 24.0875L16.7739 28.6439L13.3616 25.2316L17.918 20.6752Z" fill="#FFF1EA"/>
<path d="M23.7421 28.9882C23.0515 29.6788 23.0515 30.7985 23.7421 31.4891L26.7502 34.4972C27.7852 35.5322 29.4633 35.5322 30.4983 34.4972L31.1252 33.8703L26.243 28.9882C25.5524 28.2976 24.4327 28.2976 23.7421 28.9882Z" fill="#FF6928"/>
<path d="M30.046 34.9784C28.6839 33.6163 28.6839 31.4082 30.046 30.0461C31.4081 28.684 33.6162 28.684 34.9783 30.0461C35.0311 30.0989 35.0823 30.1532 35.1303 30.2085C34.6667 30.9363 35.1306 33.2338 34.1821 34.1823C33.2343 35.1302 30.9652 34.5508 30.2079 35.1299C30.1525 35.0818 30.0987 35.0312 30.046 34.9784Z" fill="#FFD5BA"/>
<path d="M30.208 35.1299C30.2639 33.8885 30.7669 32.6627 31.7148 31.7148C32.6632 30.7664 33.8884 30.264 35.1304 30.2086C36.3384 31.5785 36.2878 33.6692 34.9785 34.9785C33.6691 36.2878 31.5774 36.3385 30.208 35.1299Z" fill="#CB3D00"/>
<path d="M28.9882 20.2582C29.6788 20.9488 30.7985 20.9488 31.4892 20.2582L34.4973 17.2501C35.5323 16.2151 35.5323 14.537 34.4973 13.502L33.8704 12.8751L28.9882 17.7573C28.2976 18.4479 28.2976 19.5676 28.9882 20.2582Z" fill="#FFA781"/>
<path d="M34.9783 13.9539C33.6162 15.316 31.408 15.316 30.046 13.9539C28.6839 12.5918 28.6839 10.3837 30.046 9.02161C30.0987 8.96883 30.153 8.91764 30.2084 8.86963C30.9361 9.33321 33.2337 8.8693 34.1821 9.81775C35.13 10.7656 34.5506 13.0347 35.1298 13.792C35.0817 13.8473 35.0311 13.9012 34.9783 13.9539Z" fill="#FFD5BA"/>
<path d="M35.1298 13.792C33.8884 13.7361 32.6626 13.2331 31.7147 12.2852C30.7663 11.3368 30.2638 10.1115 30.2085 8.86954C31.5784 7.66154 33.6691 7.71218 34.9784 9.02151C36.2877 10.3308 36.3383 12.4226 35.1298 13.792Z" fill="#A33100"/>
<path d="M15.0119 23.7418C14.3213 23.0512 13.2016 23.0512 12.5109 23.7418L9.50282 26.75C8.46781 27.785 8.46781 29.4631 9.50282 30.4981L10.1297 31.125L15.0119 26.2428C15.7025 25.5521 15.7025 24.4325 15.0119 23.7418Z" fill="#FFA781"/>
<path d="M9.0216 30.0461C10.3837 28.684 12.5919 28.684 13.9539 30.0461C15.316 31.4082 15.316 33.6163 13.9539 34.9784C13.9011 35.0312 13.8468 35.0824 13.7915 35.1304C13.0638 34.6668 10.7662 35.1307 9.81774 34.1823C8.86984 33.2344 9.44926 30.9654 8.87012 30.208C8.91819 30.1527 8.96883 30.0989 9.0216 30.0461Z" fill="#FFD5BA"/>
<path d="M8.86996 30.208C10.1114 30.2639 11.3372 30.7669 12.2851 31.7148C13.2335 32.6632 13.7359 33.8884 13.7913 35.1304C12.4214 36.3384 10.3307 36.2878 9.02139 34.9785C7.71212 33.6691 7.66148 31.5774 8.86996 30.208Z" fill="#A33100"/>
<path d="M20.2581 15.0119C20.9487 14.3213 20.9487 13.2016 20.2581 12.5109L17.25 9.50282C16.215 8.46781 14.5369 8.46781 13.5019 9.50282L12.875 10.1297L17.7572 15.0119C18.4478 15.7025 19.5675 15.7025 20.2581 15.0119Z" fill="#FF6928"/>
<path d="M13.9539 9.0216C15.316 10.3837 15.316 12.5919 13.9539 13.9539C12.5918 15.316 10.3837 15.316 9.02161 13.9539C8.96883 13.9011 8.91764 13.8468 8.86963 13.7915C9.33321 13.0638 8.8693 10.7662 9.81775 9.81774C10.7656 8.86984 13.0347 9.44926 13.792 8.87012C13.8474 8.91819 13.9012 8.96888 13.9539 9.0216Z" fill="#FFD5BA"/>
<path d="M13.792 8.87013C13.7361 10.1116 13.2331 11.3374 12.2852 12.2853C11.3368 13.2337 10.1116 13.7361 8.86956 13.7915C7.66151 12.4216 7.71221 10.3309 9.02153 9.02156C10.3309 7.71223 12.4225 7.66159 13.792 8.87013Z" fill="#762300"/>
</g>
<defs>
<clipPath id="clip0_270_4193">
<rect width="28" height="28" fill="white" transform="translate(8 8)"/>
</clipPath>
</defs>
</svg>
