<svg width="44" height="44" viewBox="0 0 44 44" fill="none" xmlns="http://www.w3.org/2000/svg">
<rect width="44" height="44" rx="16" fill="#E6F6DE"/>
<path d="M30.8669 31.3334V34.6C30.8661 34.8473 30.7676 35.0843 30.5927 35.2592C30.4178 35.4341 30.1808 35.5326 29.9335 35.5334H14.0669C13.5718 35.5334 13.097 35.3367 12.7469 34.9866C12.3969 34.6366 12.2002 34.1618 12.2002 33.6667V31.3334H30.8669Z" fill="#C5E2B7"/>
<path d="M14.0669 8.46667H15.0002V31.8H14.0669C13.8216 31.7997 13.5788 31.8478 13.3522 31.9415C13.1255 32.0352 12.9196 32.1727 12.7462 32.3461C12.5728 32.5195 12.4354 32.7254 12.3417 32.952C12.248 33.1786 12.1999 33.4215 12.2002 33.6667V10.3333C12.2002 9.83827 12.3969 9.36348 12.7469 9.01341C13.097 8.66334 13.5718 8.46667 14.0669 8.46667Z" fill="#4B6D3B"/>
<path d="M31.8002 9.40001V30.8667C31.7995 31.114 31.7009 31.351 31.526 31.5258C31.3512 31.7007 31.1142 31.7993 30.8669 31.8H14.0669V8.46667H30.8669C31.1142 8.46741 31.3512 8.56598 31.526 8.74086C31.7009 8.91573 31.7995 9.1527 31.8002 9.40001Z" fill="#A2D489"/>
<path d="M29.9331 19.6667C29.9325 21.523 29.1948 23.3031 27.8822 24.6158C26.5695 25.9284 24.7894 26.6661 22.9331 26.6667C22.0407 26.6682 21.1565 26.497 20.3291 26.1627L17.6271 27.0634C17.4686 27.1159 17.299 27.1249 17.1358 27.0895C16.9727 27.0541 16.822 26.9756 16.6995 26.8622C16.577 26.7487 16.4872 26.6045 16.4394 26.4446C16.3916 26.2846 16.3876 26.1147 16.4278 25.9527L17.0531 23.4607C16.4624 22.5462 16.0932 21.5066 15.9747 20.4244C15.8562 19.3423 15.9918 18.2474 16.3706 17.2268C16.7494 16.2062 17.361 15.288 18.1569 14.5452C18.9528 13.8024 19.9109 13.2555 20.9552 12.9479C21.9995 12.6402 23.1011 12.5804 24.1725 12.7732C25.244 12.966 26.2557 13.4059 27.1273 14.0582C27.9989 14.7105 28.7063 15.5571 29.1934 16.5307C29.6805 17.5043 29.9337 18.5781 29.9331 19.6667Z" fill="#4B6D3B"/>
<path d="M23.4 14.5333H22.4667C22.2089 14.5333 22 14.7423 22 15V15.9333C22 16.1911 22.2089 16.4 22.4667 16.4H23.4C23.6577 16.4 23.8667 16.1911 23.8667 15.9333V15C23.8667 14.7423 23.6577 14.5333 23.4 14.5333Z" fill="white"/>
<path d="M24.8002 22.9334V23.8667C24.8002 23.9905 24.7511 24.1092 24.6635 24.1967C24.576 24.2842 24.4573 24.3334 24.3336 24.3334H21.5336C21.4098 24.3334 21.2911 24.2842 21.2036 24.1967C21.1161 24.1092 21.0669 23.9905 21.0669 23.8667V22.9334C21.0669 22.8096 21.1161 22.6909 21.2036 22.6034C21.2911 22.5159 21.4098 22.4667 21.5336 22.4667H22.0002V20.1334H21.5336C21.4098 20.1334 21.2911 20.0842 21.2036 19.9967C21.1161 19.9092 21.0669 19.7905 21.0669 19.6667V18.7334C21.0669 18.6096 21.1161 18.4909 21.2036 18.4034C21.2911 18.3159 21.4098 18.2667 21.5336 18.2667H23.4002C23.524 18.2667 23.6427 18.3159 23.7302 18.4034C23.8177 18.4909 23.8669 18.6096 23.8669 18.7334V22.4667H24.3336C24.4573 22.4667 24.576 22.5159 24.6635 22.6034C24.7511 22.6909 24.8002 22.8096 24.8002 22.9334Z" fill="white"/>
<path d="M27.6003 34.1333H25.267C25.1432 34.1333 25.0245 34.0841 24.937 33.9966C24.8495 33.9091 24.8003 33.7904 24.8003 33.6666C24.8003 33.5429 24.8495 33.4242 24.937 33.3366C25.0245 33.2491 25.1432 33.2 25.267 33.2H27.6003C27.7241 33.2 27.8428 33.2491 27.9303 33.3366C28.0178 33.4242 28.067 33.5429 28.067 33.6666C28.067 33.7904 28.0178 33.9091 27.9303 33.9966C27.8428 34.0841 27.7241 34.1333 27.6003 34.1333Z" fill="#9FBF8F"/>
<path d="M23.4001 34.1333H15.9335C15.8097 34.1333 15.691 34.0841 15.6035 33.9966C15.516 33.9091 15.4668 33.7904 15.4668 33.6666C15.4668 33.5429 15.516 33.4242 15.6035 33.3366C15.691 33.2491 15.8097 33.2 15.9335 33.2H23.4001C23.5239 33.2 23.6426 33.2491 23.7301 33.3366C23.8176 33.4242 23.8668 33.5429 23.8668 33.6666C23.8668 33.7904 23.8176 33.9091 23.7301 33.9966C23.6426 34.0841 23.5239 34.1333 23.4001 34.1333Z" fill="#9FBF8F"/>
</svg>
