<svg width="48" height="48" viewBox="0 0 48 48" fill="none" xmlns="http://www.w3.org/2000/svg">
<g clip-path="url(#clip0_270_5231)">
<path d="M24 33C20.692 33 18 30.308 18 27C18 23.692 20.692 21 24 21C27.308 21 30 23.692 30 27C30 30.308 27.308 33 24 33Z" fill="#495056"/>
<path d="M33.5 46H14.5C13.672 46 13 45.328 13 44.5V41.5C13 38.466 15.466 36 18.5 36H29.5C32.534 36 35 38.466 35 41.5V44.5C35 45.328 34.328 46 33.5 46Z" fill="#495056"/>
<path d="M30.9339 17.9999H17.0659C16.3439 17.9999 15.7259 17.4859 15.5919 16.7779L14.0259 8.44394C13.8039 7.26194 14.9979 6.30594 16.1079 6.79594L19.4679 8.28794L22.7039 2.74594C23.2439 1.82394 24.7559 1.82394 25.2959 2.74594L28.5319 8.28794L31.8919 6.79594C32.9939 6.30594 34.1959 7.25794 33.9759 8.44394L32.4099 16.7759C32.2759 17.4859 31.6559 17.9999 30.9339 17.9999Z" fill="#FF6928"/>
<path d="M40 32C37.794 32 36 30.206 36 28C36 25.794 37.794 24 40 24C42.206 24 44 25.794 44 28C44 30.206 42.206 32 40 32Z" fill="#ADB6BD"/>
<path d="M8 32C5.794 32 4 30.206 4 28C4 25.794 5.794 24 8 24C10.206 24 12 25.794 12 28C12 30.206 10.206 32 8 32Z" fill="#ADB6BD"/>
<path d="M42.5002 34H37.5002C36.8602 34 36.2602 34.1 35.7002 34.3C38.0542 36.352 39.0002 38.906 39.0002 42H46.5002C47.3202 42 48.0002 41.32 48.0002 40.5V39.5C48.0002 36.46 45.5402 34 42.5002 34Z" fill="#ADB6BD"/>
<path d="M10.5 34H5.5C2.46 34 0 36.46 0 39.5V40.5C0 41.32 0.68 42 1.5 42H9C9 38.906 9.946 36.352 12.3 34.3C11.74 34.1 11.14 34 10.5 34Z" fill="#ADB6BD"/>
</g>
<defs>
<clipPath id="clip0_270_5231">
<rect width="48" height="48" fill="white"/>
</clipPath>
</defs>
</svg>
