<svg width="12" height="12" viewBox="0 0 12 12" fill="none" xmlns="http://www.w3.org/2000/svg">
<path d="M1.06398 7.86654C0.835865 6.38379 0.607752 4.90107 0.37964 3.41832C0.329052 3.08964 0.70304 2.86546 0.969065 3.065C1.67976 3.59802 2.39043 4.13101 3.10113 4.66404C3.33513 4.83954 3.6685 4.78242 3.83073 4.53905L5.60571 1.87655C5.79329 1.59519 6.20669 1.59519 6.39426 1.87655L8.16925 4.53905C8.33148 4.78242 8.66485 4.8395 8.89885 4.66404C9.60955 4.13101 10.3202 3.59802 11.0309 3.065C11.2969 2.86546 11.6709 3.08964 11.6204 3.41832C11.3923 4.90107 11.1642 6.38379 10.936 7.86654H1.06398Z" fill="#FF6928"/>
<path d="M10.4218 10.3345H1.57914C1.29489 10.3345 1.06445 10.1041 1.06445 9.81983V8.68921H10.9365V9.81983C10.9365 10.1041 10.706 10.3345 10.4218 10.3345Z" fill="#FF6928"/>
</svg>
