<svg width="33" height="32" viewBox="0 0 33 32" fill="none" xmlns="http://www.w3.org/2000/svg">
<path d="M10.9055 30.6667H2.92125C2.56615 30.6667 2.27832 30.3789 2.27832 30.0238V1.9763C2.27826 1.62121 2.56615 1.33337 2.92125 1.33337H10.9055C11.2606 1.33337 11.5484 1.62121 11.5484 1.9763V30.0237C11.5484 30.3789 11.2606 30.6667 10.9055 30.6667Z" fill="#FF6568"/>
<path d="M4.38867 3.54065H9.43773V14.4752H4.38867V3.54065Z" fill="white"/>
<path d="M6.91317 22.352C7.86326 22.352 8.63346 21.5846 8.63346 20.6381C8.63346 19.6915 7.86326 18.9242 6.91317 18.9242C5.96307 18.9242 5.19287 19.6915 5.19287 20.6381C5.19287 21.5846 5.96307 22.352 6.91317 22.352Z" fill="white"/>
<path d="M20.1754 30.6667H12.1913C11.8362 30.6667 11.5483 30.3789 11.5483 30.0238V1.9763C11.5483 1.62121 11.8362 1.33337 12.1913 1.33337H20.1754C20.5305 1.33337 20.8184 1.62121 20.8184 1.9763V30.0237C20.8184 30.3789 20.5305 30.6667 20.1754 30.6667Z" fill="#8FDD72"/>
<path d="M13.6587 3.54065H18.7077V14.4752H13.6587V3.54065Z" fill="white"/>
<path d="M16.1832 22.352C17.1333 22.352 17.9035 21.5846 17.9035 20.6381C17.9035 19.6915 17.1333 18.9242 16.1832 18.9242C15.2331 18.9242 14.4629 19.6915 14.4629 20.6381C14.4629 21.5846 15.2331 22.352 16.1832 22.352Z" fill="white"/>
<path d="M29.446 30.6667H21.4618C21.1067 30.6667 20.8188 30.3789 20.8188 30.0238V1.9763C20.8188 1.62121 21.1067 1.33337 21.4618 1.33337H29.446C29.8011 1.33337 30.0889 1.62121 30.0889 1.9763V30.0237C30.089 30.3789 29.8011 30.6667 29.446 30.6667Z" fill="#5FA2EF"/>
<path d="M22.9292 3.54065H27.9783V14.4752H22.9292V3.54065Z" fill="white"/>
<path d="M7.6904 6.1875H6.13648C5.89202 6.1875 5.69385 6.38567 5.69385 6.63014C5.69385 6.87466 5.89202 7.07277 6.13648 7.07277H7.69035C7.93481 7.07277 8.13298 6.8746 8.13298 6.63014C8.13304 6.38567 7.93487 6.1875 7.6904 6.1875Z" fill="#E1D3CE"/>
<path d="M7.6904 8.56519H6.13648C5.89202 8.56519 5.69385 8.76336 5.69385 9.00782C5.69385 9.25228 5.89202 9.45046 6.13648 9.45046H7.69035C7.93481 9.45046 8.13298 9.25228 8.13298 9.00782C8.13298 8.76336 7.93487 8.56519 7.6904 8.56519Z" fill="#E1D3CE"/>
<path d="M7.6904 10.943H6.13648C5.89202 10.943 5.69385 11.1412 5.69385 11.3856C5.69385 11.6301 5.89202 11.8283 6.13648 11.8283H7.69035C7.93481 11.8283 8.13298 11.6301 8.13298 11.3856C8.13298 11.1412 7.93487 10.943 7.6904 10.943Z" fill="#E1D3CE"/>
<path d="M16.9604 6.1875H15.4065C15.162 6.1875 14.9639 6.38567 14.9639 6.63014C14.9639 6.87466 15.162 7.07277 15.4065 7.07277H16.9604C17.2048 7.07277 17.403 6.8746 17.403 6.63014C17.403 6.38567 17.2048 6.1875 16.9604 6.1875Z" fill="#E1D3CE"/>
<path d="M16.9604 8.56519H15.4065C15.162 8.56519 14.9639 8.76336 14.9639 9.00782C14.9639 9.25228 15.162 9.45046 15.4065 9.45046H16.9604C17.2048 9.45046 17.403 9.25228 17.403 9.00782C17.403 8.76336 17.2048 8.56519 16.9604 8.56519Z" fill="#E1D3CE"/>
<path d="M16.9604 10.943H15.4065C15.162 10.943 14.9639 11.1412 14.9639 11.3856C14.9639 11.6301 15.162 11.8283 15.4065 11.8283H16.9604C17.2048 11.8283 17.403 11.6301 17.403 11.3856C17.403 11.1412 17.2048 10.943 16.9604 10.943Z" fill="#E1D3CE"/>
<path d="M24.6765 7.07277H26.2304C26.4748 7.07277 26.673 6.8746 26.673 6.63014C26.673 6.38561 26.4748 6.1875 26.2304 6.1875H24.6765C24.4321 6.1875 24.2339 6.38567 24.2339 6.63014C24.2339 6.8746 24.4321 7.07277 24.6765 7.07277Z" fill="#E1D3CE"/>
<path d="M26.2304 8.56519H24.6765C24.4321 8.56519 24.2339 8.76336 24.2339 9.00782C24.2339 9.25228 24.4321 9.45046 24.6765 9.45046H26.2304C26.4748 9.45046 26.673 9.25228 26.673 9.00782C26.673 8.76336 26.4748 8.56519 26.2304 8.56519Z" fill="#E1D3CE"/>
<path d="M26.2304 10.943H24.6765C24.4321 10.943 24.2339 11.1412 24.2339 11.3856C24.2339 11.6301 24.4321 11.8283 24.6765 11.8283H26.2304C26.4748 11.8283 26.673 11.6301 26.673 11.3856C26.673 11.1412 26.4748 10.943 26.2304 10.943Z" fill="#E1D3CE"/>
<path d="M25.4537 22.3521C26.4038 22.3521 27.174 21.5847 27.174 20.6382C27.174 19.6916 26.4038 18.9243 25.4537 18.9243C24.5036 18.9243 23.7334 19.6916 23.7334 20.6382C23.7334 21.5847 24.5036 22.3521 25.4537 22.3521Z" fill="white"/>
</svg>
