<svg width="14" height="14" viewBox="0 0 14 14" fill="none" xmlns="http://www.w3.org/2000/svg">
<g clip-path="url(#clip0_270_4874)">
<path d="M8.37744 1.47519C7.79611 1.33043 7.19513 1.27908 6.59116 1.32258C6.29773 1.34372 6.00461 1.3875 5.71985 1.45279L5.42773 0.178219C5.77743 0.0980742 6.13725 0.044289 6.4972 0.0183672C7.23907 -0.0350625 7.97795 0.0282109 8.69345 0.206437L8.37744 1.47519Z" fill="#FF6928"/>
<path opacity="0.9" d="M11.3602 3.33982C10.784 2.65472 10.0451 2.1079 9.22363 1.75859L9.73534 0.555298C10.7451 0.984622 11.653 1.65646 12.361 2.49821L11.3602 3.33982Z" fill="#FF6928"/>
<path opacity="0.8" d="M12.6785 6.60066L12.6778 6.59096C12.6126 5.68637 12.3442 4.83699 11.8799 4.06634L13 3.3916C13.5715 4.34027 13.9019 5.3851 13.982 6.497L12.6785 6.60066Z" fill="#FF6928"/>
<path opacity="0.7" d="M12.94 10.7046L11.8311 10.0118C12.3052 9.2528 12.5961 8.38196 12.6721 7.49329L13.975 7.60488C13.8813 8.69884 13.5234 9.7708 12.94 10.7046Z" fill="#FF6928"/>
<path opacity="0.6" d="M9.63071 13.4886L9.13965 12.2768C9.9654 11.9422 10.7124 11.4073 11.2999 10.7302L12.2876 11.5872C11.5655 12.4194 10.6468 13.0769 9.63071 13.4886Z" fill="#FF6928"/>
<path opacity="0.5" d="M7.50332 13.9817C6.76488 14.0348 6.02947 13.9724 5.31738 13.7961L5.63151 12.5269C6.2101 12.67 6.8083 12.7207 7.40948 12.6775C7.7058 12.6561 8.00175 12.6117 8.28902 12.5454L8.58318 13.8194C8.23026 13.9009 7.86694 13.9555 7.50332 13.9817Z" fill="#FF6928"/>
<path opacity="0.4" d="M4.27498 13.4487C3.26458 13.0209 2.35564 12.3504 1.64648 11.5097L2.6459 10.6666C3.22321 11.3508 3.9628 11.8965 4.78484 12.2446L4.27498 13.4487Z" fill="#FF6928"/>
<path opacity="0.3" d="M1.00646 10.6176C0.431535 9.6663 0.0992812 8.61846 0.018918 7.50292L0.0175781 7.48372L1.32179 7.38977L1.32349 7.41389C1.38851 8.31653 1.65845 9.16845 2.12554 9.94116L1.00646 10.6176Z" fill="#FF6928"/>
<path opacity="0.2" d="M1.32997 6.49804L0.0273438 6.38448C0.122609 5.29067 0.482125 4.21929 1.06695 3.28638L2.17487 3.98083C1.69955 4.73912 1.40738 5.60956 1.32997 6.49804Z" fill="#FF6928"/>
</g>
<defs>
<clipPath id="clip0_270_4874">
<rect width="14" height="14" fill="white"/>
</clipPath>
</defs>
</svg>
