<svg width="33" height="32" viewBox="0 0 33 32" fill="none" xmlns="http://www.w3.org/2000/svg">
<path d="M24.1307 32H12.5838C12.0677 32 11.6487 31.5813 11.6463 31.0632L11.6309 27.8103L9.61212 28.0713C8.92023 28.1846 8.22028 27.9866 7.68878 27.5261C7.16071 27.0686 6.86359 26.408 6.87042 25.709L6.67218 21.0396H4.71588C4.07404 21.0396 3.49908 20.7063 3.17828 20.1482C2.85724 19.5901 2.85724 18.9238 3.17828 18.3657C3.18878 18.3479 3.19977 18.3301 3.211 18.313L5.83844 14.3728C6.01251 14.1118 6.30475 13.9551 6.61749 13.9551H28.0572C28.3138 13.9551 28.5591 14.0605 28.7359 14.2471C28.9129 14.4333 29.0059 14.6846 28.9937 14.9417C28.775 19.501 27.7889 21.0366 25.0682 23.9019V31.0588C25.0682 31.5786 24.6485 32 24.1307 32Z" fill="#FFDAD6"/>
<path d="M13.3749 27.6824C12.9503 27.6824 12.5658 27.3909 12.4635 26.958C12.3441 26.4524 12.6554 25.9451 13.1593 25.825L15.6546 25.2305C16.2796 25.0818 16.8055 24.6672 17.0978 24.0935C17.6703 22.9695 18.399 21.4954 18.4064 21.4805C18.6366 21.0149 19.1991 20.8247 19.6629 21.0559C20.1266 21.2871 20.316 21.8518 20.0858 22.3174C20.0785 22.3323 19.3448 23.8164 18.7672 24.9504C18.2245 26.0164 17.2477 26.7859 16.0873 27.0623C16.0873 27.0623 13.4466 27.6824 13.3749 27.6824Z" fill="#FF9C97"/>
<path d="M13.3749 27.6824C12.9503 27.6824 12.5658 27.3909 12.4635 26.958C12.3441 26.4524 12.6554 25.9451 13.1593 25.825L15.6546 25.2305C16.2796 25.0818 16.8055 24.6672 17.0978 24.0935C17.6703 22.9695 18.399 21.4954 18.4064 21.4805C18.6366 21.0149 19.1991 20.8247 19.6629 21.0559C20.1266 21.2871 20.316 21.8518 20.0858 22.3174C20.0785 22.3323 19.3448 23.8164 18.7672 24.9504C18.2245 26.0164 17.2477 26.7859 16.0873 27.0623C16.0873 27.0623 13.4466 27.6824 13.3749 27.6824Z" fill="#FFB5AC"/>
<path d="M17.6107 18.2925C17.4842 18.2925 17.3577 18.2578 17.2462 18.1885C17.0409 18.0613 12.203 15.0325 10.6798 11.4607C10.3673 10.7278 10.2108 10.01 10.2149 9.32739C10.2222 8.07764 10.6417 6.89917 11.3961 6.00928C12.1803 5.08447 13.233 4.57495 14.3599 4.57495C15.6512 4.57495 16.8399 5.26367 17.6107 6.38281C18.3814 5.26367 19.5701 4.57495 20.8614 4.57495C21.8746 4.57495 22.8504 4.99683 23.6087 5.7627C24.505 6.66797 25.0145 7.97021 25.0064 9.33569C25.0025 10.0166 24.8404 10.7324 24.5245 11.4639C22.9827 15.0322 18.1807 18.0603 17.9771 18.1875C17.8648 18.2573 17.7379 18.2925 17.6107 18.2925Z" fill="#FF6568"/>
<path d="M9.64175 5.33963C9.40201 5.33963 9.16202 5.24783 8.97916 5.064L8.38174 4.46463C8.01553 4.0972 8.01529 3.50125 8.38126 3.13333C8.74722 2.76566 9.34097 2.76566 9.70718 3.13309L10.3044 3.73245C10.6706 4.09988 10.6708 4.69583 10.3048 5.06375C10.1217 5.24759 9.88174 5.33963 9.64175 5.33963Z" fill="#5FA2EF"/>
<path d="M25.6689 5.3396C25.429 5.3396 25.189 5.24756 25.0059 5.06372C24.6399 4.69604 24.6399 4.09985 25.0063 3.73242L25.6038 3.13306C25.97 2.76538 26.5635 2.76563 26.9294 3.1333C27.2954 3.50098 27.2954 4.09717 26.9292 4.4646L26.3318 5.06396C26.1487 5.2478 25.9087 5.3396 25.6689 5.3396Z" fill="#5FA2EF"/>
<path d="M6.84277 11.4048H6.12891C5.61133 11.4048 5.19141 10.9834 5.19141 10.4636C5.19141 9.94385 5.61133 9.52246 6.12891 9.52246H6.84277C7.36035 9.52246 7.78027 9.94385 7.78027 10.4636C7.78027 10.9834 7.36035 11.4048 6.84277 11.4048Z" fill="#5FA2EF"/>
<path d="M29.092 11.4048H28.3647C27.8469 11.4048 27.4272 10.9834 27.4272 10.4636C27.4272 9.94385 27.8469 9.52246 28.3647 9.52246H29.092C29.6096 9.52246 30.0295 9.94385 30.0295 10.4636C30.0295 10.9834 29.6096 11.4048 29.092 11.4048Z" fill="#5FA2EF"/>
<path d="M17.6035 2.55688C17.0857 2.55688 16.666 2.1355 16.666 1.61572V0.941162C16.666 0.421387 17.0857 0 17.6035 0C18.1213 0 18.541 0.421387 18.541 0.941162V1.61572C18.541 2.1355 18.1213 2.55688 17.6035 2.55688Z" fill="#5FA2EF"/>
</svg>
