<svg width="32" height="32" viewBox="0 0 32 32" fill="none" xmlns="http://www.w3.org/2000/svg">
<path d="M28.5081 6.3149V27.1588C28.5081 29.2787 26.7867 31.0001 24.6669 31.0001H7.83622C5.71638 31.0001 4 29.2787 4 27.1588V6.3149C4 4.19506 5.71638 2.47363 7.83622 2.47363H24.6669C26.7867 2.47363 28.5081 4.19506 28.5081 6.3149Z" fill="#CFD4DA"/>
<path d="M26.1045 6.31284V27.1565C26.1045 27.9486 25.4576 28.5956 24.6655 28.5956H7.8339C7.04649 28.5956 6.4043 27.9486 6.4043 27.1565V6.31284C6.4043 5.52051 7.04649 4.87854 7.8339 4.87854H24.6655C25.4576 4.87854 26.1045 5.52051 26.1045 6.31284Z" fill="white"/>
<path d="M22.0109 3.78387V4.40346C22.0109 5.01345 21.5191 5.51009 20.9092 5.51009H11.5988C10.9889 5.51009 10.4971 5.01345 10.4971 4.40346V3.78387C10.4971 2.24928 11.7413 1 13.2808 1H19.2271C20.7665 1 22.0109 2.24928 22.0109 3.78387Z" fill="#858E95"/>
<path d="M10.5936 15.779C10.4137 15.779 10.2338 15.7103 10.0965 15.573L8.95403 14.4305C8.67939 14.156 8.67939 13.7108 8.95403 13.4363C9.22866 13.1617 9.67358 13.1617 9.94822 13.4363L10.5936 14.0816L12.1863 12.489C12.4609 12.2146 12.9058 12.2145 13.1805 12.4892C13.4551 12.7637 13.4551 13.2088 13.1805 13.4835L11.0907 15.5731C10.9534 15.7103 10.7735 15.779 10.5936 15.779Z" fill="#FF6928"/>
<path d="M23.0579 14.7344H15.246C14.8577 14.7344 14.543 14.4196 14.543 14.0313C14.543 13.6431 14.8577 13.3282 15.246 13.3282H23.0579C23.4463 13.3282 23.761 13.6431 23.761 14.0313C23.761 14.4196 23.4463 14.7344 23.0579 14.7344Z" fill="#DEE1E6"/>
<path d="M10.5936 20.9714C10.4137 20.9714 10.2338 20.9027 10.0965 20.7654L8.95403 19.6229C8.67939 19.3484 8.67939 18.9032 8.95403 18.6287C9.22866 18.3541 9.67358 18.3541 9.94822 18.6287L10.5936 19.274L12.1863 17.6814C12.4609 17.407 12.9058 17.4069 13.1805 17.6815C13.4551 17.9561 13.4551 18.4012 13.1805 18.6758L11.0907 20.7655C10.9534 20.9027 10.7735 20.9714 10.5936 20.9714Z" fill="#FF6928"/>
<path d="M23.0579 19.9264H15.246C14.8577 19.9264 14.543 19.6116 14.543 19.2233C14.543 18.8351 14.8577 18.5203 15.246 18.5203H23.0579C23.4463 18.5203 23.761 18.8351 23.761 19.2233C23.761 19.6116 23.4463 19.9264 23.0579 19.9264Z" fill="#DEE1E6"/>
<path d="M10.5936 26.1636C10.4137 26.1636 10.2338 26.095 10.0965 25.9576L8.95403 24.8151C8.67939 24.5406 8.67939 24.0955 8.95403 23.821C9.22866 23.5463 9.67358 23.5463 9.94822 23.821L10.5936 24.4662L12.1863 22.8737C12.4609 22.5993 12.9058 22.5992 13.1805 22.8738C13.4551 23.1483 13.4551 23.5935 13.1805 23.8681L11.0907 25.9578C10.9534 26.095 10.7735 26.1636 10.5936 26.1636Z" fill="#FF6928"/>
<path d="M23.0579 25.1189H15.246C14.8577 25.1189 14.543 24.8041 14.543 24.4158C14.543 24.0276 14.8577 23.7128 15.246 23.7128H23.0579C23.4463 23.7128 23.761 24.0276 23.761 24.4158C23.761 24.8041 23.4463 25.1189 23.0579 25.1189Z" fill="#DEE1E6"/>
<path d="M21.197 8.83886C21.197 9.28423 21.0141 9.69207 20.7236 9.98273C20.4282 10.278 20.0252 10.456 19.5798 10.456H13.6835C12.7928 10.456 12.0664 9.73418 12.0664 8.83886C12.0664 8.39371 12.2492 7.98588 12.5398 7.69522C12.8351 7.39998 13.2382 7.22192 13.6835 7.22192H19.5798C20.4705 7.22192 21.197 7.94376 21.197 8.83886Z" fill="#FFD5BA"/>
</svg>
