<svg width="33" height="32" viewBox="0 0 33 32" fill="none" xmlns="http://www.w3.org/2000/svg">
<g clip-path="url(#clip0_270_3969)">
<path d="M32.8258 29.7304L30.3118 15.8797C30.2867 15.7414 30.201 15.6217 30.0781 15.5534L23.7505 12.034C23.6683 11.9882 23.5763 11.97 23.4858 11.977L24.637 26.8276L24.5985 26.8448L32.1712 30.2421C32.2329 30.2697 32.2984 30.2833 32.3635 30.2833C32.4667 30.2833 32.569 30.2494 32.653 30.1836C32.7904 30.0763 32.8569 29.9018 32.8258 29.7304Z" fill="#6EC54E"/>
<path d="M16.8334 15.3985L10.3619 12.0278C10.2843 11.9874 10.1983 11.9709 10.1136 11.9766C10.136 11.9752 10.1586 11.9753 10.181 11.9771L9.02979 26.8276L16.6411 30.2422C16.7026 30.2697 16.7681 30.2834 16.8334 30.2834V15.3985Z" fill="#6EC54E"/>
<path d="M10.181 11.977C10.0906 11.97 9.99851 11.9882 9.91638 12.0339L3.58868 15.5533C3.46581 15.6216 3.38006 15.7413 3.35499 15.8796L0.841051 29.7303C0.809926 29.9017 0.876426 30.0762 1.01374 30.1836C1.09793 30.2494 1.20011 30.2833 1.30324 30.2833C1.36843 30.2833 1.43399 30.2698 1.49555 30.2421L9.02707 26.8633L10.181 11.977Z" fill="#8FDD72"/>
<path d="M23.4859 11.9767C23.4237 11.9815 23.3621 11.9981 23.3051 12.0278L16.8335 15.3984V30.2833H16.8336C16.8989 30.2833 16.9645 30.2697 17.0259 30.2422L24.6372 26.8275L23.4859 11.9767Z" fill="#8FDD72"/>
<path d="M2.59321 20.0771L2.08252 22.8908L9.64466 18.8967L9.82022 16.6317L9.84935 16.2561L2.59321 20.0771Z" fill="#FFE070"/>
<path d="M9.71263 18.0184L9.64457 18.8967L2.08243 22.8908L0.841051 29.7304C0.809926 29.9018 0.876426 30.0763 1.01374 30.1836C1.09793 30.2495 1.20011 30.2834 1.30324 30.2834C1.36843 30.2834 1.43399 30.2698 1.49555 30.2422L9.02707 26.8634L9.71263 18.0184Z" fill="#8ED9EE"/>
<path d="M16.8354 17.255L9.84922 16.2561L9.64453 18.8967L16.8335 29.8141V25.8442L12.5437 19.0894L16.8354 19.6027V17.255Z" fill="#F0B634"/>
<path d="M29.5799 15.2764L26.5402 13.5857L23.6626 14.2581L23.6986 14.7228L23.8407 16.5562L29.5799 15.2764Z" fill="#F0B634"/>
<path d="M24.0962 19.8486L23.8237 16.333L23.6629 14.2581L16.8354 17.2551V19.6027L21.2952 17.6633L24.0962 19.8486Z" fill="#FFE070"/>
<path d="M32.8258 29.7304L32.1944 26.2512L23.8408 16.5562L24.0961 19.8485L32.663 30.1749C32.7932 30.0669 32.8562 29.8974 32.8258 29.7304Z" fill="#F0B634"/>
<path d="M16.8635 1.71655C13.2408 1.71655 10.2935 4.66143 10.2935 8.28119C10.2935 10.5203 11.3565 12.9243 13.4532 15.4263C14.9932 17.264 16.5122 18.446 16.5761 18.4954C16.6607 18.5608 16.7621 18.5935 16.8635 18.5935C16.9649 18.5935 17.0663 18.5608 17.151 18.4954C17.2148 18.446 18.7339 17.264 20.2739 15.4263C22.3705 12.9243 23.4336 10.5204 23.4336 8.28119C23.4335 4.66143 20.4862 1.71655 16.8635 1.71655ZM19.2966 8.28113C19.2966 9.62376 18.2072 10.7123 16.8635 10.7123C15.5197 10.7123 14.4303 9.62382 14.4303 8.28113C14.4303 6.93844 15.5197 5.85 16.8635 5.85C18.2072 5.85 19.2966 6.9385 19.2966 8.28113Z" fill="#FF6568"/>
<path d="M19.2966 8.28113C19.2966 9.62376 18.2072 10.7123 16.8635 10.7123C15.5197 10.7123 14.4303 9.62382 14.4303 8.28113C14.4303 6.93844 15.5197 5.85 16.8635 5.85C18.2072 5.85 19.2966 6.9385 19.2966 8.28113Z" fill="white"/>
<path d="M17.0259 30.2422L19.8562 28.9724L16.8335 25.8442V30.2834H16.8336C16.8989 30.2834 16.9644 30.2698 17.0259 30.2422Z" fill="#FFE070"/>
<path d="M30.3118 15.8796C30.2868 15.7414 30.201 15.6216 30.0781 15.5533L29.58 15.2762L23.8408 16.5561L32.1943 26.2511L30.3118 15.8796Z" fill="#5EB3DF"/>
<path d="M16.8335 30.2833C16.8335 30.2833 16.8335 30.2833 16.8335 30.2833V29.8141L9.6446 18.8966L9.02979 26.8276L16.6411 30.2422C16.7025 30.2698 16.7681 30.2833 16.8335 30.2833Z" fill="#5EB3DF"/>
</g>
<defs>
<clipPath id="clip0_270_3969">
<rect width="32" height="32" fill="white" transform="translate(0.833496)"/>
</clipPath>
</defs>
</svg>
