<svg width="111" height="111" viewBox="0 0 111 111" fill="none" xmlns="http://www.w3.org/2000/svg">
<g clip-path="url(#clip0_138_2499)">
<path d="M73.6253 35.7629C93.7106 35.4561 110.104 51.2645 110.493 71.3482C110.55 74.297 110.255 77.1671 109.648 79.9201C108.62 84.5815 108.009 89.325 108.009 94.0986V103.326C108.009 104.739 106.863 105.885 105.449 105.885H96.2219C91.4483 105.885 86.7048 106.497 82.0433 107.525C79.2905 108.132 76.4205 108.427 73.4717 108.37C53.3882 107.981 37.5798 91.588 37.8862 71.5031C38.185 51.8987 54.0211 36.0624 73.6253 35.7629Z" fill="url(#paint0_linear_138_2499)"/>
<path d="M73.6253 35.7629C93.7106 35.4561 110.104 51.2645 110.493 71.3482C110.55 74.297 110.255 77.1671 109.648 79.9201C108.62 84.5815 108.009 89.325 108.009 94.0986V103.326C108.009 104.739 106.863 105.885 105.449 105.885H96.2219C91.4483 105.885 86.7048 106.497 82.0433 107.525C79.2905 108.132 76.4205 108.427 73.4717 108.37C53.3882 107.981 37.5798 91.588 37.8862 71.5031C38.185 51.8987 54.0211 36.0624 73.6253 35.7629Z" fill="url(#paint1_linear_138_2499)"/>
<path d="M45.4233 2.62889C20.954 2.25506 0.982339 21.5138 0.508395 45.9815C0.439001 49.5734 0.798004 53.0704 1.53792 56.4242C2.79046 62.1029 3.53511 67.882 3.53511 73.6976V84.9386C3.53511 86.6608 4.93116 88.057 6.65356 88.057H17.8946C23.71 88.057 29.489 88.8017 35.168 90.0542C38.5217 90.7939 42.0185 91.1532 45.6105 91.0835C70.0777 90.6098 89.3364 70.6388 88.9635 46.1699C88.5991 22.2864 69.3066 2.99348 45.4233 2.62889Z" fill="url(#paint2_linear_138_2499)"/>
<path d="M28.9008 44.4868C27.6512 43.1591 25.8826 42.3253 23.9151 42.3253C20.1311 42.3253 17.0635 45.3928 17.0635 49.1768C17.0635 51.1441 17.8971 52.9127 19.2251 54.1625L34.005 68.9424C35.2548 70.2701 37.0233 71.104 38.9907 71.104C42.7747 71.104 45.8422 68.0364 45.8422 64.2524C45.8422 62.2851 45.0084 60.5165 43.6807 59.2667L28.9008 44.4868Z" fill="url(#paint3_linear_138_2499)"/>
<path d="M23.9149 56.0275C27.6989 56.0275 30.7665 52.96 30.7665 49.176C30.7665 45.392 27.6989 42.3244 23.9149 42.3244C20.1309 42.3244 17.0634 45.392 17.0634 49.176C17.0634 52.96 20.1309 56.0275 23.9149 56.0275Z" fill="white"/>
<path d="M48.2775 44.4868C47.028 43.1591 45.2594 42.3253 43.2919 42.3253C39.5078 42.3253 36.4403 45.3928 36.4403 49.1768C36.4403 51.1441 37.2739 52.9127 38.6018 54.1625L53.3818 68.9424C54.6315 70.2701 56.4001 71.104 58.3674 71.104C62.1515 71.104 65.219 68.0364 65.219 64.2524C65.219 62.2851 64.3852 60.5165 63.0575 59.2667L48.2775 44.4868Z" fill="url(#paint4_linear_138_2499)"/>
<path d="M43.2921 56.0275C47.0761 56.0275 50.1436 52.96 50.1436 49.176C50.1436 45.392 47.0761 42.3244 43.2921 42.3244C39.508 42.3244 36.4405 45.392 36.4405 49.176C36.4405 52.96 39.508 56.0275 43.2921 56.0275Z" fill="white"/>
<path d="M67.654 44.4868C66.4045 43.1591 64.6359 42.3253 62.6683 42.3253C58.8843 42.3253 55.8168 45.3928 55.8168 49.1768C55.8168 51.1441 56.6506 52.9127 57.9783 54.1625L72.7582 68.9424C74.008 70.2701 75.7766 71.104 77.7439 71.104C81.5279 71.104 84.5955 68.0364 84.5955 64.2524C84.5955 62.2851 83.7617 60.5165 82.4339 59.2667L67.654 44.4868Z" fill="url(#paint5_linear_138_2499)"/>
<path d="M62.6694 56.0275C66.4535 56.0275 69.521 52.96 69.521 49.176C69.521 45.392 66.4535 42.3244 62.6694 42.3244C58.8854 42.3244 55.8179 45.392 55.8179 49.176C55.8179 52.96 58.8854 56.0275 62.6694 56.0275Z" fill="white"/>
</g>
<defs>
<linearGradient id="paint0_linear_138_2499" x1="66.8613" y1="64.7404" x2="120.169" y2="118.048" gradientUnits="userSpaceOnUse">
<stop stop-color="#BFEAFF"/>
<stop offset="1" stop-color="#56C5FF"/>
</linearGradient>
<linearGradient id="paint1_linear_138_2499" x1="84.3115" y1="82.1896" x2="61.6693" y2="59.5495" gradientUnits="userSpaceOnUse">
<stop stop-color="#36BAFF" stop-opacity="0"/>
<stop offset="1" stop-color="#BFEAFF"/>
</linearGradient>
<linearGradient id="paint2_linear_138_2499" x1="28.5734" y1="39.7065" x2="84.8554" y2="95.9885" gradientUnits="userSpaceOnUse">
<stop stop-color="#FF8652"/>
<stop offset="1" stop-color="#FF6928"/>
</linearGradient>
<linearGradient id="paint3_linear_138_2499" x1="39.1565" y1="64.4196" x2="9.52318" y2="34.7872" gradientUnits="userSpaceOnUse">
<stop stop-color="#ED4E0A" stop-opacity="0"/>
<stop offset="1" stop-color="#CB3D00"/>
</linearGradient>
<linearGradient id="paint4_linear_138_2499" x1="58.5319" y1="64.4189" x2="28.8995" y2="34.7864" gradientUnits="userSpaceOnUse">
<stop stop-color="#ED4E0A" stop-opacity="0"/>
<stop offset="1" stop-color="#CB3D00"/>
</linearGradient>
<linearGradient id="paint5_linear_138_2499" x1="77.9084" y1="64.4192" x2="48.2759" y2="34.7868" gradientUnits="userSpaceOnUse">
<stop stop-color="#FF8652" stop-opacity="0"/>
<stop offset="1" stop-color="#CB3D00"/>
</linearGradient>
<clipPath id="clip0_138_2499">
<rect width="110" height="110" fill="white" transform="translate(0.5 0.5)"/>
</clipPath>
</defs>
</svg>
