<svg width="14" height="14" viewBox="0 0 14 14" fill="none" xmlns="http://www.w3.org/2000/svg">
<path d="M9.9165 1.16663H4.08317C2.47317 1.16663 1.1665 2.46746 1.1665 4.07163V7.55996V8.14329C1.1665 9.74746 2.47317 11.0483 4.08317 11.0483H4.95817C5.11567 11.0483 5.32567 11.1533 5.42484 11.2816L6.29984 12.4425C6.68484 12.9558 7.31484 12.9558 7.69984 12.4425L8.57484 11.2816C8.68567 11.1358 8.86067 11.0483 9.0415 11.0483H9.9165C11.5265 11.0483 12.8332 9.74746 12.8332 8.14329V4.07163C12.8332 2.46746 11.5265 1.16663 9.9165 1.16663ZM4.6665 6.99996C4.33984 6.99996 4.08317 6.73746 4.08317 6.41663C4.08317 6.09579 4.34567 5.83329 4.6665 5.83329C4.98734 5.83329 5.24984 6.09579 5.24984 6.41663C5.24984 6.73746 4.99317 6.99996 4.6665 6.99996ZM6.99984 6.99996C6.67317 6.99996 6.4165 6.73746 6.4165 6.41663C6.4165 6.09579 6.679 5.83329 6.99984 5.83329C7.32067 5.83329 7.58317 6.09579 7.58317 6.41663C7.58317 6.73746 7.3265 6.99996 6.99984 6.99996ZM9.33317 6.99996C9.0065 6.99996 8.74984 6.73746 8.74984 6.41663C8.74984 6.09579 9.01234 5.83329 9.33317 5.83329C9.654 5.83329 9.9165 6.09579 9.9165 6.41663C9.9165 6.73746 9.65984 6.99996 9.33317 6.99996Z" fill="#495056"/>
</svg>
