<svg width="40" height="40" viewBox="0 0 40 40" fill="none" xmlns="http://www.w3.org/2000/svg">
<g clip-path="url(#clip0_270_5772)">
<rect width="40" height="40" rx="12" fill="#F3F5F8"/>
<g clip-path="url(#clip1_270_5772)">
<path fill-rule="evenodd" clip-rule="evenodd" d="M22 21C22 24.3137 19.3137 27 16 27C12.6863 27 10 24.3137 10 21C10 17.6863 12.6863 15 16 15C19.3137 15 22 17.6863 22 21ZM16 28.9999C10.4772 28.9999 6 33.4771 6 38.9999C6 39.5521 6.44772 39.9999 7 39.9999H25C25.5523 39.9999 26 39.5521 26 38.9999C26 33.4771 21.5228 28.9999 16 28.9999ZM33.0002 39.9999H28.3552C28.4496 39.6831 28.5002 39.3473 28.5002 38.9999C28.5002 34.9177 26.5434 31.2927 23.5166 29.0114C23.6769 29.0038 23.8381 28.9999 24.0002 28.9999C29.523 28.9999 34.0002 33.4771 34.0002 38.9999C34.0002 39.5521 33.5524 39.9999 33.0002 39.9999ZM24.0002 27C23.3967 27 22.8141 26.9109 22.2647 26.7452C23.6528 25.2323 24.5002 23.2151 24.5002 21C24.5002 18.7849 23.6528 16.7677 22.2646 15.2548C22.8141 15.0891 23.3967 15 24.0002 15C27.3138 15 30.0002 17.6863 30.0002 21C30.0002 24.3137 27.3138 27 24.0002 27Z" fill="#CFD4DA"/>
</g>
</g>
<defs>
<clipPath id="clip0_270_5772">
<rect width="40" height="40" rx="12" fill="white"/>
</clipPath>
<clipPath id="clip1_270_5772">
<rect width="28" height="28" fill="white" transform="translate(6 12)"/>
</clipPath>
</defs>
</svg>
