<svg width="16" height="16" viewBox="0 0 16 16" fill="none" xmlns="http://www.w3.org/2000/svg">
<path d="M12.7996 9.12378C13.6445 9.75504 14.3996 11.3444 14.3996 12.3237C14.3996 12.6288 14.177 12.8762 13.9024 12.8762H13.5996M10.3996 6.53629C10.9462 6.22012 11.3139 5.62918 11.3139 4.95235C11.3139 4.27552 10.9462 3.68458 10.3996 3.36841M2.09679 12.8762H10.8548C11.1294 12.8762 11.352 12.6288 11.352 12.3237C11.352 10.406 9.74981 8.85137 6.4758 8.85137C3.20179 8.85137 1.59961 10.406 1.59961 12.3237C1.59961 12.6288 1.8222 12.8762 2.09679 12.8762ZM8.30437 4.95235C8.30437 5.96224 7.48569 6.78092 6.4758 6.78092C5.46591 6.78092 4.64723 5.96224 4.64723 4.95235C4.64723 3.94246 5.46591 3.12378 6.4758 3.12378C7.48569 3.12378 8.30437 3.94246 8.30437 4.95235Z" stroke="#FF6928" stroke-width="1.5" stroke-linecap="round"/>
</svg>
