<svg width="14" height="15" viewBox="0 0 14 15" fill="none" xmlns="http://www.w3.org/2000/svg">
<path d="M6.35 13.55H2.34999C1.46634 13.55 0.749994 12.8336 0.75 11.95L0.750062 2.34999C0.750068 1.46634 1.46641 0.75 2.35006 0.75H9.55024C10.4339 0.75 11.1502 1.46634 11.1502 2.35V5.55M11.95 12.35L12.75 13.15M3.55025 3.95H8.35025M3.55025 6.35H8.35025M3.55025 8.75H5.95025M12.35 10.75C12.35 11.8546 11.4546 12.75 10.35 12.75C9.24543 12.75 8.35 11.8546 8.35 10.75C8.35 9.64543 9.24543 8.75 10.35 8.75C11.4546 8.75 12.35 9.64543 12.35 10.75Z" stroke="#22252A" stroke-width="1.5" stroke-linecap="round" stroke-linejoin="round"/>
</svg>
