<svg width="10" height="10" viewBox="0 0 10 10" fill="none" xmlns="http://www.w3.org/2000/svg">
<g clip-path="url(#clip0_138_2553)">
<path d="M8.95941 6.22046C8.90912 6.02889 8.79849 5.88468 8.62731 5.78795L7.14292 4.9286L8.62731 4.0692C8.79849 3.97247 8.90918 3.82836 8.95941 3.63673C9.00957 3.44512 8.98637 3.26376 8.8896 3.09265L8.53247 2.47883C8.43576 2.30767 8.29169 2.197 8.09998 2.14677C7.90839 2.09663 7.7272 2.11987 7.55596 2.21667L6.07157 3.07037V1.35718C6.07157 1.16369 6.0008 0.996281 5.8594 0.854906C5.71806 0.713531 5.55062 0.642853 5.35719 0.642853H4.64298C4.44948 0.642853 4.28209 0.713589 4.14071 0.854906C3.99936 0.996261 3.92864 1.16369 3.92864 1.35718V3.07037L2.44423 2.21661C2.27307 2.11982 2.0917 2.0965 1.90013 2.14671C1.70852 2.197 1.56435 2.30761 1.46762 2.47878L1.1105 3.09261C1.01371 3.26372 0.990486 3.44508 1.0407 3.63669C1.09101 3.82826 1.2016 3.97245 1.37276 4.06916L2.85718 4.92863L1.37276 5.78799C1.2016 5.88472 1.09093 6.02885 1.0407 6.2205C0.990506 6.41207 1.01379 6.59334 1.1105 6.76444L1.46764 7.37834C1.56433 7.54958 1.70845 7.66021 1.90011 7.71052C2.09176 7.76059 2.27305 7.73739 2.44421 7.64054L3.92862 6.78676V8.50005C3.92862 8.69338 3.99932 8.86099 4.14069 9.00227C4.28207 9.14366 4.44952 9.2143 4.64296 9.2143H5.35717C5.5506 9.2143 5.7181 9.14368 5.85936 9.00227C6.00083 8.86097 6.07153 8.69336 6.07153 8.50005V6.7869L7.55592 7.64068C7.72716 7.73739 7.90835 7.76075 8.09994 7.71052C8.29157 7.66021 8.43572 7.54966 8.53243 7.37842L8.88956 6.76458C8.98637 6.59336 9.00959 6.41203 8.95941 6.22046Z" fill="#FF6928"/>
</g>
<defs>
<clipPath id="clip0_138_2553">
<rect width="8.57143" height="8.57143" fill="white" transform="translate(0.714294 0.642853)"/>
</clipPath>
</defs>
</svg>
