<svg width="14" height="14" viewBox="0 0 14 14" fill="none" xmlns="http://www.w3.org/2000/svg">
<path d="M9.33333 1.16663H4.66667C2.625 1.16663 1.75 2.33329 1.75 4.08329V9.91663C1.75 11.6666 2.625 12.8333 4.66667 12.8333H9.33333C11.375 12.8333 12.25 11.6666 12.25 9.91663V4.08329C12.25 2.33329 11.375 1.16663 9.33333 1.16663ZM4.66667 7.14579H7C7.23917 7.14579 7.4375 7.34413 7.4375 7.58329C7.4375 7.82246 7.23917 8.02079 7 8.02079H4.66667C4.4275 8.02079 4.22917 7.82246 4.22917 7.58329C4.22917 7.34413 4.4275 7.14579 4.66667 7.14579ZM9.33333 10.3541H4.66667C4.4275 10.3541 4.22917 10.1558 4.22917 9.91663C4.22917 9.67746 4.4275 9.47913 4.66667 9.47913H9.33333C9.5725 9.47913 9.77083 9.67746 9.77083 9.91663C9.77083 10.1558 9.5725 10.3541 9.33333 10.3541ZM10.7917 5.39579H9.625C8.73833 5.39579 8.02083 4.67829 8.02083 3.79163V2.62496C8.02083 2.38579 8.21917 2.18746 8.45833 2.18746C8.6975 2.18746 8.89583 2.38579 8.89583 2.62496V3.79163C8.89583 4.19413 9.2225 4.52079 9.625 4.52079H10.7917C11.0308 4.52079 11.2292 4.71913 11.2292 4.95829C11.2292 5.19746 11.0308 5.39579 10.7917 5.39579Z" fill="#858E95"/>
</svg>
