<svg width="28" height="28" viewBox="0 0 28 28" fill="none" xmlns="http://www.w3.org/2000/svg">
<g clip-path="url(#clip0_270_4194)">
<path d="M1.23926 5.76514L5.764 1.2404L9.86216 5.33856L5.33742 9.8633L1.23926 5.76514Z" fill="#ED4E0A"/>
<path d="M6.22848 11.4748C5.53789 12.1654 4.41816 12.1654 3.72751 11.4748L1.50282 9.25012C0.467809 8.21511 0.467809 6.53702 1.50282 5.50201L2.12971 4.87512L6.22848 8.9739C6.91913 9.66443 6.91913 10.7842 6.22848 11.4748Z" fill="#FF6928"/>
<path d="M5.76318 26.7627L1.23844 22.238L5.3366 18.1398L9.86134 22.6645L5.76318 26.7627Z" fill="#FF8652"/>
<path d="M11.4747 21.7715C12.1653 22.4621 12.1653 23.5818 11.4747 24.2725L9.25 26.4971C8.21498 27.5322 6.5369 27.5322 5.50188 26.4971L4.875 25.8703L8.97377 21.7715C9.66437 21.0809 10.7841 21.0809 11.4747 21.7715Z" fill="#FFA781"/>
<path d="M22.2329 1.2373L26.7576 5.76204L22.6595 9.8602L18.1348 5.33546L22.2329 1.2373Z" fill="#FF8652"/>
<path d="M16.5253 6.22848C15.8347 5.53789 15.8347 4.41816 16.5253 3.72751L18.75 1.50282C19.785 0.467809 21.4631 0.467809 22.4981 1.50282L23.125 2.12971L19.0262 6.22848C18.3356 6.91907 17.2159 6.91907 16.5253 6.22848Z" fill="#FFA781"/>
<path d="M26.7646 22.235L22.2399 26.7597L18.1417 22.6616L22.6665 18.1368L26.7646 22.235Z" fill="#ED4E0A"/>
<path d="M21.7714 16.5253C22.462 15.8347 23.5817 15.8347 24.2724 16.5253L26.4971 18.75C27.5321 19.785 27.5321 21.4631 26.4971 22.4981L25.8702 23.125L21.7714 19.0262C21.0808 18.3356 21.0808 17.2159 21.7714 16.5253Z" fill="#FF6928"/>
<path d="M12.9612 1.13586L1.13586 12.9612C0.562135 13.5349 0.562135 14.4651 1.13586 15.0388L12.9612 26.8642C13.5349 27.4379 14.4652 27.4379 15.0389 26.8642L26.8643 15.0388C27.438 14.4651 27.438 13.5349 26.8643 12.9612L15.0389 1.13586C14.4652 0.562135 13.5349 0.562135 12.9612 1.13586Z" fill="#762300"/>
<path d="M14.1807 11.7982L17.593 15.2105L13.0366 19.7669L9.62426 16.3546L14.1807 11.7982Z" fill="#FFD5BA"/>
<path d="M9.91797 12.6752L13.3303 16.0875L8.77386 20.6439L5.36156 17.2316L9.91797 12.6752Z" fill="#FFF1EA"/>
<path d="M15.7421 20.9882C15.0515 21.6788 15.0515 22.7985 15.7421 23.4891L18.7502 26.4972C19.7852 27.5322 21.4633 27.5322 22.4983 26.4972L23.1252 25.8703L18.243 20.9882C17.5524 20.2976 16.4327 20.2976 15.7421 20.9882Z" fill="#FF6928"/>
<path d="M22.046 26.9784C20.6839 25.6163 20.6839 23.4082 22.046 22.0461C23.4081 20.684 25.6162 20.684 26.9783 22.0461C27.0311 22.0989 27.0823 22.1532 27.1303 22.2085C26.6667 22.9363 27.1306 25.2338 26.1821 26.1823C25.2343 27.1302 22.9652 26.5508 22.2079 27.1299C22.1525 27.0818 22.0987 27.0312 22.046 26.9784Z" fill="#FFD5BA"/>
<path d="M22.208 27.1299C22.2639 25.8885 22.7669 24.6627 23.7148 23.7148C24.6632 22.7664 25.8884 22.264 27.1304 22.2086C28.3384 23.5785 28.2878 25.6692 26.9785 26.9785C25.6691 28.2878 23.5774 28.3385 22.208 27.1299Z" fill="#CB3D00"/>
<path d="M20.9882 12.2582C21.6788 12.9488 22.7985 12.9488 23.4892 12.2582L26.4973 9.25012C27.5323 8.21511 27.5323 6.53702 26.4973 5.50201L25.8704 4.87512L20.9882 9.75729C20.2976 10.4479 20.2976 11.5676 20.9882 12.2582Z" fill="#FFA781"/>
<path d="M26.9783 5.95393C25.6162 7.31603 23.408 7.31603 22.046 5.95393C20.6839 4.59182 20.6839 2.38371 22.046 1.02161C22.0987 0.968832 22.153 0.917645 22.2084 0.869629C22.9361 1.33321 25.2337 0.869301 26.1821 1.81775C27.13 2.76564 26.5506 5.03468 27.1298 5.792C27.0817 5.84734 27.0311 5.90115 26.9783 5.95393Z" fill="#FFD5BA"/>
<path d="M27.1298 5.79196C25.8884 5.73607 24.6626 5.23311 23.7147 4.28521C22.7663 3.33676 22.2638 2.11154 22.2085 0.869536C23.5784 -0.338456 25.6691 -0.287816 26.9784 1.02151C28.2877 2.33084 28.3383 4.42258 27.1298 5.79196Z" fill="#A33100"/>
<path d="M7.01188 15.7418C6.32128 15.0512 5.20156 15.0512 4.51091 15.7418L1.50282 18.75C0.467809 19.785 0.467809 21.4631 1.50282 22.4981L2.12971 23.125L7.01188 18.2428C7.70253 17.5521 7.70253 16.4325 7.01188 15.7418Z" fill="#FFA781"/>
<path d="M1.0216 22.0461C2.3837 20.684 4.59187 20.684 5.95392 22.0461C7.31602 23.4082 7.31602 25.6163 5.95392 26.9784C5.90115 27.0312 5.84684 27.0824 5.7915 27.1304C5.06377 26.6668 2.76619 27.1307 1.81774 26.1823C0.869844 25.2344 1.44926 22.9654 0.870117 22.208C0.918187 22.1527 0.968828 22.0989 1.0216 22.0461Z" fill="#FFD5BA"/>
<path d="M0.869965 22.208C2.11143 22.2639 3.33719 22.7669 4.28509 23.7148C5.23354 24.6632 5.73595 25.8884 5.79129 27.1304C4.42137 28.3384 2.33072 28.2878 1.02139 26.9785C-0.287879 25.6691 -0.33852 23.5774 0.869965 22.208Z" fill="#A33100"/>
<path d="M12.2581 7.01188C12.9487 6.32129 12.9487 5.20156 12.2581 4.51091L9.25 1.50282C8.21498 0.467809 6.5369 0.467809 5.50188 1.50282L4.875 2.12971L9.75717 7.01188C10.4478 7.70247 11.5675 7.70247 12.2581 7.01188Z" fill="#FF6928"/>
<path d="M5.95393 1.0216C7.31603 2.3837 7.31603 4.59187 5.95393 5.95392C4.59182 7.31597 2.38371 7.31602 1.02161 5.95392C0.968832 5.90115 0.917645 5.84684 0.869629 5.7915C1.33321 5.06377 0.869301 2.76619 1.81775 1.81774C2.76564 0.869844 5.03468 1.44926 5.792 0.870117C5.84739 0.918187 5.90121 0.968883 5.95393 1.0216Z" fill="#FFD5BA"/>
<path d="M5.79198 0.870128C5.73609 2.11159 5.23313 3.33735 4.28523 4.28525C3.33678 5.2337 2.11156 5.73611 0.869557 5.79146C-0.33849 4.42159 -0.287794 2.33094 1.02153 1.02156C2.33086 -0.287771 4.42255 -0.338411 5.79198 0.870128Z" fill="#762300"/>
</g>
<defs>
<clipPath id="clip0_270_4194">
<rect width="28" height="28" fill="white"/>
</clipPath>
</defs>
</svg>
