<svg width="20" height="21" viewBox="0 0 20 21" fill="none" xmlns="http://www.w3.org/2000/svg">
<path d="M16.2503 10.9163C16.2503 9.76634 17.1837 8.83301 18.3337 8.83301V7.99967C18.3337 4.66634 17.5003 3.83301 14.167 3.83301H5.83366C2.50033 3.83301 1.66699 4.66634 1.66699 7.99967V8.41634C2.81699 8.41634 3.75033 9.34967 3.75033 10.4997C3.75033 11.6497 2.81699 12.583 1.66699 12.583V12.9997C1.66699 16.333 2.50033 17.1663 5.83366 17.1663H14.167C17.5003 17.1663 18.3337 16.333 18.3337 12.9997C17.1837 12.9997 16.2503 12.0663 16.2503 10.9163Z" stroke="#22252A" stroke-width="1.5" stroke-linecap="round" stroke-linejoin="round"/>
<path d="M7.5 12.792L12.5 7.79199" stroke="#22252A" stroke-width="1.5" stroke-linecap="round" stroke-linejoin="round"/>
<path d="M7.5 7.79199L12.5 12.792" stroke="#22252A" stroke-width="1.5" stroke-linecap="round" stroke-linejoin="round"/>
</svg>
